<svg  viewBox="0 0 24 24" fill="none" xmlns="http://www.w3.org/2000/svg">
  <g clip-path="url(#a)">
    <path fill-rule="evenodd" clip-rule="evenodd"
      d="m12.8 23.8-.4.2c-2 0-4-.4-5.7-1.2l-.4-.1-4.8.5a.7.7 0 0 1-.7-.7l.5-4.8v-.4A12 12 0 0 1 0 12c0-.2 0-.3.2-.4l.4-.6a8.9 8.9 0 1 1 12.2 13ZM7 15.1a1.9 1.9 0 1 1-2.7-2.7A1.9 1.9 0 0 1 7 15.1Zm2 4.7a1.9 1.9 0 1 0 2.7-2.6 1.9 1.9 0 0 0-2.6 2.6Z"
      fill="url(#b)" />
    <path
      d="M17.4 22.7c-.5.3-1-.4-.8-1 1.6-3.5 1.3-7.7-1.1-10.8a.7.7 0 0 1 0-1l1.1-1c.2-.2.4-.3.7-.2a2 2 0 1 0-1.8-1.8c0 .3 0 .5-.2.7l-1 1c-.3.3-.7.3-1 0a10.7 10.7 0 0 0-11-1c-.7.3-1.4-.2-1.1-.8a12 12 0 1 1 16.2 15.9Z"
      fill="url(#c)" />
  </g>
  <defs>
    <linearGradient id="b" x1="-5.2" y1="29.7" x2="28.9" y2="-4.4" gradientUnits="userSpaceOnUse">
      <stop stop-color="#1F84FC" />
      <stop offset="1" stop-color="#621BF8" />
    </linearGradient>
    <linearGradient id="c" x1="-5.2" y1="29.7" x2="28.9" y2="-4.4" gradientUnits="userSpaceOnUse">
      <stop stop-color="#1F84FC" />
      <stop offset="1" stop-color="#621BF8" />
    </linearGradient>
    <clipPath id="a">
      <path fill="#fff" d="M0 0H24V24H0z" />
    </clipPath>
  </defs>
</svg>