<svg xmlns="http://www.w3.org/2000/svg" viewBox="0 0 24 24"><path fill="currentColor" fill-rule="evenodd" d="M12 24a12 12 0 1 0 0-24 12 12 0 0 0 0 24Zm.02-9.88-.17-.4a20.94 20.94 0 0 0-.1.18 3.64 3.64 0 0 1-6.66-1.12 3.62 3.62 0 0 1 5.6-3.74 4.04 4.04 0 0 1 1.41 1.86c.59 1.37 1.2 2.74 1.82 4.1.25.56.62 1.06 1.14 1.4.99.66 2.06.7 3.16.4a2.9 2.9 0 0 0 1.82-1.42 2.62 2.62 0 0 0-1.16-3.73c-.34-.17-.7-.3-1.06-.42l-.42-.13c-.36-.11-.73-.22-1.06-.4-.53-.27-.76-.68-.69-1.21.07-.56.44-.97 1-1.08.65-.14 1.2.05 1.6.58.12.13.2.15.34.06.2-.12.42-.23.63-.32.2-.1.2-.19.1-.36-.9-1.38-2.47-1.4-3.52-.98-.91.37-1.36 1.1-1.44 2.05-.08.92.23 1.67 1.02 2.2.33.22.69.4 1.05.55l.81.3c.35.1.7.22 1.03.38.73.34.97 1.06.62 1.8-.12.25-.3.45-.52.6a2.19 2.19 0 0 1-3.17-.7l-.23-.46a432.36 432.36 0 0 1-1.73-3.98A4.82 4.82 0 0 0 9.36 7.1a5 5 0 0 0-5.55 6.16 4.97 4.97 0 0 0 8.59 2.04c.05-.04.1-.09.05-.19-.15-.32-.28-.65-.43-1Z" clip-rule="evenodd"/></svg>
