<svg version="1.0" xmlns="http://www.w3.org/2000/svg"
 width="36.000000pt" height="36.000000pt" viewBox="0 0 36.000000 36.000000"
 preserveAspectRatio="xMidYMid meet">
<g transform="translate(0.000000,36.000000) scale(0.100000,-0.100000)"
fill="#ffffff" stroke="none">
<path d="M122 346 c-55 -19 -98 -68 -112 -124 -41 -173 166 -290 294 -166 95
92 51 260 -78 293 -54 13 -61 13 -104 -3z m108 -76 c11 -11 20 -33 20 -48 0
-16 -9 -38 -20 -50 -26 -27 -25 -32 3 -32 29 0 47 -18 47 -47 0 -28 -26 -31
-33 -4 -9 35 -125 35 -134 0 -7 -27 -33 -24 -33 4 0 29 18 47 47 47 28 0 29 5
3 32 -24 26 -26 65 -4 96 20 29 76 30 104 2z"/>
<path d="M150 245 c-14 -17 -5 -51 16 -59 22 -8 54 11 54 32 0 38 -46 56 -70
27z"/>
</g>
</svg>
