<svg xmlns="http://www.w3.org/2000/svg" xml:space="preserve" viewBox="0 0 16.933 16.933"><g fill="none" stroke-width="0.6"><path d="M7.673 4.497V3.97c0-.59.466-1.053 1.058-1.053h5.017a.802.802 0 0 0 .804-.801M4.244 9.28h-.931M1.598 7.164h1.058m.53 0h1.058m.529 0h1.058m.529 0h1.06m1.057 0h1.059m.529 0h1.587m.529 0h2.117M3.715 8.223h1.058m.529 0h1.059m.529 0h1.058m.529 0h1.059m.529 0h.804m-9.271 0h1.588m-.53 1.057H1.598m7.938-.02H4.773M1.598 5.577h.53m1.058 0h.529m.529 0h.53m.528 0h.53m1.058 0h.529m.529 0h.53m.528 0h1.059m1.058 0h1.058m.529 0h.53m.529 0h.529"/><g stroke-linejoin="round"><path d="M9.536 10.847H1.323a.538.538 0 0 1-.53-.529V5.026c0-.275.255-.529.53-.529h13.229c.296 0 .53.254.53.53v2.92"/><path d="M16.14 11.122a2.89 2.89 0 0 1-2.9 2.9c-1.609 0-2.921-1.291-2.921-2.9a2.927 2.927 0 0 1 2.92-2.92c1.61 0 2.9 1.312 2.9 2.92z"/><path d="m12.965 11.905.529-.507v-1.334"/></g></g></svg>
