<svg xmlns="http://www.w3.org/2000/svg" version="1.1" xmlns:xlink="http://www.w3.org/1999/xlink"
		 width="512" height="512" x="0" y="0" viewBox="0 0 16.933 16.933"
		 xml:space="preserve" class=""><g><g fill="none" stroke-width=".529"><path stroke-linejoin="round" d="M7.673 4.497V3.97c0-.59.466-1.053 1.058-1.053h5.017a.802.802 0 0 0 .804-.801" fill="" opacity="1"></path><path
	d="M4.244 9.28h-.931M1.598 7.164h1.058M3.186 7.164h1.058M4.773 7.164h1.058M6.36 7.164H7.42M8.477 7.164h1.059M10.065 7.164h1.587M12.181 7.164h2.117M3.715 8.223h1.058M5.302 8.223h1.059M6.89 8.223h1.058M8.477 8.223h1.059M10.065 8.223h.804M1.598 8.223h1.588M2.656 9.28H1.598M9.536 9.26H4.773M1.598 5.577h.53M3.186 5.577h.529M4.244 5.577h.53M5.302 5.577h.53M6.89 5.577h.529M7.948 5.577h.53M9.006 5.577h1.059M11.123 5.577h1.058M12.71 5.577h.53M13.769 5.577h.529"
 opacity="1"></path><g stroke-linejoin="round"><path d="M9.536 10.847H1.323a.538.538 0 0 1-.53-.529V5.026c0-.275.255-.529.53-.529h13.229c.296 0 .53.254.53.53v2.92" fill="" opacity="1"></path>
	<path
		d="M16.14 11.122a2.89 2.89 0 0 1-2.9 2.9c-1.609 0-2.921-1.291-2.921-2.9a2.927 2.927 0 0 1 2.92-2.92c1.61 0 2.9 1.312 2.9 2.92z"
		fill="" opacity="1"></path>
	<path stroke-linecap="round" d="m12.965 11.905.529-.507v-1.334" fill="" opacity="1"></path></g></g></g></svg>
