<svg viewBox="0 0 80 80" fill="none" xmlns="http://www.w3.org/2000/svg">
    <path d="M40.002 53.3346V26.668M26.668 46.6678V33.3345M53.334 46.6678V33.3345M56.668 11.1274C51.765 8.2912 46.0726 6.66797 40.0013 6.66797C21.5918 6.66797 6.66797 21.5918 6.66797 40.0013C6.66797 45.3336 7.92004 50.3733 10.1462 54.843C10.7378 56.0306 10.9347 57.3883 10.5917 58.67L8.60634 66.0903C7.74447 69.3113 10.6913 72.258 13.9125 71.3963L21.3326 69.411C22.6144 69.068 23.972 69.265 25.1597 69.8563C29.6292 72.0826 34.669 73.3346 40.0013 73.3346C58.4106 73.3346 73.3346 58.4106 73.3346 40.0013C73.3346 33.93 71.7113 28.2375 68.8753 23.3346C67.584 20.752 63.3346 14.6949 56.668 11.1274Z" stroke="white" stroke-width="5" stroke-linecap="round"/>
</svg>
