<svg viewBox="0 0 24 24" fill="none" xmlns="http://www.w3.org/2000/svg"><circle cx="12" cy="12" r="12" fill="#1F1F22"/><path fill-rule="evenodd" clip-rule="evenodd" d="M16.686 17.467a7.2 7.2 0 1 0-9.371 0l-1.563 1.822A9.58 9.58 0 0 1 2.4 12 9.6 9.6 0 0 1 12 2.4a9.6 9.6 0 0 1 9.6 9.6 9.58 9.58 0 0 1-3.352 7.29l-1.562-1.823z" fill="#CDCDCD" fill-opacity=".1"/><path fill-rule="evenodd" clip-rule="evenodd" d="M15.816 5.895a7.2 7.2 0 0 0-8.502 11.572l-1.562 1.822A9.58 9.58 0 0 1 2.4 12 9.6 9.6 0 0 1 12 2.4c1.87 0 3.613.535 5.089 1.458l-1.273 2.037z" fill="#FFC800"/><path d="M11.992 14.484a5.99 5.99 0 0 1-.613-.025 2.48 2.48 0 0 1-.496-.11 1.24 1.24 0 0 1-.453-.243 1.184 1.184 0 0 1-.286-.437 1.89 1.89 0 0 1-.118-.689v-2.537c0-.268.045-.506.135-.714.095-.212.215-.375.361-.487.123-.095.288-.173.496-.235a2.71 2.71 0 0 1 .604-.126c.213-.011.406-.017.58-.017.24 0 .745.028 1.512.084v.9c-.756-.09-1.296-.135-1.621-.135-.269 0-.46.014-.571.042-.112.028-.188.084-.227.168-.034.078-.05.22-.05.428v.647h.898c.303 0 .521.005.655.017.135.005.286.03.454.075.18.045.31.11.395.193.09.079.168.2.235.362.062.168.092.366.092.596v.74c0 .257-.039.484-.117.68-.079.19-.18.338-.303.445-.112.1-.26.182-.445.243a2.04 2.04 0 0 1-.537.11 5.58 5.58 0 0 1-.58.025zm.017-.815c.246 0 .417-.014.512-.042.101-.028.165-.081.193-.16a1.51 1.51 0 0 0 .042-.428v-.79c0-.134-.016-.23-.05-.285-.034-.062-.104-.104-.21-.126a2.557 2.557 0 0 0-.496-.034h-.756v1.243c0 .19.014.328.042.412.034.084.101.14.202.168.106.028.28.042.52.042z" fill="#FFC800"/></svg>