<svg xmlns="http://www.w3.org/2000/svg" fill="none" viewBox="0 0 32 32"><path d="m9.4984 1.7156-2.273 2.65 12.9707 11.1258c.2398.2057.4748.417.7046.6338-.5693.6731-.921 1.3399-1.0434 2.0175-.1247.6904.0034 1.3694.2986 1.9894.556 1.1678 1.6508 2.1912 2.9791 3.3383-.6431 1.0649-1.6713 1.916-2.6816 2.658-.6472.4753-.7754.9531-.6715 1.5236.1037.5706.5333 1.2316 1.1716 1.7431.6382.5116 1.4677.8689 2.2937.918.8262.0492 1.6455-.1827 2.3942-.89 3.6537-3.4515 3.2152-7.9012 1.8105-10.3034l-.7235-1.2373 1.3822.3794c1.2784.3506 1.9355.0779 2.2808-.3782.2787-.3684.3808-.9786.2127-1.7005-.5783.1835-1.2701.3435-2.04.3335-1.0481-.0136-2.2345-.3634-3.3647-1.3328L9.4984 1.7158v-.0002Zm12.9021 0-5.5541 4.7641 2.6812 2.2999 5.1459-4.4141-2.2729-2.6498h-.0001Zm-10.0291 8.6028-5.672 4.8653c-1.13.9694-2.3163 1.3191-3.3647 1.3327-.7697.01-1.4615-.15-2.0398-.3335-.1682.7219-.066 1.3322.2127 1.7005.3453.4562 1.0025.7289 2.2808.3781l1.3823-.3793-.7236 1.2374c-1.4047 2.402-1.8432 6.8518 1.8106 10.3033.7486.7073 1.568.9392 2.394.89.826-.0491 1.6556-.4063 2.2937-.918.6383-.5115 1.0678-1.1725 1.1717-1.7431.1039-.5706-.0244-1.0483-.6715-1.5235-1.0104-.7419-2.0384-1.5932-2.6815-2.658 1.3282-1.147 2.4231-2.1705 2.9791-3.3382.2952-.62.4231-1.299.2985-1.9894-.1224-.6776-.4741-1.3444-1.0435-2.0175.2299-.2168.4649-.4281.7048-.6338l3.3496-2.8731-2.681-2.2997-.0002-.0002Zm-2.1973 6.6419c.4315.529.645.9854.7181 1.3899.0782.433.0108.8291-.2038 1.2797-.3756.7893-1.2522 1.6905-2.418 2.7205a4.1933 4.1933 0 0 1-.0965-.4122c-.2612-1.4596.292-3.1066 2.0002-4.9779Zm11.5508 0c1.7081 1.8713 2.2615 3.5183 2.0002 4.9779a4.2145 4.2145 0 0 1-.0964.4123c-1.166-1.03-2.0425-1.9312-2.4183-2.7206-.2145-.4506-.2819-.8467-.2038-1.2797.0731-.4045.2867-.8609.7181-1.39l.0002.0001Z"/></svg>
