<svg xmlns="http://www.w3.org/2000/svg" fill="currentColor" viewBox="0 0 32 32"><g clip-path="url(#clip0_1325_67352)"><path d="M27.0669 5.6016c-2-.9334-4.2667-1.6-6.6667-2l-.6668 1.7333c-2.4-.4-4.8-.4-7.2 0l-.9332-1.7333c-2.2668.4-4.5333 1.0666-6.6668 2-4 6.4-5.3332 12.5333-4.6665 18.6666 2.6665 2 5.3333 3.2 8 4 .8-.8 1.3333-1.7333 1.8665-2.6666l-2.6665-1.3334L8 23.6016a18.6678 18.6678 0 0 0 16.2667 0l.6666.5333-2.6666 1.3333c.4 1.0667.9333 2 1.6 2.9334C26.5333 27.4682 29.2 26.2682 32 24.1349c.6667-6.9333-1.2-13.0667-4.8-18.5333h-.1331Zm-16.4 14.8c-1.6 0-2.8-1.3334-2.8-3.2 0-1.8667 1.3333-3.3334 2.8-3.3334 1.6 0 2.9333 1.4667 2.9333 3.3334 0 1.7333-1.3333 3.2-2.9333 3.2Zm10.6665 0c-1.6 0-2.9332-1.3334-2.9332-3.2 0-1.8667 1.3332-3.3334 2.9332-3.3334 1.6 0 2.9335 1.4667 2.8 3.3334 0 1.7333-1.3332 3.2-2.8 3.2Z"/></g></svg>
