<svg width="242" height="32" viewBox="0 0 242 32" fill="none" xmlns="http://www.w3.org/2000/svg">
<g clip-path="url(#clip0_1325_67337)">
<path fill-rule="evenodd" clip-rule="evenodd" d="M160.8 28.2462C159.938 28.2462 159.262 27.5692 159.262 26.7077V15.8154C159.262 12.5538 161.908 9.90768 165.108 9.90768H165.6C166.338 9.90768 167.015 10.5231 167.015 11.3231C167.015 12.1231 166.4 12.7385 165.6 12.7385H165.108C163.569 12.7385 162.338 14.2769 162.338 15.8154V26.7077C162.338 27.5692 161.662 28.2462 160.8 28.2462ZM176.862 25.1692C178.277 25.1692 179.631 24.6769 180.677 23.7538C182.892 21.8462 184.8 24.9846 183.323 26.3385C181.6 27.9385 179.262 28.9231 176.862 28.9231C171.569 28.9231 167.323 24.6154 167.323 19.3231C167.323 14.0308 171.569 9.72308 176.862 9.72308C181.969 9.72308 186.092 13.7231 186.4 18.7692C186.4 18.7766 186.4 18.7873 186.401 18.801L186.402 18.811L186.403 18.8251C186.426 19.2221 186.547 21.2308 184.062 21.2308H171.631C172.369 23.4462 174.277 25.1692 176.862 25.1692ZM98.0308 20.1846C98.4615 23.5077 101.292 26.0923 104.738 26.0923C106.585 26.0923 108.308 25.3538 109.538 24.0615C110.523 23.0769 111.754 24.3692 111.077 25.1692C109.477 26.9539 107.2 27.9384 104.738 27.9384C100 27.9384 96.1231 24.0615 96.1231 19.2615C96.1231 14.4615 100 10.5846 104.738 10.5846C109.477 10.5846 113.354 14.4615 113.354 19.2615C113.231 19.8769 112.862 20.1846 112.246 20.1846H98.0308ZM139.877 10.5846C141.908 10.5846 143.569 11.2615 145.108 12.4923C146.092 13.2923 144.738 14.6461 144 13.9692C143.015 13.1692 141.723 12.4308 139.877 12.4308C137.415 12.4308 136.185 13.8462 136.185 15.2C136.185 16.865 138.243 17.4162 140.533 18.0296C143.407 18.7991 146.646 19.6665 146.646 22.9538C146.646 24.9231 145.477 27.9384 140.185 27.9384C137.477 27.9384 135.2 26.7692 133.662 24.6769C133.108 24 134.462 22.7077 135.2 23.6308C136.431 25.2308 138.154 26.0923 140.246 26.0923C143.262 26.0923 144.862 24.8615 144.862 23.0154C144.862 21.1743 142.712 20.623 140.361 20.0202C137.527 19.2932 134.4 18.4913 134.4 15.2615C134.338 12.6154 136.923 10.5846 139.877 10.5846ZM155.138 10.5846C155.754 10.5846 156.246 11.0769 156.246 11.6923C156.246 12.3077 155.754 12.8 155.138 12.8H151.877V22.7692C151.877 24.4923 153.231 26.2154 154.954 26.2154H155.138C155.754 26.2154 156.246 26.7077 156.246 27.3231C156.246 27.9385 155.754 28.4308 155.138 28.4308H154.954C151.877 28.4308 149.415 25.9077 149.415 22.8308V6.52307C149.415 5.84615 149.969 5.29231 150.646 5.29231C151.323 5.29231 151.877 5.84615 151.877 6.52307V10.5846H155.138ZM93.8462 10.5846C94.4615 10.5846 94.9539 11.0769 94.9539 11.6923C94.9539 12.3077 94.4615 12.8 93.8462 12.8H90.5846V22.7692C90.5846 24.4923 91.9385 26.2154 93.6615 26.2154H93.8462C94.4615 26.2154 94.9539 26.7077 94.9539 27.3231C94.9539 27.9385 94.4615 28.4308 93.8462 28.4308H93.6615C90.5846 28.4308 88.1231 25.9077 88.1231 22.8308V6.52307C88.1231 5.84615 88.6769 5.29231 89.3539 5.29231C90.0308 5.29231 90.5846 5.84615 90.5846 6.52307V10.5846H93.8462ZM232.615 8.98462C237.354 8.98462 241.231 12.8615 241.231 17.6615V26.3385C241.231 27.6923 240.123 28.8 238.769 28.8C237.415 28.8 236.308 27.6923 236.308 26.3385V17.4154C236.308 15.3846 234.646 13.6615 232.615 13.6615C230.585 13.6615 228.923 15.3231 228.923 17.4154V26.4C228.923 27.7538 227.815 28.8615 226.462 28.8615C225.108 28.8615 224 27.7538 224 26.4V17.4154C224 15.3846 222.338 13.6615 220.308 13.6615C218.277 13.6615 216.615 15.3231 216.615 17.4154V26.4C216.615 27.7538 215.508 28.8615 214.154 28.8615C212.8 28.8615 211.692 27.7538 211.692 26.4V17.7231C211.692 12.9231 215.569 9.04616 220.308 9.04616C222.708 9.04616 224.923 10.0308 226.462 11.6308C228 10.0308 230.215 8.98462 232.615 8.98462ZM47.7538 28.8615C46.6462 28.8615 45.6 27.9385 45.6 26.8308V18.3385C45.6 13.5385 49.4769 9.66154 54.2154 9.66154C58.9539 9.66154 62.8308 13.5385 62.8308 18.3385V26.8923C62.8308 28 61.7846 28.9231 60.6769 28.9231C59.5692 28.9231 58.5231 28 58.5231 26.8923V18.3385C58.5231 15.5692 56.9231 13.3539 54.2154 13.3539C51.5077 13.3539 49.9077 15.5692 49.9077 18.3385V26.8923C49.9077 28 48.8615 28.8615 47.7538 28.8615ZM33.2923 29.1692C27.8769 29.1692 23.4462 24.7385 23.4462 19.2C23.4462 13.7231 27.8769 9.23077 33.2923 9.23077C38.7077 9.23077 43.1385 13.6615 43.1385 19.2C43.1385 24.7385 38.7077 29.1692 33.2923 29.1692ZM81.3539 11.8154C81.3539 10.9538 82.0308 10.2769 82.8923 10.2769C83.7538 10.2769 84.4308 10.9538 84.4308 11.8154V26.7077C84.4308 27.5692 83.7538 28.2462 82.8923 28.2462C82.0308 28.2462 81.3539 27.5692 81.3539 26.7077V25.6C79.6923 27.4461 77.2308 28.5538 74.5846 28.5538C69.4769 28.5538 65.3539 24.3692 65.3539 19.2615C65.3539 14.0923 69.4769 9.96922 74.5846 9.96922C77.2308 9.96922 79.6308 11.0769 81.3539 12.9231V11.8154ZM206.4 9.60001C207.569 9.60001 208.554 10.5846 208.554 11.7538V26.6461C208.554 27.8769 207.569 28.8 206.4 28.8C205.292 28.8 204.431 28 204.246 26.8923C202.585 28.2461 200.431 29.1077 198.092 29.1077C192.677 29.1077 188.246 24.6769 188.246 19.1385C188.246 13.6615 192.677 9.16924 198.092 9.16924C200.431 9.16924 202.585 9.96923 204.246 11.3846C204.431 10.4615 205.354 9.60001 206.4 9.60001ZM16 2.46153C16 1.10769 17.1077 0 18.4615 0C19.8154 0 20.9231 1.10769 20.9231 2.46153V26.7077C20.9231 28.0615 19.8154 29.1692 18.4615 29.1692C17.4154 29.1692 16.4923 28.4923 16.1231 27.5077C14.4615 28.7385 12.3692 29.4769 10.1538 29.4769C4.55384 29.5385 0 24.9231 0 19.2615C0 13.6 4.55384 8.98462 10.1538 8.98462C12.3077 8.98462 14.3385 9.66153 16 10.8308V2.46153ZM10.4615 24.5538C13.3539 24.5538 15.6923 22.2154 15.6923 19.2615C15.6923 16.3692 13.3539 13.9692 10.4615 13.9692C7.56924 13.9692 5.23077 16.3077 5.23077 19.2615C5.23077 22.1538 7.56924 24.5538 10.4615 24.5538ZM38.5231 19.2615C38.5231 22.3385 36.3692 24.8615 33.2923 24.8615C30.2154 24.8615 28.0615 22.3385 28.0615 19.2615C28.0615 16.1846 30.2154 13.6615 33.2923 13.6615C36.3692 13.6615 38.5231 16.1846 38.5231 19.2615ZM74.7077 25.4769C78.0923 25.4769 80.8615 22.7077 80.8615 19.2615C80.8615 15.8154 78.0923 13.0462 74.7077 13.0462C71.3231 13.0462 68.5539 15.8154 68.5539 19.2615C68.5539 22.7077 71.3231 25.4769 74.7077 25.4769ZM104.738 12.4308C108.185 12.4308 111.015 15.0154 111.446 18.3385H98.0308C98.4615 15.0154 101.292 12.4308 104.738 12.4308ZM182.092 17.4154C181.292 15.0769 179.446 13.3539 176.862 13.3539C174.277 13.3539 172.369 15.0154 171.631 17.4154H182.092ZM203.938 19.2615C203.938 22.3385 201.477 24.8615 198.4 24.8615C195.323 24.8615 192.862 22.3385 192.862 19.2615C192.862 16.1846 195.323 13.6615 198.4 13.6615C201.477 13.6615 203.938 16.1846 203.938 19.2615Z" fill="white"/>
<path d="M129.233 25.845C129.233 29.2443 126.477 32 123.078 32C119.679 32 116.923 29.2443 116.923 25.845C116.923 22.4457 119.679 19.69 123.078 19.69C126.477 19.69 129.233 22.4457 129.233 25.845Z" fill="#FF9B00"/>
</g>
<defs>
<clipPath id="clip0_1325_67337">
<rect width="241.231" height="32" fill="white"/>
</clipPath>
</defs>
</svg>
