<svg xmlns="http://www.w3.org/2000/svg" fill="#FF4655" viewBox="0 0 32 32"><path d="M.1013 2.888c.197-.1174.3225.12.4288.245 6.8372 8.5535 13.6825 17.1008 20.5192 25.6544.1404.1218.0341.3821-.1554.3542-3.2735.0037-6.5477.0012-9.8212.0012-.2622.0031-.5133-.1274-.6742-.3318C7.0019 24.5674 3.6072 20.322.2107 16.0779a.903.903 0 0 1-.2095-.6164c0-4.1.0013-8.2006-.0012-12.3006.0019-.097-.0019-.2225.1013-.2728ZM31.723 2.8683c.1399-.0528.294.0764.2735.223.0049 4.102-.0007 8.2038.0024 12.3056.0094.2324-.0416.4729-.1926.6556-1.0321 1.2913-2.0655 2.5819-3.0977 3.8726-.1721.2237-.4536.3473-.7351.333-3.2518-.0031-6.5042.0019-9.7559-.0024-.1921.0298-.3014-.2293-.1597-.3542 4.5095-5.6417 9.0227-11.2815 13.5346-16.922a.337.337 0 0 1 .1305-.1112Z"/></svg>
