<svg width="24" height="24" viewBox="0 0 24 24" fill="none" xmlns="http://www.w3.org/2000/svg">
<g clip-path="url(#clip0_891_2004)">
<path d="M7 9C6.60444 9 6.21776 8.8827 5.88886 8.66294C5.55996 8.44318 5.30362 8.13082 5.15224 7.76537C5.00087 7.39992 4.96126 6.99778 5.03843 6.60982C5.1156 6.22186 5.30608 5.86549 5.58579 5.58579C5.86549 5.30608 6.22186 5.1156 6.60982 5.03843C6.99778 4.96126 7.39992 5.00087 7.76537 5.15224C8.13082 5.30362 8.44318 5.55996 8.66294 5.88886C8.8827 6.21776 9 6.60444 9 7V17C9 17.3956 8.8827 17.7822 8.66294 18.1111C8.44318 18.44 8.13082 18.6964 7.76537 18.8478C7.39992 18.9991 6.99778 19.0387 6.60982 18.9616C6.22186 18.8844 5.86549 18.6939 5.58579 18.4142C5.30608 18.1345 5.1156 17.7781 5.03843 17.3902C4.96126 17.0022 5.00087 16.6001 5.15224 16.2346C5.30362 15.8692 5.55996 15.5568 5.88886 15.3371C6.21776 15.1173 6.60444 15 7 15H17C17.3956 15 17.7822 15.1173 18.1111 15.3371C18.44 15.5568 18.6964 15.8692 18.8478 16.2346C18.9991 16.6001 19.0387 17.0022 18.9616 17.3902C18.8844 17.7781 18.6939 18.1345 18.4142 18.4142C18.1345 18.6939 17.7781 18.8844 17.3902 18.9616C17.0022 19.0387 16.6001 18.9991 16.2346 18.8478C15.8692 18.6964 15.5568 18.44 15.3371 18.1111C15.1173 17.7822 15 17.3956 15 17V7C15 6.60444 15.1173 6.21776 15.3371 5.88886C15.5568 5.55996 15.8692 5.30362 16.2346 5.15224C16.6001 5.00087 17.0022 4.96126 17.3902 5.03843C17.7781 5.1156 18.1345 5.30608 18.4142 5.58579C18.6939 5.86549 18.8844 6.22186 18.9616 6.60982C19.0387 6.99778 18.9991 7.39992 18.8478 7.76537C18.6964 8.13082 18.44 8.44318 18.1111 8.66294C17.7822 8.8827 17.3956 9 17 9H7Z" stroke="#B0ADFF" stroke-width="2" stroke-linecap="round" stroke-linejoin="round"/>
</g>
<defs>
<clipPath id="clip0_891_2004">
<rect width="24" height="24" fill="white"/>
</clipPath>
</defs>
</svg>
