<svg width="24" height="24" viewBox="0 0 24 24" fill="none" xmlns="http://www.w3.org/2000/svg">
  <path d="M17.802 17.2918C17.802 17.2918 17.879 17.2368 18.002 17.1428C19.845 15.7178 21 13.6528 21 11.3538C21 7.06784 16.97 3.58984 12.002 3.58984C7.032 3.58984 3 7.06784 3 11.3538C3 15.6418 7.03 18.9998 12 18.9998C12.424 18.9998 13.12 18.9718 14.088 18.9158C15.35 19.7358 17.192 20.4088 18.804 20.4088C19.303 20.4088 19.538 19.9988 19.218 19.5808C18.732 18.9848 18.062 18.0298 17.802 17.2908V17.2918Z" stroke="#B0ADFF" stroke-width="2" stroke-linecap="round" stroke-linejoin="round"/>
  <path d="M7.5 13.5C10 16 14 16 16.5 13.5" stroke="#B0ADFF" stroke-width="2" stroke-linecap="round" stroke-linejoin="round"/>
</svg>
