<svg viewBox="0 0 24 24" fill="none" xmlns="http://www.w3.org/2000/svg"><circle cx="12" cy="12" r="12" fill="#1F1F22"/><path fill-rule="evenodd" clip-rule="evenodd" d="M16.686 17.467a7.2 7.2 0 1 0-9.371 0l-1.563 1.822A9.58 9.58 0 0 1 2.4 12 9.6 9.6 0 0 1 12 2.4a9.6 9.6 0 0 1 9.6 9.6 9.58 9.58 0 0 1-3.352 7.29l-1.562-1.823z" fill="#CDCDCD" fill-opacity=".1"/><path fill-rule="evenodd" clip-rule="evenodd" d="M18.517 15.066a7.2 7.2 0 1 0-11.202 2.4L5.751 19.29A9.58 9.58 0 0 1 2.4 12 9.6 9.6 0 0 1 12 2.4a9.6 9.6 0 0 1 9.6 9.6 9.563 9.563 0 0 1-.91 4.089l-2.173-1.023z" fill="#FF6309"/><path d="M11.84 14.484c-.48 0-.999-.028-1.553-.084v-.874c.717.079 1.229.118 1.537.118.286 0 .493-.02.622-.059.128-.04.212-.112.252-.218.044-.107.067-.275.067-.504v-.513h-.907c-.303 0-.521-.003-.656-.008a2.63 2.63 0 0 1-.453-.084.898.898 0 0 1-.395-.193 1.052 1.052 0 0 1-.235-.37 1.706 1.706 0 0 1-.093-.588v-.74c0-.257.04-.48.118-.671.078-.196.18-.35.302-.462.112-.095.258-.174.437-.235.185-.062.367-.101.546-.118.213-.011.406-.017.58-.017.263 0 .47.009.621.025.157.012.322.045.496.101a1.129 1.129 0 0 1 .74.689 1.9 1.9 0 0 1 .117.689v2.537c0 .565-.171.971-.513 1.218-.336.24-.879.36-1.63.36zm.925-2.949V10.26c0-.19-.017-.322-.05-.395-.029-.073-.093-.12-.194-.143a2.73 2.73 0 0 0-.529-.034 2.11 2.11 0 0 0-.504.042.26.26 0 0 0-.193.152c-.034.072-.05.198-.05.378v.831c0 .135.016.233.05.294.033.056.1.095.201.118a2.7 2.7 0 0 0 .504.033h.765z" fill="#FF6309"/></svg>