<svg viewBox="0 0 24 24" fill="none" xmlns="http://www.w3.org/2000/svg"><circle cx="12" cy="12" r="12" fill="#1F1F22"/><path fill-rule="evenodd" clip-rule="evenodd" d="M16.686 17.467a7.2 7.2 0 1 0-9.371 0l-1.563 1.822A9.58 9.58 0 0 1 2.4 12 9.6 9.6 0 0 1 12 2.4a9.6 9.6 0 0 1 9.6 9.6 9.58 9.58 0 0 1-3.352 7.29l-1.562-1.823z" fill="#CDCDCD" fill-opacity=".1"/><path fill-rule="evenodd" clip-rule="evenodd" d="M19.2 12h2.4A9.6 9.6 0 0 0 12 2.4 9.6 9.6 0 0 0 2.4 12a9.58 9.58 0 0 0 3.352 7.29l1.562-1.823A7.2 7.2 0 1 1 19.2 12z" fill="#FF6309"/><path d="M12 14.484c-.723 0-1.252-.09-1.588-.269-.33-.18-.496-.49-.496-.932v-.941c0-.18.09-.347.269-.504.179-.157.392-.263.638-.32v-.033a.879.879 0 0 1-.504-.235.614.614 0 0 1-.218-.462v-.781c0-.392.143-.68.428-.866.291-.184.781-.277 1.47-.277s1.176.093 1.462.277c.291.185.437.474.437.866v.78a.614.614 0 0 1-.219.463.879.879 0 0 1-.504.235v.034c.247.056.46.162.639.319s.268.325.268.504v.94c0 .454-.17.768-.512.941-.342.174-.865.26-1.57.26zm0-3.293c.246 0 .416-.034.512-.1.1-.074.15-.188.15-.345v-.63c0-.163-.05-.277-.15-.345-.096-.072-.266-.109-.513-.109-.246 0-.42.037-.52.11-.096.067-.143.181-.143.344v.63a.41.41 0 0 0 .142.336c.09.073.264.11.521.11zm0 2.495c.24 0 .414-.014.52-.042.112-.028.185-.076.218-.143.04-.067.06-.174.06-.32v-.738c0-.163-.048-.283-.144-.362-.095-.072-.31-.109-.646-.109-.32 0-.535.037-.647.11-.107.067-.16.187-.16.36v.74c0 .145.017.252.05.32.04.066.113.114.219.142.112.028.288.042.53.042z" fill="#FF6309"/></svg>