<svg viewBox="0 0 24 24" fill="none" xmlns="http://www.w3.org/2000/svg"><circle cx="12" cy="12" r="12" fill="#1F1F22"/><path fill-rule="evenodd" clip-rule="evenodd" d="M16.686 17.467a7.2 7.2 0 1 0-9.371 0l-1.563 1.822A9.58 9.58 0 0 1 2.4 12 9.6 9.6 0 0 1 12 2.4a9.6 9.6 0 0 1 9.6 9.6 9.58 9.58 0 0 1-3.352 7.29l-1.562-1.823z" fill="#CDCDCD" fill-opacity=".1"/><path fill-rule="evenodd" clip-rule="evenodd" d="M2.4 12a9.58 9.58 0 0 0 3.352 7.29l1.562-1.823A7.184 7.184 0 0 1 4.801 12H2.4z" fill="#1CE400"/><path d="M11.79 14.484c-.47 0-1.08-.042-1.831-.126v-.975l.269.05c.106.023.165.037.176.043l.286.05c.067.011.21.028.428.05.168.017.339.026.513.026.324 0 .548-.04.672-.118.128-.078.193-.227.193-.445v-.63c0-.263-.283-.395-.849-.395h-.99v-.84h.99c.437 0 .656-.16.656-.479v-.529a.453.453 0 0 0-.068-.269c-.044-.067-.126-.114-.243-.142a2.239 2.239 0 0 0-.504-.042c-.32 0-.812.033-1.479.1V8.94c.762-.05 1.3-.076 1.613-.076.683 0 1.176.079 1.479.235.308.157.462.434.462.832v.899a.62.62 0 0 1-.152.42.703.703 0 0 1-.37.227c.494.173.74.445.74.814v.89c0 .466-.16.799-.479 1-.319.202-.823.303-1.512.303z" fill="#1CE400"/></svg>