<svg width="213" height="32" viewBox="0 0 213 32" fill="none" xmlns="http://www.w3.org/2000/svg">
<path d="M73.1823 12.3992C73.1823 16.0909 72.1869 18.9171 70.1928 20.8808C68.2088 22.8429 65.3423 23.8248 61.5865 23.8248H55.5789V1.40463H62.24C65.7044 1.40463 68.3941 2.37137 70.3091 4.30147C72.224 6.23495 73.1823 8.93305 73.1823 12.3992ZM68.5103 12.5221C68.5103 7.70695 66.4977 5.30021 62.4724 5.30021H60.0775V19.8989H62.0076C66.3427 19.8989 68.5086 17.44 68.5086 12.5221H68.5103ZM79.9326 15.2219C79.9326 16.9179 80.1937 18.2029 80.7158 19.0703C81.248 19.9394 82.1086 20.3739 83.2994 20.3739C84.4783 20.3739 85.3255 19.9444 85.8392 19.0855C86.3613 18.2164 86.6223 16.9297 86.6223 15.2219C86.6223 13.5242 86.3613 12.2509 85.8392 11.4038C85.3171 10.5549 84.4598 10.1305 83.2707 10.1305C82.0901 10.1305 81.2379 10.5549 80.7158 11.4038C80.1937 12.2408 79.9326 13.5141 79.9326 15.2219ZM91.1495 15.2219C91.1495 18.0126 90.4539 20.1954 89.0611 21.7701C87.6682 23.3432 85.7263 24.1314 83.2421 24.1314C81.6842 24.1314 80.3099 23.7726 79.1192 23.0568C77.9301 22.3326 77.0156 21.2935 76.3773 19.9444C75.7373 18.5954 75.4189 17.0206 75.4189 15.2219C75.4189 12.4211 76.1095 10.2434 77.4939 8.68716C78.8783 7.13432 80.8236 6.3579 83.328 6.3579C84.8859 6.3579 86.2585 6.71495 87.4493 7.43074C88.64 8.14653 89.5545 9.1739 90.1928 10.5128C90.8328 11.8535 91.1495 13.4215 91.1495 15.2219ZM108.958 23.8248H104.532V13.8105C104.532 12.5743 104.325 11.648 103.909 11.0349C103.493 10.4118 102.831 10.1002 101.922 10.1002C100.682 10.1002 99.7878 10.5381 99.2354 11.4189C98.6846 12.288 98.4084 13.7347 98.4084 15.7575V23.8248H93.9823V6.67958H97.3642L97.9587 8.87242H98.2046C98.6811 8.06082 99.3889 7.40988 100.237 7.00295C101.108 6.57179 102.095 6.3579 103.198 6.3579C105.085 6.3579 106.516 6.90021 107.493 7.98316C108.47 9.056 108.958 10.6105 108.958 12.6451V23.8248ZM123.269 23.8248L122.413 21.4939H122.296C121.553 22.4842 120.783 23.1747 119.988 23.5638C119.205 23.9427 118.181 24.1314 116.913 24.1314C115.355 24.1314 114.127 23.6598 113.226 22.72C112.337 21.7802 111.892 20.4396 111.892 18.7032C111.892 16.8842 112.492 15.5436 113.691 14.6846C114.9 13.8156 116.719 13.3356 119.148 13.2429L121.964 13.152V12.3992C121.964 10.6611 121.122 9.792 119.437 9.792C118.141 9.792 116.618 10.2063 114.867 11.0349L113.401 7.87537C115.269 6.84295 117.339 6.3259 119.613 6.3259C121.789 6.3259 123.458 6.82779 124.62 7.8299C125.78 8.832 126.361 10.3562 126.361 12.3992V23.8248H123.269ZM121.964 15.8804L120.251 15.9427C118.964 15.9832 118.006 16.2291 117.378 16.6787C116.748 17.1284 116.435 17.8122 116.435 18.7335C116.435 20.0522 117.15 20.7107 118.582 20.7107C119.608 20.7107 120.424 20.3992 121.034 19.776C121.654 19.1528 121.964 18.3242 121.964 17.2918V15.8804ZM137.492 20.4042C138.267 20.4042 139.193 20.2257 140.278 19.8686V23.3482C139.175 23.8703 137.821 24.1314 136.216 24.1314C134.444 24.1314 133.152 23.6598 132.34 22.72C131.537 21.7701 131.136 20.3486 131.136 18.4573V10.1895H129.017V8.2139L131.454 6.64926L132.733 3.0299H135.562V6.67958H140.104V10.1912H135.562V18.4573C135.562 19.1208 135.736 19.6126 136.084 19.9293C136.443 20.2459 136.911 20.4042 137.492 20.4042ZM150.292 9.6859C149.354 9.6859 148.618 10.0025 148.086 10.6358C147.554 11.2589 147.249 12.1499 147.171 13.3053H153.383C153.364 12.1499 153.08 11.2606 152.527 10.6358C151.975 10.0025 151.23 9.6859 150.292 9.6859ZM150.915 24.1314C148.305 24.1314 146.262 23.3701 144.792 21.8459C143.321 20.3234 142.585 18.1659 142.585 15.3752C142.585 12.5019 143.262 10.2838 144.618 8.71916C145.982 7.14442 147.864 6.3579 150.264 6.3579C152.556 6.3579 154.339 7.04842 155.619 8.42947C156.894 9.80884 157.534 11.7137 157.534 14.1474V16.4177H147.07C147.119 17.7465 147.491 18.784 148.189 19.5301C148.884 20.2762 149.861 20.6501 151.119 20.6501C152.096 20.6501 153.021 20.5423 153.891 20.3284C154.836 20.0864 155.75 19.7419 156.62 19.3011V22.9187C155.845 23.328 155.02 23.6295 154.137 23.8248C153.258 24.0286 152.184 24.1314 150.915 24.1314ZM166.255 11.9545H167.737C169.12 11.9545 170.154 11.6682 170.841 11.0956C171.528 10.5128 171.872 9.67074 171.872 8.5659C171.872 7.45095 171.582 6.62905 171.001 6.09684C170.43 5.56632 169.531 5.30021 168.301 5.30021H166.255V11.9545ZM176.414 8.39747C176.414 10.8093 175.699 12.6552 174.267 13.9335C172.844 15.2118 170.818 15.8501 168.187 15.8501H166.255V23.8248H161.757V1.40463H168.534C171.107 1.40463 173.063 1.99242 174.397 3.168C175.742 4.33347 176.414 6.07663 176.414 8.39747ZM188.999 23.8248L188.143 21.4939H188.027C187.283 22.4842 186.513 23.1747 185.72 23.5638C184.936 23.9427 183.911 24.1314 182.643 24.1314C181.085 24.1314 179.857 23.6598 178.956 22.72C178.067 21.7802 177.622 20.4396 177.622 18.7032C177.622 16.8842 178.221 15.5436 179.421 14.6846C180.63 13.8156 182.449 13.3356 184.877 13.2429L187.693 13.152V12.3992C187.693 10.6611 186.851 9.792 185.169 9.792C183.872 9.792 182.348 10.2063 180.596 11.0349L179.131 7.87537C180.999 6.84295 183.069 6.3259 185.342 6.3259C187.518 6.3259 189.187 6.82779 190.349 7.8299C191.51 8.832 192.091 10.3562 192.091 12.3992V23.8248H188.999ZM187.693 15.8804L185.981 15.9427C184.694 15.9832 183.736 16.2291 183.107 16.6787C182.477 17.1284 182.164 17.8122 182.164 18.7335C182.164 20.0522 182.88 20.7107 184.312 20.7107C185.337 20.7107 186.154 20.3992 186.764 19.776C187.384 19.1528 187.693 18.3242 187.693 17.2918V15.8804ZM194.065 6.67958H198.912L201.974 16.3251C202.235 17.1638 202.413 18.1558 202.511 19.3011H202.599C202.696 18.2891 202.905 17.291 203.222 16.3251L206.227 6.67958H210.971L204.108 26.0177C203.478 27.8063 202.579 29.1453 201.408 30.0345C200.248 30.9238 198.887 31.3684 197.331 31.3684C196.566 31.3684 195.816 31.2825 195.08 31.1091V27.3971C195.613 27.5318 196.194 27.5975 196.822 27.5975C197.605 27.5975 198.287 27.3415 198.868 26.8295C199.458 26.3293 199.917 25.5663 200.248 24.5457L200.509 23.7019L194.065 6.67958Z" fill="white"/>
<path d="M35.4745 9.77179C35.4776 9.3656 35.6419 8.97726 35.9312 8.6921C36.2204 8.40693 36.6111 8.24826 37.0173 8.25095C37.4235 8.24826 37.8141 8.40693 38.1034 8.6921C38.3926 8.97726 38.5569 9.3656 38.56 9.77179C38.5569 10.178 38.3926 10.5663 38.1034 10.8515C37.8141 11.1367 37.4235 11.2953 37.0173 11.2926C36.6111 11.2953 36.2204 11.1367 35.9312 10.8515C35.6419 10.5663 35.4776 10.178 35.4745 9.77179ZM32.1331 13.0678C32.1344 12.8665 32.1753 12.6675 32.2536 12.482C32.3318 12.2966 32.4458 12.1284 32.5891 11.987C32.7323 11.8456 32.902 11.7338 33.0885 11.6581C33.275 11.5823 33.4745 11.5439 33.6758 11.5453C34.082 11.543 34.4724 11.7021 34.7614 11.9876C35.0504 12.2731 35.2142 12.6616 35.2168 13.0678C35.2137 13.4737 35.0497 13.8618 34.7608 14.1469C34.4719 14.432 34.0817 14.5909 33.6758 14.5886C33.2696 14.5913 32.8789 14.4327 32.5897 14.1475C32.3004 13.8623 32.1362 13.474 32.1331 13.0678ZM40.3587 11.5453C40.1575 11.5439 39.9579 11.5823 39.7714 11.6581C39.585 11.7338 39.4153 11.8456 39.272 11.987C39.1288 12.1284 39.0148 12.2966 38.9365 12.482C38.8583 12.6675 38.8173 12.8665 38.816 13.0678C38.816 13.9082 39.5065 14.5886 40.3587 14.5886C40.7649 14.5913 41.1556 14.4327 41.4448 14.1475C41.7341 13.8623 41.8984 13.474 41.9015 13.0678C41.9001 12.8665 41.8592 12.6675 41.781 12.482C41.7027 12.2966 41.5887 12.1284 41.4454 11.987C41.3022 11.8456 41.1325 11.7338 40.946 11.6581C40.7596 11.5823 40.56 11.5439 40.3587 11.5453ZM35.4745 16.3638C35.4758 16.1625 35.5168 15.9635 35.595 15.778C35.6733 15.5926 35.7873 15.4244 35.9306 15.283C36.0738 15.1416 36.2435 15.0298 36.43 14.9541C36.6164 14.8783 36.816 14.8399 37.0173 14.8413C37.2185 14.8399 37.4181 14.8783 37.6045 14.9541C37.791 15.0298 37.9607 15.1416 38.104 15.283C38.2472 15.4244 38.3612 15.5926 38.4395 15.778C38.5177 15.9635 38.5587 16.1625 38.56 16.3638C38.5569 16.77 38.3926 17.1583 38.1034 17.4435C37.8141 17.7287 37.4235 17.8873 37.0173 17.8846C36.6111 17.8873 36.2204 17.7287 35.9312 17.4435C35.6419 17.1583 35.4776 16.77 35.4745 16.3638Z" fill="#44AB4F"/>
<path fill-rule="evenodd" clip-rule="evenodd" d="M26.4488 18.8766L26.4539 18.8817L26.4573 18.8884C28.8589 22.3074 31.9091 24.9836 36.8893 24.9836C43.4796 24.9836 48.8421 19.6952 48.8421 13.1941C48.8421 6.70147 43.4695 1.40463 36.8893 1.40463C33.2261 1.40463 30.3899 2.95074 28.2998 5.09137C26.2535 7.18484 24.8168 9.78695 23.4004 12.3554L23.2589 12.6131C21.8105 15.2354 20.3469 17.7954 18.6139 19.5823C17.7482 20.4749 16.8337 21.2076 15.7507 21.7112C14.6644 22.2181 13.4349 22.4859 11.9528 22.4859C6.73179 22.4859 2.53474 18.3444 2.53474 13.1941C2.53474 8.06905 6.75705 3.904 11.9528 3.904C16.1701 3.904 18.6762 6.25853 20.7731 9.40463C21.216 8.63663 21.6876 7.85516 22.1878 7.06358C19.8131 3.8619 16.7747 1.40632 11.9528 1.40632C5.36253 1.40463 0 6.69305 0 13.1941C0 19.6851 5.37263 24.9836 11.9528 24.9836C15.5823 24.9836 18.4168 23.4375 20.4867 21.2968C21.8846 19.8535 22.9928 18.1608 24.0118 16.3992L24.4834 15.5823L24.9162 16.4194C25.2446 17.0543 25.8829 18.1154 26.4488 18.8766ZM27.5385 16.0303L27.5436 16.0371C29.7499 19.6328 32.3335 22.4842 36.8893 22.4842C42.0851 22.4842 46.3091 18.3192 46.3091 13.1941C46.3091 8.04211 42.112 3.904 36.8893 3.904C33.8459 3.904 31.8872 4.992 30.1187 6.80421C28.6754 8.27958 27.3398 10.6055 26.1608 12.6939L26.0699 12.8556L26.1036 13.0375C26.1827 13.4349 26.4522 14.0126 26.72 14.5347C26.9996 15.0787 27.3162 15.6379 27.5352 16.0219L27.5385 16.0303Z" fill="#44AB4F"/>
<path d="M10.7958 9.01052H12.8539V12.0539H15.9377V14.08H12.8539V17.1217H10.7958V14.0817H7.712V12.0539H10.7958V9.01052Z" fill="#44AB4F"/>
</svg>
