<svg xmlns="http://www.w3.org/2000/svg" fill="none" viewBox="0 0 201 32"><g clip-path="url(#a)"><path fill="#3579F6" d="M10.5532 31.0584H8.764c-.6729 0-1.3763-.0919-2.095-.1835-.7187-.0919-1.4374-.1989-2.1562-.3365a10.826 10.826 0 0 1-1.9879-.5658 3.4099 3.4099 0 0 1-2.5232-3.349V5.2147a2.0187 2.0187 0 0 1 .5199-1.5291 3.7773 3.7773 0 0 1 1.4528-.8564 19.2832 19.2832 0 0 1 4.1747-.8563c1.468-.1326 2.783-.1989 3.9454-.1989a22.6314 22.6314 0 0 1 6.499.8717A13.3653 13.3653 0 0 1 21.594 5.322a12.1112 12.1112 0 0 1 3.242 4.5875 19.1154 19.1154 0 0 1 0 12.9065 12.3406 12.3406 0 0 1-3.1502 4.5876 13.1507 13.1507 0 0 1-4.8781 2.7679 20.369 20.369 0 0 1-6.2545.887Zm-2.569-6.6979c.3364.0611.7492.1121 1.2386.1529.4893.0408.9481.0408 1.3763 0a8.5943 8.5943 0 0 0 2.8749-.4589 5.7493 5.7493 0 0 0 2.2479-1.422 6.5774 6.5774 0 0 0 1.5292-2.508 11.4357 11.4357 0 0 0 .5199-3.6854 8.8844 8.8844 0 0 0-1.9268-6.2237 6.6507 6.6507 0 0 0-5.1381-2.0799H9.4063l-1.361.1378-.0612 16.0872Zm45.0494-5.184a13.7618 13.7618 0 0 1-.8718 5.0617 10.2906 10.2906 0 0 1-2.4466 3.7465 10.457 10.457 0 0 1-3.7926 2.2938 14.6306 14.6306 0 0 1-4.9086.78 13.9149 13.9149 0 0 1-4.9088-.8259 10.8102 10.8102 0 0 1-3.7924-2.3549 10.5515 10.5515 0 0 1-2.4468-3.7313 14.3917 14.3917 0 0 1 0-9.8633 10.5367 10.5367 0 0 1 2.4468-3.7313 10.812 10.812 0 0 1 3.7924-2.3702 13.9006 13.9006 0 0 1 4.9088-.8258 13.5622 13.5622 0 0 1 4.9086.841 11.1025 11.1025 0 0 1 3.7926 2.3856 10.552 10.552 0 0 1 2.4466 3.7312 13.1216 13.1216 0 0 1 .8718 4.8629Zm-16.0568 0a7.249 7.249 0 0 0 1.0858 4.297 3.5012 3.5012 0 0 0 3.0584 1.5292 3.3634 3.3634 0 0 0 2.9667-1.5292 7.522 7.522 0 0 0 1.0398-4.2664 7.2802 7.2802 0 0 0-1.0551-4.236 3.7329 3.7329 0 0 0-2.982-1.4884 3.7307 3.7307 0 0 0-2.9819 1.4884 7.2803 7.2803 0 0 0-1.1317 4.2054Zm33.995-2.9819a2.5537 2.5537 0 0 0-.7951-2.0797 3.3189 3.3189 0 0 0-2.1715-.6728 7.2907 7.2907 0 0 0-1.8197.2293 4.5857 4.5857 0 0 0-1.5292.6883v15.9188a10.9133 10.9133 0 0 1-1.4528.2754 14.8769 14.8769 0 0 1-2.0338.1376 10.8633 10.8633 0 0 1-1.8199-.1376 3.0592 3.0592 0 0 1-1.3456-.5506 2.6457 2.6457 0 0 1-.8564-1.1163 4.8627 4.8627 0 0 1-.2905-1.8656V13.2586a3.532 3.532 0 0 1 .52-2.0187 5.5666 5.5666 0 0 1 1.4526-1.422 13.1529 13.1529 0 0 1 3.9149-1.7892 18.7622 18.7622 0 0 1 5.2604-.6882 12.3714 12.3714 0 0 1 7.9824 2.2633 7.6463 7.6463 0 0 1 2.7985 6.3155v14.3592a10.92 10.92 0 0 1-1.4375.2754 14.8769 14.8769 0 0 1-2.0338.1376 10.8601 10.8601 0 0 1-1.8197-.1376 3.0574 3.0574 0 0 1-1.361-.5506 2.6455 2.6455 0 0 1-.8412-1.1163 4.8667 4.8667 0 0 1-.3058-1.8656l-.0153-10.8268Zm21.7938-8.854a18.854 18.854 0 0 1 4.5876.5047 10.1262 10.1262 0 0 1 3.4868 1.529 6.937 6.937 0 0 1 2.232 2.6151 8.37 8.37 0 0 1 .78 3.7312v10.2763c.03.7066-.204 1.399-.657 1.9422-.44.5135-.956.9569-1.529 1.315a16.411 16.411 0 0 1-8.3957 1.7892 19.235 19.235 0 0 1-4.3736-.4588 10.383 10.383 0 0 1-3.349-1.3763 6.3005 6.3005 0 0 1-2.1561-2.3396 6.9285 6.9285 0 0 1-.7647-3.3031 6.2101 6.2101 0 0 1 1.8809-4.8629 10.154 10.154 0 0 1 5.8264-2.1103l6.0097-.6422v-.3212a1.9735 1.9735 0 0 0-1.1774-1.9116 7.8896 7.8896 0 0 0-3.3796-.5657c-1.1416-.002-2.28.121-3.3948.367a18.038 18.038 0 0 0-3.0584.9174 3.1787 3.1787 0 0 1-1.0092-1.2691 3.99 3.99 0 0 1-.413-1.7586 2.9366 2.9366 0 0 1 .581-1.9115 4.4342 4.4342 0 0 1 1.7588-1.2081 13.7607 13.7607 0 0 1 3.15-.734 27.2392 27.2392 0 0 1 3.3643-.2142Zm.3671 18.0294a10.2336 10.2336 0 0 0 1.7278-.153 4.2017 4.2017 0 0 0 1.4069-.4434v-3.6702l-3.3029.2752a5.1094 5.1094 0 0 0-2.1104.5506 1.5285 1.5285 0 0 0-.8258 1.3763 1.8196 1.8196 0 0 0 .7187 1.5293 3.8865 3.8865 0 0 0 2.3857.5352Zm23.2083-2.7068c-.031.3235.022.6494.153.9467.132.2972.337.5558.597.7509a3.8371 3.8371 0 0 0 2.14.5046 9.2097 9.2097 0 0 0 1.423-.1224 7.8982 7.8982 0 0 0 1.284-.2905c.283.3423.524.717.719 1.1162.213.4806.313 1.004.29 1.5293.015.5419-.094 1.08-.319 1.573a3.563 3.563 0 0 1-.98 1.2713 7.311 7.311 0 0 1-4.588 1.101 9.3907 9.3907 0 0 1-6.209-1.8351 7.3957 7.3957 0 0 1-1.759-2.7367 7.3963 7.3963 0 0 1-.412-3.2271V3.5789c.336-.0919.816-.1887 1.437-.2906a11.8949 11.8949 0 0 1 2.004-.153 5.8743 5.8743 0 0 1 3.135.7035c.436.3692.769.8447.967 1.3805.198.5358.255 1.1137.164 1.6778v2.9362h6.01c.209.4022.383.8219.52 1.2539.177.5429.265 1.1111.26 1.6821a3.1806 3.1806 0 0 1-.704 2.3244 2.5615 2.5615 0 0 1-.883.5493 2.5664 2.5664 0 0 1-1.028.1541h-4.175l-.046 6.8661Zm22.069 8.3953a16.0713 16.0713 0 0 1-5.031-.7645 11.3767 11.3767 0 0 1-4.037-2.2786 10.5012 10.5012 0 0 1-2.707-3.8077 13.4922 13.4922 0 0 1-.978-5.3675c-.048-1.783.286-3.5555.978-5.1993a10.078 10.078 0 0 1 2.51-3.5063 10.0698 10.0698 0 0 1 3.745-2.1364 13.7608 13.7608 0 0 1 4.22-.6577c1.505-.018 3.001.2305 4.419.734 1.263.4513 2.43 1.136 3.441 2.0186a8.959 8.959 0 0 1 2.248 3.0585 9.4345 9.4345 0 0 1 .811 3.8994c.034.4369-.026.876-.176 1.2875a3.0792 3.0792 0 0 1-.696 1.0982 4.3537 4.3537 0 0 1-2.431 1.055l-11.332 1.6974c.169.4997.44.9589.795 1.3485.355.3896.788.7011 1.27.9149a8.106 8.106 0 0 0 3.578.7492 12.823 12.823 0 0 0 3.563-.474 11.2986 11.2986 0 0 0 2.722-1.1164c.508.3254.932.7653 1.239 1.2846.249.4029.412.8541.476 1.3242.063.4701.026.9482-.108 1.403-.134.455-.363.8764-.672 1.2363a3.344 3.344 0 0 1-1.119.8534c-1.033.5378-2.15.8947-3.303 1.0552a23.2466 23.2466 0 0 1-3.425.2905Zm-1.284-18.0292a4.589 4.589 0 0 0-1.912.3669c-.5.2139-.948.532-1.315.9328a3.9392 3.9392 0 0 0-.765 1.2846 5.2255 5.2255 0 0 0-.29 1.4527l7.845-1.2845a3.4786 3.4786 0 0 0-1.009-1.8351 3.3848 3.3848 0 0 0-1.181-.7262c-.44-.158-.907-.223-1.373-.1912Zm22.614 17.2492-1.529.2448c-.657.1095-1.322.1657-1.988.1682-.61.0052-1.219-.0409-1.82-.1378a3.0635 3.0635 0 0 1-1.346-.5504 2.6434 2.6434 0 0 1-.841-1.1163 4.8452 4.8452 0 0 1-.305-1.8656V.4132L153.44.153c.663-.105 1.333-.156 2.003-.1529.604-.0043 1.208.0418 1.805.1378a3.058 3.058 0 0 1 1.345.5504c.38.2885.677.6742.856 1.1164a4.879 4.879 0 0 1 .291 1.8503v26.6235Zm12.847.0002-1.529.2446a12.331 12.331 0 0 1-1.988.1682 10.851 10.851 0 0 1-1.805-.1376 3.0566 3.0566 0 0 1-1.36-.5506 2.6381 2.6381 0 0 1-.841-1.1162 4.903 4.903 0 0 1-.306-1.8656V.4134l1.529-.26a12.4358 12.4358 0 0 1 1.988-.1531c.61-.005 1.218.041 1.82.1377.486.0728.948.2616 1.346.5506.375.2899.666.6756.84 1.1163a4.846 4.846 0 0 1 .306 1.8503v26.6235Zm27.983-11.1022a13.768 13.768 0 0 1-.871 5.0617 10.2857 10.2857 0 0 1-2.447 3.7465 10.4542 10.4542 0 0 1-3.793 2.2938 14.6206 14.6206 0 0 1-4.908.78 13.9194 13.9194 0 0 1-4.909-.8259 10.7972 10.7972 0 0 1-3.777-2.3549 10.553 10.553 0 0 1-2.463-3.7313 14.4127 14.4127 0 0 1 0-9.8633 10.553 10.553 0 0 1 2.463-3.7313 10.8123 10.8123 0 0 1 3.777-2.3702 13.9055 13.9055 0 0 1 4.909-.8258c1.674-.025 3.339.2602 4.908.841a11.0972 11.0972 0 0 1 3.793 2.3856 10.5526 10.5526 0 0 1 2.447 3.7312c.596 1.5512.891 3.2014.871 4.8629Zm-16.057 0a7.2662 7.2662 0 0 0 1.087 4.297c.337.495.794.8955 1.33 1.1632.535.2677 1.13.3937 1.728.366a3.3612 3.3612 0 0 0 1.678-.3742 3.3617 3.3617 0 0 0 1.273-1.155 7.5116 7.5116 0 0 0 1.041-4.2664 7.285 7.285 0 0 0-1.056-4.236 3.732 3.732 0 0 0-1.316-1.0958 3.7282 3.7282 0 0 0-3.332 0 3.72 3.72 0 0 0-1.315 1.0958 7.276 7.276 0 0 0-1.118 4.2054Z"/></g><defs><clipPath id="a"><path fill="#fff" d="M0 0h200.348v32H0z"/></clipPath></defs></svg>
