<?xml version="1.0" encoding="utf-8"?><!-- Uploaded to: SVG Repo, www.svgrepo.com, Generator: SVG Repo Mixer Tools -->
<svg fill="#000000" width="800px" height="800px" viewBox="0 -188.3 894.3 894.3" enable-background="new 0 0 894.3 517.7" xmlns="http://www.w3.org/2000/svg"><path d="m58.3 1.9c-6.3 1.9-11 4.5-14.5 8.8-5 6-5.2 6.9-4.8 24.8.2 10.3.2 28.5 0 40.8-.2 22-.2 22-4.3 20.7-8.2-2.8-27.8-1.5-31.1 2.1-2.8 3-2.8 3 .4 1.9 2.4-.7 3.2-.4 2.6 1.1-.4 1.3-1.9 2.2-3 1.9-1.3-.2-2.1 3.2-2.1 9.3 0 5.4-.6 12.9-1.1 16.4-.7 5.2 0 7.5 3.9 11.6 4.5 4.8 6 5.2 19.4 5.2 12.5 0 14.7.6 15.5 3.2 1.1 4.3-.2 217.1-1.3 220.1-.6 1.7-4.8 2.4-12.9 2.4s-14 1.1-17.7 3.2c-5.6 3.4-5.8 3.7-6 18.3-.4 29.7.4 30.8 23.9 30.8h15.7l-.6 35.8c-.7 50.4.7 52.6 36.9 54.6 53.7 2.8 210.9 3.9 236.7 1.7 9-.7 17-.9 25.7-.7 12.1.2 15.1 0 17.3-2.1 1.9-1.5 2.6-1.5 2.6 0 0 1.1.9 2.1 1.9 2.1 1.1 0 1.9-1.7 1.9-3.9 0-2.1-.7-3.2-1.9-2.6-.9.6-1.9.2-1.9-.9 0-3.4 4.5-1.1 6.5 3.4 1.9 4.1 2.4 4.1 43.8 4.1 23.1 0 54.8.6 70.5 1.1 42.3 1.7 108.6-.7 108.6-4.1 0-1.5.9-2.6 2.1-2.6 1.1 0 1.7 1.3.9 2.8-.7 2.4 1.3 2.8 13.4 2.8 7.8.2 50.9.4 95.9.6 44.8.2 80.9-.2 80.4-1.1-.4-.7.6-1.3 2.2-1.3 1.9 0 2.4.9 1.7 2.2-2.2 3.5 46.6.6 54.8-3.5 13.6-6.7 14.4-9.5 14.5-50 .2-20 .7-37.5 1.5-39.2.7-2.2 2.2-2.6 5.2-1.7 5.4 1.9 25.7.9 29.5-1.1 2.4-1.5 2.2-1.7-.6-1.9-2.1 0-3.2-.9-2.6-2.4.4-1.1 1.7-2.1 2.6-1.9 2.4.6 4.3-29.3 2.2-33-4.5-8-5.2-8.4-22.2-9.3l-17-.9-.4-112.5-.6-112.3h16.6c15.3 0 16.6-.4 21.1-5.2 3.9-4.1 4.7-6.3 3.9-11.6-.6-3.5-1.1-11-1.1-16.2 0-6.3-.7-9.7-2.1-9.3-1.1.2-2.6-.7-3-2.1-.6-1.5.2-1.9 2.6-1.1 3 1.1 3 .9.6-1.7-3-3.2-21.4-4.7-29.8-2.4-8.4 2.2-9.1.2-10.3-33.4-2.1-51.9-6-59.3-31.5-58.6-7.5.2-14.5-.2-15.7-.7-2-1.8-33.7-4-49.7-4-6.2.2-17 .2-24.2.2-7.1 0-44 .4-82.1.6-37.9.2-76.1.6-84.9.9s-19.6.7-24.2.6c-72.4-1.1-132.4-1.5-135.6-.7-2.4.6-4.1 1.7-3.7 2.4.2.7-.4 1.5-1.5 1.7-.9.4-1.9-.6-1.9-1.9 0-1.7-9-2.2-38.2-2.2-29.7 0-38 .6-37.9 2.2.4 1.3-.7 2.4-2.4 2.4-1.5 0-2.4-.7-1.9-1.7 2.2-3.4-9.9-3.9-94.9-3.9-47.2 0-100.9-.4-119.4-.7-24.5-.6-36.2-.1-42.9 1.6zm379.1 50.5c255.3.4 339.8-.2 339.8-1.7 0-1.7.6-1.5 1.5 0 .7 1.3 5.6 2.6 10.6 2.8l9.3.6.2 9.3c.4 14.9 2.8 165.6 2.6 168.8-.6 15.9 0 135.8.9 177.6s.7 53.7-1.1 54.8c-1.3.7-8.4 1.1-15.5.9-13.8-.6-64.2-.6-257.4-.4-100.2.2-113.2.6-112.3 3 .7 1.9-.2 2.8-2.6 2.8s-3.4-.9-2.6-2.8c.9-2.4-10.8-2.6-93.8-2.6-52 .2-110 .7-128.9 1.3-18.7.7-33.9.7-33.9-.2 0-2.2-6.5-1.5-9 .9-1.7 1.7-2.8 1.9-3.7.4-.7-1.5-9.7-2.2-24.4-2.4-12.7-.2-23.9-.7-24.6-1.3-.9-.6-1.7-7.6-1.7-16 0-12.5-.4-14.7-2.8-13.8-1.9.7-2.8-.2-2.8-2.6s.9-3.4 2.8-2.6c2.4.9 2.8-7.3 3-66.6.7-223.1.7-220.5-1.9-221.4-1.5-.6-1.9-1.3-.6-2.1 2.8-1.7 3.2-24.2.6-32.5-1.3-3.7-1.7-7.8-.7-9.1.7-1.3 1.5-11.8 1.9-22.9.2-11.4.4-21.6.4-23.1.2-1.7 1.3-2.1 3.5-.9 1.7.7 156.2 1.6 343.2 1.8z"/><path d="m682.7 99.4-39.7.4-7.3 7.1c-6.2 6-7.5 8.4-8.4 17.2-2.1 17.7-2.1 42.5-.4 82.1.9 21.1 1.5 41.6 1.1 45.7s-.7 38.4-.7 76.5l-.2 69 4.5 7.3c2.4 3.9 7.1 8.2 10.4 9.7 7.5 3.2 82.4 3.9 92.3.9 9.1-2.8 16.4-12.1 17.5-22.4 1.9-18.1 1.1-155.9-.9-161.1l-2.1-5h-25.6c-17.3 0-26.3.7-27.8 2.2s-2.2 8.8-2.2 20.1v17.9l5.6 3.2 5.6 3.4.2 20.9c0 11.6 0 30.2-.2 41.8-.2 12.5.6 22.2 1.9 24.2 1.5 2.4 1.7 4.8.2 8.4-1.9 5-2.1 5-16 4.3-15.9-.7-18.8-1.9-15.9-5.6 2.1-2.6 3-133 1.3-194.3l-.9-30 13.4-.7c20-.9 19.8-1.1 19.8 12.3 0 6.5.9 12.5 2.2 13.8 1.7 1.7 1.7 2.2 0 2.2-4.1 0-2.4 5.2 2.1 6.2 6.7 1.3 33 .2 34.9-1.7.7-.9 1.9-15.3 2.4-32.1l.7-30.6-5.2-5.2c-4.5-4.5-8.4-6-20.9-8-1.2-.4-20.1-.4-41.7-.1zm-533 3.6c-1.7 1.7-2.2 12.3-1.7 38.2.6 41.8.4 38.6 2.6 35.1 1.5-2.2 1.9-1.7 1.9 2.2 0 2.6-.9 5.2-2.2 5.6-1.7.6-2.2 8.6-2.2 27.8-.2 23.3-.6 27.6-3.4 30.4-2.8 2.6-3.4 6.7-3.4 23.9 0 11.4.6 20.1 1.3 19.6 1.7-1.7 8 4.1 8 7.5 0 1.3-.6 2.4-1.3 2.4-.9 0-1.7 25.6-2.1 56.9-.2 31.3.4 56.9 1.1 56.9.9 0 2.6 2.1 3.7 4.7 2.1 4.5 2.8 4.7 20.7 4.7 27.6 0 26.1 3.4 25.6-64.5-.4-29.7-.7-54.8-1.1-55.8-2.1-8-1.1-8.4 25.4-8.4 28.7 0 39.5-2.1 45.9-8.8l4.3-4.7.6-80.9c.4-54.5-.2-82.3-1.5-84.7-4.7-8.6-9.7-9.3-66.6-9.9-39.4-.3-54.2.1-55.6 1.8zm73.6 44.7c.2 1.9.2 21.8.4 44.4 0 22.6.6 39.5.9 37.7 1.5-5.6 4.3-3.4 4.3 3.5 0 5.4-.6 6.5-3 5.6-2.1-.7-2.6-.2-1.9 2.2.9 2.8-.2 3.2-11.4 2.6-7.1-.4-13.4-1.9-14.9-3.2-3-3-3.2-8.4-.4-8.4 1.3 0 1.7-13.1.9-42.7-.4-23.5-.4-43.3.2-43.8.7-.6 6.5-1.1 13.1-1.1 10 .1 11.8.6 11.8 3.2zm86-45.3c-3.2 3.7-2.1 45.1 1.3 44.4 1.1-.2 2.2.9 2.2 2.4s-1.1 2.6-2.2 2.2c-1.7-.2-2.6 2.8-3 9.5-.4 7.8 0 9.7 1.9 8.6s1.9-.9.4 1.3c-3 3.9-5 215.2-2.2 227.7 1.7 6.7 3.7 10.3 8.4 13.6l6.2 4.8 48.9-.7c54.5-.7 58.4-1.7 64.3-13.1 4.1-8 5.8-70.9 4.8-180.4-.4-44.6-.7-89-.7-98.3 0-10.8-.7-17.7-2.1-18.7-1.3-.6-2.6-.2-3 .9-.9 3.2-4.1 2.8-4.1-.6 0-2.2-3-2.8-15.9-2.8-25.6 0-23.7-6.2-23.5 79.8.2 39.7.7 83.4 1.3 96.8.9 17.7.6 24.8-.9 24.8-3.4 0-2.4 7.1 1.3 9.1 2.2 1.5 2.6 2.4.9 3.4-1.3 1.1-2.4 10.3-2.8 27-.6 21.6-1.1 26.1-3.9 28.9-3.2 3.2-3.5 3.2-5.8 0-2.8-3.5-10.6-4.1-16.2-1.1-5.6 2.8-11.4-2.6-9.9-9.3 1.3-5.6 2.2-160.4 1.3-216.5l-.7-38.4-8-4.3c-5.4-3-9.3-4.1-11.6-3-3.5 1.5-16 1.5-21.4-.2-1.7 0-4 .7-5.3 2.2zm166.2-.2c-2.1 2.8-2.8 70.5-.7 79.6.9 3.5.9 12.3.4 19.6-.7 7.3-.6 14 .4 15.3 2.4 3 0 9.9-3.4 9.9-1.5 0-2.2.9-1.7 1.9.6 1.1-.2 3.2-1.7 4.8-3.4 3.4-4.3 29.5-1.1 31.5 1.1.6 1.9 2.8 1.9 4.7s.9 3.7 2.1 4.1c1.7.6 2.2 17.3 2.2 61.2-.2 35.1.6 61.5 1.7 62.9.9 1.1.9 2.6.2 3-.9.6-1.3 4.5-.9 8.6l.7 7.6 49.8-.6c74.2-.6 69.9 4.7 70.1-87.1 0-61.7-.2-64.5-3.7-68.3-11.2-12.1-12.5-14.4-9.5-16 7.5-4.1 9.3-12.7 9.7-40.7.2-14.9.6-42 .9-60.2.6-31.3.4-33.4-3.4-36.9-5.8-5.8-14.5-6.9-65.1-7.1-35.3 0-47.4.4-48.9 2.2zm69.8 42.6c1.1 1.9 1.1 16 0 70.7-.2 13.6-1.1 14.4-15.1 12.1l-8-1.1-1.1-16.2c-.6-9-1.1-17.5-1.3-19 0-1.5.6-13.1 1.3-25.7l1.3-22.8h10.8c5.9-.1 11.3.8 12.1 2zm-.8 131.1c.7 1.1 1.5 15.5 1.5 31.9s.2 37.5.2 47c.2 9.3-.2 17.9-.9 18.8-1.5 2.4-20.9 1.5-24.1-1.3-2.1-1.7-2.4-3.9-1.3-9 .9-3.7 1.7-24.8 1.7-47 0-34.7.4-40.5 3-42.3 3.5-2.6 17.9-1.3 19.9 1.9z"/></svg>