<svg width="32" height="32" viewBox="0 0 32 32" fill="none" xmlns="http://www.w3.org/2000/svg">
<g clip-path="url(#clip0_1325_67384)">
<path d="M7.58848 5.36889C7.68649 5.31045 7.74895 5.42856 7.80182 5.49071C11.2037 9.74655 14.6096 13.9993 18.0112 18.2552C18.0811 18.3157 18.0282 18.4453 17.9339 18.4314C16.3052 18.4332 14.6761 18.432 13.0473 18.432C12.9169 18.4335 12.792 18.3686 12.7119 18.2669C11.0219 16.1555 9.33287 14.0432 7.6429 11.9315C7.57117 11.8462 7.53407 11.7358 7.5387 11.6248C7.5387 9.58485 7.53932 7.54458 7.53809 5.50462C7.53901 5.45639 7.53716 5.39393 7.58848 5.36889Z" fill="#FF4655"/>
<path d="M23.322 5.359C23.3915 5.33271 23.4682 5.39702 23.458 5.46999C23.4605 7.51088 23.4577 9.55177 23.4592 11.5927C23.4639 11.7083 23.4385 11.8279 23.3634 11.9188C22.8499 12.5613 22.3357 13.2035 21.8221 13.8456C21.7365 13.9569 21.5964 14.0185 21.4564 14.0114C19.8385 14.0098 18.2202 14.0123 16.6023 14.0101C16.5067 14.025 16.4523 13.896 16.5228 13.8339C18.7665 11.0269 21.0121 8.22075 23.257 5.41434C23.274 5.39022 23.2957 5.37167 23.322 5.359Z" fill="#FF4655"/>
<path d="M12.1356 21.9418C12.6266 21.8664 13.142 21.9532 13.5785 22.1919C14.0018 22.421 14.3496 22.7868 14.5565 23.2218C14.7859 23.6989 14.8393 24.2566 14.7098 24.7699C14.5867 25.2667 14.289 25.7175 13.8827 26.0288C13.188 26.5761 12.1699 26.6568 11.3963 26.2292C10.9511 25.9902 10.59 25.5997 10.3862 25.1372C10.1296 24.5627 10.1262 23.8816 10.3764 23.304C10.6778 22.588 11.366 22.0528 12.1356 21.9418ZM12.2596 22.7147C11.7667 22.7893 11.3333 23.1392 11.14 23.5965C10.9403 24.0516 10.9796 24.6035 11.2458 25.0237C11.464 25.3777 11.8363 25.6356 12.2481 25.7017C12.6667 25.7753 13.1126 25.6458 13.4317 25.3663C13.7956 25.0549 13.9925 24.5639 13.9514 24.0872C13.9205 23.6618 13.7022 23.2536 13.3618 22.9955C13.0532 22.7568 12.6451 22.6514 12.2596 22.7147Z" fill="#FF4655"/>
<path d="M0 22.0472C0.191072 21.9953 0.392966 22.0373 0.588367 22.0225C0.657932 22.0321 0.763671 21.9962 0.802937 22.0747C0.816541 22.1771 0.807884 22.2807 0.809121 22.3839C0.809121 23.2839 0.808812 24.1843 0.809121 25.0843C1.59814 24.0983 2.38624 23.1117 3.17434 22.1251C3.21546 22.0738 3.27142 22.0284 3.34037 22.0271C3.56669 22.0172 3.79331 22.0284 4.01994 22.0228C4.10466 22.0243 4.19865 22.0083 4.271 22.0645C4.00727 22.4121 3.72777 22.7475 3.45755 23.0901C2.6475 24.1042 1.83714 25.118 1.02678 26.1318C0.966493 26.2054 0.913623 26.2864 0.841584 26.3501C0.770783 26.4085 0.672155 26.3903 0.58744 26.3949C0.391729 26.3881 0.194783 26.4054 0 26.3813V22.0472Z" fill="#FF4655"/>
<path d="M5.47864 22.2043C5.56274 22.0902 5.70063 22.0209 5.84254 22.024C6.01754 22.0244 6.19284 22.0209 6.36784 22.0256C6.42813 22.0191 6.46183 22.0815 6.4541 22.1347C6.4541 23.5168 6.4541 24.8991 6.4541 26.2811C6.46214 26.3343 6.42967 26.3992 6.36784 26.3924C6.1511 26.3949 5.93437 26.3949 5.71763 26.3921C5.63818 26.3943 5.57541 26.3383 5.53089 26.2786C5.15617 25.8081 4.77959 25.3391 4.40486 24.8685C4.02334 25.3437 3.64397 25.8204 3.26337 26.2966C3.22256 26.3488 3.16351 26.3927 3.09425 26.3918C2.84598 26.3974 2.5974 26.3906 2.34882 26.3946C2.28792 26.3906 2.21155 26.4101 2.17383 26.3467C3.26894 24.9609 4.37889 23.5863 5.47864 22.2043ZM4.86121 24.209C5.11845 24.529 5.37197 24.8518 5.63107 25.1699C5.63292 24.5284 5.6323 23.8872 5.63168 23.2456C5.37414 23.5662 5.11752 23.8875 4.86121 24.209Z" fill="#FF4655"/>
<path d="M7.43575 22.1338C7.42988 22.0849 7.45647 22.025 7.51305 22.0262C7.73102 22.0209 7.94992 22.0231 8.1682 22.0253C8.23065 22.0185 8.26961 22.0803 8.25971 22.1375C8.26095 23.2957 8.26033 24.4539 8.26002 25.6124C8.86601 25.6145 9.472 25.6108 10.0777 25.6139C10.1296 25.6028 10.1621 25.6686 10.121 25.7036C9.96329 25.9067 9.80035 26.1061 9.63989 26.3077C9.59135 26.3733 9.5091 26.3998 9.42995 26.394C8.79119 26.3918 8.15212 26.3964 7.51335 26.3918C7.45461 26.3943 7.43019 26.3306 7.43575 26.2814C7.43575 24.8991 7.43544 23.5164 7.43575 22.1338Z" fill="#FF4655"/>
<path d="M15.5106 22.1353C15.4963 22.0717 15.5477 22.0138 15.6123 22.0243C16.7167 22.0231 17.8207 22.0237 18.9248 22.024C18.9758 22.0169 19.0361 22.0488 19.0312 22.1069C19.0346 22.4062 19.0318 22.7058 19.0324 23.0051C19.0389 23.0765 19.0012 23.1392 18.9573 23.1918C18.6385 23.586 18.325 23.9842 18.0053 24.3778C17.9896 24.4056 17.937 24.4424 17.9769 24.4746C18.4598 25.0818 18.9468 25.6863 19.4291 26.2938C19.464 26.3229 19.4647 26.3921 19.4075 26.3906C19.1212 26.3968 18.8345 26.3937 18.5482 26.3921C18.436 26.3937 18.3726 26.2895 18.3105 26.2128C17.8671 25.6566 17.4235 25.1007 16.9785 24.546C16.9455 24.5052 16.8948 24.4461 16.9408 24.3958C17.3598 23.864 17.7864 23.3377 18.2075 22.8072C17.5839 22.8044 16.96 22.8124 16.3367 22.8032C16.3256 23.9719 16.3373 25.1412 16.3308 26.3099C16.3379 26.3643 16.2817 26.4005 16.2328 26.393C16.0164 26.393 15.8 26.3964 15.5835 26.3915C15.526 26.3921 15.5028 26.3275 15.5103 26.2796C15.5106 24.8982 15.5103 23.5168 15.5106 22.1353Z" fill="#FF4655"/>
<path d="M20.1325 22.1375C20.1226 22.0819 20.1588 22.0182 20.2212 22.0253C20.4274 22.0216 20.6343 22.0237 20.8408 22.0243C20.9181 22.0197 20.9929 22.0559 21.0384 22.1186C22.0689 23.4079 23.0991 24.6975 24.1295 25.9868C24.2183 26.1058 24.3246 26.2128 24.4016 26.3405C24.3942 26.3525 24.3794 26.3767 24.3719 26.3887C24.1221 26.4014 23.8714 26.3887 23.6213 26.3943C23.5226 26.3958 23.4033 26.4042 23.338 26.3139C22.951 25.8337 22.5676 25.3505 22.1823 24.8688C21.8008 25.3437 21.4211 25.8204 21.0408 26.2963C21 26.3491 20.9404 26.3924 20.8711 26.3921C20.6553 26.3952 20.4395 26.3943 20.224 26.3927C20.1597 26.4017 20.1223 26.3368 20.1325 26.2802C20.1325 24.8994 20.1328 23.5183 20.1325 22.1375ZM20.9552 23.2478C20.9543 23.889 20.9543 24.5299 20.9552 25.1712C21.2124 24.8509 21.4684 24.5296 21.7248 24.2087C21.4678 23.8887 21.2137 23.5662 20.9552 23.2478Z" fill="#FF4655"/>
<path d="M23.7659 22.1387C23.7595 22.0908 23.7808 22.0284 23.8374 22.0271C24.043 22.0188 24.2489 22.0259 24.4545 22.0237C24.5343 22.0185 24.6177 22.0448 24.6663 22.1115C25.4593 23.1015 26.2493 24.094 27.0429 25.0834C27.0429 24.1011 27.0426 23.1188 27.0429 22.1363C27.0296 22.0744 27.0779 22.0145 27.1425 22.0243C27.3602 22.0247 27.5778 22.0194 27.7952 22.0271C27.8508 22.0293 27.8709 22.0911 27.8647 22.1387C27.8647 23.5189 27.8647 24.8991 27.8647 26.2793C27.8712 26.3263 27.8505 26.39 27.7942 26.3909C27.5781 26.3971 27.3614 26.3927 27.1453 26.393C27.0739 26.3958 27.0061 26.3615 26.9641 26.3049C26.172 25.3159 25.3826 24.3243 24.5899 23.3359C24.589 23.9156 24.5915 24.4956 24.589 25.0753C24.6041 25.127 24.5305 25.1712 24.4993 25.1242C24.2718 24.8481 24.0519 24.5655 23.8275 24.2869C23.7774 24.2322 23.7613 24.1586 23.765 24.0866C23.7663 23.4373 23.7647 22.788 23.7659 22.1387Z" fill="#FF4655"/>
<path d="M28.4333 22.1066C28.4268 22.0503 28.4868 22.0179 28.536 22.0243C29.4437 22.0228 30.3515 22.0243 31.2592 22.0237C31.3377 22.0188 31.42 22.0444 31.4679 22.1106C31.6287 22.311 31.791 22.5107 31.949 22.7135C31.9907 22.7475 31.9595 22.8149 31.9069 22.8056C31.4323 22.8094 30.9574 22.8056 30.4825 22.8072C30.4804 23.9648 30.4853 25.1223 30.485 26.2799C30.4962 26.3352 30.4581 26.3989 30.3963 26.3924C30.1796 26.3943 29.9625 26.3952 29.7461 26.3921C29.7 26.3961 29.6598 26.3553 29.6645 26.3099C29.6567 25.1424 29.6642 23.9746 29.658 22.8072C29.2836 22.8063 28.9088 22.8084 28.5347 22.8066C28.4849 22.8124 28.4256 22.7781 28.4333 22.7219C28.4302 22.5169 28.4299 22.3116 28.4333 22.1066Z" fill="#FF4655"/>
</g>
<defs>
<clipPath id="clip0_1325_67384">
<rect width="32" height="32" fill="white"/>
</clipPath>
</defs>
</svg>
