<svg viewBox="0 0 32 32" fill="none" xmlns="http://www.w3.org/2000/svg">
  <path fill-rule="evenodd" clip-rule="evenodd"
    d="m8.2 18 5.1 5.6-4.7 1L6 22.5 8.2 18ZM21.7 7.3 24 8.6l-.8 4L18 9.3l3.7-1.9Zm-14 0A77.6 77.6 0 0 0 10.4 9l.3.5c.5 0 .6 0 1.2.5L26 19.6l-1.8 5h-2.6L6 8.3l.5-.3c.4-.2.9-.6 1.2-.6Zm2-3.3H4c-.4.2-.7.4-.7 1v6.1l.7 1.8-.7 1v.7l.7.5v.9l-.7.7v2.5l.7.4v2.7c-.7.5-.7 1.1-.7 1.8v3.2c1.6.3 1.3.7 3.1.7h3.3c.6-.2 1-.7 1-.7l1.8.7.7-.7 1 1.4.6-.7 1.9.7s.6-.7 1.4-.7h3.6l.6-.7c.3.2 0 .7 2.6.7.7 0 1.3-.2 1.3-.2 0-.3 0-.3-.3-.5 0 0 1.7 0 2.8.7V17.7l-1.4.4c0-.2.7-.5.7-1l-.1-2.7c0-.2-.4-.8-.6-1 .2-.4.7-.7.7-.7v-.5l.7-.4V9L28 6.2l.7-.8v-.8L28 4l-2.3-.3-.6.3-.2-.4-4.1-.3c-.8 0-.7 0-1 1l-1.1.1-.1-.4h-1.2l.2-.2.3-.5h-4l-.5.7-.6.2c-.3.1-.3.5-.6.5h-1.5c-.9 0-1-.7-1-.7Z"
    fill="#F44336" />
</svg>