<svg viewBox="0 0 32 32" fill="none" xmlns="http://www.w3.org/2000/svg">
  <g clip-path="url(#a)" fill-rule="evenodd" clip-rule="evenodd">
    <path d="M32 16a16 16 0 1 1-32 0 16 16 0 0 1 32 0Z" fill="#D9001C" />
    <path
      d="m15.8 18.3.8 1.9-.1.3a6.6 6.6 0 0 1-11.4-2.8 6.7 6.7 0 0 1 7.4-8.2c2.5.3 4.1 1.7 5.1 4l2.4 5.3.3.6a3 3 0 0 0 4.2 1l.7-.8c.5-1 .1-2-.8-2.4l-2.5-1-1.4-.7a3 3 0 0 1-1.4-3c.2-1.2.7-2.2 2-2.6 1.4-.6 3.5-.6 4.7 1.3.1.2.1.3-.2.4l-.8.5-.5-.1a2 2 0 0 0-2.1-.8c-.7.2-1.2.7-1.3 1.4-.1.8.2 1.3.9 1.7l2 .7 1.4.5c1.9 1 2.6 3.1 1.5 5-.5 1-1.4 1.6-2.4 1.9-1.5.4-2.9.3-4.2-.5a4.3 4.3 0 0 1-1.5-2 259 259 0 0 1-2.5-5.4c-.4-1-1-1.8-1.8-2.4a4.8 4.8 0 1 0 1.4 6.5l.1-.3Z"
      fill="#FDFDFD" />
  </g>
  <defs>
    <clipPath id="a">
      <path fill="#fff" d="M0 0H32V32H0z" />
    </clipPath>
  </defs>
</svg>