<svg viewBox="0 0 32 32" fill="none" xmlns="http://www.w3.org/2000/svg">
  <rect width="32" height="32" rx="16" fill="#1ED760" />
  <path
    d="M23.4 23a1 1 0 0 1-1.4.4 18.5 18.5 0 0 0-14-1.5 1 1 0 1 1-.5-2c6-1.4 11.3-.8 15.5 1.8.5.3.6.9.4 1.4Zm1.9-4.3c-.4.6-1.1.8-1.7.4a20.9 20.9 0 0 0-16-1.8c-.6.2-1.3-.2-1.5-.9-.2-.6.2-1.3.8-1.5 5.9-1.8 13-1 18 2.1.6.4.8 1.1.4 1.7Zm.2-4.5c-5.2-3-13.7-3.4-18.6-1.9-.8.3-1.6-.2-1.9-1-.2-.8.2-1.6 1-1.8 5.7-1.8 15-1.4 21 2.1.7.4 1 1.3.5 2-.4.8-1.3 1-2 .6Z"
    fill="#202020" />
</svg>