<svg viewBox="0 0 20 20" fill="none" xmlns="http://www.w3.org/2000/svg">
  <path
    d="M11.2 3.7h2.4v2.2c0 1.3.2 1.7.5 2 .4.4 1 .6 1.4.6h1.2c.3 0 .8-.1 1-.3.4-.2.7-.4.8-.8l.3-2c-.6-.3-1.3-.6-1.7-1V6l-.3.4-.2.1h-.7V1.6H9v2c0 1.2-.2 3-1.9 4.1L9 9.1c1.8-1.4 2.2-3.6 2.2-5.4ZM5.2 1c-.9 1.3-2.5 2.9-4 3.8.3.5.9 1.4 1.1 2 1.8-1.2 3.7-3.1 5-5L5.2 1Zm.5 4c-1 2-3 3.8-4.7 5l1.2 2.3 1.6-1.5v8.1H6V8.3L7.7 6l-2-.9Zm9 6.3c-.6 1-1.3 1.9-2 2.6a9.2 9.2 0 0 1-2-2.6h4Zm1.5-2.1H7.7v2.1h2.7l-1.7.5a13 13 0 0 0 2.3 3.4 14 14 0 0 1-4.3 1.9c.4.4 1 1.3 1.2 1.9 1.7-.5 3.3-1.3 4.7-2.2 1.4 1 3 1.7 5 2.2.3-.6.9-1.5 1.4-2-1.7-.4-3.3-1-4.6-1.7C16 13.9 17 12 17.7 9.8l-1.5-.6Z"
    fill="#fff" />
</svg>