<svg viewBox="0 0 32 32" fill="none" xmlns="http://www.w3.org/2000/svg">
  <path
    d="M0 15.4C0 8 0 4.5 2.2 2.2 4.5 0 8.2 0 15.4 0h1.2C24 0 27.5 0 29.8 2.2 32 4.5 32 8.2 32 15.4v1.2c0 7.3 0 10.9-2.2 13.2-2.3 2.2-6 2.2-13.2 2.2h-1.2C8 32 4.5 32 2.2 29.8 0 27.5 0 23.8 0 16.6v-1.2Z"
    fill="#07F" />
  <path
    d="M17 23.1c-7.1 0-11.5-5-11.7-13.3H9c.1 6.1 2.9 8.7 5 9.2V9.8h3.5v5.3c2-.3 4.2-2.7 5-5.3h3.4c-.6 3.3-3 5.7-4.6 6.6 1.7.8 4.3 3 5.4 6.7h-3.8c-.8-2.5-2.8-4.5-5.4-4.7V23h-.4Z"
    fill="#fff" />
</svg>