<svg xmlns="http://www.w3.org/2000/svg" fill="none" viewBox="0 0 24 24"><path fill="#fff" d="M20.5 20.5a12 12 0 1 1-17-17 12 12 0 0 1 17 17Z"/><path fill="url(#a)" fill-rule="evenodd" d="M16 20.5c-.2.5.2 1 .7.8A10.4 10.4 0 1 0 2.6 7.4c-.3.6.4 1 .9.8a9.3 9.3 0 0 1 9.7.9c.2.2.6.2.8 0l.9-1 .2-.5A1.7 1.7 0 1 1 16.6 9c-.2 0-.4 0-.6.2l-.9.9c-.2.2-.2.6 0 .8 2 2.8 2.3 6.4.9 9.5Zm-3.7 2 .4-.2.3-.3A7.7 7.7 0 1 0 1.7 11.5l-.2.4c0 1.6.4 3.3 1.1 4.7 0 .2.1.3 0 .4l-.3 4c0 .4.3.7.7.7l4.1-.5h.4c1.5.8 3.2 1.2 5 1.2Zm-7-7.8a1.6 1.6 0 1 0 2.3-2.4 1.6 1.6 0 0 0-2.3 2.4Zm6.5 4.1a1.6 1.6 0 1 1-2.3-2.3 1.6 1.6 0 0 1 2.3 2.3Z" clip-rule="evenodd"/><defs><linearGradient id="a" x1="-3" x2="25.2" y1="27.5" y2="-.8" gradientUnits="userSpaceOnUse"><stop stop-color="#1F84FC"/><stop offset="1" stop-color="#844BFF"/></linearGradient></defs></svg>
