<svg width="183" height="185" fill="none" xmlns="http://www.w3.org/2000/svg">
  <path
    d="m91.5 23.1.7-1.3c-.4-.2-1-.2-1.4 0l.7 1.3Zm61 30.9h1.5c0-.6-.3-1.1-.8-1.4l-.7 1.4Zm-122 0-.7-1.4c-.5.3-.8.8-.8 1.4h1.5Zm122 77 .7 1.4c.5-.3.8-.8.8-1.4h-1.5Zm-61 30.9-.7 1.3c.4.2 1 .2 1.4 0l-.7-1.3Zm-61-30.9H29c0 .6.3 1.1.8 1.4l.7-1.4ZM90.8 24.5l61 30.8 1.4-2.7-61-30.8-1.4 2.7Zm61 28.1-61 30.9 1.4 2.6 61-30.8-1.4-2.7ZM92.2 83.5l-61-30.9-1.4 2.7 61 30.8 1.4-2.6Zm-61-28.2 61-30.8-1.4-2.7-61 30.8 1.4 2.7Zm120.6 74.4-61 30.8 1.4 2.7 61-30.8-1.4-2.7Zm-59.6 30.8-61-30.8-1.4 2.7 61 30.8 1.4-2.7ZM32 131V54h-3v77h3Zm122 0V54h-3v77h3ZM90 84.8v77h3v-77h-3Z"
    fill="url(#paint0_linear_339_1022)" />
  <defs>
    <linearGradient id="paint0_linear_339_1022" x1="91.5" y1="23.1" x2="91.5" y2="161.9" gradientUnits="userSpaceOnUse">
      <stop stop-color="#ADA1F4" />
      <stop offset="1" stop-color="#ADA1F4" stop-opacity="0" />
    </linearGradient>
  </defs>
</svg>