<svg width="48" height="105" fill="none" xmlns="http://www.w3.org/2000/svg">
  <path
    d="M8 36.2a31.8 31.8 0 0 1 .7-23.3C16.9-6.2 35 5.2 34.9 5.3M8 36.2c2.8 8 8.6 14.9 16 18.8 6.1 3.2 19.7 3.1 18.2-7.1-1.3-9.2-11.5-15.4-20.2-15.7a20 20 0 0 0-14 4Zm0 0c-6.3 5.3-7 15.3-3.3 25.4C10.9 78.4 25 88.9 40.9 95.5m-17.5 7.8c1.2-1.5 3-2.2 4.6-3 5.4-2.8 12.2-4 18.2-2.3-5.6-3.9-11.5-10.8-11-17.9"
    stroke="#ADA1F4" stroke-width="3" stroke-miterlimit="1.5" stroke-linecap="round" stroke-linejoin="round" />
</svg>