<svg width="179" height="219" fill="none" xmlns="http://www.w3.org/2000/svg">
  <path
    d="M100.4 207.6c12.9-11.4 27-22.2 38.3-31.2m-38.3 31.2 38.3-31.2m-38.3 31.2a412 412 0 0 0 38.3-31.2m0 0c-23 11.4-33.6 21.3-42.8 24.6m42.8-24.6L96 201m42.8-24.6c-22.2 14.5-33 19.5-42.8 24.6m-80-89.9c6.3-2.2 12.3-5.1 18.3-7.7M15.9 111l18.3-7.7M15.9 111c3.8-2.2 7.8-3.3 18.3-7.7m0 0c-8.6 7.4-11.3 12-13.8 14.3m13.8-14.3-13.8 14.3m13.8-14.3c-6 5-9.4 9.6-13.8 14.3m-2.4 1.7c13.7-11.4 33.8-18.2 41.6-23.8M18 119.4l41.6-23.8M18 119.4c10.3-6.3 17-12 41.6-23.8m0 0a140.2 140.2 0 0 1-37.1 30.3m37.1-30.3-37.1 30.3m37.1-30.3c-15.6 15-26 21.1-37.1 30.3m-1.3.9c12.8-7 30.9-18 50.3-29.8m-50.3 29.8L71.5 97m-50.3 29.8c21-8.8 37.7-23 50.3-29.8m0 0c-21 19.6-32.6 29.6-45.7 36.3M71.5 97l-45.7 36.3M71.5 97c-9.9 7.3-26 21.6-45.7 36.3m-12.4 8.5c27.6-16.4 55.1-36 70-43.3m-70 43.3 70-43.3m-70 43.3c26.6-16.7 52-32.2 70-43.3m0 0c-31.6 29.8-47.7 35.9-65.4 49.8m65.4-49.8L18 148.3m65.4-49.8c-20.5 15.7-44 32.6-65.4 49.8m-5 3.4c23.9-15.9 53.7-30 82.3-51.7M13 151.7 95.3 100M13 151.7C36 137.5 56.3 125 95.3 100m0 0c-34.1 27.7-56.4 45.5-77.8 58.3M95.3 100l-77.8 58.3M95.3 100c-27.6 21.2-50.8 40.5-77.8 58.3m-4.9 3.4c25.5-15.6 48.8-33 90.9-57.7m-90.9 57.7 90.9-57.7m-90.9 57.7c18-11.3 36.3-21.5 90.9-57.7m0 0C68.6 130 44 147.2 17 168.2m86.4-64.2L17 168.2m86.4-64.2A835.4 835.4 0 0 0 17 168.2m-2.4 1.7c32-16.4 60-40.3 97-61.9m-97 62 97-62m-97 62c31.1-24 64.4-42.6 97-62m0 0c-49.2 37.2-67.2 54.6-92.5 68.5m92.5-68.5-92.5 68.5m92.5-68.5c-28.6 20-63 43.9-92.5 68.5m0 0c23.1-22.2 51.9-36.2 102-65.3m-102 65.3 102-65.3m-102 65.3a904.8 904.8 0 0 1 102-65.3m0 0c-21 10.5-58.2 42-97.5 71.8m97.4-71.8L23.7 183m97.4-71.8A811.1 811.1 0 0 1 23.7 183m0 0c22.5-10.9 45.8-28.4 110.5-71.1M23.7 183 134.2 112M23.7 183c42.8-29.3 83.6-56.5 110.5-71.1m0 0c-43.6 31-70 55.3-106 77.7m106-77.7-106 77.7m106-77.7c-34.6 23.7-71.8 51-106 77.7m2.5-1.7c30.8-22.7 58.2-37.9 110.5-71.2M30.7 188l110.5-71.2M30.7 188c45-25.7 85.8-51.6 110.5-71.2m0 0a1375.7 1375.7 0 0 1-106 77.7m106-77.7-106 77.7m106-77.7c-59 45.7-82.4 64.6-106 77.7m2.4-1.6c25.7-13.5 47.5-32 106.9-68.7M37.6 192.8 144.5 124M37.6 192.8c22-12.5 46-29 106.9-68.7m0 0c-27 20.8-65 49.9-102.4 75.2m102.4-75.2L42 199.3m102.4-75.2c-46.8 32-73.6 53-102.4 75.2m1.3-.8c36-27.3 74.3-53.6 97-61.9m-97 61.9 97-61.9m-97 61.9c28-17.5 53.8-32.4 97-61.9m0 0c-37.1 25.2-66.1 45.8-92.5 68.4m92.5-68.4L47.9 205m92.5-68.4c-38.8 33-66.3 52-92.5 68.4m4.9-3.4c27.9-12.5 50.2-33 88.4-55.9m-88.4 56 88.4-56m-88.4 56c27.6-17.3 56.7-34 88.4-56m0 0c-42.8 29.9-59.6 50.5-83.9 62.5m83.9-62.5-83.9 62.5m83.9-62.5a527.9 527.9 0 0 1-83.9 62.5m6.2-4.2c25.2-10.7 48.9-29.5 78.5-49.2M63.5 204l78.5-49.2M63.5 204a749.2 749.2 0 0 1 78.5-49.2m0 0c-35.8 25.8-58 37.5-74 55.7m74-55.7-74 55.7m74-55.7C123 166 95.3 187.5 68 210.5m11-7.6a549 549 0 0 1 63.8-39m-63.8 39 63.8-39m-63.8 39c18-10.8 35.8-23 63.8-39m0 0c-23.2 16.9-42.4 29.7-59.3 45.6m59.3-45.6-59.3 45.6m59.3-45.6c-27.6 20.8-46 33-59.3 45.6m16.8-13.2c9.6-7.6 18.6-15 27-24m-27 24 27-24m-27 24c6.5-5.2 9-6.9 27-24m0 0c-17.5 8.2-22 14-31 18.4m31-18.4-31 18.4m31-18.4c-10.2 3.2-18.8 11.3-31 18.4M27.4 137a105 105 0 0 0 29.8-17.4M27.5 137l29.8-17.4M27.5 137c10.5-8.6 21-12.7 29.8-17.4m0 0c-16.2 14-20.1 17.8-25.7 23m25.7-23-25.7 23m25.7-23c-14.7 14.4-21.4 17.8-25.7 23m-6 4.4c11.2-6 24.3-17.8 41.8-26.2M25.6 147 67.4 121M25.6 147c14-10.5 30.2-18.7 41.8-26.2m0 0c-14.1 12-27.7 21-37.7 31.9m37.7-32-37.7 32m37.7-32c-22.5 16.3-31.2 24-37.7 32m-2.4 1.7c12-6.8 24.4-18 50.3-32.4m-50.3 32.4 50.3-32.4m-50.3 32.4c16-11.7 30.6-20.3 50.3-32.4m0 0a792 792 0 0 0-46.2 38m46.2-38-46.2 38m46.2-38a361.3 361.3 0 0 0-46.2 38M29 162c13.7-11.9 25.9-18.7 58.7-38.6M29 162l58.7-38.6M29 162c17-12 36.3-24.3 58.7-38.6m0 0c-21 19.4-40 32.8-54.6 44.3m54.6-44.3-54.6 44.3m54.6-44.3a300.3 300.3 0 0 0-54.6 44.3m-1.2.9c14.8-10.5 31.8-22 66-44m-66 44 66-44m-66 44c20.2-15.3 44-29.3 66-44m0 0c-25.2 19.9-42.6 39-61.9 49.6M98 124.6 36 174M98 124.6C68.8 148 53.6 160.4 36 174m0 0c17.6-15.3 44.5-26 73.2-49.2M36 174.1l73.2-49.2M36 174.1c26.5-20.7 52.3-39.6 73.2-49.2m0 0c-35.3 28.9-53 44.9-69 54.8m69-54.8-69 54.8m69-54.8c-21.3 17.5-43.5 36.5-69 54.8m1.1-.8c15.6-14.6 38.3-25 74.5-50m-74.5 50 74.5-50m-74.5 50c19.8-12.2 40-24.3 74.5-50m0 0a549.7 549.7 0 0 0-70.3 55.6m70.3-55.7-70.3 55.7m70.3-55.7c-39.8 30.6-57 42-70.3 55.7m4.8-3.5c30.7-21.7 59.6-38 72-48.3m-72 48.3 72-48.3m-72 48.3c24.4-17.2 49-34.5 72-48.3m0 0c-14.3 9.6-42.8 35.2-67.9 54m67.9-54-67.9 54m67.9-54c-30.8 25.3-50 38.6-67.9 54m2.4-1.9c24.6-18.8 52.6-33.1 69.6-46.5m-69.6 46.5 69.6-46.5m-69.6 46.5c16.5-9.5 28-17.7 69.6-46.5m0 0c-17.2 14.2-38.3 31-65.5 52.2m65.5-52.2L61 190.5m65.5-52.2c-41 28.5-54.2 40.2-65.5 52.2m7.3-5.3c22.1-17.3 45-27.5 60-39.5m-60 39.5 60-39.5m-60 39.5c9.8-7.4 24-16 60-39.5m0 0c-10 10.5-31 26.4-55.9 45.1m55.8-45-55.8 45m55.8-45-55.8 45m6-4.4c9.5-9.6 25.6-15.8 51.5-33.3m-51.5 33.3 51.5-33.3m-51.5 33.3c17-12.4 37-23.9 51.5-33.3m0 0c-8.9 6.4-25.7 21.4-47.4 39m47.4-39-47.4 39m47.4-39c-23.2 20.9-34 30.3-47.4 39m6-4.4c12.8-6 30-19 40.7-25.4m-40.6 25.4 40.6-25.4m-40.6 25.4a303.3 303.3 0 0 0 40.6-25.4m0 0c-9.2 7-24 17-36.5 31m36.5-31-36.5 31m36.5-31c-16.8 13-25.7 22-36.5 31M31.1 88.2c1-2.5 2.4-4.6 3.8-8.4M31 88.2l3.8-8.4M31 88.2c1.2-1.6 1.6-3.5 3.8-8.4m0 0a38 38 0 0 0-7 6m7-6-7 6m7-6c-3 2.4-5.6 4.5-7 6m-14.5-7.1c2.3-2.9 6.5-6.2 9.6-9.6m-9.6 9.6L23 69m-9.6 9.6C15 76 17.5 75 23 69m0 0c-3 3-4.8 8.3-6.4 12M23 69l-6.4 12M23 69c-2.6 4.5-4.2 9-6.4 12m-2.7 3.5c3.8-2.5 6.6-7 13.2-14.3M14 84.6l13.2-14.3M14 84.6c6.7-6.5 11-12.5 13.2-14.3m0 0c-1.1 5-6.1 9.9-10 16.7m10-16.7L17.1 87m10-16.7c-6 10-7.5 13-10 16.7m.9-1.2c2.8-3.9 7-4.7 13.2-14.3M18 85.8l13.2-14.3M18 85.8a62 62 0 0 1 13.2-14.3m0 0c-3.6 5-6.5 10.3-10 16.7m10-16.7-10 16.7m10-16.7c-4 7.2-7.9 11.7-10 16.7m0 0c5.4-5.4 7.2-9.6 13.2-14.4M21.2 88.2l13.2-14.4M21.2 88.2c3.2-4.7 8.6-8.4 13.2-14.4m0 0c-4.3 4.3-5.7 10.5-10 16.8m10-16.8-10 16.8m10-16.8c-4.3 8.3-7.5 12.2-10 16.8m119.2 12.7c3.3-5.8 7.3-11 9.9-17m-10 17 10-17m-10 17c.8-3.2 5-6.6 10-17m0 0c-6.6 5.4-8.4 10.5-14.3 13.5m14.3-13.4-14.3 13.4m14.3-13.4c-5.5 6.3-10.6 10.4-14.3 13.4m-6.9-9.3c4.2-1.8 6-7.8 11.5-9.9m-11.5 10 11.5-10m-11.5 10c4.7-3.5 8.6-7 11.5-10m0 0c-4.8 6.6-5 10.3-7.1 13.4m7-13.4-7 13.4m7-13.4c-4.1 7.5-5.7 10.4-7 13.4m-2.8 3.5c2.9-2 6.7-8.4 15.2-14.6m-15.2 14.6L149 83m-15.2 14.6c5-5 9-8.8 15.2-14.6m0 0c-2.6 6.9-6.8 10.8-10.8 18.1M149 83l-10.8 18M149 83a97.2 97.2 0 0 0-10.8 18"
    stroke="#8488F9" stroke-width="1.4" stroke-linecap="round" stroke-linejoin="round" />
  <path fill-rule="evenodd" clip-rule="evenodd"
    d="M111.2 154.9c-.5-.2-.7-.8-.6-1.3a6.8 6.8 0 1 0-13.4-2H96c-.5 0-1-.6-.9-1.1a9 9 0 0 1 10.8-7.3 9 9 0 0 1 6.8 11.2c-.2.5-.8.8-1.3.6l-.2-.1ZM59.5 147.4c-.6-.1-.9-.7-.9-1.2a6.8 6.8 0 1 0-13.4 1l-1.2.2c-.5 0-1-.3-1.1-.8a9 9 0 0 1 16-6.5 9 9 0 0 1 1.9 6.5c0 .6-.6 1-1.1.8h-.2Z"
    fill="#FAF7FF" />
  <path
    d="M146.1 101.5c0 3.3-.9 10.7-5.3 13.6M20.6 103.5c-1.4-2.5-3.8-9-1.7-15.7m99.3 21.7a14.2 14.2 0 0 1 17 1.6c6 5.4 8 9.7 7.4 15.4-.6 5-4.6 10-4.6 10m-19.8-27A71 71 0 0 0 81.6 97c-17-2.6-30.2.1-40.2 5.7m76.8 6.7c8.6 6 16 14.8 19.8 27m0 0a67.2 67.2 0 0 1 2.5 25.5c.1 17.3-13.8 50-70.5 42.8-21-1.7-62-15-57.4-54.8.6-6.8 2.7-15.5 7-23.9m21.8-23.3c-8-7-16.2-3-19.3-.1-3.3 2.9-8.4 11.5-2.5 23.4m21.8-23.3A54 54 0 0 0 19.6 126m15.2-46.5a10.7 10.7 0 1 1-21.2-2.3 10.7 10.7 0 0 1 21.2 2.3Zm118.3 12.8A10.7 10.7 0 1 1 132 90a10.7 10.7 0 0 1 21.2 2.3Z"
    stroke="#F3F4FF" stroke-width="2" stroke-linecap="round" stroke-linejoin="round" />
  <path
    d="M109 125.4c-14-3.9-41.2-6-53-6.6a31 31 0 0 0-30 30c-2 19.4 11.4 30 18.4 33 12.2 5 42.2 9 55.7 6.8 22-3.5 28-20.7 28-28.8 2.5-22.5-11.7-32.3-19-34.4Z"
    stroke="#F3F4FF" stroke-width="2" stroke-linecap="round" stroke-linejoin="round" />
  <path
    d="m54.5 45.8 5.4 2.6M72.6 27c.9 2 2 3.8 3 5.8M96.6 34.3c1.4-2.5 2.5-5.1 3.9-7.6M116.5 52.4c2.7-1.2 5.5-2.4 8-4M104 54.8l3.5-.8M101.2 63.6l5.7-1.9M98.4 71.2l5.7-1.9M90.5 74l5.7-1.9M85.1 70.2c-2.6.9-5.5 1.7-8 2.8"
    stroke="#8488F9" stroke-width="3" stroke-miterlimit="1.5" stroke-linecap="round" stroke-linejoin="round" />
  <path clip-rule="evenodd"
    d="M97.8 72.2c2.3-6.9 4.5-14 6.5-21a62.4 62.4 0 0 0-10.6 5.4 40.6 40.6 0 0 0-7.8-9.7 67 67 0 0 0-8.7 9.1 40.4 40.4 0 0 0-8.5-6c.7 6.8 1.7 13.6 3.2 20.3 4-1 6.4-.8 9.9-.7 5.9.3 10.2 1.1 16 2.6Z"
    stroke="#F3F4FF" stroke-width="3" stroke-miterlimit="1.5" stroke-linecap="round" stroke-linejoin="round" />
  <mask id="a" fill="#fff">
    <path d="M89.4 163.5c1 .1 1.9 1.1 1.6 2.2a14.7 14.7 0 0 1-29-2.9c0-1.1 1-2 2-1.8l12.7 1.3 12.7 1.2Z" />
  </mask>
  <path d="M89.4 163.5c1 .1 1.9 1.1 1.6 2.2a14.7 14.7 0 0 1-29-2.9c0-1.1 1-2 2-1.8l12.7 1.3 12.7 1.2Z" fill="#ECE9F1" />
  <path
    d="m65.3 171.6-1.6 1.3 1.6-1.3Zm11.4-9.3.2-2-.2 2ZM64 161l.2-2-.2 2Zm27 4.7-2-.5 2 .5Zm-2-.5c-.6 2.7-2 5.1-4.2 7l2.5 3c2.8-2.3 4.8-5.5 5.7-9l-4-1Zm-4.2 7c-2.7 2-6 3-9.4 2.7l-.4 4c4.4.5 8.9-.9 12.3-3.7l-2.5-3Zm-9.4 2.7c-3.3-.3-6.4-2-8.6-4.6l-3 2.6c2.7 3.4 6.8 5.6 11.2 6l.4-4Zm-8.6-4.6a12.7 12.7 0 0 1-2.8-7.6l-4 .2c0 3.6 1.4 7.1 3.7 10l3.1-2.6Zm-3-7.3 12.7 1.3.4-4-12.7-1.3-.4 4Zm12.7 1.3 12.7 1.2.4-4-12.7-1.2-.4 4ZM64 162.7a.3.3 0 0 1-.1.3s-.1 0 0 0l.3-4c-2.1-.2-4.3 1.4-4.2 3.9l4-.2Zm29 3.5c.5-2.5-1.3-4.5-3.4-4.7l-.4 4-.1-.1v-.2l3.9 1Z"
    fill="#ECE9F1" mask="url(#a)" />
</svg>