<svg width="774" height="780" fill="none" xmlns="http://www.w3.org/2000/svg">
  <mask id="a" fill="#fff">
    <path
      d="M428.9 459.3c3.4 6.5 8.9 8.8 12.7 8 3.9-.8 7-3.4 11.2-2.7 5.8 1 13 8.3 18.4 7.2 8.2-1.5 6.3-20.6 12.6-26.1 2.2-2 5.2-2.3 7-4.5 1.7-2.5 1.8-8.6-1.4-12.5-1.1-1.4-2.5-2.2-3.6-2.9-5.3-2.3-10.3-2-13.7 1.2-7.5 6.8-19.6 1.4-28 7.6-5.3 3.8-25 6-15.2 24.7Z" />
    <path
      d="M474 489.7c3.4.7 6.4.5 8.8-1.6 5.2-4.7 5.8-16.6 7.2-24.7 1.2-6.9 2.2-14.3 5.7-19 .7-1 1.4-1.6 2.3-2.4 3.1-2.6 7.5-3.1 9.8-7.2 2.8-4.4 2.1-16-3.3-23.5l-.4-.4c-2-2.5-4-4-6.1-5.1-7.4-4-14.9-4.7-20.5-.7-.6.4-1.2.6-2 .6-4.7.7-11-3-15.6-1.9-9.4 2.3-16.3 9.7-25.7 13.2-4.9 1.6-10 4.6-15.7 7.2-3.3 1.5-10.6-1.9-13.6.5-6.4 5-5.5 18-2.8 28.4 1 3.6 2.4 7.2 4.3 11 5.7 11.3 15.3 17.8 23.9 15.5 6-1.5 10.8-4.4 16.9-3 2.6.3 5.4 1.7 8.4 3.4 6.6 3.8 12.8 8.5 18.4 9.7Z" />
    <path
      d="M477 507.6c4.8 1.7 9.6 2.4 13.6-.5 8.5-5.8 8.8-24.5 10.2-36 1.3-9.6 2.4-20.9 7-28.5.8-1.4 2-2.7 3-3.7 4.5-4.2 10.6-4.8 14-10.8 3.8-6.4 2.4-23.4-5.3-34.3-.1-.2-.2-.4-.4-.3-3-4-5.9-6.2-8.8-8-9.9-5.6-20.3-7.3-28.3-1.6-.9.5-1.9.6-3 .4-6.2-.8-16-9-21.3-7.3-12.5 4.2-19.8 19-32.8 22.3-8.1 2.2-15.3 7-23.8 10.9-4.7 2-17.4-5.6-21.5-2.5-9.5 7.6-5.6 29.3-1.7 44.4a95.5 95.5 0 0 0 6.5 17c8 16 21.3 26.6 35.1 23 8-2.1 14.5-5.7 22.7-3.8 3.4.9 7 2.4 11 4.8 8.3 5.2 16.2 11.7 23.8 14.5Z" />
    <path
      d="M480 525.4c6.2 2.7 13 4.2 18.3 1 11.6-7.2 11.7-32.5 13.5-47 1.5-12.6 2.3-27.8 8.3-38 1-2 2.5-3.5 3.9-5.1 5.7-5.8 13.9-6.3 18.2-14.5 4.6-8.5 2.6-30.7-7.2-45.2 0-.2-.3-.3-.4-.6a36 36 0 0 0-11.6-10.6c-12.5-7.5-25.8-10-36-2.7-1 .8-2.5.5-4 .3-8-2.2-20.8-15-27-12.8-15.5 6-23.4 27.9-40.1 31.6-11.5 2.7-20.6 9.4-32 14.7-6.1 2.8-24-9.3-29.3-5.2-12.6 10-5.8 40.8-.8 60.2 2 7.5 5 15.2 8.8 22.7 10.2 20.7 27.8 36.2 46.1 30.4 10-3.2 18.3-6.9 28.3-4.4 4.4 1.1 8.8 3.2 13.8 6.4 10 6.1 19.6 14.5 29.3 18.8Z" />
    <path
      d="M483 543.2c7.7 3.7 16.2 6.2 23 2.3 14.8-8.5 14.6-40.7 16.6-58.4 1.6-15.4 2.5-34.4 9.5-47.2 1.3-2.5 2.9-4.6 4.7-6.6 6.9-7.5 17.1-7.9 22.5-18 5.7-10.5 3-38-9.3-56.2 0-.2-.4-.4-.5-.8a44.1 44.1 0 0 0-14.2-13.1c-15-9.3-31.3-12.6-43.9-3.7-1.3.9-2.8.6-4.9 0-9.6-3.3-25.8-21-33-18-18.5 7.8-26.9 36.9-47.3 40.8-15 3-26.1 12-40.2 18.3-7.4 3.3-30.4-13.1-37-8.1-15.8 12.2-5.8 52 .2 76.1 2.4 9.6 6.3 19 10.8 28.4 12.6 25.8 34.4 45.7 57.4 38 12.1-4 22.2-8 34-5a55 55 0 0 1 16.5 7.6c12.1 7.6 23.5 17.8 35.2 23.6Z" />
    <path
      d="M486.1 561c9.3 4.9 19.5 8 27.6 3.7 18-9.8 17.5-48.5 19.6-69.6 1.9-18.3 2.4-41.2 10.8-56.7 1.5-2.9 3.3-5.5 5.5-7.8 8-9 20.3-9.4 26.9-21.7 6.5-12.4 3.3-45.3-11.4-67l-.5-.9a55 55 0 0 0-17-15.9c-17.5-11-36.9-15.1-51.7-4.6-1.4.9-3.3.7-5.8-.4-11.3-4.8-30.8-27.2-38.8-23.4-21.6 9.9-30.5 45.7-54.4 50.2-18.3 3.2-31.5 14.2-48.3 22-8.8 4-37-16.8-45-10.9-18.7 14.8-5.9 63.4 1.5 91.8 2.9 11.5 7.6 23 13 34.1 15 30.5 40.7 55 68.4 45.3 14.2-4.9 26-9 39.8-5.6 6 1.6 12.2 4.5 19 9.1 14 9.1 27.1 21 40.8 28.3Z" />
    <path
      d="M489.2 578.8c10.6 5.8 22.7 10 32.3 5.1 21.3-11 20.5-56.5 22.8-80.6 1.9-21.4 2.6-48 12.1-66.2a42 42 0 0 1 6.4-9.2c9.4-10.6 23.7-11 31.1-25.3 7.6-14.3 3.6-52.7-13.3-78l-.6-1a65.9 65.9 0 0 0-19.6-18.6c-20.2-12.8-42.4-17.8-59.4-5.7-1.6 1.2-4 .7-6.8-.6-13-6.1-35.6-33.1-44.6-29-24.5 11.7-34 54.8-61.6 59.4-21.7 3.5-37 16.8-56.5 25.6-10.2 4.7-43.6-20.7-52.6-13.6-22 17.2-6 75 2.4 107.8 3.5 13.4 9 27 15.2 39.9 17.1 35.2 46.8 64 79.4 52.8 16.3-5.8 29.7-10.4 45.4-6.3a71 71 0 0 1 21.8 10.4c15.8 10.5 30.4 24.4 46 33Z" />
    <path
      d="M492.2 596.6c12 6.9 26 12 36.9 6.4 24.7-12.2 23.2-64.4 25.8-91.9 2.2-24.3 2.8-54.6 13.5-75.5 2-3.9 4.4-7.4 7.2-10.6 10.7-12.2 27-12.5 35.4-29 8.6-16.2 4-60-15.4-89l-.9-1a72.8 72.8 0 0 0-22.1-21.2c-22.8-14.4-48-20.5-67.4-6.7-2 1.3-4.5.9-7.6-.8C482.7 270 457 238 447 243c-27.6 13.6-37.6 63.6-69 68.6-24.9 3.8-42.2 19.3-64.6 29.5-11.6 5.3-50.4-24.4-60.3-16.5-25 19.6-6 86.3 3.4 123.5a234.7 234.7 0 0 0 17.5 45.8c19.4 40 53.4 73.4 90.7 60 18.4-6.3 33.4-11.5 51-6.7 7.7 2 15.7 5.8 24.6 11.7 17.8 11.8 34.2 27.5 51.9 37.7Z" />
    <path
      d="M495.1 614.2c13.6 8 29.3 13.9 41.7 7.8 27.8-13.6 26.2-72.3 28.9-103.1 2.3-27.2 2.8-61.4 14.6-85 2.3-4.5 4.8-8.6 7.9-12 11.9-13.8 30.2-14.2 39.7-32.4 9.4-18.4 4.3-67.3-17.3-100l-.9-1.1c-8.2-12-16.9-18.7-24.8-23.9-25.4-16.2-53.5-23-75.3-7.6-2 1.5-5 .7-8.5-1-16.6-8.6-45.5-45.3-56.3-39.7-30.5 15.6-41.1 72.7-76 77.8-28.4 4-47.9 21.6-72.9 33-12.9 6-56.8-28.1-68-19.4-28.1 22-6.2 97.7 4.4 139.5a267.6 267.6 0 0 0 19.7 51.4c21.7 44.8 59.7 82.8 101.8 67.7 20.3-7.1 37.3-12.6 56.8-7.5a87.7 87.7 0 0 1 27.2 13.3c19.7 13.3 37.7 30.7 57.3 42.2Z" />
    <path
      d="M498.2 632c15 9 32.6 15.7 46.2 9 31.1-14.8 29.1-80.2 32-114.1 2.5-30.1 3-68.1 16-94.4 2.5-5 5.4-9.4 8.7-13.5 13.1-15.2 33.5-15.5 44-35.9 10.4-20.3 4.6-74.7-19.3-110.7-.4-.3-.6-1-1-1.3a93 93 0 0 0-27.6-26.7c-28-18-59-25.6-82.9-8.6-2.2 1.6-5.5 1-9.4-1.2-18.4-10-50.3-51.2-62.1-45.1-33.6 17.5-44.7 81.5-83.4 87-31.8 4.4-53 24.2-81 37-14.2 6.5-63.3-32-75.7-22.2-31.3 24.4-6.2 109 5.5 155.2 5 19.4 12.8 38.6 21.8 57.2 24 49.7 66 92 113 75.2 22.5-8 41.1-13.8 62.5-8 9.3 2.5 19.1 7.1 30 14.6 21.3 14.3 41 33.5 62.7 46.5Z" />
    <path
      d="M501.2 649.8c16.4 10.3 35.8 17.6 51 10.5 34.4-16 32-88.4 35.3-125.5 2.6-33 3-75 17.3-103.8a61.8 61.8 0 0 1 9.7-14.7c14.3-16.7 36.7-17.2 48.2-39.5s5-82-21.2-121.7l-1-1.5a101 101 0 0 0-30.2-29.2c-30.5-19.6-64.6-28.2-90.8-9.6-2.6 1.7-6.2.8-10.6-1.6-20-11.1-55.3-57.2-68-50.4-36.7 19.3-48.2 90.6-90.7 96.3-35.2 4.6-58.6 26.7-89.3 40.5-15.6 7.2-70-35.7-83.6-25-34.3 27-6.4 120.3 6.5 171a333.7 333.7 0 0 0 24 62.8c26.4 54.5 72.5 101.4 124 82.6 24.6-8.9 44.9-15.1 68.2-8.5 10 2.7 20.8 7.8 32.7 15.9 23.5 15.7 44.9 36.9 68.5 51.4Z" />
    <path
      d="M504.2 667.6c17.9 11.3 39.3 19.7 55.7 12 37.4-17.5 35-96.4 38.3-136.8 2.9-35.9 3.1-81.6 18.6-113.3a77 77 0 0 1 10.5-16.1c15.7-18.4 40-18.7 52.5-43.2 12.4-24.2 5.3-89.5-23.3-132.6-.4-.5-.9-1.1-1.1-1.8a112 112 0 0 0-33-31.8c-33-21.5-70-30.9-98.6-10.6-2.7 2-6.7 1-11.5-1.9-21.8-12.4-60.1-63.3-73.9-56C399 157 386.7 235 340.7 241c-38.5 5-64 29-97.3 44.3-17 7.7-76.5-39.3-91.4-27.8-37.5 29.2-6.6 131.7 7.5 186.8 6 23.5 15.3 46.6 26 68.7 28.7 59.1 78.9 110.5 135.4 90 26.7-9.5 48.4-16.1 74-9.2 10.8 2.9 22.4 8.5 35.2 17.2 25.4 17.6 48.5 40.6 74.1 56.6Z" />
    <path
      d="M507.2 685.5c19.3 12.2 42.5 21.5 60.5 13 40.8-18.6 37.8-104.2 41.3-147.8 3-38.7 3.1-88.3 20-122.6a89.7 89.7 0 0 1 11.3-17.5c16.9-19.9 43.3-20.4 56.7-46.8 13.3-26.3 5.7-96.6-25.2-143.5-.5-.6-1-1.2-1.2-1.8a122 122 0 0 0-35.8-34.6c-35.6-23-75.5-33.5-106.5-11.6-3 2-7.1 1-12.4-2-23.5-13.9-65-69.2-79.6-61.3-42.7 23.2-55.3 108.4-105 114.6-41.9 5.3-69.5 31.6-105.7 48-18.4 8.2-83.2-43-99.1-30.6-40.5 31.8-6.6 143 8.4 202.7a387.8 387.8 0 0 0 28.5 74.5c30.9 64 85.1 120 146.3 97.5 28.8-10.4 52.3-17.4 79.6-9.8a131 131 0 0 1 38 18.5c27.5 18.9 52.3 43.5 80 61Z" />
    <path
      d="M510.3 703.3c20.7 13.5 45.7 23.3 65 14.6 43.9-20 40.8-112.2 44.4-159.1 3.3-41.7 3.3-95 21.2-132.2a94 94 0 0 1 12-19c18.1-21.3 46.6-21.7 61-50.3 14.1-28.3 6-104-27.3-154.5l-1.4-2a127.4 127.4 0 0 0-38.5-37.2c-38.3-25-81.3-36-114.2-12.7-3.3 2.2-7.7 1.1-13.3-2.2-25.2-15-70-75.3-85.6-66.6-45.5 25.2-58.9 117.3-112.4 123.8-45.3 5.6-74.6 34.1-113.6 51.8-19.8 8.9-89.7-46.8-107-33.4-43.6 34-6.7 154.3 9.7 218.5 7 27.5 18 54.2 30.5 80.3 33.2 68.6 91.6 129.1 157.4 105 31-11.2 56-18.6 85.2-10.5a138 138 0 0 1 40.9 20c29.8 20.1 56.3 46.6 86 65.7Z" />
    <path
      d="M513.3 721c22.2 14.6 49 25.3 69.8 15.9 47.2-21.3 43.7-120.2 47.4-170.4C634 522 634 464.9 653 425c3.6-7.5 7.9-14.2 13-20.4 19.2-23.1 49.8-23.4 65.1-54 15.3-30.2 6.2-111.4-29.4-165.4l-1.4-2.1a135.5 135.5 0 0 0-41.1-39.9c-40.8-26.7-86.8-38.6-122.1-13.6-3.3 2.4-8.4 1-14.2-2.4-27-16.4-74.9-81.1-91.4-72-48.5 27.3-62.4 126.1-119.4 133-48.7 5.9-80.2 36.5-121.9 55.4-21.2 9.5-96.4-50.7-114.8-36.3C28.7 243.8 68.5 373 86 441.6a467.8 467.8 0 0 0 32.8 86c35.5 73.6 97.8 138.3 168.6 112.3 32.8-12 59.8-19.8 91-11a148 148 0 0 1 43.6 21.3c31.6 21.9 59.6 50.2 91.3 70.9Z" />
    <path
      d="M516.3 738.9c23.8 15.6 52.3 27 74.4 17.2 50.4-22.6 46.7-128 50.6-181.4 3.6-47.4 3.5-108.5 23.9-150.9 3.7-8 8.2-15.2 13.6-21.5 20.7-24.7 53.1-24.9 69.4-57.6 16.4-32.2 6.5-118.8-31.2-176.4a146.4 146.4 0 0 0-45.3-44.7c-43.4-28.3-92.2-41.3-130-14.6-3.7 2.5-8.8 1.2-15.1-2.8-29-17.7-79.7-87.3-97.1-77.4-51.7 29.1-66 135.2-126.8 142.2-52 6.2-85.5 39-130 59.2-22.5 10.2-102.8-54.5-122.3-39-49.8 39-6.8 177 11.7 250.2 8 31.4 20.5 62.2 34.8 91.8C134.7 611.5 201 680.7 276.6 653c34.9-12.9 63.6-20.9 96.6-11.7a154 154 0 0 1 46.2 22.7c33.4 22.5 63.2 52.7 97 74.9Z" />
    <path
      d="M74.7 537.7c40.3 83 110.7 157 191 127.4 53-19.7 92.4-28.5 151.1 11.8 35.4 24.3 67 56.3 102.6 79.8 25.2 16.6 55.4 29 79.1 18.5 53.5-23.9 49.5-136.3 53.6-192.7 4.5-59.7 3.3-139.9 39.7-183.4 21.9-26.3 56.3-26.6 73.7-61.2 17.3-34.7 6.6-128.6-34.9-189.5a155.6 155.6 0 0 0-46.5-45.3c-46-30.2-97.7-44-137.7-15.8-21.2 14.7-96.8-98.5-119.1-85.8-54.6 31-69.6 144-134 151.5-55.4 6.4-91.2 41.3-138.3 62.7-24 10.9-109.6-58-130.2-41.8-52.9 41.3-7 188.6 12.7 266 8.5 33.5 22 66.4 37.2 97.8Z" />
  </mask>
  <path
    d="M428.9 459.3c3.4 6.5 8.9 8.8 12.7 8 3.9-.8 7-3.4 11.2-2.7 5.8 1 13 8.3 18.4 7.2 8.2-1.5 6.3-20.6 12.6-26.1 2.2-2 5.2-2.3 7-4.5 1.7-2.5 1.8-8.6-1.4-12.5-1.1-1.4-2.5-2.2-3.6-2.9-5.3-2.3-10.3-2-13.7 1.2-7.5 6.8-19.6 1.4-28 7.6-5.3 3.8-25 6-15.2 24.7Z"
    stroke="#332D59" stroke-width="2" stroke-miterlimit="10" mask="url(#a)" />
  <path
    d="M474 489.7c3.4.7 6.4.5 8.8-1.6 5.2-4.7 5.8-16.6 7.2-24.7 1.2-6.9 2.2-14.3 5.7-19 .7-1 1.4-1.6 2.3-2.4 3.1-2.6 7.5-3.1 9.8-7.2 2.8-4.4 2.1-16-3.3-23.5l-.4-.4c-2-2.5-4-4-6.1-5.1-7.4-4-14.9-4.7-20.5-.7-.6.4-1.2.6-2 .6-4.7.7-11-3-15.6-1.9-9.4 2.3-16.3 9.7-25.7 13.2-4.9 1.6-10 4.6-15.7 7.2-3.3 1.5-10.6-1.9-13.6.5-6.4 5-5.5 18-2.8 28.4 1 3.6 2.4 7.2 4.3 11 5.7 11.3 15.3 17.8 23.9 15.5 6-1.5 10.8-4.4 16.9-3 2.6.3 5.4 1.7 8.4 3.4 6.6 3.8 12.8 8.5 18.4 9.7Z"
    stroke="#332D59" stroke-width="2" stroke-miterlimit="10" mask="url(#a)" />
  <path
    d="M477 507.6c4.8 1.7 9.6 2.4 13.6-.5 8.5-5.8 8.8-24.5 10.2-36 1.3-9.6 2.4-20.9 7-28.5.8-1.4 2-2.7 3-3.7 4.5-4.2 10.6-4.8 14-10.8 3.8-6.4 2.4-23.4-5.3-34.3-.1-.2-.2-.4-.4-.3-3-4-5.9-6.2-8.8-8-9.9-5.6-20.3-7.3-28.3-1.6-.9.5-1.9.6-3 .4-6.2-.8-16-9-21.3-7.3-12.5 4.2-19.8 19-32.8 22.3-8.1 2.2-15.3 7-23.8 10.9-4.7 2-17.4-5.6-21.5-2.5-9.5 7.6-5.6 29.3-1.7 44.4a95.5 95.5 0 0 0 6.5 17c8 16 21.3 26.6 35.1 23 8-2.1 14.5-5.7 22.7-3.8 3.4.9 7 2.4 11 4.8 8.3 5.2 16.2 11.7 23.8 14.5Z"
    stroke="#332D59" stroke-width="2" stroke-miterlimit="10" mask="url(#a)" />
  <path
    d="M480 525.4c6.2 2.7 13 4.2 18.3 1 11.6-7.2 11.7-32.5 13.5-47 1.5-12.6 2.3-27.8 8.3-38 1-2 2.5-3.5 3.9-5.1 5.7-5.8 13.9-6.3 18.2-14.5 4.6-8.5 2.6-30.7-7.2-45.2 0-.2-.3-.3-.4-.6a36 36 0 0 0-11.6-10.6c-12.5-7.5-25.8-10-36-2.7-1 .8-2.5.5-4 .3-8-2.2-20.8-15-27-12.8-15.5 6-23.4 27.9-40.1 31.6-11.5 2.7-20.6 9.4-32 14.7-6.1 2.8-24-9.3-29.3-5.2-12.6 10-5.8 40.8-.8 60.2 2 7.5 5 15.2 8.8 22.7 10.2 20.7 27.8 36.2 46.1 30.4 10-3.2 18.3-6.9 28.3-4.4 4.4 1.1 8.8 3.2 13.8 6.4 10 6.1 19.6 14.5 29.3 18.8Z"
    stroke="#332D59" stroke-width="2" stroke-miterlimit="10" mask="url(#a)" />
  <path
    d="M483 543.2c7.7 3.7 16.2 6.2 23 2.3 14.8-8.5 14.6-40.7 16.6-58.4 1.6-15.4 2.5-34.4 9.5-47.2 1.3-2.5 2.9-4.6 4.7-6.6 6.9-7.5 17.1-7.9 22.5-18 5.7-10.5 3-38-9.3-56.2 0-.2-.4-.4-.5-.8a44.1 44.1 0 0 0-14.2-13.1c-15-9.3-31.3-12.6-43.9-3.7-1.3.9-2.8.6-4.9 0-9.6-3.3-25.8-21-33-18-18.5 7.8-26.9 36.9-47.3 40.8-15 3-26.1 12-40.2 18.3-7.4 3.3-30.4-13.1-37-8.1-15.8 12.2-5.8 52 .2 76.1 2.4 9.6 6.3 19 10.8 28.4 12.6 25.8 34.4 45.7 57.4 38 12.1-4 22.2-8 34-5a55 55 0 0 1 16.5 7.6c12.1 7.6 23.5 17.8 35.2 23.6Z"
    stroke="#332D59" stroke-width="2" stroke-miterlimit="10" mask="url(#a)" />
  <path
    d="M486.1 561c9.3 4.9 19.5 8 27.6 3.7 18-9.8 17.5-48.5 19.6-69.6 1.9-18.3 2.4-41.2 10.8-56.7 1.5-2.9 3.3-5.5 5.5-7.8 8-9 20.3-9.4 26.9-21.7 6.5-12.4 3.3-45.3-11.4-67l-.5-.9a55 55 0 0 0-17-15.9c-17.5-11-36.9-15.1-51.7-4.6-1.4.9-3.3.7-5.8-.4-11.3-4.8-30.8-27.2-38.8-23.4-21.6 9.9-30.5 45.7-54.4 50.2-18.3 3.2-31.5 14.2-48.3 22-8.8 4-37-16.8-45-10.9-18.7 14.8-5.9 63.4 1.5 91.8 2.9 11.5 7.6 23 13 34.1 15 30.5 40.7 55 68.4 45.3 14.2-4.9 26-9 39.8-5.6 6 1.6 12.2 4.5 19 9.1 14 9.1 27.1 21 40.8 28.3Z"
    stroke="#332D59" stroke-width="2" stroke-miterlimit="10" mask="url(#a)" />
  <path
    d="M489.2 578.8c10.6 5.8 22.7 10 32.3 5.1 21.3-11 20.5-56.5 22.8-80.6 1.9-21.4 2.6-48 12.1-66.2a42 42 0 0 1 6.4-9.2c9.4-10.6 23.7-11 31.1-25.3 7.6-14.3 3.6-52.7-13.3-78l-.6-1a65.9 65.9 0 0 0-19.6-18.6c-20.2-12.8-42.4-17.8-59.4-5.7-1.6 1.2-4 .7-6.8-.6-13-6.1-35.6-33.1-44.6-29-24.5 11.7-34 54.8-61.6 59.4-21.7 3.5-37 16.8-56.5 25.6-10.2 4.7-43.6-20.7-52.6-13.6-22 17.2-6 75 2.4 107.8 3.5 13.4 9 27 15.2 39.9 17.1 35.2 46.8 64 79.4 52.8 16.3-5.8 29.7-10.4 45.4-6.3a71 71 0 0 1 21.8 10.4c15.8 10.5 30.4 24.4 46 33Z"
    stroke="#332D59" stroke-width="2" stroke-miterlimit="10" mask="url(#a)" />
  <path
    d="M492.2 596.6c12 6.9 26 12 36.9 6.4 24.7-12.2 23.2-64.4 25.8-91.9 2.2-24.3 2.8-54.6 13.5-75.5 2-3.9 4.4-7.4 7.2-10.6 10.7-12.2 27-12.5 35.4-29 8.6-16.2 4-60-15.4-89l-.9-1a72.8 72.8 0 0 0-22.1-21.2c-22.8-14.4-48-20.5-67.4-6.7-2 1.3-4.5.9-7.6-.8C482.7 270 457 238 447 243c-27.6 13.6-37.6 63.6-69 68.6-24.9 3.8-42.2 19.3-64.6 29.5-11.6 5.3-50.4-24.4-60.3-16.5-25 19.6-6 86.3 3.4 123.5a234.7 234.7 0 0 0 17.5 45.8c19.4 40 53.4 73.4 90.7 60 18.4-6.3 33.4-11.5 51-6.7 7.7 2 15.7 5.8 24.6 11.7 17.8 11.8 34.2 27.5 51.9 37.7Z"
    stroke="#332D59" stroke-width="2" stroke-miterlimit="10" mask="url(#a)" />
  <path
    d="M495.1 614.2c13.6 8 29.3 13.9 41.7 7.8 27.8-13.6 26.2-72.3 28.9-103.1 2.3-27.2 2.8-61.4 14.6-85 2.3-4.5 4.8-8.6 7.9-12 11.9-13.8 30.2-14.2 39.7-32.4 9.4-18.4 4.3-67.3-17.3-100l-.9-1.1c-8.2-12-16.9-18.7-24.8-23.9-25.4-16.2-53.5-23-75.3-7.6-2 1.5-5 .7-8.5-1-16.6-8.6-45.5-45.3-56.3-39.7-30.5 15.6-41.1 72.7-76 77.8-28.4 4-47.9 21.6-72.9 33-12.9 6-56.8-28.1-68-19.4-28.1 22-6.2 97.7 4.4 139.5a267.6 267.6 0 0 0 19.7 51.4c21.7 44.8 59.7 82.8 101.8 67.7 20.3-7.1 37.3-12.6 56.8-7.5a87.7 87.7 0 0 1 27.2 13.3c19.7 13.3 37.7 30.7 57.3 42.2Z"
    stroke="#332D59" stroke-width="2" stroke-miterlimit="10" mask="url(#a)" />
  <path
    d="M498.2 632c15 9 32.6 15.7 46.2 9 31.1-14.8 29.1-80.2 32-114.1 2.5-30.1 3-68.1 16-94.4 2.5-5 5.4-9.4 8.7-13.5 13.1-15.2 33.5-15.5 44-35.9 10.4-20.3 4.6-74.7-19.3-110.7-.4-.3-.6-1-1-1.3a93 93 0 0 0-27.6-26.7c-28-18-59-25.6-82.9-8.6-2.2 1.6-5.5 1-9.4-1.2-18.4-10-50.3-51.2-62.1-45.1-33.6 17.5-44.7 81.5-83.4 87-31.8 4.4-53 24.2-81 37-14.2 6.5-63.3-32-75.7-22.2-31.3 24.4-6.2 109 5.5 155.2 5 19.4 12.8 38.6 21.8 57.2 24 49.7 66 92 113 75.2 22.5-8 41.1-13.8 62.5-8 9.3 2.5 19.1 7.1 30 14.6 21.3 14.3 41 33.5 62.7 46.5Z"
    stroke="#332D59" stroke-width="2" stroke-miterlimit="10" mask="url(#a)" />
  <path
    d="M501.2 649.8c16.4 10.3 35.8 17.6 51 10.5 34.4-16 32-88.4 35.3-125.5 2.6-33 3-75 17.3-103.8a61.8 61.8 0 0 1 9.7-14.7c14.3-16.7 36.7-17.2 48.2-39.5s5-82-21.2-121.7l-1-1.5a101 101 0 0 0-30.2-29.2c-30.5-19.6-64.6-28.2-90.8-9.6-2.6 1.7-6.2.8-10.6-1.6-20-11.1-55.3-57.2-68-50.4-36.7 19.3-48.2 90.6-90.7 96.3-35.2 4.6-58.6 26.7-89.3 40.5-15.6 7.2-70-35.7-83.6-25-34.3 27-6.4 120.3 6.5 171a333.7 333.7 0 0 0 24 62.8c26.4 54.5 72.5 101.4 124 82.6 24.6-8.9 44.9-15.1 68.2-8.5 10 2.7 20.8 7.8 32.7 15.9 23.5 15.7 44.9 36.9 68.5 51.4Z"
    stroke="#332D59" stroke-width="2" stroke-miterlimit="10" mask="url(#a)" />
  <path
    d="M504.2 667.6c17.9 11.3 39.3 19.7 55.7 12 37.4-17.5 35-96.4 38.3-136.8 2.9-35.9 3.1-81.6 18.6-113.3a77 77 0 0 1 10.5-16.1c15.7-18.4 40-18.7 52.5-43.2 12.4-24.2 5.3-89.5-23.3-132.6-.4-.5-.9-1.1-1.1-1.8a112 112 0 0 0-33-31.8c-33-21.5-70-30.9-98.6-10.6-2.7 2-6.7 1-11.5-1.9-21.8-12.4-60.1-63.3-73.9-56C399 157 386.7 235 340.7 241c-38.5 5-64 29-97.3 44.3-17 7.7-76.5-39.3-91.4-27.8-37.5 29.2-6.6 131.7 7.5 186.8 6 23.5 15.3 46.6 26 68.7 28.7 59.1 78.9 110.5 135.4 90 26.7-9.5 48.4-16.1 74-9.2 10.8 2.9 22.4 8.5 35.2 17.2 25.4 17.6 48.5 40.6 74.1 56.6Z"
    stroke="#332D59" stroke-width="2" stroke-miterlimit="10" mask="url(#a)" />
  <path
    d="M507.2 685.5c19.3 12.2 42.5 21.5 60.5 13 40.8-18.6 37.8-104.2 41.3-147.8 3-38.7 3.1-88.3 20-122.6a89.7 89.7 0 0 1 11.3-17.5c16.9-19.9 43.3-20.4 56.7-46.8 13.3-26.3 5.7-96.6-25.2-143.5-.5-.6-1-1.2-1.2-1.8a122 122 0 0 0-35.8-34.6c-35.6-23-75.5-33.5-106.5-11.6-3 2-7.1 1-12.4-2-23.5-13.9-65-69.2-79.6-61.3-42.7 23.2-55.3 108.4-105 114.6-41.9 5.3-69.5 31.6-105.7 48-18.4 8.2-83.2-43-99.1-30.6-40.5 31.8-6.6 143 8.4 202.7a387.8 387.8 0 0 0 28.5 74.5c30.9 64 85.1 120 146.3 97.5 28.8-10.4 52.3-17.4 79.6-9.8a131 131 0 0 1 38 18.5c27.5 18.9 52.3 43.5 80 61Z"
    stroke="#332D59" stroke-width="2" stroke-miterlimit="10" mask="url(#a)" />
  <path
    d="M510.3 703.3c20.7 13.5 45.7 23.3 65 14.6 43.9-20 40.8-112.2 44.4-159.1 3.3-41.7 3.3-95 21.2-132.2a94 94 0 0 1 12-19c18.1-21.3 46.6-21.7 61-50.3 14.1-28.3 6-104-27.3-154.5l-1.4-2a127.4 127.4 0 0 0-38.5-37.2c-38.3-25-81.3-36-114.2-12.7-3.3 2.2-7.7 1.1-13.3-2.2-25.2-15-70-75.3-85.6-66.6-45.5 25.2-58.9 117.3-112.4 123.8-45.3 5.6-74.6 34.1-113.6 51.8-19.8 8.9-89.7-46.8-107-33.4-43.6 34-6.7 154.3 9.7 218.5 7 27.5 18 54.2 30.5 80.3 33.2 68.6 91.6 129.1 157.4 105 31-11.2 56-18.6 85.2-10.5a138 138 0 0 1 40.9 20c29.8 20.1 56.3 46.6 86 65.7Z"
    stroke="#332D59" stroke-width="2" stroke-miterlimit="10" mask="url(#a)" />
  <path
    d="M513.3 721c22.2 14.6 49 25.3 69.8 15.9 47.2-21.3 43.7-120.2 47.4-170.4C634 522 634 464.9 653 425c3.6-7.5 7.9-14.2 13-20.4 19.2-23.1 49.8-23.4 65.1-54 15.3-30.2 6.2-111.4-29.4-165.4l-1.4-2.1a135.5 135.5 0 0 0-41.1-39.9c-40.8-26.7-86.8-38.6-122.1-13.6-3.3 2.4-8.4 1-14.2-2.4-27-16.4-74.9-81.1-91.4-72-48.5 27.3-62.4 126.1-119.4 133-48.7 5.9-80.2 36.5-121.9 55.4-21.2 9.5-96.4-50.7-114.8-36.3C28.7 243.8 68.5 373 86 441.6a467.8 467.8 0 0 0 32.8 86c35.5 73.6 97.8 138.3 168.6 112.3 32.8-12 59.8-19.8 91-11a148 148 0 0 1 43.6 21.3c31.6 21.9 59.6 50.2 91.3 70.9Z"
    stroke="#332D59" stroke-width="2" stroke-miterlimit="10" mask="url(#a)" />
  <path
    d="M516.3 738.9c23.8 15.6 52.3 27 74.4 17.2 50.4-22.6 46.7-128 50.6-181.4 3.6-47.4 3.5-108.5 23.9-150.9 3.7-8 8.2-15.2 13.6-21.5 20.7-24.7 53.1-24.9 69.4-57.6 16.4-32.2 6.5-118.8-31.2-176.4a146.4 146.4 0 0 0-45.3-44.7c-43.4-28.3-92.2-41.3-130-14.6-3.7 2.5-8.8 1.2-15.1-2.8-29-17.7-79.7-87.3-97.1-77.4-51.7 29.1-66 135.2-126.8 142.2-52 6.2-85.5 39-130 59.2-22.5 10.2-102.8-54.5-122.3-39-49.8 39-6.8 177 11.7 250.2 8 31.4 20.5 62.2 34.8 91.8C134.7 611.5 201 680.7 276.6 653c34.9-12.9 63.6-20.9 96.6-11.7a154 154 0 0 1 46.2 22.7c33.4 22.5 63.2 52.7 97 74.9Z"
    stroke="#332D59" stroke-width="2" stroke-miterlimit="10" mask="url(#a)" />
  <path
    d="M74.7 537.7c40.3 83 110.7 157 191 127.4 53-19.7 92.4-28.5 151.1 11.8 35.4 24.3 67 56.3 102.6 79.8 25.2 16.6 55.4 29 79.1 18.5 53.5-23.9 49.5-136.3 53.6-192.7 4.5-59.7 3.3-139.9 39.7-183.4 21.9-26.3 56.3-26.6 73.7-61.2 17.3-34.7 6.6-128.6-34.9-189.5a155.6 155.6 0 0 0-46.5-45.3c-46-30.2-97.7-44-137.7-15.8-21.2 14.7-96.8-98.5-119.1-85.8-54.6 31-69.6 144-134 151.5-55.4 6.4-91.2 41.3-138.3 62.7-24 10.9-109.6-58-130.2-41.8-52.9 41.3-7 188.6 12.7 266 8.5 33.5 22 66.4 37.2 97.8Z"
    stroke="#332D59" stroke-width="2" stroke-miterlimit="10" mask="url(#a)" />
</svg>