<svg width="144" height="50" viewBox="0 0 144 23" fill="none" xmlns="http://www.w3.org/2000/svg">
	<path d="M7.58512 22.3232H6.29914C5.81553 22.3232 5.30994 22.2572 4.79335 22.1913C4.27677 22.1253 3.76018 22.0484 3.2436 21.9495C2.75543 21.8598 2.27698 21.7236 1.81476 21.5428C1.28756 21.4009 0.82283 21.087 0.494297 20.6509C0.165764 20.2149 -0.00778592 19.6816 0.00119077 19.1357V3.74812C-0.0155436 3.54906 0.00903594 3.34868 0.0733404 3.15955C0.137645 2.97042 0.240284 2.79661 0.374886 2.649C0.672106 2.36777 1.02907 2.15736 1.41906 2.0335C2.39344 1.7181 3.39979 1.51167 4.41966 1.418C5.47481 1.32274 6.42003 1.27511 7.25536 1.27511C8.8346 1.25607 10.4082 1.46712 11.9266 1.90161C13.2484 2.27826 14.4741 2.93417 15.5207 3.82506C16.5451 4.72637 17.3433 5.85587 17.8509 7.12241C18.9263 10.1211 18.9263 13.4003 17.8509 16.3989C17.357 17.6561 16.5826 18.7839 15.5867 19.6963C14.5746 20.6038 13.3787 21.2824 12.0805 21.6857C10.6243 22.1307 9.10761 22.3458 7.58512 22.3232ZM5.73858 17.5091C5.98038 17.553 6.27714 17.5897 6.62886 17.619C6.98057 17.6483 7.31034 17.6483 7.61809 17.619C8.32061 17.6274 9.01938 17.5158 9.6844 17.2892C10.2955 17.0795 10.8488 16.7294 11.3001 16.2671C11.7977 15.7568 12.1734 15.1405 12.3992 14.4645C12.6676 13.6079 12.7938 12.7131 12.7729 11.8156C12.8944 10.2029 12.3995 8.60421 11.388 7.34225C10.9162 6.8422 10.342 6.44981 9.70466 6.19184C9.06734 5.93388 8.38185 5.8164 7.695 5.84743H6.76078L5.78255 5.94635L5.73858 17.5091Z" fill="#3579F6"/>
	<path d="M38.1179 13.7831C38.1392 15.0244 37.9266 16.2585 37.4913 17.4212C37.1097 18.4369 36.5094 19.3563 35.7328 20.114C34.9524 20.852 34.0229 21.4142 33.0069 21.7627C31.8714 22.1494 30.6782 22.339 29.4788 22.3233C28.2766 22.3391 27.0815 22.138 25.9506 21.7297C24.9342 21.3613 24.0058 20.7848 23.2248 20.0371C22.4541 19.2787 21.8545 18.3643 21.4662 17.3552C20.6311 15.0659 20.6311 12.5553 21.4662 10.266C21.8542 9.25673 22.4539 8.34227 23.2248 7.58412C24.0048 6.83248 24.9332 6.25217 25.9506 5.88047C27.0814 5.47196 28.2766 5.27092 29.4788 5.28698C30.6821 5.269 31.8783 5.47394 33.0069 5.89148C34.0226 6.27183 34.9501 6.85525 35.7328 7.60609C36.5034 8.36446 37.103 9.27885 37.4913 10.2879C37.9196 11.4028 38.1322 12.5889 38.1179 13.7831ZM26.5771 13.7831C26.5084 14.8688 26.7813 15.9489 27.3575 16.8716C27.5994 17.2274 27.9285 17.5153 28.3133 17.7077C28.6982 17.9002 29.1259 17.9907 29.5557 17.9707C29.9761 17.9889 30.3938 17.897 30.7678 17.7042C31.1417 17.5115 31.4589 17.2245 31.688 16.8716C32.2366 15.9465 32.4968 14.8789 32.4354 13.8051C32.5 12.7366 32.2353 11.6739 31.677 10.7605C31.4271 10.4283 31.1034 10.1587 30.7315 9.97304C30.3595 9.78738 29.9495 9.69075 29.5337 9.69075C29.118 9.69075 28.708 9.78738 28.336 9.97304C27.9641 10.1587 27.6404 10.4283 27.3905 10.7605C26.8173 11.6615 26.5334 12.7162 26.5771 13.7831Z" fill="#3579F6"/>
	<path d="M51.011 11.6399C51.0348 11.3638 50.9957 11.0858 50.8967 10.8269C50.7978 10.5681 50.6414 10.3349 50.4395 10.1451C49.9924 9.80516 49.4397 9.63389 48.8787 9.66148C48.4375 9.66118 47.9981 9.71657 47.5708 9.82634C47.1771 9.92228 46.8045 10.09 46.4717 10.321V21.7627C46.1285 21.8522 45.7797 21.9183 45.4275 21.9606C44.9431 22.027 44.4546 22.06 43.9657 22.0595C43.5277 22.0633 43.0902 22.0302 42.6577 21.9606C42.3082 21.9084 41.9765 21.7726 41.6905 21.5649C41.4167 21.3579 41.204 21.0807 41.075 20.7625C40.9185 20.3335 40.8475 19.878 40.8662 19.4216V9.52959C40.842 9.0194 40.9722 8.51376 41.2399 8.07875C41.5223 7.67682 41.8762 7.33032 42.284 7.05658C43.145 6.47631 44.0956 6.04182 45.0978 5.7706C46.3283 5.42749 47.6013 5.26098 48.8787 5.27602C50.9214 5.14165 52.9479 5.71622 54.6161 6.90272C55.2841 7.44843 55.8142 8.14367 56.1637 8.93227C56.5131 9.72087 56.672 10.5806 56.6275 11.442V21.7627C56.2879 21.8517 55.9428 21.9178 55.5943 21.9606C55.1099 22.027 54.6215 22.06 54.1325 22.0595C53.6945 22.0633 53.257 22.0302 52.8246 21.9606C52.4712 21.9101 52.1355 21.7743 51.8464 21.5649C51.5766 21.3565 51.3678 21.0794 51.2418 20.7625C51.0815 20.3343 51.0069 19.8787 51.022 19.4216L51.011 11.6399Z" fill="#3579F6"/>
	<path d="M66.6753 5.27607C67.7851 5.26149 68.8925 5.38329 69.9726 5.63877C70.8699 5.84335 71.7203 6.21632 72.4786 6.73788C73.1626 7.21991 73.7145 7.86625 74.0833 8.61739C74.4737 9.45641 74.6655 10.3741 74.6438 11.2992V18.6853C74.6653 19.1931 74.4968 19.6908 74.1712 20.0812C73.855 20.4503 73.4844 20.769 73.0721 21.0264C71.2105 21.9829 69.1278 22.4267 67.038 22.3124C65.981 22.323 64.9263 22.2123 63.8945 21.9826C63.0404 21.7964 62.2257 21.4616 61.4874 20.9934C60.8355 20.5747 60.3019 19.9957 59.9377 19.3118C59.5607 18.5781 59.3718 17.7623 59.3881 16.9377C59.3466 16.2919 59.446 15.6448 59.6794 15.0413C59.9128 14.4378 60.2748 13.8922 60.74 13.4425C61.9438 12.5129 63.4078 11.9826 64.9277 11.9257L69.2472 11.4641V11.2333C69.2625 10.9454 69.1898 10.6597 69.0386 10.4142C68.8873 10.1687 68.6649 9.97517 68.4009 9.85936C67.6308 9.54752 66.8015 9.40869 65.9718 9.4527C65.1513 9.45124 64.3331 9.53972 63.5318 9.71651C62.781 9.87088 62.0454 10.0915 61.3336 10.3759C61.017 10.1396 60.7671 9.82535 60.6082 9.4637C60.4139 9.07059 60.3124 8.63819 60.3114 8.19972C60.2857 7.70701 60.4335 7.22089 60.729 6.82583C61.0734 6.43785 61.5073 6.13978 61.9931 5.95752C62.7244 5.69327 63.4844 5.51618 64.2572 5.42993C65.0593 5.32876 65.8668 5.27738 66.6753 5.27607ZM66.9391 18.2347C67.3554 18.2332 67.7709 18.1965 68.181 18.1247C68.5343 18.0789 68.8766 17.971 69.1922 17.806V15.1681L66.8182 15.3659C66.29 15.3871 65.7726 15.5221 65.3014 15.7616C65.1205 15.8553 64.9692 15.9974 64.8644 16.1721C64.7596 16.3468 64.7054 16.5471 64.7078 16.7508C64.6986 16.9622 64.7409 17.1726 64.8308 17.364C64.9208 17.5554 65.0559 17.7222 65.2244 17.85C65.7397 18.1594 66.341 18.2943 66.9391 18.2347Z" fill="#3579F6"/>
	<path d="M83.6203 16.2892C83.5981 16.5217 83.6359 16.756 83.7302 16.9696C83.8245 17.1832 83.9721 17.3691 84.1589 17.5093C84.6254 17.7777 85.1603 17.9038 85.6976 17.872C86.0401 17.8692 86.3819 17.8398 86.7198 17.784C87.0329 17.7402 87.3417 17.6704 87.6431 17.5752C87.8464 17.8213 88.0198 18.0906 88.1597 18.3775C88.3131 18.7229 88.3846 19.0991 88.3685 19.4767C88.3793 19.8661 88.3007 20.2529 88.1388 20.6073C87.9768 20.9617 87.7358 21.2743 87.4343 21.521C86.4528 22.142 85.2933 22.4203 84.1369 22.3124C82.5401 22.4157 80.9586 21.9482 79.6745 20.9934C79.1121 20.4399 78.6802 19.7679 78.4102 19.0263C78.1402 18.2848 78.0389 17.4925 78.1137 16.7069V2.57228C78.3555 2.50634 78.6999 2.43672 79.1469 2.36345C79.6229 2.28623 80.1046 2.24945 80.5868 2.25353C81.3702 2.20932 82.1505 2.3844 82.8399 2.75911C83.1533 3.02451 83.3928 3.36632 83.5353 3.75143C83.6778 4.13654 83.7184 4.55191 83.6533 4.95734V7.06766H87.9728C88.1229 7.35684 88.248 7.65835 88.3465 7.96891C88.474 8.3591 88.5371 8.76746 88.5334 9.17794C88.5924 9.77978 88.4106 10.3805 88.0278 10.8486C87.8453 11.0221 87.6293 11.1564 87.3931 11.2434C87.1568 11.3303 86.9052 11.368 86.6539 11.3542H83.6533L83.6203 16.2892Z" fill="#3579F6"/>
	<path d="M99.4823 22.3233C98.2554 22.3334 97.0347 22.1478 95.8662 21.7738C94.7968 21.4328 93.8091 20.8753 92.9645 20.1361C92.1189 19.3814 91.4539 18.446 91.0191 17.3993C90.5242 16.1747 90.2849 14.8618 90.3157 13.5414C90.2817 12.2599 90.5215 10.9859 91.0191 9.8044C91.4314 8.84408 92.0467 7.98437 92.8227 7.28429C93.5987 6.58421 94.517 6.06034 95.5145 5.74866C96.4949 5.4342 97.5184 5.27475 98.548 5.27605C99.6297 5.26311 100.705 5.44173 101.724 5.80363C102.632 6.12802 103.471 6.62015 104.197 7.25444C104.887 7.86364 105.437 8.61314 105.813 9.45267C106.205 10.3348 106.403 11.2904 106.396 12.2554C106.42 12.5694 106.377 12.885 106.269 13.1808C106.161 13.4767 105.99 13.7458 105.769 13.9701C105.28 14.3982 104.669 14.6632 104.022 14.7284L95.8772 15.9484C95.9984 16.3076 96.1929 16.6376 96.4483 16.9176C96.7037 17.1976 97.0145 17.4215 97.361 17.5752C98.1661 17.9482 99.0458 18.1324 99.9329 18.1137C100.798 18.121 101.66 18.0063 102.494 17.773C103.178 17.592 103.836 17.3223 104.45 16.9706C104.815 17.2045 105.12 17.5207 105.341 17.8939C105.52 18.1835 105.637 18.5078 105.683 18.8457C105.728 19.1835 105.702 19.5271 105.605 19.8541C105.509 20.181 105.344 20.4838 105.122 20.7427C104.901 21.0016 104.627 21.2106 104.318 21.3561C103.576 21.7426 102.773 21.9991 101.944 22.1145C101.13 22.2447 100.307 22.3145 99.4823 22.3233ZM98.559 9.36476C98.0875 9.3534 97.619 9.44335 97.1851 9.62853C96.826 9.78228 96.5037 10.0109 96.2399 10.299C95.9993 10.5688 95.8128 10.8822 95.6903 11.2223C95.5717 11.5587 95.5013 11.9102 95.4815 12.2664L101.12 11.3432C101.02 10.8393 100.766 10.3787 100.395 10.0242C100.151 9.79344 99.8618 9.61569 99.5459 9.50218C99.23 9.38868 98.8939 9.34188 98.559 9.36476Z" fill="#3579F6"/>
	<path d="M114.813 21.7627L113.714 21.9386C113.242 22.0173 112.764 22.0577 112.285 22.0595C111.847 22.0632 111.41 22.0302 110.977 21.9605C110.628 21.9083 110.296 21.7726 110.01 21.5649C109.74 21.3568 109.531 21.0796 109.405 20.7625C109.245 20.3343 109.17 19.8787 109.186 19.4216V0.296985L110.285 0.11012C110.761 0.0346999 111.242 -0.002064 111.725 0.000202132C112.159 -0.00292296 112.593 0.0301946 113.022 0.099152C113.371 0.151379 113.703 0.287092 113.989 0.494817C114.262 0.702199 114.475 0.979351 114.604 1.29718C114.759 1.72284 114.83 2.17447 114.813 2.6271V21.7627Z" fill="#3579F6"/>
	<path d="M124.047 21.7628L122.948 21.9386C122.476 22.0174 121.998 22.0579 121.519 22.0595C121.085 22.0628 120.651 22.0297 120.222 21.9606C119.869 21.9101 119.533 21.7743 119.244 21.5649C118.974 21.3565 118.766 21.0794 118.64 20.7626C118.48 20.3342 118.405 19.8787 118.42 19.4217V0.29706L119.519 0.110195C119.992 0.0353168 120.469 -0.00144558 120.948 0.000277055C121.386 -0.00340994 121.823 0.0297092 122.256 0.0992269C122.605 0.151454 122.937 0.287167 123.223 0.494892C123.493 0.703315 123.702 0.980451 123.827 1.29726C123.986 1.72218 124.061 2.17382 124.047 2.62718V21.7628Z" fill="#3579F6"/>
	<path d="M144.16 13.7831C144.181 15.0244 143.969 16.2585 143.534 17.4212C143.152 18.4369 142.552 19.3563 141.775 20.114C140.995 20.852 140.065 21.4142 139.049 21.7627C137.914 22.1494 136.72 22.339 135.521 22.3233C134.319 22.3391 133.124 22.138 131.993 21.7297C130.98 21.3602 130.056 20.7837 129.278 20.0371C128.503 19.28 127.9 18.3655 127.508 17.3552C126.674 15.0658 126.674 12.5554 127.508 10.266C127.9 9.25574 128.503 8.34121 129.278 7.58412C130.055 6.83377 130.979 6.25353 131.993 5.88047C133.124 5.47196 134.319 5.27092 135.521 5.28698C136.724 5.269 137.921 5.47394 139.049 5.89148C140.065 6.27183 140.992 6.85525 141.775 7.60609C142.546 8.36446 143.145 9.27885 143.534 10.2879C143.962 11.4028 144.174 12.5889 144.16 13.7831ZM132.619 13.7831C132.551 14.8688 132.824 15.9489 133.4 16.8716C133.642 17.2274 133.971 17.5153 134.356 17.7077C134.74 17.9002 135.168 17.9907 135.598 17.9707C136.016 17.9869 136.432 17.8941 136.804 17.7015C137.176 17.5088 137.491 17.2228 137.719 16.8716C138.268 15.9468 138.529 14.8789 138.467 13.8051C138.531 12.7366 138.267 11.6739 137.708 10.7605C137.458 10.4283 137.135 10.1587 136.763 9.97304C136.391 9.78738 135.981 9.69075 135.565 9.69075C135.149 9.69075 134.739 9.78738 134.367 9.97304C133.995 10.1587 133.672 10.4283 133.422 10.7605C132.852 11.6627 132.572 12.7174 132.619 13.7831Z" fill="#3579F6"/>
</svg>
