<svg xmlns="http://www.w3.org/2000/svg" xmlns:xlink="http://www.w3.org/1999/xlink" viewBox="0 0 126 19" fill="none" id="logo">
	<path d="M43.452 7.362c0 2.192-.591 3.87-1.775 5.036-1.178 1.165-2.88 1.748-5.11 1.748H33V.834h3.955c2.057 0 3.654.574 4.791 1.72 1.137 1.148 1.706 2.75 1.706 4.808zm-2.774.073c0-2.859-1.195-4.288-3.585-4.288h-1.422v8.668h1.146c2.574 0 3.86-1.46 3.86-4.38zm6.782 1.603c0 1.007.155 1.77.465 2.285.316.516.827.774 1.534.774.7 0 1.203-.255 1.508-.765.31-.516.465-1.28.465-2.294 0-1.008-.155-1.764-.465-2.267-.31-.504-.819-.756-1.525-.756-.701 0-1.207.252-1.517.756-.31.497-.465 1.253-.465 2.267zm6.66 0c0 1.657-.413 2.953-1.24 3.888-.827.934-1.98 1.402-3.455 1.402-.925 0-1.741-.213-2.448-.638-.706-.43-1.249-1.047-1.628-1.848-.38-.801-.569-1.736-.569-2.804 0-1.663.41-2.956 1.232-3.88.822-.922 1.977-1.383 3.464-1.383.925 0 1.74.212 2.447.637.707.425 1.25 1.035 1.629 1.83.38.796.569 1.727.569 2.796zm10.574 5.108h-2.628V8.2c0-.734-.123-1.284-.37-1.648-.247-.37-.64-.555-1.18-.555-.736 0-1.267.26-1.595.783-.327.516-.491 1.375-.491 2.576v4.79h-2.628V3.966h2.008l.353 1.302h.146a2.807 2.807 0 011.207-1.11c.517-.256 1.103-.383 1.758-.383 1.12 0 1.97.322 2.55.965.58.637.87 1.56.87 2.768v6.638zm8.497 0l-.508-1.384h-.07c-.441.588-.898.998-1.37 1.229-.465.225-1.073.337-1.826.337-.925 0-1.654-.28-2.189-.838-.528-.558-.792-1.354-.792-2.385 0-1.08.356-1.876 1.068-2.386.718-.516 1.798-.801 3.24-.856l1.672-.054v-.447c0-1.032-.5-1.548-1.5-1.548-.77 0-1.674.246-2.714.738l-.87-1.876c1.109-.613 2.338-.92 3.688-.92 1.292 0 2.283.298 2.973.893.689.595 1.034 1.5 1.034 2.713v6.784H73.19zm-.775-4.717l-1.017.037c-.764.024-1.333.17-1.706.437-.374.267-.56.673-.56 1.22 0 .783.425 1.174 1.275 1.174.609 0 1.094-.185 1.456-.555.368-.37.552-.862.552-1.475v-.838zm9.22 2.686c.46 0 1.01-.106 1.654-.318v2.066c-.655.31-1.459.465-2.412.465-1.052 0-1.819-.28-2.301-.838-.477-.564-.715-1.408-.715-2.531V6.05h-1.258V4.877l1.447-.929.759-2.149h1.68v2.167h2.697v2.085H80.49v4.908c0 .394.103.686.31.874.213.188.491.282.836.282zm7.6-6.364c-.557 0-.994.188-1.31.564-.316.37-.497.899-.543 1.585h3.688c-.011-.686-.18-1.214-.508-1.585-.328-.376-.77-.564-1.327-.564zm.37 8.577c-1.55 0-2.763-.452-3.636-1.357-.873-.904-1.31-2.185-1.31-3.842 0-1.706.402-3.023 1.207-3.952.81-.935 1.927-1.402 3.352-1.402 1.361 0 2.42.41 3.18 1.23.757.819 1.137 1.95 1.137 3.395v1.348h-6.213c.029.789.25 1.405.664 1.848.413.443.993.665 1.74.665.58 0 1.129-.064 1.646-.191a7.943 7.943 0 001.62-.61v2.148c-.46.243-.95.422-1.474.538-.522.121-1.16.182-1.913.182zm9.108-7.23h.88c.821 0 1.435-.17 1.843-.51.408-.346.612-.846.612-1.502 0-.662-.172-1.15-.517-1.466-.339-.315-.873-.473-1.603-.473h-1.215v3.951zm6.032-2.112c0 1.432-.425 2.528-1.275 3.287-.845.759-2.048 1.138-3.61 1.138h-1.147v4.735h-2.671V.834h4.024c1.528 0 2.689.349 3.481 1.047.799.692 1.198 1.727 1.198 3.105zm7.472 9.16l-.508-1.384h-.069c-.442.588-.899.998-1.37 1.229-.465.225-1.074.337-1.827.337-.925 0-1.654-.28-2.189-.838-.528-.558-.792-1.354-.792-2.385 0-1.08.356-1.876 1.068-2.386.718-.516 1.798-.801 3.24-.856l1.672-.054v-.447c0-1.032-.5-1.548-1.499-1.548-.77 0-1.675.246-2.715.738l-.87-1.876c1.109-.613 2.338-.92 3.688-.92 1.292 0 2.283.298 2.973.893.689.595 1.034 1.5 1.034 2.713v6.784h-1.836zm-.775-4.717l-1.017.037c-.764.024-1.333.17-1.706.437-.374.267-.56.673-.56 1.22 0 .783.425 1.174 1.275 1.174.609 0 1.094-.185 1.456-.555.368-.37.552-.862.552-1.475v-.838zm3.783-5.463h2.878l1.818 5.727c.155.498.261 1.087.319 1.767h.052a8.164 8.164 0 01.37-1.767l1.784-5.727h2.817l-4.075 11.482c-.374 1.062-.908 1.857-1.603 2.385-.689.528-1.497.792-2.421.792-.454 0-.899-.051-1.336-.154v-2.204c.316.08.661.119 1.034.119.465 0 .87-.152 1.215-.456.35-.297.623-.75.819-1.356l.155-.501-3.826-10.107z" fill="#fff"/>
	<path d="M21.063 5.802a.91.91 0 01.916-.903.91.91 0 01.916.903.91.91 0 01-.916.903.91.91 0 01-.916-.903zm-1.984 1.957a.91.91 0 01.916-.904.91.91 0 01.915.904.91.91 0 01-.915.903.91.91 0 01-.916-.903zm4.884-.904a.91.91 0 00-.916.904c0 .499.41.903.916.903a.91.91 0 00.916-.903.91.91 0 00-.916-.904zm-2.9 2.861a.91.91 0 01.916-.904.91.91 0 01.916.904.91.91 0 01-.916.903.91.91 0 01-.916-.903z" fill="#44AB4F"/>
	<path fill-rule="evenodd" d="M15.704 11.208l.003.003.002.004c1.426 2.03 3.237 3.619 6.194 3.619 3.913 0 7.097-3.14 7.097-7 0-3.855-3.19-7-7.097-7-2.175 0-3.859.918-5.1 2.189-1.215 1.243-2.068 2.788-2.909 4.313l-.084.153c-.86 1.557-1.729 3.077-2.758 4.138-.514.53-1.057.965-1.7 1.264-.645.301-1.375.46-2.255.46-3.1 0-5.592-2.459-5.592-5.517 0-3.043 2.507-5.516 5.592-5.516 2.504 0 3.992 1.398 5.237 3.266.263-.456.543-.92.84-1.39C11.764 2.293 9.96.835 7.097.835 3.184.834 0 3.974 0 7.834c0 3.854 3.19 7 7.097 7 2.155 0 3.838-.918 5.067-2.189.83-.857 1.488-1.862 2.093-2.908l.28-.485.257.497c.195.377.574 1.008.91 1.46zm.647-1.69l.003.004c1.31 2.135 2.844 3.828 5.549 3.828 3.085 0 5.593-2.473 5.593-5.516 0-3.059-2.492-5.516-5.593-5.516-1.807 0-2.97.646-4.02 1.722-.857.876-1.65 2.257-2.35 3.497l-.054.096.02.108c.047.236.207.579.366.889.166.323.354.655.484.883l.002.005z" fill="#44AB4F"/>
	<path d="M6.41 5.35h1.222v1.807h1.831V8.36H7.632v1.806H6.41V8.361H4.579V7.157H6.41V5.35z" fill="#44AB4F"/>
</svg>
