<?xml version="1.0" encoding="utf-8"?>
<!-- Generator: Adobe Illustrator 22.0.1, SVG Export Plug-In . SVG Version: 6.00 Build 0)  -->
<svg version="1.1" id="Layer_1" xmlns="http://www.w3.org/2000/svg" xmlns:xlink="http://www.w3.org/1999/xlink" x="0px" y="0px"
	 viewBox="0 0 392 52" style="enable-background:new 0 0 392 52;" xml:space="preserve">
<g>
	<g>
		<defs>
			<path id="SVGID_1_" d="M322.4,40.4c5,0,9-4.1,9-9.1c0-5-4-9.1-9-9.1c-5,0-9,4.1-9,9.1C313.4,36.3,317.4,40.4,322.4,40.4z
				 M261.3,45.9c-1.4,0-2.5-1.1-2.5-2.5V25.7c0-5.3,4.3-9.6,9.5-9.6h0.8c1.2,0,2.3,1,2.3,2.3c0,1.3-1,2.3-2.3,2.3h-0.8
				c-2.5,0-4.5,2.5-4.5,5v17.7C263.8,44.8,262.7,45.9,261.3,45.9z M295.9,28.3c-1.3-3.8-4.3-6.6-8.5-6.6c-4.2,0-7.3,2.7-8.5,6.6
				H295.9z M287.4,40.9c2.3,0,4.5-0.8,6.2-2.3c3.6-3.1,6.7,2,4.3,4.2c-2.8,2.6-6.6,4.2-10.5,4.2c-8.6,0-15.5-7-15.5-15.6
				c0-8.6,6.9-15.6,15.5-15.6c8.3,0,15,6.5,15.5,14.7c0,0.3,0.5,4-3.8,4h-20.2C280.1,38.1,283.2,40.9,287.4,40.9z M159.3,29.8h21.8
				c-0.7-5.4-5.3-9.6-10.9-9.6S160,24.4,159.3,29.8z M159.3,32.8c0.7,5.4,5.3,9.6,10.9,9.6c3,0,5.8-1.2,7.8-3.3
				c1.6-1.6,3.6,0.5,2.5,1.8c-2.6,2.9-6.3,4.5-10.3,4.5c-7.7,0-14-6.3-14-14.1c0-7.8,6.3-14.1,14-14.1c7.7,0,14,6.3,14,14.1
				c-0.2,1-0.8,1.5-1.8,1.5H159.3z M227.3,17.2c3.3,0,6,1.1,8.5,3.1c1.6,1.3-0.6,3.5-1.8,2.4c-1.6-1.3-3.7-2.5-6.7-2.5
				c-4,0-6,2.3-6,4.5c0,6.1,17,3,17,12.6c0,3.2-1.9,8.1-10.5,8.1c-4.4,0-8.1-1.9-10.6-5.3c-0.9-1.1,1.3-3.2,2.5-1.7
				c2,2.6,4.8,4,8.2,4c4.9,0,7.5-2,7.5-5c0-6.6-17-3-17-12.6C218.3,20.5,222.5,17.2,227.3,17.2z M246.8,17.2h5.3
				c1,0,1.8,0.8,1.8,1.8c0,1-0.8,1.8-1.8,1.8h-5.3v16.2c0,2.8,2.2,5.6,5,5.6h0.3c1,0,1.8,0.8,1.8,1.8c0,1-0.8,1.8-1.8,1.8h-0.3
				c-5,0-9-4.1-9-9.1V10.6c0-1.1,0.9-2,2-2c1.1,0,2,0.9,2,2V17.2z M147.2,17.2h5.3c1,0,1.8,0.8,1.8,1.8c0,1-0.8,1.8-1.8,1.8h-5.3
				v16.2c0,2.8,2.2,5.6,5,5.6h0.3c1,0,1.8,0.8,1.8,1.8c0,1-0.8,1.8-1.8,1.8h-0.3c-5,0-9-4.1-9-9.1V10.6c0-1.1,0.9-2,2-2
				c1.1,0,2,0.9,2,2V17.2z M378,14.6c7.7,0,14,6.3,14,14.1v14.1c0,2.2-1.8,4-4,4c-2.2,0-4-1.8-4-4V28.3c0-3.3-2.7-6.1-6-6.1
				c-3.3,0-6,2.7-6,6.1v14.6c0,2.2-1.8,4-4,4c-2.2,0-4-1.8-4-4V28.3c0-3.3-2.7-6.1-6-6.1c-3.3,0-6,2.7-6,6.1v14.6c0,2.2-1.8,4-4,4
				c-2.2,0-4-1.8-4-4V28.8c0-7.8,6.3-14.1,14-14.1c3.9,0,7.5,1.6,10,4.2C370.5,16.3,374.1,14.6,378,14.6z M77.6,46.9
				c-1.8,0-3.5-1.5-3.5-3.3V29.8c0-7.8,6.3-14.1,14-14.1c7.7,0,14,6.3,14,14.1v13.9c0,1.8-1.7,3.3-3.5,3.3s-3.5-1.5-3.5-3.3V29.8
				c0-4.5-2.6-8.1-7-8.1c-4.4,0-7,3.6-7,8.1v13.9C81.1,45.5,79.4,46.9,77.6,46.9z M54.1,40.4c5,0,8.5-4.1,8.5-9.1
				c0-5-3.5-9.1-8.5-9.1c-5,0-8.5,4.1-8.5,9.1C45.6,36.3,49.1,40.4,54.1,40.4z M54.1,47.4c-8.8,0-16-7.2-16-16.2
				c0-8.9,7.2-16.2,16-16.2s16,7.2,16,16.2C70.1,40.2,62.9,47.4,54.1,47.4z M121.4,41.4c5.5,0,10-4.5,10-10.1
				c0-5.6-4.5-10.1-10-10.1s-10,4.5-10,10.1C111.4,36.9,115.9,41.4,121.4,41.4z M132.2,21v-1.8c0-1.4,1.1-2.5,2.5-2.5
				s2.5,1.1,2.5,2.5v24.2c0,1.4-1.1,2.5-2.5,2.5s-2.5-1.1-2.5-2.5v-1.8c-2.7,3-6.7,4.8-11,4.8c-8.3,0-15-6.8-15-15.1
				c0-8.4,6.7-15.1,15-15.1C125.5,16.2,129.4,18,132.2,21z M17,39.9c4.7,0,8.5-3.8,8.5-8.6c0-4.7-3.8-8.6-8.5-8.6
				c-4.7,0-8.5,3.8-8.5,8.6C8.5,36,12.3,39.9,17,39.9z M335.4,15.6c1.9,0,3.5,1.6,3.5,3.5v24.2c0,2-1.6,3.5-3.5,3.5
				c-1.8,0-3.2-1.3-3.5-3.1c-2.7,2.2-6.2,3.6-10,3.6c-8.8,0-16-7.2-16-16.2c0-8.9,7.2-16.2,16-16.2c3.8,0,7.3,1.3,10,3.6
				C332.2,17,333.7,15.6,335.4,15.6z M26,4c0-2.2,1.8-4,4-4c2.2,0,4,1.8,4,4v39.4c0,2.2-1.8,4-4,4c-1.7,0-3.2-1.1-3.8-2.7
				c-2.7,2-6.1,3.2-9.7,3.2C7.4,48,0,40.5,0,31.3c0-9.2,7.4-16.7,16.5-16.7c3.5,0,6.8,1.1,9.5,3V4z"/>
		</defs>
		<clipPath id="SVGID_2_">
			<use xlink:href="#SVGID_1_"  style="overflow:visible;"/>
		</clipPath>
		<g style="clip-path:url(#SVGID_2_);">
			<defs>
				<rect id="SVGID_3_" x="-504" y="-374" width="1400" height="800"/>
			</defs>
			<clipPath id="SVGID_4_">
				<use xlink:href="#SVGID_3_"  style="overflow:visible;"/>
			</clipPath>
			<rect x="-5" y="-5" style="clip-path:url(#SVGID_4_);fill:#FFFFFF;" width="402" height="58"/>
		</g>
	</g>
	<linearGradient id="SVGID_5_" gradientUnits="userSpaceOnUse" x1="193.1905" y1="48.8095" x2="207.5163" y2="34.4837">
		<stop  offset="0" style="stop-color:#FF9B00"/>
		<stop  offset="1" style="stop-color:#FFC40C"/>
	</linearGradient>
	<circle style="fill:url(#SVGID_5_);" cx="200" cy="42" r="10"/>
</g>
</svg>
