<svg xmlns="http://www.w3.org/2000/svg"  viewBox="0 0 24 24" width="384px" height="384px"><path d="M22,12c0,5.523-4.477,10-10,10S2,17.523,2,12S6.477,2,12,2S22,6.477,22,12z M17.802,9.089 c-0.751-0.421-1.557-0.637-2.366-0.678c-0.335,0.62-0.832,1.139-1.438,1.489c-0.598,0.345-1.29,0.525-2.036,0.494 c-0.293-0.012-0.591-0.043-0.865-0.11C9.503,9.832,8.334,8.372,8.352,6.638c0.018-1.872,1.413-3.468,3.213-3.745 c-0.139,0.001-0.274,0.015-0.418,0.024c-2.615,0.43-4.607,2.779-4.569,5.514c0.011,0.861,0.227,1.667,0.596,2.388 c0.705-0.02,1.402,0.151,2.008,0.501c0.598,0.345,1.1,0.855,1.446,1.516c0.136,0.259,0.253,0.511,0.331,0.773 c0.422,1.615-0.258,3.374-1.779,4.231c-1.63,0.92-3.71,0.51-4.85-0.91c0.07,0.12,0.15,0.23,0.23,0.35c1.68,2.05,4.71,2.6,7.06,1.2 c0.74-0.44,1.33-1.03,1.77-1.71c-0.37-0.6-0.57-1.29-0.57-1.99c0-0.69,0.19-1.38,0.59-2.01c0.157-0.247,0.305-0.464,0.488-0.658 c1.186-1.186,3.06-1.482,4.57-0.59c1.612,0.952,2.297,2.958,1.637,4.655c0.069-0.121,0.124-0.245,0.188-0.374 C21.228,13.323,20.189,10.424,17.802,9.089z"/></svg>
