<svg width="48" height="48" viewBox="0 0 48 48" fill="none" xmlns="http://www.w3.org/2000/svg">
<mask id="path" fill="white">
<path d="M24 32V16ZM16 28V20ZM32 28V20ZM34 6.69999C30.2804 4.52039 25.9561 3.60102 21.6716 4.0789C17.387 4.55678 13.3715 6.40633 10.2236 9.3519C7.07563 12.2975 4.96375 16.1814 4.20265 20.4248C3.44155 24.6682 4.07199 29.044 6 32.9C6.4 33.6 6.6 34.4 6.4 35.2L5.2 39.7C4.6 41.6 6.4 43.4 8.3 42.8L12.8 41.6C13.6 41.4 14.4 41.6 15.1 41.9C19.7379 44.108 25.0476 44.4468 29.9286 42.8463C34.8096 41.2458 38.8877 37.8287 41.3176 33.3031C43.7475 28.7774 44.3431 23.4904 42.9807 18.5376C41.6184 13.5849 38.4027 9.34618 34 6.69999Z"/>
</mask>
<path d="M34 6.69999L34.5152 5.84284L34.5056 5.83721L34 6.69999ZM6 32.9L5.10558 33.3472L5.11799 33.372L5.13176 33.3961L6 32.9ZM6.4 35.2L7.36624 35.4577L7.36825 35.4501L7.37014 35.4425L6.4 35.2ZM5.2 39.7L6.15358 40.0011L6.1604 39.9795L6.16624 39.9577L5.2 39.7ZM8.3 42.8L8.04234 41.8338L8.02046 41.8396L7.99887 41.8464L8.3 42.8ZM12.8 41.6L12.5575 40.6298L12.5499 40.6317L12.5423 40.6338L12.8 41.6ZM15.1 41.9L15.5298 40.9971L15.512 40.9886L15.4939 40.9808L15.1 41.9ZM25 32V16H23V32H25ZM17 28V20H15V28H17ZM33 28V20H31V28H33ZM34.5056 5.83721C30.6 3.54863 26.0595 2.58329 21.5607 3.08507L21.7824 5.07274C25.8527 4.61875 29.9608 5.49215 33.4944 7.56278L34.5056 5.83721ZM21.5607 3.08507C17.0619 3.58684 12.8457 5.52886 9.54033 8.62171L10.9068 10.0821C13.8974 7.28379 17.7121 5.52673 21.7824 5.07274L21.5607 3.08507ZM9.54033 8.62171C6.23499 11.7146 4.01751 15.7927 3.21836 20.2483L5.18694 20.6013C5.90999 16.5701 7.91628 12.8804 10.9068 10.0821L9.54033 8.62171ZM3.21836 20.2483C2.4192 24.7039 3.08116 29.2984 5.10558 33.3472L6.89443 32.4528C5.06281 28.7896 4.4639 24.6326 5.18694 20.6013L3.21836 20.2483ZM5.13176 33.3961C5.44497 33.9443 5.54974 34.4779 5.42986 34.9575L7.37014 35.4425C7.65026 34.3221 7.35503 33.2557 6.86824 32.4039L5.13176 33.3961ZM5.43377 34.9423L4.23377 39.4423L6.16624 39.9577L7.36624 35.4577L5.43377 34.9423ZM4.24642 39.3989C3.40265 42.0708 5.92921 44.5973 8.60113 43.7536L7.99887 41.8464C6.87079 42.2026 5.79735 41.1292 6.15358 40.0011L4.24642 39.3989ZM8.55766 43.7662L13.0577 42.5662L12.5423 40.6338L8.04234 41.8338L8.55766 43.7662ZM13.0425 42.5701C13.5344 42.4472 14.0914 42.5557 14.7061 42.8191L15.4939 40.9808C14.7086 40.6443 13.6656 40.3528 12.5575 40.6298L13.0425 42.5701ZM14.6702 42.8029C19.54 45.1213 25.1152 45.4771 30.2402 43.7966L29.617 41.8961C24.9801 43.4166 19.9359 43.0947 15.5298 40.9971L14.6702 42.8029ZM30.2402 43.7966C35.3652 42.116 39.6472 38.528 42.1986 33.7761L40.4366 32.83C38.1281 37.1293 34.254 40.3756 29.617 41.8961L30.2402 43.7966ZM42.1986 33.7761C44.7501 29.0242 45.3754 23.4728 43.9449 18.2724L42.0165 18.8029C43.3108 23.508 42.745 28.5307 40.4366 32.83L42.1986 33.7761ZM43.9449 18.2724C42.5145 13.072 39.1379 8.62139 34.5152 5.84289L33.4848 7.55709C37.6674 10.071 40.7223 14.0977 42.0165 18.8029L43.9449 18.2724Z" fill="black" mask="url(#path)"/>
</svg>
