<svg xmlns="http://www.w3.org/2000/svg" viewBox="0 0 384 384"><defs><style>.cls-1{fill:#fe4b37;}.cls-2{fill:#d4011d;}.cls-3{fill:#fefefe;}.cls-4{fill:#fefdfd;}</style></defs><g id="Layer_2" data-name="Layer 2"><g id="Layer_1-2" data-name="Layer 1"><path class="cls-1" d="M192.32,383.94q-94.5,0-189,.06C.8,384,0,383.7,0,380.83c.14-31.13.09-62.26.09-93.39,1.3-6.71,4.77-12.51,7.78-18.49a16.92,16.92,0,0,0,1.87-7.89q-.06-26.35,0-52.71a16.89,16.89,0,0,0-1.87-7.89c-3-6-6.48-11.79-7.78-18.5V.93C1.38.21,2.78.58,4.12.58q44.12,0,88.23,0c4.47,0,8.77.68,12.52,3.06,9.07,5.77,18.82,7.61,29.52,7.08,12.56-.62,25.17-.26,37.75-.09,5,.07,9.63-.53,14-3.15,1.77-1.07,3.79-2.11,5.93-.56,1.75,2.18,1.14,4.78,1.14,7.2q.08,61.32,0,122.64A37.14,37.14,0,0,1,193,143c-1.54,3.4-3.67,1.67-5.43.42-5.18-3.68-10.23-7.55-15.28-11.4C146,112,119.4,92.43,93.09,72.47c-2.51-1.9-4.18-1.73-6.32.53q-7.08,7.45-14.54,14.54c-2.25,2.13-2.51,3.61-.36,6.15Q100.94,127.85,130,162q26.87,31.62,53.78,63.2c2.25,2.66,4.49,5.34,6.81,7.94a7.28,7.28,0,0,1,2.16,5.77,36.65,36.65,0,0,1,.46,6.7v131a30.41,30.41,0,0,1-.37,5.95A3.16,3.16,0,0,1,192.32,383.94Z"/><path class="cls-2" d="M191.54,144.53q0-68.86,0-137.72c-.08-1.83,1.26-2.59,2.55-3.35A20.78,20.78,0,0,1,204.74.57q44.85,0,89.71,0c4.5,0,8.44,1.75,12.39,3.7,10.41,5.13,7.4,5.22,17.73,0A33.09,33.09,0,0,1,340.33.5c13.21.18,26.42.14,39.62,0,2.8,0,3.55.71,3.55,3.53q-.12,93.09-.05,186.17a24.25,24.25,0,0,1-4.31,13.71c-3.91,5.81-3.75,11.13.09,16.86,3.51,5.22,4.29,11.18,4.27,17.47-.12,47.1-.06,94.21-.09,141.31,0,1.46.39,3-.35,4.4H230.47c-5.2-.93-9.82-3.36-14.32-5.91-3.41-1.94-6.33-1.81-9.71.07-3.88,2.14-7.7,4.58-12.24,5.23a3.19,3.19,0,0,1-1.81.05c-.94-.88-.81-2-.81-3.15q0-71.58.08-143.16c2.42-.37,3.68,1.37,4.8,2.94a27.36,27.36,0,0,0,14.45,10.58c3.56,1.1,6.88,2.92,10.36,4.28a9.1,9.1,0,0,1,6,7.44c.74,4.17,2.18,8.2,2.87,12.36.84,5,3.38,8.94,6.59,12.7,6.79,7.94,13.76,15.74,20.29,23.91a9.29,9.29,0,0,0,8,3.86c11.09-.18,22.18-.05,33.27-.07,4.55,0,4.84-.35,5.47-4.69,3.19-22,6.15-44.11,9.57-66.11.66-4.28-.81-6.76-4.2-9.29-38.15-28.39-76-57.18-114.08-85.69C193.47,148.08,191.23,147.22,191.54,144.53Z"/><path class="cls-3" d="M383.06,383.94q0-73.49,0-147a19.4,19.4,0,0,0-2.12-9.26c-2.64-5.18-7.35-10.3-7.1-15.7.23-5.24,4.43-10.35,7.12-15.4a18,18,0,0,0,2.11-8.88q-.11-91.43,0-182.86c0-3.31-.79-4.09-4-4-13.21.21-26.43.14-39.64.05A14.45,14.45,0,0,0,332,2.66c-2.27,1.28-4.93,2-6.94,3.6-6.44,5.05-12.54,4.12-18.86-.18S292.72.68,285,.79c-24.18.37-48.37.43-72.54,0A35.88,35.88,0,0,0,191.5,6.81a.76.76,0,0,0-.37.06c-7.8,5.41-16.6,5.55-25.65,5.36-14.68-.3-29.37-.1-44.06-.05a9.71,9.71,0,0,1-5.68-1.37C102.93,2.34,88.92.13,73.63.69,49.15,1.58,24.61.93.09.93c.67-1.55,2-.7,3-.7C18.66.16,34.25.18,49.83.18q165.3,0,330.61-.07c2.81,0,3.44.63,3.44,3.44q-.12,188.51-.12,377C383.76,381.67,384.63,383.11,383.06,383.94Z"/><path class="cls-3" d="M.09,182c4.22,6.72,7.22,14.08,10.85,21.11a7.52,7.52,0,0,1,.36,3.28q0,28.34,0,56.68a7.54,7.54,0,0,1-.36,3.28c-3.62,7-6.67,14.37-10.84,21.13Z"/><path class="cls-4" d="M192.39,383.38c5.54-2.72,11.13-5.37,16.62-8.21a4.46,4.46,0,0,1,4.79,0c5.46,3.09,11.4,5.28,16.67,8.74H192.32A.59.59,0,0,0,192.39,383.38Z"/><path class="cls-3" d="M191.54,144.53l78.76,59.35c14.23,10.71,28.45,21.44,42.74,32.06,2,1.52,2.65,2.9,2.26,5.55q-5.24,35.28-10,70.63c-.45,3.26-1.23,4.73-5.11,4.63-12.46-.35-24.93-.19-37.39-.09a5.83,5.83,0,0,1-5.07-2.29Q245,299.19,232,284.19a10.5,10.5,0,0,1-2.2-4.63c-1.55-6.28-3.13-12.55-4.56-18.86-.43-1.88-1.24-3.18-3.13-3.71-.24-.07-.47-.17-.7-.26-11.33-4.42-22.84-8.57-29.77-19.66-9.38-11.14-18.71-22.32-28.14-33.41Q116.43,148.26,69.25,93C67.58,91,68,90,69.56,88.47,75.46,82.74,81.33,77,87,71c2.1-2.23,3.39-2.51,6-.52q48.54,36.77,97.3,73.27C190.69,144.05,191.13,144.28,191.54,144.53Z"/><path class="cls-3" d="M166.93,316.62h-2.62c-19.93,0-39.85,0-59.78.05a7.47,7.47,0,0,1-5.87-2.42c-9.69-9.85-19.49-19.61-29.3-29.34a5.89,5.89,0,0,1-2-4.54c.08-20.79,0-41.59,0-62.39a5.17,5.17,0,0,1,.06-.84Z"/><path class="cls-3" d="M216.05,68.26c21.22,0,42.64,0,64.06,0a4.62,4.62,0,0,1,3.57,1.56q15.3,15.38,30.66,30.67a4.23,4.23,0,0,1,1.43,3.26q-.07,32-.06,63.93c0,.2-.18.4-.08.19Q266,118.19,216.05,68.26Z"/></g></g></svg>