<svg fill="none" xmlns="http://www.w3.org/2000/svg" viewBox="0 0 78 78">
  <g clip-path="url(#a)" stroke="currentStroke" stroke-linecap="round" stroke-linejoin="round">
    <path d="m9.8 9.8 58.5 58.5M48.8 35.7v-3.2l14.7-7.4a3.2 3.2 0 0 1 4.8 3V50a3.3 3.3 0 0 1-2.2 3" />
    <path
      d="M48.8 48.8V52a6.5 6.5 0 0 1-6.5 6.5h-26A6.5 6.5 0 0 1 9.7 52V26a6.5 6.5 0 0 1 6.6-6.5h3.2m13 0h9.8a6.5 6.5 0 0 1 6.5 6.5v9.8L32.5 19.4Z" />
  </g>
  <defs>
    <clipPath id="a">
      <path fill="#fff" d="M0 0H78V78H0z" />
    </clipPath>
  </defs>
</svg>