<svg fill="none" xmlns="http://www.w3.org/2000/svg" viewBox="0 0 20 20" stroke-width="1.5" stroke-linecap="round"
  stroke-linejoin="round">
  <path
    d="M8.3 2.3c.5-1.7 3-1.7 3.4 0a1.7 1.7 0 0 0 2.5 1c1.6-.9 3.4 1 2.4 2.5a1.7 1.7 0 0 0 1 2.5c1.8.5 1.8 3 0 3.4a1.7 1.7 0 0 0-1 2.5c1 1.6-.8 3.4-2.4 2.4a1.7 1.7 0 0 0-2.5 1c-.5 1.8-3 1.8-3.4 0a1.7 1.7 0 0 0-2.5-1c-1.6 1-3.4-.8-2.4-2.4a1.7 1.7 0 0 0-1-2.5c-1.8-.5-1.8-3 0-3.4a1.7 1.7 0 0 0 1-2.5c-1-1.6.8-3.4 2.4-2.4 1 .6 2.2 0 2.5-1Z" />
  <path d="M10 13a3 3 0 1 0 0-6 3 3 0 0 0 0 6Z" />
</svg>