<svg xmlns="http://www.w3.org/2000/svg" fill="none" viewBox="0 0 32 24"><g fill-rule="evenodd" clip-path="url(#a)" clip-rule="evenodd"><path fill="#BD3D44" d="M0 0h32v1.8469H0V0Zm0 3.6938h32v1.8468H0V3.6937Zm0 3.689h32v1.8516H0V7.3828Zm0 3.6938h32v1.8468H0v-1.8468Zm0 3.6937h32v1.8469H0v-1.8469Zm0 3.6891h32v1.8469H0v-1.8469Zm0 3.6937h32V24H0v-1.8469Z"/><path fill="#fff" d="M0 1.85h32v1.8463H0V1.85Zm0 3.6926h32v1.8416H0V5.5426Zm0 3.688h32v1.8462H0V9.2305Zm0 3.6926h32v1.8463H0v-1.8463Zm0 3.6926h32v1.8463H0v-1.8463Zm0 3.6879h32V22.15H0v-1.8463Z"/><path fill="#192F5D" d="M0 0h16.2992v12.9234H0V0Z"/><path fill="#fff" d="m1.3572.5531.1508.511h.4776l-.3854.314.1466.5156-.3896-.3187-.3854.314.1466-.5109-.3895-.314h.4859l.1424-.511Zm2.7186 0 .1467.511h.4817l-.3896.314.1466.5156-.3854-.3187-.3895.314.1466-.5109-.3854-.314h.4775l.1508-.511Zm2.7145 0 .1508.511h.4733l-.3853.314.1466.5156-.3896-.3187-.3854.314.1466-.5109-.3895-.314h.4817l.1508-.511Zm2.7186 0 .1466.511h.4817l-.3895.314.1508.5156-.3896-.3187-.3896.314.1508-.5109-.3895-.314h.4775l.1508-.511Zm2.7144 0 .1508.511h.4776l-.3854.314.1466.5156-.3896-.3187-.3854.314.1467-.5109-.3854-.314h.4775l.1466-.511Zm2.7187 0 .1466.511h.4817l-.3896.314.1508.5156-.3895-.3187-.3896.314.1508-.5109-.3896-.314h.4817l.1467-.511ZM2.7186 1.847l.1466.511h.4818l-.3896.314.1424.511-.377-.3142-.3895.3141.1382-.511-.377-.314h.4775l.1466-.511Zm2.7145 0 .1508.511h.4775l-.3896.314.1508.511-.3895-.3142-.3896.3141.1508-.511-.3896-.314h.4817l.1467-.511Zm2.7186 0 .1466.511H8.78l-.3895.314.1466.511-.3854-.3142-.3896.3141.1466-.511-.3854-.314h.4776l.1508-.511Zm2.7144 0 .1508.511h.4776l-.3896.314.1508.511-.3896-.3142-.3854.3141.1466-.511-.3895-.314h.4859l.1424-.511Zm2.7186 0 .1466.511h.4818l-.3896.314.1466.511-.3854-.3142-.3895.3141.1466-.511-.3854-.314h.4775l.1508-.511ZM1.3572 3.1359l.1508.5204h.4776l-.3854.314.1466.511-.3896-.3188-.3854.3188.1466-.5157-.3895-.314h.4859l.1424-.5157Zm2.7186 0 .1467.5157h.4817l-.3896.314.1466.511-.3854-.3188-.3895.3188.1466-.5157-.3854-.314h.4775l.1508-.511Zm2.7145 0 .1508.5157h.4733l-.3853.314.1466.511-.3896-.3188-.3854.3188.1466-.5157-.3895-.314h.4817l.1508-.511Zm2.7186 0 .1466.5157h.4817l-.3895.314.1508.511-.3896-.3188-.3896.3188.1508-.5157-.3895-.314h.4775l.1508-.511Zm2.7144 0 .1508.5157h.4776l-.3854.314.1466.511-.3896-.3188-.3854.3188.1467-.5157-.3854-.314h.4775l.1466-.511Zm2.7187 0 .1466.5157h.4817l-.3896.314.1508.511-.3895-.3188-.3896.3188.1508-.5157-.3896-.314h.4817l.1467-.511ZM2.7186 4.4297l.1466.511h.4818l-.3896.314.1466.5156-.3854-.3187-.3895.314.1466-.511-.3854-.314h.4775l.1508-.511Zm2.7145 0 .1508.511h.4775l-.3896.314.1508.5156-.3895-.3187-.3896.314.1508-.511-.3896-.314h.4817l.1467-.511Zm2.7186 0 .1466.511H8.78l-.3895.314.1466.5156-.3854-.3187-.3896.314.1466-.511-.3854-.314h.4776l.1508-.511Zm2.7144 0 .1508.511h.4776l-.3854.314.1466.5156-.3896-.3187-.3854.314.1466-.511-.3895-.314h.4859l.1424-.511Zm2.7186 0 .1466.511h.4818l-.3896.314.1466.5156-.3854-.3187-.3895.314.1466-.511-.3854-.314h.4775l.1508-.511ZM1.3572 5.7234l.1508.511h.4776l-.3854.314.1466.5157-.3896-.3188-.3854.314.1466-.5109-.3895-.314h.4859l.1424-.511Zm2.7186 0 .1467.511h.4817l-.3896.314.1466.511-.3854-.314-.3895.314.1466-.511-.3854-.314h.4775l.1508-.511Zm2.7145 0 .1508.511h.4733l-.3853.314.1466.5157-.3896-.3188-.3854.314.1466-.5109-.3895-.314h.4817l.1508-.511Zm2.7186 0 .1466.511h.4817l-.3895.314.1508.5157-.3896-.3188-.3896.314.1508-.5109-.3895-.314h.4775l.1508-.511Zm2.7144 0 .1508.511h.4776l-.3854.314.1466.5157-.3896-.3188-.3854.314.1467-.5109-.3854-.314h.4775l.1466-.511Zm2.7187 0 .1466.511h.4817l-.3896.314.1508.5157-.3895-.3188-.3896.314.1508-.5109-.3896-.314h.4817l.1467-.511ZM2.7186 7.0172l.1466.511h.4818l-.3896.314.1466.511-.3854-.3188-.3895.3187.1466-.5156-.3854-.314h.4775l.1508-.5063Zm2.7145 0 .1508.511h.4775l-.3896.314.1508.511-.3895-.3188-.3896.3187.1508-.5156-.3896-.314h.4817l.1467-.5063Zm2.7186 0 .1466.511H8.78l-.3895.314.1466.511-.3854-.3188-.3896.3187.1466-.5156-.3854-.314h.4776l.1508-.5063Zm2.7144 0 .1508.511h.4776l-.3854.314.1466.511-.3896-.3188-.3854.3187.1466-.5156-.3895-.314h.4859l.1424-.5063Zm2.7186 0 .1466.511h.4818l-.3896.314.1466.511-.3854-.3188-.3895.3187.1466-.5156-.3854-.314h.4775l.1508-.5063ZM1.3572 8.3062l.1508.5157h.4776l-.3854.314.1466.5063-.3896-.314-.3854.314.1466-.511-.3895-.314h.4859l.1424-.511Zm2.7186 0 .1467.5157h.4817l-.3896.314.1508.5063-.3896-.314-.3895.314.1508-.511-.3896-.314h.4775l.1508-.511Zm2.7145 0 .1508.5157h.4733l-.3853.314.1466.5063-.3896-.314-.3854.314.1466-.511-.3895-.314h.4817l.1508-.511Zm2.7186 0 .1466.5157h.4817l-.3895.314.1508.5063-.3896-.314-.3896.314.1508-.511-.3895-.314h.4775l.1508-.511Zm2.7144 0 .1508.5157h.4776l-.3854.314.1466.5063-.3896-.314-.3854.314.1467-.511-.3854-.314h.4775l.1466-.511Zm2.7187 0 .1466.5157h.4817l-.3896.314.1508.5063-.3895-.314-.3896.314.1508-.511-.3896-.314h.4817l.1467-.511ZM2.7186 9.6l.1466.5109h.4818l-.3896.3141.1466.5156-.3854-.3187-.3895.314.1466-.5109-.3854-.3141h.4775L2.7186 9.6Zm2.7145 0 .1508.5109h.4775l-.3896.3141.1508.5156-.3895-.3187-.3896.314.1508-.5109-.3896-.3141h.4817L5.4332 9.6Zm2.7186 0 .1466.5109H8.78l-.3895.3141.1466.5156-.3854-.3187-.3896.314.1466-.5109-.3854-.3141h.4776L8.1517 9.6Zm2.7144 0 .1508.5109h.4776l-.3854.3141.1466.5156-.3896-.3187-.3854.314.1466-.5109-.3895-.3141h.4859l.1424-.5109Zm2.7186 0 .1466.5109h.4818l-.3896.3141.1466.5156-.3854-.3187-.3895.314.1466-.5109-.3854-.3141h.4775l.1508-.5109ZM1.3572 10.8937l.1508.511h.4776l-.3854.314.1466.511-.3896-.3141-.3854.3141.1466-.5156L.729 11.4h.4859l.1424-.5063Zm2.7186 0 .1467.511h.4817l-.3896.314.1508.511-.3896-.3141-.3895.3141.1508-.5156-.3896-.3141h.4775l.1508-.5063Zm2.7145 0 .1508.511h.4733l-.377.314.1466.511-.3895-.3141-.3854.3141.1466-.5156-.3896-.3141h.4817l.1425-.5063Zm2.7186 0 .1466.511h.4817l-.3895.314.1508.511-.3896-.3141-.3896.3141.1508-.5156-.3895-.3141h.4775l.1508-.5063Zm2.7144 0 .1508.511h.4776l-.3854.314.1466.511-.3896-.3141-.3854.3141.1467-.5156-.3854-.3141h.4775l.1466-.5063Zm2.7187 0 .1466.511h.4817l-.3896.314.1508.511-.3895-.3141-.3896.3141.1508-.5156-.3896-.3141h.4817l.1467-.5063Z"/></g><defs><clipPath id="a"><path fill="#fff" d="M0 0h32v24H0z"/></clipPath></defs></svg>
