<svg xmlns="http://www.w3.org/2000/svg" viewBox="0 0 20 20"><path fill="currentColor" d="M16.9168 3.501c-1.25-.5834-2.6667-1-4.1667-1.25l-.4167 1.0833c-1.5-.25-3-.25-4.5 0L7.2501 2.251c-1.4167.25-2.8333.6666-4.1667 1.25-2.5 4-3.3333 7.8333-2.9166 11.6666 1.6666 1.25 3.3333 2 5 2.5.5-.5.8333-1.0833 1.1666-1.6666l-1.6666-.8334L5 14.751a11.6675 11.6675 0 0 0 10.1667 0l.4166.3333-1.6666.8333c.25.6667.5833 1.25 1 1.8334 1.6666-.5834 3.3333-1.3334 5.0833-2.6667.4167-4.3333-.75-8.1667-3-11.5833h-.0833Zm-10.25 9.25c-1 0-1.75-.8334-1.75-2 0-1.1667.8333-2.0834 1.75-2.0834 1 0 1.8333.9167 1.8333 2.0834 0 1.0833-.8333 2-1.8333 2Zm6.6666 0c-1 0-1.8333-.8334-1.8333-2 0-1.1667.8333-2.0834 1.8333-2.0834 1 0 1.8334.9167 1.75 2.0834 0 1.0833-.8333 2-1.75 2Z"/></svg>
