<svg xmlns="http://www.w3.org/2000/svg" viewBox="0 0 25 24"><path fill="currentColor" d="M22.3 12.9c0 5.2-4.2 9.4-9.3 9.4a9.4 9.4 0 0 1-9-11.9l.4.1.3.7v.7l-.5.5h-.1l.3.1.8.6.4 1v.3h.8l1.2.8.5 1 .1-.2 1-.8 1.2-.1 1.1.4.3.5.8-3-.1-.7c-.2 0-.5 0-.5-.3l-.4-1h-.1l-.4 2.5-.5-3 1.1-2.2-.6-5.9 1.9-2 1.8 2-.6 5.9 1 2.2-.4 3-.4-2.4V11l-.5 1c0 .1-.2.3-.5.3l-.1.6.7 3.1h.2l1-.6h.9l.9.6v.2l.6-.7.7-.3.9.1.2.1.6-.9.6-.2-.2-.5.2-.7.5-.8h.4l-.2-.8V11l.5-.5.2.3c.2.7.3 1.4.3 2.2Z"/><path fill="currentColor" d="M19.4 4.3c-.9-.7-1.9-1.2-3-1.6l-.2.7c2.2.8 4 2.3 5.2 4.3a10.1 10.1 0 0 1-2 12.8 9.8 9.8 0 0 1-16.2-6 10.1 10.1 0 0 1 6.5-11l-.2-.8a10.6 10.6 0 0 0-5.7 4.7 11 11 0 0 0 2.3 13.7 10.5 10.5 0 0 0 17.4-6.5 11 11 0 0 0-4-10.3Z"/></svg>
