<svg width="32" height="38" viewBox="0 0 32 38" fill="none" xmlns="http://www.w3.org/2000/svg">
<g clip-path="url(#clip0_1325_67361)">
<path d="M16.1659 21.6571H13.6526C13.5095 21.6592 13.3712 21.6048 13.2678 21.5057C13.2199 21.4599 13.1832 21.4037 13.1604 21.3415C13.1376 21.2793 13.1294 21.2127 13.1363 21.1468L13.3586 18.8757C13.3802 18.6335 13.6051 18.4476 13.8741 18.4484H16.3882C16.5352 18.4484 16.6736 18.5029 16.7731 18.6007C16.8708 18.6975 16.9192 18.8281 16.9045 18.9587L16.6823 21.2307C16.6606 21.4729 16.4358 21.6579 16.1659 21.6571ZM16.569 17.2091H14.009C13.9429 17.2103 13.8772 17.1986 13.8156 17.1744C13.7541 17.1503 13.6979 17.1143 13.6502 17.0684C13.6026 17.0225 13.5645 16.9678 13.538 16.9072C13.5116 16.8466 13.4973 16.7813 13.4961 16.7152L14.1932 9.03957C14.2105 8.91697 14.2722 8.80498 14.3666 8.7248C14.4609 8.64463 14.5814 8.60184 14.7052 8.60454H17.2652C17.548 8.60454 17.778 8.82595 17.778 9.09838L17.0602 16.7784C17.0424 16.8967 16.9834 17.0048 16.8934 17.0836C16.8035 17.1625 16.6885 17.2069 16.569 17.2091ZM31.6245 8.25859L24.9928 0.544864C24.8457 0.373877 24.6635 0.236669 24.4586 0.142628C24.2536 0.0485872 24.0308 -6.54301e-05 23.8053 -5.93867e-07H3.94367C3.55711 -0.00144189 3.18378 0.140754 2.89613 0.399002C2.60848 0.65725 2.42701 1.01314 2.38691 1.39762L0.00507662 28.4506C-0.0329774 28.8856 0.11405 29.3155 0.409833 29.6381C0.556638 29.797 0.734804 29.9238 0.933084 30.0105C1.13136 30.0971 1.34545 30.1417 1.56183 30.1414H5.46237L4.86908 37.1892L12.5396 30.1466H21.2522C21.6587 30.1466 22.0496 29.9909 22.3419 29.7081L30.5253 21.7903C30.7951 21.5291 30.9612 21.1805 30.9932 20.8069L31.9938 9.40454C32.0117 9.19856 31.9883 8.99108 31.9249 8.79429C31.8615 8.5975 31.7593 8.41536 31.6245 8.25859ZM25.5592 18.6318C25.5281 19.0068 25.3618 19.3578 25.0913 19.6195L20.3536 24.1142C20.0619 24.3905 19.6752 24.5441 19.2734 24.5431H7.68421C7.46866 24.5405 7.25593 24.4939 7.05903 24.4061C6.86213 24.3184 6.68522 24.1914 6.53913 24.0329C6.39334 23.8748 6.28158 23.6884 6.21076 23.4853C6.13995 23.2823 6.11159 23.0668 6.12746 22.8523L7.53027 7.01405C7.57036 6.62957 7.75183 6.27368 8.03948 6.01543C8.32714 5.75719 8.70046 5.61499 9.08702 5.61643H20.8734C21.3249 5.61643 21.7556 5.81189 22.0513 6.15265L25.7928 10.4562C26.0747 10.7658 26.22 11.1758 26.1949 11.5926L25.5592 18.6318Z" fill="#FF9B00"/>
</g>
<defs>
<clipPath id="clip0_1325_67361">
<rect width="32" height="37.1892" fill="white"/>
</clipPath>
</defs>
</svg>
