<svg xmlns="http://www.w3.org/2000/svg" fill="#44AB4F" viewBox="0 0 67 32"><path d="M48.144 11.3554a2.0798 2.0798 0 0 1 2.0937-2.064 2.08 2.08 0 0 1 2.0937 2.064 2.0797 2.0797 0 0 1-2.0937 2.064 2.0796 2.0796 0 0 1-2.0937-2.064Zm-4.5349 4.4732a2.0802 2.0802 0 0 1 2.0937-2.0663 2.0797 2.0797 0 0 1 2.0914 2.0663 2.08 2.08 0 0 1-2.0914 2.064 2.0804 2.0804 0 0 1-2.0937-2.064Zm11.1634-2.0663a2.0793 2.0793 0 0 0-1.4748.5995 2.0813 2.0813 0 0 0-.6189 1.4668c0 1.1405.9372 2.064 2.0937 2.064a2.08 2.08 0 0 0 2.0937-2.064 2.08 2.08 0 0 0-1.2966-1.9132 2.0798 2.0798 0 0 0-.7971-.1531Zm-6.6285 6.5394a2.0796 2.0796 0 0 1 2.0937-2.0663 2.0793 2.0793 0 0 1 1.4748.5995 2.0806 2.0806 0 0 1 .6189 1.4668 2.0797 2.0797 0 0 1-2.0937 2.064 2.0796 2.0796 0 0 1-2.0937-2.064Z"/><path fill-rule="evenodd" d="m35.8949 23.712.0068.0069.0046.0091C39.1657 28.368 43.3051 32 50.064 32c8.944 0 16.2217-7.1771 16.2217-16 0-8.8114-7.2914-16-16.2217-16-4.9714 0-8.8206 2.0983-11.6571 5.0034-2.7772 2.8412-4.7269 6.3726-6.6492 9.8583l-.192.3497c-1.9657 3.5589-3.952 7.0332-6.304 9.4583-1.1748 1.2114-2.416 2.2057-3.8857 2.8892-1.4743.688-3.1429 1.0514-5.1543 1.0514C9.136 28.6103 3.44 22.9897 3.44 16c0-6.9554 5.7303-12.608 12.7817-12.608 5.7234 0 9.1246 3.1954 11.9703 7.4651a91.845 91.845 0 0 1 1.92-3.1771C26.8891 3.3349 22.7657.0023 16.2217.0023 7.2777 0 0 7.177 0 16c0 8.8091 7.2914 16 16.2217 16 4.9257 0 8.7726-2.0983 11.5817-5.0034 1.8972-1.9589 3.4012-4.256 4.784-6.6469l.64-1.1086.5875 1.136c.4457.8618 1.312 2.3018 2.08 3.3349Zm1.4788-3.8629.0069.0092c2.9943 4.88 6.5005 8.7497 12.6834 8.7497 7.0514 0 12.784-5.6526 12.784-12.608 0-6.992-5.696-12.608-12.784-12.608-4.1303 0-6.7886 1.4766-9.1886 3.936-1.9588 2.0023-3.7714 5.1589-5.3714 7.9931l-.1234.2195.0457.2468c.1074.5395.4731 1.3235.8366 2.032.3794.7383.8091 1.4972 1.1062 2.0183l.0046.0114Z" clip-rule="evenodd"/><path d="M14.6515 10.3223h2.7931v4.1303h4.1851v2.7497h-4.1851v4.128h-2.7931v-4.1257h-4.1852v-2.752h4.1852v-4.1303Z"/></svg>
