<svg xmlns="http://www.w3.org/2000/svg" fill="#3579F6" version="1.0" viewBox="0 0 300 300"><path d="M106.8 11.5c-.2.2-4.3.6-9.3.9-4.9.4-9.7.9-10.5 1.1-.8.2-3.3.6-5.5.9-2.2.4-5.1.8-6.5 1.1-1.4.3-3.4.7-4.5.9C52.6 19.9 40 26.9 37.1 35.2c-.8 2.2-1 34.8-.9 112.2l.3 109.1 2.2 4.7c2.8 6 9.5 12.7 15.8 15.7 2.8 1.3 5.7 2.7 6.6 3.1 5.2 2.6 22.8 6.2 42.4 8.7 7.9 1 45.3 1 53 0 38.6-5.1 66.7-19.4 87.7-44.7 10.3-12.5 21.1-34.8 24.2-50.2 3.7-18.2 4.1-22.6 4.1-43.3 0-15.8-.6-26.4-2.1-33.8-5.5-29-16-50.3-33.3-67.7-20.2-20.3-45.2-31.4-81.5-36.4-8.5-1.1-47.8-2-48.8-1.1zm37.6 62c16.5 1.7 33.7 13.3 42.4 28.8 3 5.1 7 15.8 7.8 20.7.3 1.4.7 3.1.9 3.8 2 5.8 2.4 32.8.6 45.2-2.5 17.1-10 32.9-19.5 40.9-1.5 1.4-3.3 3-4 3.6-4.3 4.2-18.2 9.7-27.6 11-9.1 1.3-30 .6-34.4-1.1-1.4-.6-1.6-8.2-1.6-76.5 0-41.7.1-75.9.3-75.9.1 0 4.9-.3 10.7-.7 5.8-.3 10.6-.7 10.8-.8.3-.2 3.2 0 13.6 1z"/></svg>
