<svg width="32" height="32" viewBox="0 0 32 32" fill="none" xmlns="http://www.w3.org/2000/svg">
<path d="M28.2779 6.4956C28.2779 6.398 28.1746 6.2949 28.1746 6.2949C28.0767 6.2949 28.0767 6.2949 27.9734 6.3979C25.9349 9.5489 23.7985 12.6998 21.7599 15.9537H4.0272C3.826 15.9537 3.7227 16.2574 3.9293 16.3605C11.2627 19.0992 21.961 23.2643 27.8701 25.6017C28.0713 25.7048 28.2779 25.4987 28.2779 25.4011V6.4956Z" fill="#FD5A00"/>
<path d="M28.2777 6.4956C28.2777 6.398 28.1744 6.2949 28.1744 6.2949C28.0766 6.2949 28.0766 6.2949 27.9733 6.3979C25.9347 9.5489 23.7983 12.6998 21.7598 15.9537L28.2777 16.0204V6.4956Z" fill="#FF690A"/>
</svg>
