<svg xmlns="http://www.w3.org/2000/svg" fill="currentColor" viewBox="0 0 32 32"><g clip-path="url(#clip0_1325_67366)"><path fill-rule="evenodd" d="M15.9523 0C7.1311 0 0 7.3333 0 16.4057c0 7.252 4.5691 13.3906 10.9078 15.5633.7924.1633 1.0827-.353 1.0827-.7873 0-.3804-.0261-1.684-.0261-3.0424-4.4375.978-5.3616-1.9556-5.3616-1.9556-.7132-1.9014-1.7698-2.39-1.7698-2.39-1.4524-1.005.1058-1.005.1058-1.005 1.611.1086 2.4565 1.684 2.4565 1.684 1.426 2.4986 3.7237 1.7926 4.6481 1.358.1319-1.0594.5548-1.7927 1.0038-2.2-3.5393-.3804-7.263-1.7927-7.263-8.0944 0-1.7926.6334-3.2593 1.6372-4.4-.1584-.4073-.7132-2.0916.1587-4.346 0 0 1.347-.4346 4.384 1.684a15.044 15.044 0 0 1 3.9882-.5433c1.347 0 2.72.1903 3.9879.5433 3.0374-2.1186 4.3844-1.684 4.3844-1.684.8718 2.2544.3167 3.9387.1583 4.346 1.0302 1.1407 1.6376 2.6074 1.6376 4.4 0 6.3017-3.7238 7.6867-7.2895 8.0944.5812.516 1.0828 1.4936 1.0828 3.042 0 2.2-.0261 3.9656-.0261 4.5086 0 .4347.2906.951 1.0828.788 6.3386-2.1733 10.9077-8.3116 10.9077-15.5636C31.9043 7.3333 24.7471 0 15.9523 0Z" clip-rule="evenodd"/></g></svg>
