<svg width="32" height="32" viewBox="0 0 32 32" fill="none" xmlns="http://www.w3.org/2000/svg">
<g clip-path="url(#clip0_1325_67368)">
<mask id="mask0_1325_67368" style="mask-type:luminance" maskUnits="userSpaceOnUse" x="0" y="0" width="32" height="32">
<path d="M0 0H32V32H0V0Z" fill="white"/>
</mask>
<g mask="url(#mask0_1325_67368)">
<path fill-rule="evenodd" clip-rule="evenodd" d="M31.9999 15.9997C31.9999 24.8363 24.8361 31.9999 15.9998 31.9999C7.1631 31.9999 0 24.8363 0 15.9997C0 7.1628 7.1631 -0.000500202 15.9998 -0.000500202C24.8361 -0.000500202 31.9999 7.1628 31.9999 15.9997Z" fill="#D9001C"/>
<path fill-rule="evenodd" clip-rule="evenodd" d="M15.8026 18.2949C16.0834 18.958 16.3299 19.5638 16.5994 20.1598C16.6718 20.32 16.5651 20.3752 16.4957 20.4525C15.3266 21.7611 13.8648 22.5196 12.1205 22.6732C8.8331 22.9623 5.8979 20.8714 5.0783 17.693C3.9009 13.1293 7.8245 8.7764 12.4749 9.4732C14.9632 9.8455 16.645 11.242 17.65 13.4997C18.4342 15.2622 19.1861 17.0389 19.9559 18.8076C20.0487 19.0211 20.1544 19.2298 20.2671 19.4337C21.0916 20.9299 23.1005 21.3742 24.4933 20.3706C24.7913 20.1559 25.0252 19.8859 25.1847 19.5529C25.6555 18.5724 25.3327 17.6183 24.3555 17.1561C23.568 16.7835 22.7137 16.5863 21.9116 16.2506C21.4216 16.0451 20.9443 15.8182 20.5006 15.5218C19.4494 14.8188 19.0461 13.8105 19.1462 12.5879C19.2509 11.3117 19.8492 10.348 21.0665 9.8571C22.4636 9.2935 24.5719 9.3173 25.7516 11.1547C25.9039 11.3913 25.9032 11.5181 25.6324 11.6361C25.3407 11.7626 25.0536 11.9053 24.783 12.0705C24.5888 12.1888 24.4883 12.1647 24.3456 11.9836C23.7949 11.2849 23.0652 11.0285 22.196 11.2079C21.4501 11.3616 20.9658 11.8997 20.8666 12.6467C20.7722 13.3586 21.0777 13.9116 21.7817 14.2704C22.4087 14.5902 23.0946 14.7518 23.7573 14.9751C24.2399 15.1376 24.7196 15.3054 25.1775 15.5314C27.1018 16.4805 27.7708 18.6249 26.7235 20.5093C26.1844 21.4796 25.3473 22.0928 24.2971 22.3904C22.828 22.8067 21.3955 22.7439 20.0811 21.8731C19.381 21.4096 18.8971 20.7442 18.5555 19.994C17.7302 18.1803 16.9192 16.36 16.136 14.5278C15.7131 13.54 15.1667 12.6738 14.2615 12.057C12.6547 10.9621 10.4542 10.9506 8.8278 12.0461C7.1912 13.1478 6.3713 15.1588 6.7888 17.0455C7.2272 19.0287 8.7938 20.5252 10.7502 20.8305C12.7125 21.1367 14.6427 20.2342 15.6682 18.5305C15.7005 18.4766 15.7306 18.4211 15.8026 18.2949Z" fill="#FDFDFD"/>
</g>
</g>
<defs>
<clipPath id="clip0_1325_67368">
<rect width="32" height="32" fill="white"/>
</clipPath>
</defs>
</svg>
