<svg version="1.1" id="Layer_1" xmlns="http://www.w3.org/2000/svg" xmlns:xlink="http://www.w3.org/1999/xlink" x="0px" y="0px"
	 width="100%" viewBox="0 0 400 95" enable-background="new 0 0 400 95" xml:space="preserve">
<path fill="#000000" opacity="1.000000" stroke="none" 
	d="
M297.000000,96.000000 
	C199.333344,96.000000 102.166656,95.976860 5.000152,96.095604 
	C1.576105,96.099785 0.879505,95.427124 0.900038,91.999443 
	C1.074756,62.833820 1.056128,33.666439 0.914968,4.500458 
	C0.900524,1.516084 1.517977,0.916623 4.500011,0.918765 
	C135.499924,1.012857 266.499908,1.012851 397.499847,0.918797 
	C400.481476,0.916656 401.099365,1.515568 401.085052,4.500314 
	C400.944153,33.832966 400.944214,63.166832 401.085022,92.499489 
	C401.099335,95.483688 400.484039,96.096535 397.499756,96.084534 
	C364.166931,95.950600 330.833374,96.000000 297.000000,96.000000 
z"/>
<path fill="#FFFFFF" opacity="1.000000" stroke="none" 
	d="
M261.587494,19.629147 
	C269.825623,18.127880 277.146362,19.122580 283.317871,25.555933 
	C285.246185,27.566088 286.206390,29.472193 285.893402,31.710239 
	C285.330963,35.732147 288.240753,40.435600 283.306763,43.886131 
	C282.487976,44.458744 285.701782,47.439987 287.468048,48.700645 
	C289.524872,50.168697 289.907043,47.903053 290.755005,45.226543 
	C290.755005,51.188774 290.755005,55.826691 290.755005,60.464607 
	C290.532990,60.475124 290.310944,60.485641 290.088928,60.496155 
	C290.088928,57.837524 290.088928,55.178898 290.088928,52.520267 
	C289.862640,52.510902 289.636353,52.501537 289.410095,52.492172 
	C289.277130,52.882435 288.976410,53.300617 289.036041,53.658825 
	C290.182556,60.546341 287.847015,66.039551 282.315216,70.152260 
	C277.406158,73.801971 272.450409,77.113777 266.065155,78.164848 
	C261.446228,78.925163 256.880829,78.609077 252.326263,79.075874 
	C249.042831,79.412392 247.549271,77.564072 247.135651,75.104774 
	C246.164490,69.330666 245.301376,63.488155 245.091934,57.648323 
	C244.802017,49.564392 243.266815,41.536018 243.990341,33.411057 
	C244.054001,32.696194 243.847244,32.119118 242.734497,32.276035 
	C237.872330,35.922295 232.623215,36.633774 227.131851,35.965202 
	C224.261765,35.615772 224.068665,37.010548 223.932343,39.369381 
	C223.386108,48.820751 225.084381,58.166809 225.011124,67.588104 
	C224.953690,74.974174 220.022217,80.358032 212.562210,80.985374 
	C211.156998,81.103539 209.703995,80.782158 208.066406,81.617157 
	C211.733917,78.293503 208.955109,74.682625 208.977478,71.253883 
	C209.041473,61.435665 208.878586,51.614357 209.073074,41.799580 
	C209.132339,38.808792 208.502258,37.453323 205.297745,37.960835 
	C203.836502,38.192265 202.300262,37.902283 200.812515,38.024696 
	C198.216537,38.238285 196.711533,39.286640 196.951157,42.353676 
	C197.656799,51.385216 195.826950,60.514771 197.955170,69.512085 
	C198.127304,70.239792 198.023697,71.500397 197.558655,71.837006 
	C193.915955,74.473648 190.476593,77.583946 186.112289,78.914749 
	C183.329865,79.763184 181.652451,78.794632 181.904449,75.183395 
	C182.258408,70.110817 182.287125,64.963249 180.382111,60.030956 
	C175.001877,58.455330 169.764618,58.331696 164.435089,57.938358 
	C165.511978,62.997200 164.831497,67.733643 164.965698,72.441704 
	C165.020081,74.349442 163.397369,75.101517 162.035904,76.004387 
	C157.548828,78.980026 153.040161,81.866905 146.996765,81.084007 
	C147.342072,67.316032 146.030899,52.964249 148.782761,38.696709 
	C147.440887,51.959248 148.134674,65.226166 147.976776,78.543701 
	C149.540359,78.400330 149.318146,77.890930 149.308121,76.672066 
	C149.229568,67.112930 148.090103,57.539238 149.880005,47.984665 
	C150.452637,44.928040 150.474106,41.581787 149.888474,38.533119 
	C148.645996,32.065289 149.058258,31.313526 157.014511,28.933834 
	C158.678391,28.436174 160.174240,27.376720 161.778549,26.560358 
	C160.916550,26.127186 160.107224,25.720490 159.297913,25.313791 
	C160.499374,24.876627 161.672470,24.311357 162.910034,24.037127 
	C164.236176,23.743263 165.051315,24.213161 165.023682,25.844042 
	C164.947540,30.337187 165.237747,34.849449 164.920135,39.321270 
	C164.689758,42.565121 165.885727,43.066055 168.819733,43.110687 
	C172.647491,43.168915 176.213531,41.318283 180.063004,41.968876 
	C180.804245,42.094151 181.946747,42.160751 181.920944,40.976898 
	C181.880569,39.125610 182.900314,36.198238 181.341187,35.658947 
	C178.932373,34.825756 180.069138,32.762787 180.234924,32.648758 
	C184.300278,29.852568 187.792435,26.021431 192.903351,25.023321 
	C195.889633,24.440132 197.647324,25.356756 197.033127,28.863976 
	C196.824234,30.056791 196.999985,31.316969 197.424225,32.567120 
	C199.135071,30.418257 197.067215,27.848192 198.505859,25.209669 
	C199.084076,28.480675 199.459946,29.906050 203.287384,27.688421 
	C206.462067,25.849012 211.099655,25.659283 215.392181,25.682343 
	C226.095627,25.228699 236.445496,21.688795 247.127396,23.607014 
	C247.954407,23.755529 249.069641,23.155323 249.841537,22.607883 
	C253.378769,20.099236 257.359497,19.712698 261.587494,19.629147 
z"/>
<path fill="#FFFFFF" opacity="1.000000" stroke="none" 
	d="
M309.938354,28.409983 
	C312.846130,25.763105 316.752808,26.607826 320.327240,27.104305 
	C325.781281,27.861849 326.884155,27.103292 325.290314,21.826319 
	C324.512909,19.252466 325.385895,17.599705 327.273590,16.353500 
	C329.033661,15.191549 331.198883,16.003992 332.269226,17.198107 
	C333.664917,18.755161 333.861267,21.401047 332.154877,22.864420 
	C330.288330,24.465092 330.591248,26.501186 331.419434,27.538790 
	C332.406738,28.775692 334.549774,29.104601 335.666046,30.612625 
	C336.680511,29.531004 338.908356,29.009289 337.434814,26.779570 
	C340.347504,25.483564 343.023956,23.763521 346.204224,22.940523 
	C355.071991,20.645714 363.851135,24.030849 372.695648,23.059296 
	C376.893158,22.598209 381.214111,23.569204 385.340515,21.833391 
	C385.648682,26.583126 382.236359,28.188229 379.101288,29.249491 
	C375.345734,30.520792 371.696960,32.760277 367.427826,31.998114 
	C364.485535,31.472832 363.900513,32.861935 363.940308,35.572090 
	C364.089508,45.735855 364.029602,55.903309 363.965637,66.068863 
	C363.956848,67.470222 364.628357,69.068802 363.190521,70.265434 
	C357.945709,74.630302 352.728180,79.042809 345.427460,77.833130 
	C346.751556,68.532600 345.423889,59.426743 347.022583,50.422512 
	C347.022583,58.452011 347.022583,66.481506 347.022583,75.589508 
	C347.695984,74.199562 347.974640,73.900101 347.959198,73.616669 
	C347.271484,61.002106 349.160339,48.462616 349.072845,35.860401 
	C349.052856,32.978848 348.638702,31.863464 345.349579,31.899443 
	C336.002045,32.001694 336.000000,31.815529 336.000000,41.158909 
	C336.000000,46.825176 336.000214,52.491447 335.999969,58.157715 
	C335.999512,68.112442 328.136658,75.999359 318.212311,75.999969 
	C314.879211,76.000168 311.546051,76.012375 308.213013,75.997482 
	C300.786530,75.964302 294.264191,69.441757 292.851532,62.285236 
	C291.187714,53.856403 292.908630,45.477535 292.109039,37.098343 
	C291.892456,34.828575 290.472443,31.646221 294.632019,30.367788 
	C295.629089,30.061337 295.093048,27.021809 294.409027,25.154541 
	C292.393463,22.983334 290.953308,20.733852 292.529846,18.043966 
	C293.557251,16.290960 295.787476,16.579138 297.047180,17.161432 
	C299.409119,18.253218 301.534668,20.001970 301.018280,23.239954 
	C300.916260,23.879705 300.819977,25.004728 301.105652,25.150059 
	C306.289642,27.787331 298.982697,26.879725 300.483002,28.614105 
	C303.159241,29.312691 306.008820,27.749659 309.273621,28.194691 
	C312.993042,28.776966 316.395020,28.227758 319.765778,28.601419 
	C316.626953,28.410423 313.474548,28.608528 309.938354,28.409983 
z"/>
<path fill="#FFFFFF" opacity="1.000000" stroke="none" 
	d="
M52.365646,26.054890 
	C53.753742,21.900049 55.597969,18.511663 60.234375,17.993708 
	C60.716686,17.939825 61.220161,17.890949 61.664806,17.715517 
	C63.874352,16.843748 66.249504,14.053791 68.145668,15.350932 
	C70.242943,16.785650 68.927681,20.214659 68.954544,22.751795 
	C69.063805,33.071781 69.095222,43.394901 68.954071,53.714115 
	C68.895996,57.960503 68.336639,62.200550 67.983307,66.441650 
	C67.944069,66.912598 67.848373,67.418465 67.629814,67.828743 
	C65.433014,71.952515 55.664627,75.456184 51.038101,74.106529 
	C49.473202,73.650017 48.689850,73.090767 47.814800,71.667679 
	C44.978111,67.054375 41.767815,62.670807 37.968109,57.129318 
	C37.968109,60.082085 37.968109,61.758240 37.968109,64.581421 
	C35.706150,59.597099 38.537418,55.312485 36.503181,51.484390 
	C35.735771,56.635780 36.437855,61.843761 35.076462,66.924721 
	C34.710983,68.288757 34.524029,69.410454 33.115360,69.991760 
	C29.271980,71.577782 26.136869,74.637505 21.973000,75.514908 
	C19.635736,76.007416 16.183197,78.066528 17.856321,72.390999 
	C18.903175,68.839890 17.341244,64.833130 18.970579,61.246048 
	C18.742489,64.779816 18.857925,68.169853 19.668268,71.578781 
	C19.642097,66.985237 20.770876,62.495426 20.903679,57.977707 
	C21.172855,48.820862 21.734962,39.709545 22.999065,30.639444 
	C23.454685,27.370300 29.663511,21.939577 34.090111,21.027830 
	C38.162830,20.188976 40.141945,22.374884 42.107510,25.736015 
	C44.553139,29.918051 46.298538,34.678757 50.595810,38.655788 
	C51.553692,33.077377 50.827770,28.268288 50.468327,23.455114 
	C50.870605,24.268452 51.272884,25.081789 52.039005,25.736649 
	C52.447002,30.720940 53.486267,35.826637 53.082165,39.131542 
	C53.309372,36.113426 52.706230,31.271729 52.365646,26.054890 
z"/>
<path fill="#FFFFFF" opacity="1.000000" stroke="none" 
	d="
M126.382996,79.125389 
	C123.357025,74.677147 123.283257,74.413063 116.986069,76.172119 
	C114.674461,76.817848 112.490616,76.967644 110.222115,76.980675 
	C101.681587,77.029724 98.378609,73.314079 97.885445,64.623978 
	C97.568916,59.046360 96.596786,53.472786 97.072235,47.888279 
	C97.426994,43.721287 97.121407,38.510712 99.450333,35.713543 
	C103.730415,30.572966 108.349152,25.179306 115.348831,22.964211 
	C124.953087,19.924877 134.030396,22.837688 143.128021,25.114906 
	C147.532913,26.217489 148.275513,29.146427 144.785980,31.460716 
	C140.987686,33.979778 137.634750,37.358276 132.592789,37.957630 
	C127.958954,38.508461 124.634239,35.356663 120.453751,34.573994 
	C116.491341,33.832146 115.600594,33.724117 114.702972,38.257618 
	C113.596008,43.848400 115.577339,49.170631 114.829529,55.077198 
	C111.857979,47.481251 113.452560,40.299816 113.887520,33.159691 
	C111.794189,42.453438 110.470039,51.700279 115.857925,60.484333 
	C116.278076,61.169334 116.891068,61.911320 116.905968,62.637253 
	C116.953445,64.951294 118.267624,67.013680 120.135269,66.687393 
	C121.326668,66.479271 122.811127,63.591045 122.806206,61.908451 
	C122.798721,59.349545 125.034988,55.710648 120.210724,54.342682 
	C119.084503,54.023331 118.661926,51.675289 120.466423,49.865337 
	C125.108955,45.208767 130.628815,43.149384 137.381363,42.868351 
	C137.791885,42.897854 137.829132,43.071953 137.926987,43.199585 
	C139.426270,45.154961 143.244385,42.559444 143.711029,45.630074 
	C144.249466,49.172909 144.020432,52.882069 143.735245,56.488205 
	C143.352066,61.333302 142.026855,66.163872 142.153259,70.973152 
	C142.291595,76.235428 139.852463,78.649506 135.664230,81.179863 
	C131.609543,83.629532 127.650070,84.627205 122.844688,84.955490 
	C123.328323,82.446609 126.770622,82.630829 126.190689,79.706383 
	C126.584061,77.592270 126.485275,75.807365 126.534225,74.027657 
	C126.350822,75.612633 126.667160,77.221313 126.382996,79.125389 
z"/>
<path fill="#FFFFFF" opacity="1.000000" stroke="none" 
	d="
M76.965851,49.244919 
	C77.361176,58.424778 77.361176,67.475166 77.361176,76.903809 
	C78.427788,74.976166 78.055901,73.267921 77.960701,71.669052 
	C77.339447,61.235203 78.924706,50.884071 79.038185,40.478439 
	C79.080452,36.602463 89.117317,29.941816 92.782379,30.969875 
	C94.594925,31.478304 94.008293,32.751041 93.959846,33.705315 
	C93.475113,43.253418 92.970596,53.025723 93.615913,62.322460 
	C94.276085,71.833145 90.404167,75.498322 83.545876,79.221519 
	C81.113556,80.541962 78.509583,78.888329 75.982330,81.211700 
	C76.355652,70.109184 75.282425,59.606438 76.965851,49.244919 
z"/>
<path fill="#FFFFFF" opacity="1.000000" stroke="none" 
	d="
M94.025604,22.644577 
	C93.933693,20.956848 93.864235,19.677334 93.723244,17.080208 
	C92.300346,25.688911 87.219254,30.842737 81.215927,31.024933 
	C79.186340,31.086527 77.965912,31.037294 77.907791,28.281658 
	C77.763756,21.452000 86.049789,14.045763 93.060013,14.943794 
	C94.557549,15.135633 95.095886,15.560144 95.008568,17.000410 
	C94.879120,19.135418 94.821312,21.274769 94.733017,23.412271 
	C94.630188,23.400671 94.509209,23.419264 94.428551,23.370779 
	C94.288582,23.286642 94.173553,23.161016 94.025604,22.644577 
z"/>
<path fill="#FFFFFF" opacity="1.000000" stroke="none" 
	d="
M226.998718,53.276733 
	C226.999847,60.357380 226.999847,66.960556 226.999847,74.642670 
	C225.549072,71.839676 225.927795,69.963120 226.045883,68.204544 
	C226.635605,59.423508 225.129730,50.741379 224.880890,41.999107 
	C224.762527,37.841003 225.826965,36.281754 229.999130,36.952915 
	C231.756332,37.235588 233.596893,37.000000 235.716278,37.000000 
	C235.262756,37.554256 235.145233,37.827564 234.942749,37.925865 
	C232.042145,39.334061 226.572510,34.846012 226.072388,41.570957 
	C225.794739,45.304340 225.467514,49.161018 226.998718,53.276733 
z"/>
<path fill="#FFFFFF" opacity="1.000000" stroke="none" 
	d="
M70.049515,61.769314 
	C69.771759,48.053417 69.887520,34.455940 69.998001,20.858419 
	C70.012543,19.068716 70.000000,17.278795 71.000000,15.496984 
	C71.000000,25.366837 71.116768,35.238609 70.954605,45.105797 
	C70.862694,50.698425 71.723473,56.330475 70.049515,61.769314 
z"/>
<path fill="#FFFFFF" opacity="1.000000" stroke="none" 
	d="
M375.634583,21.984224 
	C366.240051,22.648094 357.440674,20.917517 348.557404,20.302912 
	C360.552216,21.395588 372.524414,19.734573 385.442230,20.059526 
	C381.888275,21.879406 378.620331,19.933737 375.634583,21.984224 
z"/>
<path fill="#FFFFFF" opacity="1.000000" stroke="none" 
	d="
M365.999298,66.489792 
	C365.968658,67.261215 366.060272,67.687027 365.888336,67.898834 
	C364.978058,69.020012 365.047363,67.762527 365.044525,67.444275 
	C364.999817,62.447113 365.003876,57.449497 365.000549,52.451988 
	C364.997803,48.287323 364.999969,44.122662 365.000000,39.957996 
	C365.000031,32.719547 365.000061,32.719547 372.496948,33.226170 
	C372.360474,33.470764 372.221436,33.920864 372.075623,33.923054 
	C366.511963,34.006554 365.619232,37.142788 365.884338,42.063194 
	C366.313965,50.036201 366.000000,58.049282 365.999298,66.489792 
z"/>
<path fill="#FFFFFF" opacity="1.000000" stroke="none" 
	d="
M179.965210,59.956661 
	C179.326477,65.819931 182.146225,71.600426 180.266830,77.572807 
	C180.714310,73.120018 178.881561,68.913017 179.066818,64.536575 
	C179.184860,61.747955 178.428314,60.746059 175.534088,60.926624 
	C172.813629,61.096352 170.000229,61.468380 166.995972,60.291924 
	C166.995972,64.392456 166.995972,68.343613 166.995972,72.622742 
	C166.459702,72.240776 166.150269,72.124718 166.148453,72.004005 
	C166.083588,67.713005 165.559647,63.409615 166.442825,59.140854 
	C170.619827,60.271477 174.894958,59.958775 179.609268,60.033390 
	C180.072815,60.062244 179.999603,59.993320 179.965210,59.956661 
z"/>
<path fill="#FFFFFF" opacity="1.000000" stroke="none" 
	d="
M338.217163,50.204315 
	C336.589722,51.237335 337.045929,49.752411 337.029572,48.977577 
	C336.962982,45.820614 336.805298,42.645103 337.067627,39.508747 
	C337.247406,37.359009 335.592987,34.062622 338.047607,33.280094 
	C340.783173,32.408001 344.089081,33.344322 347.148010,33.458801 
	C348.598846,33.513096 347.957245,34.611538 347.965668,35.210312 
	C348.028259,39.655037 347.999603,44.101051 347.000000,48.550243 
	C347.000000,45.287315 346.758484,42.002136 347.056549,38.766663 
	C347.505310,33.895435 343.929199,34.499821 341.096893,34.005344 
	C337.055267,33.299740 338.045227,36.260235 338.016754,38.361973 
	C337.964966,42.184380 338.014496,46.008152 338.217163,50.204315 
z"/>
<path fill="#FFFFFF" opacity="1.000000" stroke="none" 
	d="
M201.755127,40.201950 
	C202.675613,37.407059 205.160568,39.345417 207.042801,39.153893 
	C208.316742,39.024265 207.982040,40.612701 207.983856,41.515331 
	C208.007141,53.124649 207.999237,64.734024 207.000000,76.360611 
	C207.000000,69.578102 207.000000,62.795589 207.000000,56.013077 
	C207.000000,52.188122 206.654343,48.323139 207.091476,44.548813 
	C207.587189,40.268787 205.640121,39.470982 201.755127,40.201950 
z"/>
<path fill="#FFFFFF" opacity="1.000000" stroke="none" 
	d="
M96.000000,50.086506 
	C95.497025,57.151848 97.534096,63.778782 95.471031,70.990768 
	C95.471031,58.056934 95.471031,45.766796 95.471031,33.584587 
	C97.191742,38.791843 95.944145,44.223763 96.000000,50.086506 
z"/>
<path fill="#FFFFFF" opacity="1.000000" stroke="none" 
	d="
M201.306366,40.298641 
	C199.281174,40.966599 198.902924,42.373856 198.943207,44.404526 
	C199.087952,51.703930 199.000015,59.007946 198.014862,66.322357 
	C198.014862,58.054058 198.026337,49.785728 198.006256,41.517475 
	C198.001602,39.607368 199.332001,40.047222 200.915924,40.208538 
	C201.398911,40.384701 201.336533,40.328053 201.306366,40.298641 
z"/>
<path fill="#FFFFFF" opacity="1.000000" stroke="none" 
	d="
M233.199402,21.779303 
	C233.763687,23.957287 231.917084,22.965841 231.003387,22.947216 
	C225.931152,22.843815 221.008392,23.993446 215.784790,24.977777 
	C215.552841,25.413946 215.614960,25.359898 215.631653,25.337244 
	C213.243439,25.123806 210.838531,24.933022 208.433640,24.742235 
	C216.580490,23.681166 224.575150,21.563200 233.199402,21.779303 
z"/>
<path fill="#FFFFFF" opacity="1.000000" stroke="none" 
	d="
M171.213623,40.780807 
	C170.711334,43.265831 168.537842,41.816708 166.994492,41.866291 
	C165.616501,41.910561 166.028641,40.418301 166.019882,39.530022 
	C165.977661,35.245304 166.000885,30.959942 167.000031,26.643143 
	C167.000031,30.244415 167.276337,33.873276 166.920349,37.439007 
	C166.581406,40.834148 168.076584,41.436974 171.213623,40.780807 
z"/>
<path fill="#FFFFFF" opacity="1.000000" stroke="none" 
	d="
M19.423063,61.439339 
	C18.831688,55.674206 18.533783,49.889809 19.966957,44.245377 
	C20.195555,49.799191 20.029400,55.223026 19.612831,61.011810 
	C19.362415,61.376755 19.403622,61.417740 19.423063,61.439339 
z"/>
<path fill="#FFFFFF" opacity="1.000000" stroke="none" 
	d="
M243.254150,49.120758 
	C241.330902,50.148792 242.045959,48.420448 242.035919,47.597954 
	C241.978546,42.895264 242.029144,38.191254 242.259583,32.997124 
	C242.476059,32.506550 242.445877,32.543701 242.447845,32.528946 
	C243.693253,37.883373 242.642181,43.334919 243.254150,49.120758 
z"/>
<path fill="#FFFFFF" opacity="1.000000" stroke="none" 
	d="
M290.000000,40.761162 
	C290.000000,37.694172 290.000000,35.078831 290.000000,32.463493 
	C291.174255,36.500378 291.157867,40.530834 290.715088,44.835075 
	C289.645813,43.546730 290.130554,42.334343 290.000000,40.761162 
z"/>
<path fill="#FFFFFF" opacity="1.000000" stroke="none" 
	d="
M233.642731,21.653934 
	C237.848022,20.245176 242.095535,21.324879 246.348587,21.963400 
	C242.422028,21.963400 238.495483,21.963400 234.066513,21.772493 
	C233.564102,21.581587 233.616882,21.629421 233.642731,21.653934 
z"/>
<path fill="#FFFFFF" opacity="1.000000" stroke="none" 
	d="
M244.217651,62.205742 
	C242.034241,62.742493 243.084244,60.911617 243.049698,59.971050 
	C242.933685,56.811787 243.029068,53.644756 243.259903,49.993736 
	C243.476273,49.506775 243.446075,49.543892 243.447968,49.529160 
	C244.647949,53.576157 243.678207,57.738583 244.217651,62.205742 
z"/>
<path fill="#FFFFFF" opacity="1.000000" stroke="none" 
	d="
M145.252594,57.846153 
	C144.882706,53.783485 144.882706,49.701855 144.882706,45.620220 
	C145.129303,45.619877 145.375885,45.619534 145.622482,45.619186 
	C145.622482,49.688522 145.622482,53.757858 145.252594,57.846153 
z"/>
<path fill="#FFFFFF" opacity="1.000000" stroke="none" 
	d="
M309.783813,77.720032 
	C313.130951,76.540146 316.810699,77.006630 320.501343,77.968918 
	C317.043182,77.968918 313.584991,77.968918 309.783813,77.720032 
z"/>
<path fill="#FFFFFF" opacity="1.000000" stroke="none" 
	d="
M171.647324,40.657600 
	C173.438080,39.356750 175.502487,39.926861 177.354630,40.089760 
	C179.564880,40.284168 180.018478,39.013950 180.495941,37.157700 
	C181.610214,40.084190 180.982544,41.337898 177.946045,41.030594 
	C176.164276,40.850273 174.351562,40.975670 172.060089,40.773567 
	C171.567429,40.583588 171.621063,40.632542 171.647324,40.657600 
z"/>
<path fill="#FFFFFF" opacity="1.000000" stroke="none" 
	d="
M262.435486,18.013075 
	C265.782898,15.739189 269.713928,17.750309 273.556671,17.992006 
	C269.981018,17.992006 266.405334,17.992006 262.435486,18.013075 
z"/>
<path fill="#FFFFFF" opacity="1.000000" stroke="none" 
	d="
M20.423016,44.438145 
	C19.491339,40.794773 20.278139,37.141899 20.856054,33.476292 
	C20.856054,36.870319 20.856054,40.264347 20.608883,44.016861 
	C20.361712,44.375351 20.403360,44.416466 20.423016,44.438145 
z"/>
<path fill="#FFFFFF" opacity="1.000000" stroke="none" 
	d="
M338.334229,50.659691 
	C340.474579,54.083862 337.165771,57.106335 337.774902,60.398697 
	C335.790527,57.336769 338.408386,54.483143 338.224670,51.037384 
	C338.412567,50.577278 338.360687,50.632557 338.334229,50.659691 
z"/>
<path fill="#FFFFFF" opacity="1.000000" stroke="none" 
	d="
M144.042023,68.769669 
	C143.832565,65.207901 144.007233,61.764652 144.532318,58.093262 
	C144.882706,57.865116 144.807556,57.801559 144.766907,57.755463 
	C144.980133,61.445141 145.564468,65.189781 144.042023,68.769669 
z"/>
<path fill="#FFFFFF" opacity="1.000000" stroke="none" 
	d="
M77.422859,49.437386 
	C76.475754,46.128242 77.291077,42.810204 77.852684,39.477310 
	C77.852684,42.539330 77.852684,45.601353 77.606934,49.018883 
	C77.361176,49.374390 77.403076,49.415642 77.422859,49.437386 
z"/>
<path fill="#FFFFFF" opacity="1.000000" stroke="none" 
	d="
M287.247864,39.217445 
	C287.027863,36.463566 287.027863,34.060452 287.027863,31.657335 
	C287.787445,34.290676 288.526611,36.914295 287.247864,39.217445 
z"/>
<path fill="#FFFFFF" opacity="1.000000" stroke="none" 
	d="
M244.337036,62.653172 
	C245.754288,64.967926 244.637421,67.508072 245.218170,70.237961 
	C242.468887,68.718735 244.638153,65.860252 244.224731,63.057961 
	C244.412933,62.571507 244.362732,62.626308 244.337036,62.653172 
z"/>
<path fill="#FFFFFF" opacity="1.000000" stroke="none" 
	d="
M76.015106,24.522968 
	C76.116539,23.976496 76.209007,23.724493 76.291832,23.727627 
	C76.485481,23.734955 76.835754,23.854212 76.841766,23.946442 
	C76.986496,26.167793 77.326637,28.403570 76.561172,30.822186 
	C75.520424,28.773817 76.216583,26.811583 76.015106,24.522968 
z"/>
<path fill="#FFFFFF" opacity="1.000000" stroke="none" 
	d="
M245.335571,70.657646 
	C246.692810,72.606377 245.723770,74.585106 245.037872,76.553459 
	C245.037872,74.865105 245.037872,73.176750 245.225677,71.032074 
	C245.413483,70.575752 245.361893,70.630676 245.335571,70.657646 
z"/>
<path fill="#FFFFFF" opacity="1.000000" stroke="none" 
	d="
M259.750397,81.218216 
	C261.008179,80.000954 261.008179,80.000954 264.819458,80.312393 
	C263.175354,81.546547 261.534698,80.742638 259.750397,81.218216 
z"/>
<path fill="#FFFFFF" opacity="1.000000" stroke="none" 
	d="
M259.342346,81.335663 
	C257.389801,82.534462 255.421906,82.011314 253.446625,81.037865 
	C255.134964,81.037865 256.823303,81.037865 258.967957,81.225708 
	C259.424255,81.413559 259.369324,81.361961 259.342346,81.335663 
z"/>
<path fill="#FFFFFF" opacity="1.000000" stroke="none" 
	d="
M293.974518,24.967327 
	C293.939697,26.479380 293.939697,28.028017 293.939697,29.576654 
	C293.950226,28.026537 291.315460,26.639528 293.710083,25.041439 
	C294.082611,25.073395 294.009338,25.003912 293.974518,24.967327 
z"/>
<path fill="#FFFFFF" opacity="1.000000" stroke="none" 
	d="
M137.932007,41.557880 
	C136.234070,41.925369 134.316803,42.370827 132.175156,41.516502 
	C134.195877,40.662819 135.967529,40.962723 137.932007,41.557880 
z"/>
<path fill="#FFFFFF" opacity="1.000000" stroke="none" 
	d="
M127.230690,20.007095 
	C129.086533,19.862131 130.823944,20.066648 132.561356,20.271168 
	C130.704727,20.969639 128.878677,21.552496 127.230690,20.007095 
z"/>
<path fill="#FFFFFF" opacity="1.000000" stroke="none" 
	d="
M334.001221,19.127468 
	C334.056824,18.422441 334.144928,17.825182 334.161438,17.827154 
	C335.931122,18.038488 334.670227,19.368597 334.945953,20.150297 
	C335.063812,20.484390 335.340637,21.536724 334.331757,21.324652 
	C334.104492,21.276880 334.104736,20.146832 334.001221,19.127468 
z"/>
<path fill="#FFFFFF" opacity="1.000000" stroke="none" 
	d="
M261.934570,17.926689 
	C261.921814,18.135073 261.943237,18.380648 261.820374,18.976772 
	C261.676086,19.327320 261.755127,19.250273 261.782837,19.216774 
	C260.402679,19.068521 258.994812,18.953770 257.263519,18.812654 
	C258.618744,17.409796 260.033600,18.302727 261.634644,18.018547 
	C262.041290,18.034143 261.968750,17.963881 261.934570,17.926689 
z"/>
<path fill="#FFFFFF" opacity="1.000000" stroke="none" 
	d="
M138.014252,41.983189 
	C139.505783,42.176182 141.110031,41.574001 142.657120,42.467010 
	C141.347321,43.475372 139.917267,42.800751 138.161041,42.862579 
	C137.726440,42.745365 137.806152,42.818195 137.837921,42.849007 
	C137.915253,42.713886 137.960815,42.547955 138.066162,42.128304 
	C138.125946,41.874584 138.051483,41.946991 138.014252,41.983189 
z"/>
<path fill="#FFFFFF" opacity="1.000000" stroke="none" 
	d="
M69.587585,61.580788 
	C69.742668,63.161144 69.920586,64.765373 70.098511,66.369606 
	C69.795525,66.404221 69.492531,66.438828 69.189545,66.473442 
	C69.189545,65.075394 69.189545,63.677341 69.423592,61.965103 
	C69.657639,61.650909 69.610428,61.604668 69.587585,61.580788 
z"/>
<path fill="#FFFFFF" opacity="1.000000" stroke="none" 
	d="
M143.587769,68.580933 
	C144.293594,70.137970 144.024170,71.763184 143.189545,73.473488 
	C143.189545,72.075432 143.189545,70.677368 143.423706,68.965225 
	C143.657883,68.651146 143.610641,68.604836 143.587769,68.580933 
z"/>
<path fill="#FFFFFF" opacity="1.000000" stroke="none" 
	d="
M127.419235,19.587566 
	C125.838867,19.742659 124.234627,19.920586 122.630386,20.098515 
	C122.595772,19.795523 122.561165,19.492529 122.526550,19.189537 
	C123.924606,19.189537 125.322655,19.189537 127.034912,19.423576 
	C127.349121,19.657614 127.395363,19.610405 127.419235,19.587566 
z"/>
<path fill="#FFFFFF" opacity="1.000000" stroke="none" 
	d="
M290.998749,21.111763 
	C290.897888,22.134390 290.796051,22.768780 290.694214,23.403172 
	C290.491577,23.307896 290.112854,23.212076 290.113159,23.117432 
	C290.116669,21.980465 289.752655,20.478720 290.333984,19.803852 
	C290.987030,19.045725 290.754303,20.372902 290.998749,21.111763 
z"/>
<path fill="#FFFFFF" opacity="1.000000" stroke="none" 
	d="
M56.352940,76.278168 
	C55.255917,77.321373 53.851635,77.150520 52.318409,76.609833 
	C53.515255,75.492172 54.850742,76.205383 56.352940,76.278168 
z"/>
<path fill="#FFFFFF" opacity="1.000000" stroke="none" 
	d="
M112.647026,78.721832 
	C113.742027,77.492386 115.152473,78.229530 117.110039,77.990067 
	C115.484726,79.507820 114.149231,78.794624 112.647026,78.721832 
z"/>
<path fill="#000000" opacity="1.000000" stroke="none" 
	d="
M262.611938,62.913826 
	C262.773407,65.097069 262.864716,66.867264 262.798157,68.994026 
	C261.160217,62.353531 260.132690,55.319611 259.934174,48.137211 
	C259.784790,42.732609 258.553345,37.369724 259.025909,31.923840 
	C259.121521,30.822180 258.351929,28.521622 260.472626,29.158882 
	C262.992371,29.916065 259.431000,30.007504 259.785522,31.503222 
	C260.525604,34.625736 260.009583,38.045975 260.702332,41.382206 
	C260.702332,38.098877 260.702332,34.815544 260.702332,31.406515 
	C270.672241,34.781506 272.616302,44.680550 264.679626,52.216030 
	C267.268341,53.069828 269.507172,54.229172 271.309875,56.048874 
	C274.646790,59.417179 272.473694,63.138374 271.638672,66.523079 
	C271.029541,68.992043 268.236786,67.794151 266.370972,67.986038 
	C262.026733,68.432823 265.218323,64.241196 262.996521,63.270515 
	C262.220245,60.315151 262.953278,57.161510 261.906738,54.032642 
	C260.973236,51.241745 261.596619,48.256294 261.598633,45.355026 
	C260.658051,51.138592 263.019653,56.742516 262.611938,62.913826 
z"/>
<path fill="#000000" opacity="1.000000" stroke="none" 
	d="
M270.015167,45.462418 
	C270.220428,42.847771 269.523773,40.579460 270.978577,37.088863 
	C270.978577,40.832958 270.980804,43.225098 270.973206,45.617207 
	C270.972717,45.767120 270.923737,45.932968 270.849121,46.063934 
	C270.391052,46.867947 270.265869,46.112598 270.015167,45.462418 
z"/>
<path fill="#000000" opacity="1.000000" stroke="none" 
	d="
M262.573181,69.417297 
	C264.451752,68.649551 266.395233,69.022163 268.405365,69.823471 
	C266.702118,69.823471 264.998901,69.823471 262.967957,69.587036 
	C262.640259,69.350601 262.596161,69.395691 262.573181,69.417297 
z"/>
<path fill="#000000" opacity="1.000000" stroke="none" 
	d="
M248.244812,24.802040 
	C247.819382,25.806341 247.098679,26.312017 246.615646,25.810953 
	C245.830612,24.996613 247.238312,24.588810 247.732941,23.913418 
	C248.217651,24.153101 248.313110,24.341764 248.244812,24.802040 
z"/>
<path fill="#000000" opacity="1.000000" stroke="none" 
	d="
M248.048264,24.239384 
	C248.801437,24.105402 249.228500,24.337147 248.285919,25.030945 
	C248.045486,24.887209 248.009903,24.700768 248.048264,24.239384 
z"/>
<path fill="#000000" opacity="1.000000" stroke="none" 
	d="
M309.951111,53.299339 
	C310.160309,55.289265 309.879059,56.053192 308.279297,56.034519 
	C306.835144,56.017662 305.738800,55.897278 305.780823,53.744682 
	C307.680786,52.563141 306.631409,50.648685 307.059937,49.212547 
	C307.400665,48.070797 305.736847,46.228245 308.852325,46.165195 
	C310.335205,48.528767 309.840485,50.597801 309.951111,53.299339 
z"/>
<path fill="#000000" opacity="1.000000" stroke="none" 
	d="
M319.001160,53.166889 
	C317.547638,56.607601 317.137756,53.488808 317.089050,52.668888 
	C316.886749,49.263569 317.004059,45.839264 317.296692,42.422367 
	C318.813354,45.843693 317.036285,49.586346 319.001160,53.166889 
z"/>
<path fill="#000000" opacity="1.000000" stroke="none" 
	d="
M309.034637,46.021446 
	C309.113495,45.255264 308.931641,43.872894 309.240875,43.752583 
	C310.555481,43.241081 310.689209,45.150211 310.700226,45.342514 
	C310.859589,48.133389 310.775970,50.938145 310.336182,53.858345 
	C309.921936,53.977108 309.998291,54.027241 310.031616,54.058475 
	C308.861481,51.670959 309.879425,49.069351 309.191223,46.248699 
	C308.935059,45.910297 308.999847,45.985859 309.034637,46.021446 
z"/>
<path fill="#000000" opacity="1.000000" stroke="none" 
	d="
M309.561218,28.423210 
	C313.538544,27.449381 317.525269,28.298426 321.523773,28.858736 
	C317.797821,28.858736 314.071869,28.858736 309.984863,28.610477 
	C309.623779,28.362221 309.582825,28.403671 309.561218,28.423210 
z"/>
<path fill="#000000" opacity="1.000000" stroke="none" 
	d="
M321.000000,48.848953 
	C321.000000,47.026604 321.000000,45.666340 321.000000,44.306072 
	C321.152863,44.285892 321.305756,44.265717 321.458618,44.245537 
	C321.458618,47.339928 321.458618,50.434315 321.458618,53.527679 
	C320.550873,52.227028 321.191620,50.719189 321.000000,48.848953 
z"/>
<path fill="#000000" opacity="1.000000" stroke="none" 
	d="
M305.657410,53.352798 
	C304.448456,50.553612 304.839233,47.810345 305.963715,45.071148 
	C305.963715,47.528004 305.963715,49.984859 305.773621,52.937180 
	C305.583557,53.432648 305.632416,53.379047 305.657410,53.352798 
z"/>
<path fill="#000000" opacity="1.000000" stroke="none" 
	d="
M319.421387,53.434093 
	C318.692291,50.796749 318.882385,48.144543 319.841827,45.481953 
	C319.841827,47.881069 319.841827,50.280186 319.599976,53.024605 
	C319.358124,53.369904 319.401031,53.411983 319.421387,53.434093 
z"/>
<path fill="#000000" opacity="1.000000" stroke="none" 
	d="
M320.713715,42.399036 
	C320.527771,43.615753 319.791443,43.436375 319.516724,42.860317 
	C319.019043,41.816658 320.044952,42.197819 320.713715,42.399036 
z"/>
<path fill="#000000" opacity="1.000000" stroke="none" 
	d="
M306.959656,43.012123 
	C306.742828,43.449200 306.525330,43.547188 306.307800,43.645176 
	C306.304565,43.229401 306.301331,42.813629 306.298096,42.397854 
	C306.518402,42.489582 306.738678,42.581306 306.959656,43.012123 
z"/>
<path fill="#000000" opacity="1.000000" stroke="none" 
	d="
M52.324539,25.663925 
	C54.647045,32.204895 53.900009,38.940369 53.292831,45.675621 
	C51.288410,39.454819 52.322765,32.965332 52.218582,26.085979 
	C52.402843,25.578171 52.351124,25.635784 52.324539,25.663925 
z"/>
<path fill="#000000" opacity="1.000000" stroke="none" 
	d="
M126.422676,79.429855 
	C126.423065,76.627625 124.512390,73.598381 127.429237,69.892410 
	C127.173744,73.623459 126.999825,76.163254 126.591660,79.034309 
	C126.357407,79.365570 126.401672,79.407669 126.422676,79.429855 
z"/>
<path fill="#000000" opacity="1.000000" stroke="none" 
	d="
M125.190193,55.454758 
	C126.534767,57.834122 124.251518,60.008759 124.575691,62.555054 
	C124.135643,60.231251 123.193748,57.897892 125.190193,55.454758 
z"/>
<path fill="#000000" opacity="1.000000" stroke="none" 
	d="
M114.874443,32.272636 
	C114.107269,31.815294 113.889420,31.158369 114.882698,31.093655 
	C115.699486,31.040438 116.038513,31.463505 114.874443,32.272636 
z"/>
<path fill="#FFFFFF" opacity="1.000000" stroke="none" 
	d="
M262.657135,63.353088 
	C261.659180,56.744129 260.345856,50.179138 261.658478,43.448242 
	C261.245270,49.848858 263.476257,56.039124 262.773376,62.939243 
	C262.583313,63.432812 262.632141,63.379299 262.657135,63.353088 
z"/>
<path fill="#FFFFFF" opacity="1.000000" stroke="none" 
	d="
M308.965149,46.352386 
	C311.114105,48.074764 309.511353,50.793766 310.034851,53.647556 
	C307.885895,51.925194 309.488647,49.206150 308.965149,46.352386 
z"/>
</svg>