<svg width="32" height="32" viewBox="0 0 32 32" fill="none" xmlns="http://www.w3.org/2000/svg">
<g clip-path="url(#clip0_1325_67375)">
<path d="M32 16C32 24.8368 24.8368 32 16 32C7.1632 32 0 24.8368 0 16C0 7.1632 7.1632 0 16 0C24.8368 0 32 7.1632 32 16ZM25.2832 11.3424C24.0816 10.6688 22.792 10.3232 21.4976 10.2576C20.9616 11.2496 20.1664 12.08 19.1968 12.64C18.24 13.192 17.1328 13.48 15.9392 13.4304C15.4704 13.4112 14.9936 13.3616 14.5552 13.2544C12.0048 12.5312 10.1344 10.1952 10.1632 7.4208C10.192 4.4256 12.424 1.872 15.304 1.4288C15.0816 1.4304 14.8656 1.4528 14.6352 1.4672C10.4512 2.1552 7.264 5.9136 7.3248 10.2896C7.3424 11.6672 7.688 12.9568 8.2784 14.1104C9.4064 14.0784 10.5216 14.352 11.4912 14.912C12.448 15.464 13.2512 16.28 13.8048 17.3376C14.0224 17.752 14.2096 18.1552 14.3344 18.5744C15.0096 21.1584 13.9216 23.9728 11.488 25.344C8.88 26.816 5.552 26.16 3.728 23.888C3.84 24.08 3.968 24.256 4.096 24.448C6.784 27.728 11.632 28.608 15.392 26.368C16.576 25.664 17.52 24.72 18.224 23.632C17.632 22.672 17.312 21.568 17.312 20.448C17.312 19.344 17.616 18.24 18.256 17.232C18.5072 16.8368 18.744 16.4896 19.0368 16.1792C20.9344 14.2816 23.9328 13.808 26.3488 15.2352C28.928 16.7584 30.024 19.968 28.968 22.6832C29.0784 22.4896 29.1664 22.2912 29.2688 22.0848C30.7648 18.1168 29.1024 13.4784 25.2832 11.3424Z" fill="black"/>
</g>
<defs>
<clipPath id="clip0_1325_67375">
<rect width="32" height="32" fill="white"/>
</clipPath>
</defs>
</svg>
