<svg width="32" height="32" viewBox="0 0 32 32" fill="none" xmlns="http://www.w3.org/2000/svg">
<g clip-path="url(#clip0_1325_67380)">
<path d="M24.1231 0H7.87693C3.52662 0 0 3.52662 0 7.87693V24.1231C0 28.4734 3.52662 32 7.87693 32H24.1231C28.4734 32 32 28.4734 32 24.1231V7.87693C32 3.52662 28.4734 0 24.1231 0Z" fill="#80F5D2"/>
<path fill-rule="evenodd" clip-rule="evenodd" d="M9.45606 17.2846C9.45606 15.0444 9.45606 13.9243 9.89204 13.0687C10.2755 12.316 10.8875 11.7041 11.6401 11.3206C12.4957 10.8846 13.6159 10.8846 15.856 10.8846H19.056C21.2963 10.8846 22.4164 10.8846 23.272 11.3206C24.0247 11.7041 24.6366 12.316 25.0201 13.0687C25.456 13.9243 25.456 15.0444 25.456 17.2846V18.1989C25.456 20.4391 25.456 21.5593 25.0201 22.4149C24.6366 23.1676 24.0247 23.7794 23.272 24.163C22.4164 24.5989 21.2963 24.5989 19.056 24.5989H13.1132C11.8331 24.5989 11.193 24.5989 10.7041 24.3499C10.274 24.1307 9.92433 23.781 9.70519 23.3509C9.45606 22.862 9.45606 22.2219 9.45606 20.9417V17.2846ZM15.1703 17.7417C15.1703 17.1106 15.682 16.5989 16.3131 16.5989C16.9444 16.5989 17.456 17.1106 17.456 17.7417V20.0274C17.456 20.6587 16.9444 21.1703 16.3131 21.1703C15.682 21.1703 15.1703 20.6587 15.1703 20.0274V17.7417ZM20.8846 16.5989C20.2534 16.5989 19.7417 17.1106 19.7417 17.7417V20.0274C19.7417 20.6587 20.2534 21.1703 20.8846 21.1703C21.5159 21.1703 22.0274 20.6587 22.0274 20.0274V17.7417C22.0274 17.1106 21.5159 16.5989 20.8846 16.5989Z" fill="#09161D"/>
<path fill-rule="evenodd" clip-rule="evenodd" d="M13.4473 7.43051C13.5252 8.05687 13.0806 8.62777 12.4542 8.70567C12.109 8.7486 11.8316 8.80701 11.586 8.88353C9.61386 9.49809 8.06951 11.0424 7.45496 13.0146C7.37844 13.2602 7.32003 13.5375 7.2771 13.8828C7.1992 14.5091 6.6283 14.9539 6.00194 14.8759C5.37559 14.798 4.93096 14.2271 5.00886 13.6007C5.0648 13.1509 5.14759 12.7362 5.27274 12.3346C6.11077 9.64527 8.2167 7.53934 10.906 6.70131C11.3077 6.57616 11.7223 6.49337 12.1722 6.43743C12.7985 6.35953 13.3694 6.80416 13.4473 7.43051Z" fill="#09161D"/>
</g>
<defs>
<clipPath id="clip0_1325_67380">
<rect width="32" height="32" fill="white"/>
</clipPath>
</defs>
</svg>
