<svg width="537" height="156" viewBox="0 0 537 156" fill="none" xmlns="http://www.w3.org/2000/svg">
<path d="M132.816 86.9339C136.531 90.3333 141.168 92.1849 145.035 92.1849C149.263 92.1849 151.79 90.5897 151.79 87.8075C151.79 79.7742 132.303 84.2561 132.303 71.4276C132.303 65.246 137.614 61.3813 145.453 61.3813C150.147 61.3813 154.736 62.8721 158.08 65.0941L155.553 70.4496C151.638 68.0757 147.714 67.0977 144.987 67.0977C141.434 67.0977 139.115 68.4365 139.115 70.8579C139.115 78.7392 158.603 74.5137 158.546 87.4941C158.546 93.9321 152.874 97.9013 144.94 97.9013C139.267 97.9013 133.908 95.5843 130.193 92.1849L132.825 86.9339H132.816Z" fill="white"/>
<path d="M162.679 67.5535L168.551 63.8027V71.3232H176.647V75.7576H168.551V88.8995C168.551 91.7292 169.635 92.6122 171.487 92.6122C172.723 92.6122 174.015 92.2039 175.611 91.4253L177.103 95.9547C174.936 97.2461 172.666 97.9677 170.347 97.9677C166.224 97.9677 162.67 95.5939 162.67 89.982V67.5535H162.679Z" fill="white"/>
<path d="M180.562 70.2978H186.491V75.7577C188.343 72.045 191.65 70.0889 195.973 70.0889V75.7577C190.462 75.4444 186.956 78.6918 186.491 83.3826V97.7019H180.562V70.2978Z" fill="white"/>
<path d="M210.453 70.0889C220.097 70.0889 224.012 76.3749 223.29 86.2693H202.567C203.498 90.4948 206.738 93.1251 211.071 93.1251C214.064 93.1251 216.791 91.9951 218.805 89.9346L221.95 93.2865C219.271 96.2206 215.356 97.9203 210.605 97.9203C202.149 97.9203 196.581 92.3085 196.581 84.0663C196.581 75.8242 202.301 70.1553 210.444 70.1079L210.453 70.0889ZM218.131 81.9393C217.922 77.5049 214.986 74.8272 210.501 74.8272C206.016 74.8272 203.128 77.5619 202.463 81.9393H218.131Z" fill="white"/>
<path d="M235.832 81.2179H244.136V80.3918C244.136 76.9354 241.923 74.8748 237.59 74.8748C234.958 74.8748 232.231 75.8054 229.494 77.657L227.072 73.536C230.882 71.2665 233.666 70.0796 238.873 70.0796C245.932 70.0796 249.904 73.6879 249.961 79.7176L250.008 97.6927H244.184V94.3407C242.227 96.7621 239.082 97.949 235.11 97.949C229.181 97.949 225.466 94.2933 225.466 89.4505C225.466 84.6078 229.228 81.2559 235.823 81.2084L235.832 81.2179ZM236.355 93.2677C240.583 93.2677 243.832 91.0553 244.136 88.0642V85.5383H236.716C232.849 85.5383 231.043 86.5639 231.043 89.1941C231.043 91.663 233.058 93.2677 236.355 93.2677Z" fill="white"/>
<path d="M255.87 70.2978H261.742V75.6058C263.652 71.7411 267.158 70.0889 271.69 70.0889C276.584 70.0889 279.938 72.5102 281.23 76.6788C282.978 72.0924 286.646 70.0889 291.643 70.0889C297.934 70.0889 301.696 74.1055 301.696 80.6479V97.7019H295.767V82.3001C295.767 78.1316 293.297 75.6058 289.268 75.6058C284.574 75.7577 281.743 79.366 281.743 84.1613V97.7114H275.814V82.3096C275.814 78.1411 273.391 75.6153 269.372 75.6153C264.631 75.7672 261.742 79.3755 261.742 84.1708V97.7209H255.87V70.3168V70.2978Z" fill="white"/>
<path d="M491.861 67.5535L497.733 63.8027V71.3232H505.828V75.7576H497.733V88.8995C497.733 91.7292 498.816 92.6122 500.669 92.6122C501.904 92.6122 503.196 92.2039 504.793 91.4253L506.284 95.9547C504.118 97.2461 501.847 97.9677 499.529 97.9677C495.405 97.9677 491.852 95.5939 491.852 89.982V67.5535H491.861Z" fill="white"/>
<path d="M308.157 61.6374H333.935V67.0974H314.238V76.8303H331.864V82.2903H314.238V92.2321H334.553V97.692H308.157V61.6279V61.6374Z" fill="white"/>
<path d="M339.237 61.6382H345.166V97.7023H339.237V61.6382Z" fill="white"/>
<path d="M363.418 70.0889C373.062 70.0889 376.977 76.3749 376.255 86.2693H355.532C356.463 90.4948 359.703 93.1251 364.036 93.1251C367.029 93.1251 369.756 91.9951 371.77 89.9346L374.915 93.2865C372.236 96.2206 368.321 97.9203 363.57 97.9203C355.114 97.9203 349.546 92.3085 349.546 84.0663C349.546 75.8242 355.266 70.1553 363.409 70.1079L363.418 70.0889ZM371.095 81.9393C370.886 77.5049 367.95 74.8272 363.466 74.8272C358.981 74.8272 356.092 77.5619 355.427 81.9393H371.095Z" fill="white"/>
<path d="M380.578 70.2978H386.45V75.6058C388.36 71.7411 391.866 70.0889 396.398 70.0889C401.292 70.0889 404.646 72.5102 405.938 76.6788C407.686 72.0924 411.354 70.0889 416.351 70.0889C422.642 70.0889 426.404 74.1055 426.404 80.6479V97.7019H420.475V82.3001C420.475 78.1316 418.005 75.6058 413.976 75.6058C409.282 75.7577 406.451 79.366 406.451 84.1613V97.7114H400.522V82.3096C400.522 78.1411 398.099 75.6153 394.08 75.6153C389.339 75.7672 386.45 79.3755 386.45 84.1708V97.7209H380.578V70.3168V70.2978Z" fill="white"/>
<path d="M444.097 70.0889C453.741 70.0889 457.656 76.3749 456.933 86.2693H436.211C437.142 90.4948 440.382 93.1251 444.714 93.1251C447.707 93.1251 450.434 91.9951 452.449 89.9346L455.594 93.2865C452.914 96.2206 449 97.9203 444.249 97.9203C435.793 97.9203 430.225 92.3085 430.225 84.0663C430.225 75.8242 435.945 70.1553 444.087 70.1079L444.097 70.0889ZM451.774 81.9393C451.565 77.5049 448.629 74.8272 444.144 74.8272C439.66 74.8272 436.771 77.5619 436.106 81.9393H451.774Z" fill="white"/>
<path d="M461.256 70.2978H467.185V75.5488C469.142 71.7411 472.648 70.0889 477.285 70.0889C483.68 70.0889 487.49 74.1055 487.49 80.6479V97.7019H481.561V82.3002C481.561 78.1791 479.09 75.6533 474.967 75.6533C470.434 75.7007 467.593 78.8438 467.185 83.1263V97.7019H461.256V70.2978Z" fill="white"/>
<path d="M509.742 89.8677C512.117 91.9757 515.927 93.2671 518.92 93.2671C521.448 93.2671 523.405 92.3936 523.405 90.333C523.405 84.7211 508.972 87.8642 509.02 77.9698C509.02 72.4054 513.866 70.041 519.12 70.041C522.569 70.041 526.237 71.0665 528.707 72.8232L526.541 77.2007C524.118 75.7099 521.077 74.7793 518.654 74.7793C516.231 74.7793 514.635 75.5484 514.635 77.5045C514.635 82.5562 529.22 79.8214 529.173 89.7633C529.173 95.3752 524.175 97.901 518.654 97.901C514.635 97.901 510.359 96.5621 507.623 94.0933L509.732 89.8677H509.742Z" fill="white"/>
<path d="M68.4035 36.1133L70.9784 41.1174C88.0432 47.2326 99.7681 63.6979 99.7681 81.9293C99.7681 105.839 80.309 125.286 56.384 125.286C32.4591 125.286 13.0094 105.839 13.0094 81.9293C13.0094 63.6884 24.7343 47.2326 41.7991 41.1174L44.3741 36.1228C23.7082 41.5257 8.99976 60.3364 8.99976 81.9293C8.99976 108.042 30.2642 129.293 56.3935 129.293C82.5228 129.293 103.787 108.042 103.787 81.9293C103.787 60.3364 89.0789 41.5163 68.4035 36.1133Z" fill="url(#paint0_linear_131_34)"/>
<mask id="mask0_131_34" style="mask-type:luminance" maskUnits="userSpaceOnUse" x="15" y="41" width="82" height="82">
<path d="M56.3919 122.296C78.7622 122.296 96.897 104.172 96.897 81.816C96.897 59.4597 78.7622 41.3364 56.3919 41.3364C34.0215 41.3364 15.8867 59.4597 15.8867 81.816C15.8867 104.172 34.0215 122.296 56.3919 122.296Z" fill="white"/>
</mask>
<g mask="url(#mask0_131_34)">
<path d="M96.9739 80.8568C96.7459 83.9334 91.9856 96.7239 86.1326 96.7239C83.7572 96.7239 83.2252 93.2485 82.8356 90.6658C81.7809 94.7868 74.5122 103.694 69.1248 103.694C59.3287 103.694 57.0484 83.0408 56.3832 80.2871C55.7181 83.0313 53.4378 103.694 43.6417 103.694C38.2543 103.694 30.9856 94.7963 29.9309 90.6658C29.5413 93.2485 29.0188 96.7239 26.6339 96.7239C20.7809 96.7239 16.0206 83.9334 15.7926 80.8568C14.5384 82.7085 14.5574 90.191 16.4197 94.9862C22.6337 110.986 38.1973 122.352 56.3737 122.352C74.5502 122.352 90.1138 110.986 96.3278 94.9862C98.1901 90.191 98.2091 82.718 96.9549 80.8568H96.9739Z" fill="url(#paint1_linear_131_34)"/>
<path d="M56.3922 103.751C58.0075 106.713 61.523 111.148 67.547 111.148C73.571 111.148 78.2553 104.938 79.823 102.317C79.3195 104.159 78.3028 108.1 81.5808 108.1C89.0966 108.1 94.5315 96.2207 94.5315 96.2207C88.6025 111.49 73.742 122.343 56.3922 122.343C39.0423 122.343 24.1819 111.49 18.2529 96.2207C18.2529 96.2207 23.6878 108.1 31.2036 108.1C34.4911 108.1 33.4649 104.149 32.9613 102.317C34.5291 104.938 39.0613 111.148 45.2374 111.148C51.2613 111.148 54.7674 106.704 56.3922 103.751Z" fill="url(#paint2_linear_131_34)"/>
<path d="M65.9417 117.073C62.2456 117.073 59.3666 115.924 56.3927 114.073C53.4187 115.915 50.5397 117.073 46.8436 117.073C41.2092 117.073 39.4989 115.411 37.4561 113.892C37.5131 115.829 39.4894 118.564 41.5322 119.551C46.0645 121.546 51.1573 122.343 56.3927 122.343C61.628 122.343 66.7209 121.536 71.2531 119.551C73.2959 118.554 75.2628 115.829 75.3293 113.892C73.2864 115.411 71.5762 117.073 65.9417 117.073Z" fill="url(#paint3_linear_131_34)"/>
</g>
<path d="M50.9209 62.1599L45.1059 74.4756C44.8684 74.9789 44.7829 75.5486 44.8779 76.1089L46.7212 87.2376C46.7782 87.5985 47.3103 87.5985 47.3673 87.2376L48.365 81.17C48.7735 78.6537 50.1132 76.3747 52.1181 74.789L50.9209 62.1504V62.1599Z" fill="#FF4800"/>
<path d="M61.8671 62.1599L67.6821 74.4756C67.9196 74.9789 68.0051 75.5486 67.9101 76.1089L66.0668 87.2471C66.0098 87.608 65.4872 87.608 65.4207 87.2471L64.423 81.17C64.0145 78.6537 62.6748 76.3747 60.6699 74.789L61.8671 62.1504V62.1599Z" fill="#FF4800"/>
<path d="M64.9825 42.8362L57.0107 27.3774C56.7542 26.8742 56.0416 26.8742 55.7755 27.3774L47.8037 42.8267C47.4712 43.4629 47.3477 44.1941 47.4522 44.8967L51.4713 73.1365L50.8727 75.7763L52.9916 81.5876C53.0391 81.7205 53.1626 81.806 53.2956 81.806H59.4621C59.5952 81.806 59.7187 81.7205 59.7662 81.5876L61.885 75.7763L61.2864 73.1365L65.3056 44.8967C65.4101 44.1846 65.2866 43.4629 64.954 42.8267L64.9825 42.8362Z" fill="url(#paint4_linear_131_34)"/>
<path d="M56.1181 68.4835L53.2866 75.4817C52.8496 76.5642 52.764 77.7607 53.0491 78.8906L56.0706 90.988C56.1561 91.3203 56.6312 91.3203 56.7072 90.988L59.7287 78.8906C60.0137 77.7607 59.9282 76.5642 59.4911 75.4817L56.6597 68.4835C56.5552 68.2366 56.2036 68.2366 56.1086 68.4835H56.1181Z" fill="#FF4800"/>
<defs>
<linearGradient id="paint0_linear_131_34" x1="56.3935" y1="9.19338" x2="56.3935" y2="159.451" gradientUnits="userSpaceOnUse">
<stop offset="0.3" stop-color="#00ADFF"/>
<stop offset="1" stop-color="#1542FF"/>
</linearGradient>
<linearGradient id="paint1_linear_131_34" x1="56.3927" y1="82.0248" x2="56.3927" y2="136.026" gradientUnits="userSpaceOnUse">
<stop stop-color="#FCE3AD"/>
<stop offset="0.07" stop-color="#FCE2A4"/>
<stop offset="0.19" stop-color="#FCE08B"/>
<stop offset="0.33" stop-color="#FCDD64"/>
<stop offset="0.48" stop-color="#FCDA32"/>
<stop offset="0.66" stop-color="#F9BC22"/>
<stop offset="1" stop-color="#F57700"/>
</linearGradient>
<linearGradient id="paint2_linear_131_34" x1="56.3922" y1="95.8409" x2="56.3922" y2="126.531" gradientUnits="userSpaceOnUse">
<stop stop-color="#FCD619"/>
<stop offset="0.35" stop-color="#F9B811"/>
<stop offset="1" stop-color="#F57700"/>
</linearGradient>
<linearGradient id="paint3_linear_131_34" x1="56.3927" y1="111.186" x2="56.3927" y2="125.334" gradientUnits="userSpaceOnUse">
<stop stop-color="#F57700"/>
<stop offset="1" stop-color="#FF4800"/>
</linearGradient>
<linearGradient id="paint4_linear_131_34" x1="56.3931" y1="27.0071" x2="56.3931" y2="98.3757" gradientUnits="userSpaceOnUse">
<stop stop-color="#E4E4E4"/>
<stop offset="0.88" stop-color="#B6B8B8"/>
</linearGradient>
</defs>
</svg>
