<svg width="32" height="32" viewBox="0 0 32 32" fill="none" xmlns="http://www.w3.org/2000/svg">
<g clip-path="url(#clip0_1325_67396)">
<path d="M0 15.36C0 8.11923 0 4.49884 2.24942 2.24942C4.49884 0 8.11923 0 15.36 0H16.64C23.8808 0 27.5012 0 29.7506 2.24942C32 4.49884 32 8.11923 32 15.36V16.64C32 23.8808 32 27.5012 29.7506 29.7506C27.5012 32 23.8808 32 16.64 32H15.36C8.11923 32 4.49884 32 2.24942 29.7506C0 27.5012 0 23.8808 0 16.64V15.36Z" fill="#0077FF"/>
<path d="M17.0832 23.1331C9.87658 23.1331 5.50432 18.1239 5.33301 9.7998H8.98295C9.09673 15.9144 11.8735 18.5055 14.0021 19.0384V9.7998H17.4999V15.0768C19.5531 14.8488 21.7022 12.4485 22.4245 9.7998H25.8673C25.3163 13.0569 22.9768 15.4572 21.3237 16.4473C22.978 17.2478 25.6398 19.3432 26.6663 23.1331H22.8822C22.0831 20.5997 20.1258 18.6375 17.5012 18.371V23.1331H17.0832Z" fill="white"/>
</g>
<defs>
<clipPath id="clip0_1325_67396">
<rect width="32" height="32" fill="white"/>
</clipPath>
</defs>
</svg>
