<svg width="156" height="54" viewBox="0 0 156 54" fill="none" xmlns="http://www.w3.org/2000/svg">
  <path
    d="M41.2 41.4 39.6 37S37 39.9 33 39.9c-3.4 0-5.9-3-5.9-7.7 0-6 3.1-8.2 6.2-8.2 4.3 0 5.7 2.8 7 6.4l1.5 5C43.5 40 46.5 44 55.1 44c6.1 0 10.3-1.9 10.3-6.8 0-4-2.3-6.1-6.5-7.1l-3.2-.7c-2.2-.5-2.9-1.4-2.9-2.9 0-1.7 1.4-2.6 3.6-2.6 2.4 0 3.6.8 3.8 3l5-.6c-.4-4.5-3.5-6.3-8.5-6.3-4.5 0-8.9 1.7-8.9 7 0 3.4 1.7 5.6 5.8 6.6l3.4.7c2.5.6 3.3 1.7 3.3 3.1 0 1.8-1.7 2.6-5.1 2.6-5 0-7.1-2.6-8.3-6.2l-1.7-5c-2-6.4-5.4-8.8-12-8.8C25.9 20 22 24.6 22 32.4 22 40 26 44 33 44c5.6 0 8.3-2.6 8.3-2.6ZM19.9 39c-.5.2-1 .3-1.7.3-1.2 0-2-.5-2-2v-27H11v28.3c0 3.7 2.6 5.2 5.6 5.2 1 0 2-.1 3.1-.4L20 39ZM82.8 38.3a6.3 6.3 0 0 1-4 1.3c-1.8 0-2.8-1-2.8-3.4V24.6h6.8v-4H76V15l-5.3.7v4.8h-3.3v4.1h3.3v12.7c0 4.5 2.7 6.7 7 6.7 2.3 0 4.4-.4 6-1.4l-1-4.3ZM87.3 40c0 2 1.6 3.7 3.6 3.7 2.2 0 3.8-1.6 3.8-3.7 0-2-1.6-3.6-3.8-3.6-2 0-3.6 1.6-3.6 3.6ZM100 24.6v18.8h5.3V24.6h5.8v-4h-5.8v-2.1c0-3.2 1.3-4.1 3.5-4.1 1.6 0 2.6.3 3.8 1l.8-4.4c-1.4-.7-3-1-5-1-4.4 0-8.3 2-8.3 8.3v2.2h-3.4v4.1h3.4ZM132 25c-.6-3.7-3-5-6.3-5-3.1 0-5.9 1.4-7 5l-.7-4.5h-4.2v23h5.2v-13c0-4.4 2.3-6.1 4.7-6.1 2.5 0 3.6 1.7 3.6 4.4v14.6h5.1v-13c0-4.3 2.4-6 4.8-6 2.5 0 3.5 1.7 3.5 4.4v14.6h5.3V27c0-5-3-7-6.7-7-3.3 0-6.2 1.4-7.4 5Z"
    fill="#656569" />
</svg>