<svg fill="none" xmlns="http://www.w3.org/2000/svg" viewBox="0 0 135 54">
  <path fill-rule="evenodd" clip-rule="evenodd"
    d="M28.5 5.2a21.8 21.8 0 1 0 0 43.6 21.8 21.8 0 0 0 0-43.6ZM4.5 27a24 24 0 1 1 48 0 24 24 0 0 1-48 0Z"
    fill="#656569" />
  <path
    d="M16.9 15c.7-3.4 3-6.5 6-8l-1.6 1.5c-2 2.2-3 5.4-2.4 8.4a9.8 9.8 0 0 0 18.1 3c3.7.2 7.3 2.1 9.4 5.2 1.1 1.6 2 3.4 2 5.4a9.8 9.8 0 1 0-18.1 7 11.7 11.7 0 0 1-7.9 5.6c-2.5.5-5 .1-7.4-1a9.8 9.8 0 1 0 5.2-19l-2.3-.1a12 12 0 0 1-1-8ZM86 27.4c0 2.5-.5 4.6-1.4 6.4a10 10 0 0 1-9.3 5.5c-2 0-3.9-.5-5.5-1.4-1.6-1-2.9-2.3-3.8-4.1-1-1.8-1.4-4-1.4-6.4 0-2.5.4-4.7 1.4-6.5a10 10 0 0 1 9.3-5.5 10 10 0 0 1 9.3 5.5c.9 1.8 1.4 4 1.4 6.5Zm-4.3 0c0-1.8-.3-3.3-.8-4.5a6.1 6.1 0 0 0-2.3-2.8c-1-.6-2-1-3.3-1a6 6 0 0 0-3.4 1c-1 .7-1.7 1.6-2.3 2.8-.5 1.2-.8 2.7-.8 4.5 0 1.7.3 3.2.8 4.4a6.3 6.3 0 0 0 2.3 2.8c1 .6 2.1 1 3.4 1a6 6 0 0 0 3.3-1c1-.6 1.8-1.5 2.3-2.8.5-1.2.8-2.7.8-4.4ZM90.3 39V15.7h8.9c1.7 0 3 .3 4.2.8 1 .5 2 1.3 2.5 2.2.5.9.8 2 .8 3a4.6 4.6 0 0 1-2 4c-.6.5-1.3.8-2 1v.2a5.3 5.3 0 0 1 4.3 2.7c.4.9.6 1.9.6 3 0 1.3-.3 2.3-.8 3.3a6 6 0 0 1-2.7 2.3c-1.2.5-2.6.8-4.4.8h-9.4Zm4.2-3.5H99c1.5 0 2.7-.3 3.3-.9.7-.6 1-1.3 1-2.3a3.5 3.5 0 0 0-2-3.2c-.5-.3-1.3-.4-2.2-.4h-4.6v6.8Zm0-9.9h4.2c.7 0 1.3-.1 2-.4a3 3 0 0 0 1.9-3c0-.8-.4-1.5-1-2.1-.7-.6-1.6-.9-2.9-.9h-4.2v6.4Zm29.8-3.5c-.1-1-.6-1.7-1.4-2.3-.8-.5-1.8-.8-3-.8-.9 0-1.7.1-2.3.4-.6.2-1 .6-1.4 1a2.6 2.6 0 0 0-.2 2.9c.2.3.5.6 1 .9l1.2.6 1.4.4 2.2.6c.9.2 1.7.4 2.5.8a9 9 0 0 1 2.2 1.3 5.8 5.8 0 0 1 2.1 4.6 6.3 6.3 0 0 1-4 6c-1.3.6-3 .9-4.8.9-1.8 0-3.4-.3-4.7-.9a7 7 0 0 1-3.1-2.4c-.8-1.1-1.2-2.4-1.2-4h4.1a3.5 3.5 0 0 0 2.5 3.3c.7.2 1.5.4 2.4.4.9 0 1.7-.2 2.4-.5a4 4 0 0 0 1.6-1.1c.4-.5.6-1.1.6-1.8 0-.6-.2-1-.5-1.5a4 4 0 0 0-1.5-1l-2.2-.7-2.6-.7c-2-.5-3.4-1.2-4.5-2.2a5.2 5.2 0 0 1-1.7-4 6 6 0 0 1 1.1-3.6c.8-1 1.8-1.9 3-2.4 1.4-.6 2.8-.9 4.4-.9 1.7 0 3.1.3 4.4.9a7 7 0 0 1 3 2.3 6 6 0 0 1 1 3.5h-4Z"
    fill="#656569" />
</svg>