<svg width="262" height="54" viewBox="0 0 262 54" fill="none" xmlns="http://www.w3.org/2000/svg">
  <path fill-rule="evenodd" clip-rule="evenodd"
    d="M17 31c0-5 0-7.7 1-9.7a9.2 9.2 0 0 1 4-4c2-1 4.5-1 9.7-1h7.4c5.2 0 7.7 0 9.7 1 1.8.9 3.2 2.3 4 4 1 2 1 4.6 1 9.8v2.1c0 5.2 0 7.8-1 9.8a9.2 9.2 0 0 1-4 4c-2 1-4.5 1-9.7 1H25.4c-3 0-4.5 0-5.6-.6-1-.5-1.8-1.3-2.3-2.3-.6-1.1-.6-2.6-.6-5.6v-8.4ZM30 32.3a2.6 2.6 0 1 1 5.3 0v5.2a2.6 2.6 0 1 1-5.3 0v-5.2Zm13.2-2.7a2.6 2.6 0 0 0-2.6 2.7v5.2a2.6 2.6 0 1 0 5.3 0v-5.2c0-1.5-1.2-2.7-2.7-2.7ZM26.1 8.3c.2 1.5-.8 2.8-2.3 3a14.5 14.5 0 0 0-12 12 2.6 2.6 0 1 1-5.1-.7c0-1 .3-2 .6-3A19.8 19.8 0 0 1 23.2 6c1.4-.2 2.8.9 3 2.3Z"
    fill="#656569" />
  <path
    d="M78.4 23.3c-3.9 0-7.3 2.4-7.3 6 0 3.2 3 4.3 6.1 4.8 2 .3 2.7.4 2.7 1.2 0 .6-.6 1-1.5 1-2.3 0-3.2-.9-5-.9-1.7 0-2.4 1.2-2.4 2.8 0 1.7 3 2.8 6.8 2.8 5 0 7.6-2.2 7.6-5.9 0-3.4-2.5-4.7-6.5-5.3-1.3-.1-2.4-.1-2.4-1 0-.6 1-1 2-1 1.3 0 2.8.8 4 .8 1.7 0 2.3-1 2.3-2.6 0-1-.6-1.6-1.4-2-1.4-.5-3-.7-5-.7ZM88.5 28.7h1.3V34c0 4.9 2.5 6.9 6 6.9 1.8 0 2.6-.2 3.5-.7.6-.5 1-1.1 1-2.5 0-1.2-.8-2.4-2.1-2.4-.6 0-.7.2-1.5.2-1 0-1.2-1.1-1.2-2v-4.8H98c1.4 0 2-1.2 2-2.6 0-1.7-.8-2.5-2.4-2.5h-2v-2.8c0-1.4-1-2.3-2.4-2.3-2.1 0-3.2 1.1-3.3 3.2v2h-1.2c-1.4 0-2.3 1-2.3 2.4 0 1.6.6 2.6 2.1 2.6ZM103 26.1v3.4l-.2 8.6c0 2.2 1.3 2.8 3 2.8 1.6 0 3-.7 3-2.4v-4.8c0-3.6 1.4-4.7 3.4-4.7h.5c1.5 0 2.3-1.5 2.3-3 0-1.9-.9-2.7-2.6-2.7a4.7 4.7 0 0 0-4 2.6l-.3-1c-.3-1-1-1.5-2.2-1.5-1.9 0-3 1-3 2.7ZM122 33.7l7.7-.1c2.5 0 3-1 3-3.3 0-3.5-3.2-7-7.9-7-5 0-8.9 3.8-8.9 9.3 0 4.7 3.9 8.4 8.8 8.4 3 0 4.6-.5 6-1.3.8-.5 1.3-1.3 1.3-2.2 0-1.5-1.1-2.9-2.4-2.9a4 4 0 0 0-2 .6c-.5.3-1.5.6-2.6.6-1.2 0-2.7-.7-3-2.1Zm2.7-5.7c1.3 0 2.3.8 2.3 1.9l-.4.2H122c.1-1 1.3-2.1 2.7-2.1ZM153.2 29V26c0-1.7-.9-2.6-2.8-2.6-.9 0-1.7.2-2.2.9l-.4 1a5 5 0 0 0-4.2-2c-5 0-8.7 3.5-8.7 9.1 0 4.8 3.2 8.4 8.3 8.4 2 0 3.5-.9 4.4-2.3.5 1.6 1.3 2.2 2.6 2.2 1.7 0 3.1-.4 3.1-2.5l-.1-3.8V29ZM141 32.3c0-2.5 1.3-3.9 3.2-3.9 1.7 0 3.2 1.3 3.2 3.6 0 2.4-1.6 3.8-3.4 3.8-1.7 0-3-1.6-3-3.5ZM157.3 31.4V38.2c0 2 1.5 2.6 3 2.6 1.6 0 3-.7 3-2.3v-6.3c0-1.9.4-3.9 2.5-3.9 1.4 0 2.1 1.6 2.1 2.9v7.2c0 1.6 1.1 2.4 2.8 2.4 1.6 0 3-.6 3.1-2.2V30.8c0-1.4 1.2-2.4 2.4-2.4 1.5 0 1.9 1.3 1.9 2.8l-.1 7.3c0 1.4 1.2 2.3 3 2.3 1.1 0 3-.3 3-2.2l.1-4v-4.2c0-4.3-2-7.2-6.8-7.1a6.7 6.7 0 0 0-5 2.7 5.4 5.4 0 0 0-4.9-2.7 5.4 5.4 0 0 0-4.3 2.4l-.1-.7c-.3-1-1.2-1.7-2.6-1.7-2 0-3.1 1-3.1 2.6v5.5ZM188.1 16.7v20c0 3.4 1.4 4.3 3.4 4.1 2.2-.2 2.9-1 3-2.8l-.1-4.2v-17c.1-2-1.2-2.8-3.1-2.8-1.7 0-3.1.8-3.2 2.7ZM215.9 29V26c0-1.7-1-2.6-2.8-2.6-1 0-1.7.2-2.2.9l-.5 1a5 5 0 0 0-4.1-2c-5 0-8.8 3.5-8.8 9.1 0 4.8 3.2 8.4 8.3 8.4 2 0 3.6-.9 4.5-2.3.5 1.6 1.3 2.2 2.6 2.2 1.7 0 3-.4 3-2.5V29Zm-12.2 3.4c0-2.5 1.3-3.9 3.1-3.9 1.7 0 3.2 1.3 3.2 3.6 0 2.4-1.5 3.8-3.3 3.8-1.8 0-3-1.6-3-3.5ZM220 16.6v21.1c0 1.9.6 3 2.3 3 1.5.2 2.6-.3 3-1.7v-.5A5.3 5.3 0 0 0 230 41c5.2 0 8.8-4 8.8-9 0-4.9-3.4-8.7-8.2-8.7-1.9 0-3.6.5-4.6 2l.1-9c0-2.1-1.5-2.6-3.1-2.6s-2.9.8-2.9 2.9Zm12.6 15.3c0 2.3-1.7 4-3.4 4s-3.2-1.5-3.2-3.7c0-2.5 1.6-3.7 3.5-3.7 1.6 0 3 1.3 3 3.4ZM248.4 23.3c-3.8 0-7.2 2.4-7.2 6 0 3.2 3 4.3 6 4.8 2 .3 2.8.4 2.8 1.2 0 .6-.6 1-1.5 1-2.3 0-3.2-.9-5-.9-1.8 0-2.4 1.2-2.4 2.8 0 1.7 3 2.8 6.8 2.8 5 0 7.6-2.2 7.6-5.9 0-3.4-2.6-4.7-6.5-5.3-1.3-.1-2.4-.1-2.4-1 0-.6 1-1 2-1 1.3 0 2.8.8 4 .8 1.6 0 2.3-1 2.3-2.6 0-1-.7-1.6-1.4-2-1.4-.5-3-.7-5-.7Z"
    fill="#656569" />
</svg>