<svg width="247" height="56" viewBox="0 0 247 56" fill="none" xmlns="http://www.w3.org/2000/svg">
  <path
    d="M46 29.8a19.4 19.4 0 1 1-38-5l.2-.2.6.3.6 1.5-.1 1.4-.8 1-.3.1.7.2 1.6 1.2.8 1.9v.7H13l2.5 1.6 1 2.3.3-.6 2.2-1.7 2.3-.2 2.4 1 .6.9 1.6-6.3-.3-1.2c-.2 0-.9 0-1-.6l-.8-2.2-.3.2-.8 5-1-6.2 2.3-4.6-1.2-12L26.6 4l3.8 4.2L29 20.3l2.3 4.6-1 6.2-.8-5-.1-.2-.9 2.2c0 .2-.4.6-1 .6l-.3 1.2 1.6 6.4.2-.3 2-1h2l1.9 1.3.2.4 1-1.4 1.6-.8 1.7.3.4.2 1.4-1.8 1.1-.5-.3-.9.3-1.6 1.2-1.5.8-.3-.5-1.3.2-1.4.9-1 .5.7c.3 1.4.5 2.9.5 4.4Z"
    fill="#656569" />
  <path
    d="M40 12.2a22 22 0 0 0-6.2-3.4l-.5 1.5a20.5 20.5 0 0 1 13.6 22.9 20.6 20.6 0 0 1-20.2 17.2A20.5 20.5 0 0 1 6.4 33.3a20.7 20.7 0 0 1 13.5-23L19.4 9A22 22 0 0 0 4.9 33.6 22.2 22.2 0 0 0 26.7 52a22 22 0 0 0 21.7-18.6 22.3 22.3 0 0 0-8.3-21.2ZM59.6 35.5c1.7 1.7 4 2.6 7 2.6 2.2 0 3.9-.5 5-1.5s1.7-2.2 1.7-3.9c0-1-.2-1.7-.7-2.4-.5-.7-1-1.2-1.8-1.6a18 18 0 0 0-4.6-1.5 6 6 0 0 1-1.8-.5c-.4-.3-.7-.7-.7-1 0-.6.3-1 .7-1.3a3 3 0 0 1 1.7-.5c2 0 3.5.7 4.9 1.9l2-2.6a9.2 9.2 0 0 0-6.6-2.4c-1.9 0-3.4.5-4.6 1.5a4.5 4.5 0 0 0-1.7 3.6c0 1 .3 1.8.7 2.5.5.7 1.1 1.2 1.8 1.5a19.8 19.8 0 0 0 4.6 1.5 5 5 0 0 1 1.8.6c.5.3.7.7.7 1.2s-.2 1-.8 1.3c-.5.3-1.2.5-2 .5a7 7 0 0 1-5.4-2.3l-1.9 2.8ZM77 37.3c.6.5 1.5.8 2.6.8 1.2 0 2-.2 2.6-.8l-.7-2.4c-.2.3-.6.4-1 .4a1 1 0 0 1-.9-.4c-.2-.2-.3-.6-.3-1v-5.4h2.5v-2.8h-2.5v-3.3h-3.1v3.3h-2v2.8h2v6.3c0 1 .2 1.9.8 2.5ZM84.2 37.8h3.2v-8c.2-.4.7-.7 1.3-1a4.2 4.2 0 0 1 2.5-.3v-3.1c-.7 0-1.4.2-2 .6-.8.3-1.4.8-1.8 1.4v-1.7h-3.2v12.1Z"
    fill="#656569" />
  <path fill-rule="evenodd" clip-rule="evenodd"
    d="M94.5 36.4a6.4 6.4 0 0 0 4.6 1.7 7 7 0 0 0 5-1.7l-1.4-2-1.5.9-1.7.3c-1 0-1.8-.3-2.4-.8a3 3 0 0 1-1-2h8.9V32c0-2-.6-3.6-1.7-4.8a5.6 5.6 0 0 0-4.4-1.9 6 6 0 0 0-4.5 1.8 6.3 6.3 0 0 0-1.7 4.5c0 2 .6 3.5 1.8 4.7Zm6.6-7.6c.5.5.7 1.1.8 1.8h-6c.1-.7.4-1.3 1-1.8.4-.6 1.1-.9 2-.9 1 0 1.7.3 2.2.9ZM114.7 37.8h3.2V30c0-1.6-.5-2.8-1.5-3.5-1-.7-2.2-1.1-3.7-1.1-2.1 0-3.9.6-5.3 2l1.2 2A5 5 0 0 1 112 28a3 3 0 0 1 2 .6c.4.3.6.8.6 1.4v1.7c-.8-1-2-1.5-3.8-1.5-1 0-2 .3-3 1-.7.6-1.2 1.6-1.2 2.9 0 1.3.5 2.2 1.3 3 .9.7 1.8 1 3 1 1.6 0 2.9-.5 3.7-1.5v1.2Zm0-2.9c-.5.7-1.3 1-2.5 1-.6 0-1.2-.1-1.6-.4-.5-.3-.7-.8-.7-1.3 0-.6.2-1 .7-1.3.4-.4 1-.6 1.6-.6 1.2 0 2 .4 2.5 1.1v1.5Z"
    fill="#656569" />
  <path
    d="M136.3 37.8h3.2v-8.7c0-1.3-.3-2.2-1-2.8-.6-.6-1.4-.9-2.6-.9-.8 0-1.7.2-2.4.7-.8.4-1.3.9-1.7 1.5-.5-1.5-1.6-2.2-3.4-2.2-.8 0-1.6.2-2.3.6-.8.4-1.3.8-1.6 1.3v-1.6h-3.2v12.1h3.2v-8.1c.3-.4.6-.8 1-1 .5-.3 1-.5 1.5-.5 1.2 0 1.8.7 1.8 2v7.6h3.2v-8.2a4 4 0 0 1 1-1c.5-.2 1-.4 1.5-.4 1.2 0 1.8.7 1.8 2v7.6ZM143.2 37.8h11V36h-9v-5.8h8.7v-1.9h-8.6V23h8.8v-1.8h-10.9v16.7ZM157.6 37.8h1.9V21.1h-2v16.7Z"
    fill="#656569" />
  <path fill-rule="evenodd" clip-rule="evenodd"
    d="M164.5 36.4a6 6 0 0 0 4.4 1.7c2 0 3.5-.6 4.8-1.8l-1-1.3a5 5 0 0 1-3.6 1.6 4 4 0 0 1-3-1.2 4.6 4.6 0 0 1-1.4-3h9.8v-.5c0-1.9-.5-3.4-1.6-4.6a5.2 5.2 0 0 0-4.2-1.9c-1.7 0-3.1.6-4.3 1.9a6.4 6.4 0 0 0-1.7 4.4c0 2 .6 3.5 1.8 4.7Zm7-8.2c.8.8 1.1 1.8 1.1 2.8h-7.9c0-1 .4-2 1.1-2.8.7-.8 1.7-1.2 2.9-1.2s2.2.4 2.9 1.2Z"
    fill="#656569" />
  <path
    d="M192.3 37.8h1.9v-8.7c0-2.5-1.1-3.7-3.4-3.7-.8 0-1.6.2-2.4.7-.7.4-1.3 1-1.6 1.6a3 3 0 0 0-1.1-1.7c-.6-.4-1.3-.6-2.2-.6-.8 0-1.5.2-2.3.7-.7.4-1.3.9-1.6 1.4v-1.8h-1.8v12.1h1.8V29c.4-.6.8-1 1.4-1.4.6-.3 1.2-.5 1.8-.5 1.5 0 2.2.8 2.2 2.5v8.2h1.9V29c.3-.5.8-.9 1.4-1.3.6-.3 1.2-.5 1.8-.5 1.5 0 2.2.8 2.2 2.5v8.2Z"
    fill="#656569" />
  <path fill-rule="evenodd" clip-rule="evenodd"
    d="M199.2 36.4a6 6 0 0 0 4.4 1.7c2 0 3.6-.6 4.8-1.8l-.9-1.3a5 5 0 0 1-3.7 1.6 4 4 0 0 1-3-1.2 4.6 4.6 0 0 1-1.4-3h9.8v-.5c0-1.9-.5-3.4-1.6-4.6a5.2 5.2 0 0 0-4.2-1.9c-1.7 0-3.1.6-4.2 1.9a6.4 6.4 0 0 0-1.7 4.4c0 2 .5 3.5 1.7 4.7Zm7.1-8.2c.7.8 1 1.8 1 2.8h-7.9c0-1 .5-2 1.1-2.8.7-.8 1.7-1.2 2.9-1.2 1.3 0 2.2.4 3 1.2Z"
    fill="#656569" />
  <path
    d="M220.6 37.8h1.9v-8.5c0-2.6-1.3-3.9-3.8-3.9a5 5 0 0 0-2.5.6 6 6 0 0 0-1.8 1.5v-1.8h-2v12.1h2V29a4.6 4.6 0 0 1 3.5-2c.9 0 1.6.3 2 .7.5.4.7 1.2.7 2.2v8ZM227.5 37.4c.5.5 1.2.7 2 .7 1 0 1.7-.2 2.3-.8l-.6-1.4c-.3.4-.7.5-1.2.5a1 1 0 0 1-1-.4 2 2 0 0 1-.3-1.1v-7.5h2.5v-1.7h-2.5v-3.3H227v3.3h-2v1.7h2v7.9c0 .9.2 1.6.6 2ZM233 36.2c1.2 1.3 2.8 2 4.9 2 1.5 0 2.7-.4 3.5-1.1.8-.7 1.2-1.6 1.2-2.6a3 3 0 0 0-.7-2.2c-.6-.5-1.2-.9-2-1.1l-2.1-.6a8 8 0 0 1-1.9-.6c-.5-.3-.7-.7-.7-1.2s.2-1 .7-1.3c.5-.4 1.1-.6 2-.6 1.5 0 2.7.5 3.5 1.6l1-1.3a6 6 0 0 0-4.6-1.8 5 5 0 0 0-3.2 1c-.8.7-1.2 1.5-1.2 2.5 0 .8.2 1.5.7 2 .5.5 1.2.9 1.9 1.1l2.2.5c.7.2 1.3.4 1.8.8.6.3.8.7.8 1.2 0 .6-.2 1.1-.7 1.5-.5.4-1.2.6-2.1.6a5.4 5.4 0 0 1-4-1.7l-1 1.3Z"
    fill="#656569" />
</svg>