<svg fill="none" xmlns="http://www.w3.org/2000/svg" viewBox="0 0 164 54"><path fill-rule="evenodd" clip-rule="evenodd" d="M77.9 6.8c-5.2 0-8.1 3.7-8.1 8.7 0 5 2.9 8.7 8.1 8.7 2.3 0 4.4-1 5.4-2.7V24h3.2V0h-3.2v9.5a6.5 6.5 0 0 0-5.4-2.7Zm.4 2.8c3.1 0 5.2 2.4 5.2 5.9 0 3.6-2.1 6-5.2 5.8-3.1 0-5.2-2.3-5.2-5.8s2-5.9 5.2-5.9Z" fill="#656569"/><path d="M.9 18.4h3c.2 2 1.6 3 3.8 3 2 0 3.2-1 3.2-2.2 0-2-1.9-2.3-4-2.6-2.6-.5-5.6-1-5.6-5 0-2.9 2.5-4.9 6-4.9 3.8 0 6.5 2.2 6.6 5.3h-3c-.3-2-2.2-2.7-3.6-2.7-1.8 0-3 .9-3 2.2 0 1.8 1.8 2 3.8 2.3 2.7.4 6 .9 6 5.3 0 3-2.6 5-6.4 5-4 .1-6.6-2-6.8-5.7Z" fill="#656569"/><path fill-rule="evenodd" clip-rule="evenodd" d="M16.2 15.5c0-5 3.7-8.7 8.8-8.7 5 0 8.6 3.6 8.6 8.7 0 5-3.6 8.7-8.6 8.7s-8.8-3.6-8.8-8.7Zm14.2 0c0-3.5-2.2-5.9-5.4-5.9-3.3 0-5.5 2.5-5.5 5.9 0 3.4 2.2 5.8 5.5 5.8 3.2.1 5.4-2.3 5.4-5.8Z" fill="#656569"/><path d="M47.1 24h3.3V7H47v9.2c0 3-1.9 5.1-4.6 5.1-2.3 0-4-1.8-4-4.5V7.1h-3.2v10.3c0 4 2.5 6.8 6.4 6.8 2.5 0 4.5-1.1 5.4-3.2v3ZM53 7h3.3v3c.9-2 2.9-3.2 5.5-3.2 3.8 0 6.3 2.8 6.3 6.8V24H65v-9.8c0-2.7-1.6-4.5-4-4.5-2.7 0-4.6 2.1-4.6 5V24h-3.2V7.1ZM95.8 7h5V10h-5v8.4c0 1.8 1 2.8 2.6 2.8h2.4v2.8h-2.6c-3.5 0-5.7-2-5.7-5.5V9.8h-3.4V7h3.4V1.7h3.3v5.4ZM106.7 16.3c0-3.7 1-6.4 4-6.4h2.6V7h-2c-2.5 0-3.9 1-4.6 3.2V7.1h-3.3v16.8h3.3v-7.6Z" fill="#656569"/><path fill-rule="evenodd" clip-rule="evenodd" d="M128.4 13v11h-3.2v-2.8c-.8 1.8-3 3-5.5 3-3.5 0-5.8-2-5.8-5.1 0-3.3 2.6-5.2 6.6-5.2h3.5c.7 0 1.1-.5 1.1-1 0-2-1.4-3.5-4-3.5-2.4 0-4.1 1.5-4.2 3.2h-3c.2-3.3 3.2-5.8 7.2-5.8 4.4 0 7.3 2.5 7.3 6.3Zm-3.3 3.6v-.4h-4.3c-2.2 0-3.7 1.1-3.7 2.9 0 1.5 1.3 2.5 3.1 2.5 3.1 0 5-2 5-5Z" fill="#656569"/><path d="M138.7 6.8c-5.3 0-8.4 4-8.4 8.7 0 4.7 3.1 8.7 8.4 8.6 4.3 0 7.3-2.3 7.9-5.9h-3.3c-.5 2-2.3 3.1-4.6 3.1-3.3 0-5-2.6-5-5.8 0-3.2 1.7-5.9 5-5.9 2.4 0 4.3 1.5 4.6 3.4h3.3c-.5-3.9-4-6.2-7.9-6.2ZM153.8 15.9l-2.1 2v6h-3.3V0h3.3v13.8l7.4-6.7h4.2l-7.2 6.6L164 24h-4l-6.1-8.1Z" fill="#656569"/><path fill-rule="evenodd" clip-rule="evenodd" d="M37.8 49.7V48a4 4 0 0 0 3.4 1.8c3.3 0 5.2-2.4 5.2-5.6 0-3.1-2-5.5-5.2-5.5a4 4 0 0 0-3.4 1.8v-6.1h-2v15.2h2Zm3.1-9.1c2 0 3.4 1.5 3.4 3.7S43 48 40.9 48.1c-2 0-3.3-1.5-3.3-3.8 0-2.2 1.3-3.7 3.3-3.7Z" fill="#656569"/><path d="M53 49.3 51.6 54h-2l1.5-4.3L47 39H49l2.8 8 2.9-8H57l-4 10.4ZM67 35v4.3h4.3V44h-4.2v1.3h4.2V50h-6.6l-2.5-2.4V35h4.9ZM84.7 39.3v6h-1.2v-6h-5v6h-1.1v-6h-4.9v8.4l2.5 2.5h14.5v-11h-4.8ZM90.8 39.3h4.9v10.9h-5v-11ZM95.7 35h-5v3h5v-3ZM107.2 41.6l2.4-2.3h7.3V44H112v1.2h4.9v4.9h-7.3l-2.4-2.5v-6ZM126.6 39.3H123V35h-5V50h5v-6h1.2v6h4.8v-8.5l-2.4-2.3ZM101.7 35v4.3h4.2V44h-4.2v1.3h4.2V50h-6.6l-2.5-2.4V35h4.9Z" fill="#656569"/></svg>