<svg width="274" height="54" viewBox="0 0 274 54" fill="none" xmlns="http://www.w3.org/2000/svg">
  <g clip-path="url(#a)" fill="#656569">
    <path
      d="M84.8 32.5c0 3.5-3.2 6-7.8 6H66.3V17h10.3c4.5 0 7.6 2.4 7.6 5.8 0 2.3-1.2 3.7-3 4.5 2 .8 3.6 2.7 3.6 5.3ZM71 21v4.7h5.5c1.7 0 2.8-1 2.8-2.3 0-1.4-1.2-2.4-2.8-2.4H71Zm6 13.7c1.8 0 3.1-1.1 3.1-2.7 0-1.5-1.2-2.6-3-2.6H71v5.3h6ZM102.5 38.4 95.1 30h-1.2v8.5H89V17h4.8v8.3H95l7.2-8.3h5.7l-9 10.3 9.8 11.2h-6.3ZM108.8 27.7c0-6.5 4.8-11.2 11.6-11.2 6.7 0 11.5 4.7 11.5 11.2 0 6.5-4.8 11.2-11.5 11.2-6.8 0-11.6-4.7-11.6-11.2Zm18 0c0-4-2.6-6.8-6.4-6.8-3.9 0-6.5 2.7-6.5 6.8s2.6 6.9 6.5 6.9c3.8 0 6.5-2.8 6.5-6.9ZM150.3 16.9h4.9v21.5h-4.9v-8.6h-9.6v8.6H136V17h4.8v8.5h9.6V17ZM165.5 38.4V21.2h-7.4V17h19.6v4.3h-7.5v17.2h-4.7ZM198.4 26.4v12h-3.5l-1-3.3a8 8 0 0 1-6.8 3.8c-4.4 0-7.5-2.9-7.5-6.8 0-4 3.1-6.8 9.5-6.8h4.7c-.2-2.8-1.7-4.7-4.3-4.7a4.8 4.8 0 0 0-4.4 2.5l-4.3-.7c1.1-3.7 4.8-5.9 9-5.9 5.2 0 8.6 3.6 8.6 9.9Zm-4.7 2.6h-4.5c-3.6 0-4.8 1.3-4.8 2.8 0 1.8 1.5 3 3.9 3 3.1 0 5.4-2.3 5.4-5.8ZM217 38.4l-7.5-8.5h-1.2v8.5h-4.9V17h4.9v8.3h1.2l7.2-8.3h5.7l-9 10.3 9.8 11.2h-6.3ZM231.9 38.4V21.2h-7.5V17H244v4.3h-7.4v17.2h-4.7ZM268.1 29h-17.3c.5 3.4 2.9 5.6 6.5 5.6 2.5 0 4.4-1.1 5.5-2.7l4.5.8c-1.6 4-5.8 6.2-10.4 6.2-6.5 0-11.2-4.7-11.2-11.2 0-6.5 4.7-11.2 11.2-11.2 6.5 0 11.2 4.7 11.2 11V29Zm-17-3.7h12c-.9-2.6-3-4.6-6-4.6a5.8 5.8 0 0 0-6 4.6Z" />
    <path fill-rule="evenodd" clip-rule="evenodd"
      d="M8.1 7.2C5 10.5 5 15.7 5 26.1v1.8c0 10.4 0 15.6 3.2 18.9C11.3 50 16.6 50 27 50h1.8c10.4 0 15.6 0 18.8-3.2C51 43.5 51 38.3 51 27.9v-1.8c0-10.4 0-15.6-3.3-18.9C44.4 4 39.2 4 28.8 4H27C16.6 4 11.3 4 8 7.2ZM12.6 18C13 30 19 37 29.4 37h.6v-6.8c3.8.4 6.7 3.2 7.9 6.8h5.4a15.1 15.1 0 0 0-7.8-9.6c2.4-1.4 5.9-4.8 6.7-9.5h-5c-1 3.8-4.2 7.2-7.2 7.6V18h-5v13.3c-3-.8-7-4.5-7.1-13.3h-5.3Z" />
  </g>
  <defs>
    <clipPath id="a">
      <path fill="#fff" transform="translate(4.9 4)" d="M0 0H264.5V46H0z" />
    </clipPath>
  </defs>
</svg>