<svg width="202" height="60" viewBox="0 0 202 60" fill="none" xmlns="http://www.w3.org/2000/svg"><g clip-path="url(#clip0_439_1942)"><path d="M30.2074 59.9718C46.6144 59.9718 59.9149 46.5544 59.9149 30.0032C59.9149 13.4521 46.6144 0.034668 30.2074 0.034668C13.8005 0.034668 0.5 13.4521 0.5 30.0032C0.5 46.5544 13.8005 59.9718 30.2074 59.9718Z" fill="url(#paint0_linear_439_1942)"/><path d="M30.2074 59.9718C46.6144 59.9718 59.9149 46.5544 59.9149 30.0032C59.9149 13.4521 46.6144 0.034668 30.2074 0.034668C13.8005 0.034668 0.5 13.4521 0.5 30.0032C0.5 46.5544 13.8005 59.9718 30.2074 59.9718Z" fill="#3E98F7"/><path d="M21.2266 23.7942C21.2266 23.7942 13.3858 20.5096 10.104 24.0106C6.82217 27.5116 10.6917 42.8045 19.3324 47.85C27.973 52.8954 39.152 58.5658 39.152 58.5658C39.152 58.5658 34.1047 38.9597 36.7829 30.9367C39.4606 22.9126 21.2266 23.7942 21.2266 23.7942Z" fill="url(#paint1_linear_439_1942)"/><path d="M38.4243 10.2823C38.4243 10.2823 36.1769 9.37284 34.7082 9.07047C34.9427 8.69992 35.1824 8.31039 35.3864 7.97541C35.3787 7.97186 35.3717 7.9683 35.364 7.96533C35.364 7.96592 36.8404 8.46632 38.4243 10.2823Z" fill="url(#paint2_linear_439_1942)"/><path d="M30.0299 15.9907C30.0299 15.9907 32.4749 15.2033 35.3453 15.5952C40.7141 16.7442 40.9445 21.476 40.9445 21.476C38.2445 15.9189 31.2236 17.4444 31.2236 17.4444L30.0299 15.9907Z" fill="url(#paint3_linear_439_1942)"/><path d="M13.0878 24.7119C13.0878 24.7119 13.2124 28.7251 14.2562 29.79C14.2562 29.79 15.3722 27.4119 19.3323 25.7779C19.3323 25.7779 16.426 33.8032 18.5994 39.7421C18.5994 39.7421 15.3722 37.8265 16.1345 29.9957C16.1345 29.9957 14.617 31.8769 14.2926 34.0937C14.2926 34.0937 11.1524 29.6957 13.0878 24.7119Z" fill="white"/><path d="M54.5008 26.9403C54.5572 26.9243 54.4408 26.9551 54.5008 26.9403C55.0991 31.1729 52.9169 32.3361 52.2269 32.5946C51.0544 29.2573 53.8043 27.3672 54.5008 26.9403Z" fill="url(#paint4_linear_439_1942)"/><path d="M39.1514 58.5652H39.1518H39.1514C39.1518 58.5648 39.1514 58.5648 39.1514 58.5652Z" fill="white"/><path d="M34.161 55.0997C33.8278 54.6651 33.5533 54.2418 33.3323 53.8641C32.8998 53.1242 32.6764 52.5621 32.6312 52.4441C32.6306 52.4435 32.6306 52.4435 32.6306 52.4435L32.63 52.4429C32.6294 52.4424 32.6294 52.4412 32.6294 52.4406C32.6288 52.4406 32.6288 52.44 32.6288 52.44C32.6277 52.4358 32.6265 52.4329 32.6253 52.4299C32.6241 52.4269 32.623 52.424 32.6218 52.421C32.4643 51.9781 32.4014 51.7653 32.3314 51.4522C32.3832 51.4759 32.4337 51.4979 32.4843 51.5198C32.9192 51.6989 34.265 52.1613 36.3062 52.0267C36.1881 51.9277 36.0729 51.8281 35.9624 51.7279C33.9124 49.8716 33.2118 47.8914 33.1954 46.0682C33.1789 44.1912 33.8883 42.4801 34.5971 41.2428C35.2983 40.0202 35.9988 39.2607 35.9988 39.2607C30.4449 43.204 32.3303 49.606 32.3303 49.606C30.8175 49.2544 29.675 48.6621 29.675 48.6621C30.8845 57.3366 36.7752 58.4489 39.035 58.5615C39.0744 58.5633 39.1126 58.5645 39.1502 58.5657C39.1519 58.5651 36.3767 58.0848 34.161 55.0997Z" fill="white"/><path d="M46.8452 24.2219C47.1949 23.9445 47.4758 23.9326 47.6274 23.9456C47.7796 23.9593 48.2428 24.1164 48.9192 24.2848C51.4488 24.9156 53.1855 23.9456 53.1855 23.9456C52.3456 22.7533 50.8628 21.4288 49.5381 20.3688C48.9539 19.901 48.4003 19.4842 47.9466 19.1533C47.3312 18.6601 47.7467 17.5377 47.7467 17.5371C45.7209 14.8164 43.0761 12.57 40.017 10.9988C39.9424 10.0004 39.6679 9.05888 39.3329 8.28042C38.8951 7.26125 38.355 6.52015 38.0288 6.29426C37.7144 6.07608 37.3024 5.93378 36.9938 5.8496C36.7511 5.78319 36.4943 5.89999 36.3867 6.13003C36.2339 6.45552 36.0482 6.79999 35.8777 7.10177C35.6015 7.58971 35.3641 7.96501 35.3641 7.96501C35.3641 7.96501 36.8404 8.466 38.4243 10.282C38.4243 10.282 36.1769 9.37252 34.7082 9.07015C34.7082 9.07015 34.7082 9.07074 34.7076 9.07074C33.0878 8.70434 31.4011 8.50987 29.6679 8.50987C27.3611 8.50987 25.136 8.85315 23.0419 9.4905C23.3035 10.5239 23.8794 11.1974 23.8794 11.1974C23.2277 11.0077 22.3978 10.6638 21.488 10.2358C21.4081 10.1984 21.3276 10.1599 21.2465 10.1207C21.2465 10.1207 21.2465 10.1207 21.2459 10.1207C17.8653 8.50216 13.5256 5.83655 13.0354 5.53418C12.0745 6.2243 11.1042 7.01758 10.2326 7.8156C10.3919 8.52529 11.1694 11.8045 11.9952 13.5998C11.9952 13.5998 12.8133 11.8188 14.1198 10.6626C12.3531 15.9512 12.6046 21.2166 12.6046 21.2166L12.607 21.2201C11.5132 21.133 10.4888 20.9391 9.61373 20.7215C8.41361 20.4221 7.49442 20.0788 7.06362 19.9057C6.88848 19.8352 6.79444 19.7925 6.79444 19.7925C4.47413 21.3298 2.45649 23.2947 0.851424 25.5755C0.642784 27.0091 0.534058 28.4753 0.534058 29.967C0.534058 46.5186 13.8347 59.9356 30.2415 59.9356C33.3458 59.9356 36.3385 59.4547 39.1519 58.5636C39.1149 58.5624 39.0767 58.5612 39.0367 58.5595C36.7764 58.4468 30.8862 57.3346 29.6767 48.6601C29.6767 48.6601 30.8192 49.2524 32.332 49.6039C32.332 49.6039 30.4466 43.202 36.0006 39.2587C36.0006 39.2587 27.8007 41.2194 23.2794 48.0233C23.8565 42.9203 27.4545 38.8537 27.4545 38.8537C21.5685 40.052 18.5441 43.6478 18.5441 43.6478C15.5738 42.1265 14.044 37.7741 14.044 37.7741C8.36307 32.7215 12.6981 25.3448 13.0877 24.7105C13.0877 24.7105 13.2123 28.7237 14.2561 29.7885C14.2561 29.7885 15.3722 27.4105 19.3323 25.7765C19.3323 25.7765 16.426 33.8018 18.5994 39.7407C18.5994 39.7407 23.5973 35.2454 35.7866 33.7531C35.7866 33.7099 35.7878 33.6672 35.789 33.6245C35.796 33.3814 35.8178 33.1531 35.8525 32.9379C35.8642 32.8662 35.8771 32.7962 35.8918 32.7269C35.9177 32.6035 35.9483 32.4856 35.9823 32.3717C35.9823 32.3699 35.9823 32.3688 35.9829 32.3676C36.0164 32.2033 36.1028 31.9763 36.2404 31.7213C36.3938 31.4201 36.5783 31.1593 36.7828 30.9346C37.4422 30.1615 38.4972 29.4209 39.9395 29.4411C42.4008 29.4755 43.9736 29.0296 43.9736 29.0296C43.0232 30.379 40.7652 30.7721 40.7652 30.7721C41.8813 31.6727 44.2216 31.2363 44.2216 31.2363C43.2854 32.5437 41.2336 33.0779 41.2336 33.0779C43.2236 33.4555 44.7593 33.2836 45.9366 32.8514C45.9407 32.8496 45.9454 32.8478 45.9495 32.8466C46.3762 32.6889 46.7529 32.4962 47.0855 32.284C48.4737 31.5085 49.1702 30.0921 49.5105 29.0385C49.6404 28.636 49.6886 28.2091 49.6327 27.7899C49.6169 27.6719 49.5951 27.5616 49.5687 27.4603C49.4799 27.1389 49.2213 26.5045 48.5437 26.4055C48.4831 26.3984 48.4208 26.3948 48.358 26.3948C48.0741 26.3948 47.809 26.4678 47.5851 26.5935C47.5851 26.5935 46.405 25.9152 46.0406 25.5707C45.6762 25.2263 46.0406 24.7887 46.0406 24.7887C46.0406 24.7887 46.4955 24.4994 46.8452 24.2219ZM13.1495 24.5599L13.1524 24.551C13.1536 24.5498 13.1547 24.5486 13.1547 24.5486C13.1547 24.5486 13.153 24.5533 13.1495 24.5599ZM35.7866 33.7537C35.7866 33.752 35.7866 33.7496 35.7866 33.7537V33.7537ZM40.9451 21.4763C40.9445 21.4763 35.8325 23.7642 31.2242 17.4447L30.0305 15.9909C30.0305 15.9909 32.4754 15.2035 35.3459 15.5954C40.7147 16.7445 40.9451 21.4763 40.9451 21.4763Z" fill="url(#paint5_linear_439_1942)"/><path d="M50.3557 35.8521C50.3563 35.8527 50.3575 35.8533 50.358 35.8539C50.3551 35.7875 50.3492 35.7199 50.341 35.6505C50.341 35.6493 50.341 35.6488 50.341 35.6476C50.3005 35.325 50.1929 34.9735 49.9725 34.6177C49.6628 34.0349 48.961 33.7847 48.3522 34.0403L46.8835 34.6574L46.7924 34.6954C46.2205 34.9296 43.0627 36.1237 40.6954 35.0179C40.5978 34.9723 40.5014 34.9231 40.4068 34.8697C40.4068 34.8697 40.4068 34.8703 40.4074 34.8703C42.2699 39.3276 45.6833 38.7223 47.0992 38.2385C47.3002 38.1638 47.5135 38.0766 47.7409 37.9741C47.7409 37.9741 47.7409 37.9746 47.7404 37.9746C47.721 38.0215 47.6922 38.0683 47.6551 38.1146C46.9252 39.2713 45.6487 40.1357 45.6487 40.1357C46.0142 40.1013 46.3516 40.0432 46.6636 39.9661C48.7877 39.442 49.7074 38.0986 50.1018 37.1938C50.2687 36.812 50.3863 36.4468 50.3557 35.8521Z" fill="white"/><path opacity="0.35" d="M50.3405 35.6473C49.8944 35.2957 49.2344 35.0307 48.1612 35.4878C42.4268 37.9299 40.4391 34.9257 40.4068 34.8706C42.2693 39.3279 45.6828 38.7226 47.0986 38.2388C47.2996 38.1641 47.5129 38.0769 47.7404 37.9744C47.7404 37.9744 47.7404 37.975 47.7398 37.975C47.7204 38.0218 47.6916 38.0686 47.6546 38.1149C46.9246 39.2716 45.6481 40.136 45.6481 40.136C46.0136 40.1016 46.351 40.0435 46.6631 39.9665C48.7871 39.4423 49.7069 38.0989 50.1012 37.1941C50.287 36.7696 50.4122 36.3676 50.3405 35.6473Z" fill="url(#paint6_linear_439_1942)"/><path d="M10.2843 7.77046C10.2843 7.76987 10.2843 7.76987 10.2843 7.77046C10.2843 7.76987 10.2843 7.76987 10.2843 7.77046C10.2767 7.77699 10.2697 7.78351 10.2626 7.79003C10.2697 7.78351 10.2773 7.77699 10.2843 7.77046Z" fill="white"/><path d="M12.6052 21.2195L12.6047 21.2183C12.6047 21.2183 12.3531 15.9529 14.1198 10.6643C14.0898 10.691 14.0604 10.7177 14.031 10.7449C12.7769 11.9011 11.9958 13.6015 11.9958 13.6015C11.1694 11.8062 10.3931 8.52815 10.2332 7.81787C9.29344 8.68171 8.40893 9.60602 7.58612 10.5843C7.58612 10.5843 8.33135 16.4627 9.31401 18.07C9.31401 18.0695 11.1371 20.3787 12.6052 21.2195Z" fill="url(#paint7_linear_439_1942)"/></g><g clip-path="url(#clip1_439_1942)"><path d="M76.3745 22.4785V37.5538H80.4045V31.6095H85.2526L87.0434 28.2188H80.4045V25.8686H82.314H87.8315H88.2858L90.0772 22.4785H76.3745Z" fill="white"/><path d="M143.415 22.4785L137.534 37.5538H142.103L142.877 35.3838H149.039L149.812 37.5538H154.381L148.477 22.4785H143.415ZM143.954 31.9937L145.946 26.3204L147.937 31.9937H143.954Z" fill="white"/><path d="M97.1504 22.4785C92.8254 22.4785 89.3197 25.8532 89.3197 30.0165C89.3197 34.1797 92.8254 37.5544 97.1504 37.5544C101.475 37.5544 104.981 34.1797 104.981 30.0165C104.982 25.8532 101.475 22.4785 97.1504 22.4785ZM97.1504 34.1631C94.7708 34.1631 92.8419 32.3062 92.8419 30.0159C92.8419 27.7256 94.7708 25.8686 97.1504 25.8686C99.5301 25.8686 101.459 27.7256 101.459 30.0159C101.459 32.3062 99.5301 34.1631 97.1504 34.1631Z" fill="white"/><path d="M179.476 22.4785C175.151 22.4785 171.645 25.8532 171.645 30.0165C171.645 34.1797 175.151 37.5544 179.476 37.5544C183.801 37.5544 187.306 34.1797 187.306 30.0165C187.307 25.8532 183.801 22.4785 179.476 22.4785ZM179.476 34.1631C177.096 34.1631 175.167 32.3062 175.167 30.0159C175.167 27.7256 177.096 25.8686 179.476 25.8686C181.855 25.8686 183.784 27.7256 183.784 30.0159C183.784 32.3062 181.855 34.1631 179.476 34.1631Z" fill="#3E8EED"/><path d="M166.756 29.9486C168.156 29.6392 169.289 28.4024 169.289 26.5692C169.289 24.7141 167.889 22.8145 164.956 22.8145H156.558V37.5471H165.223C168.133 37.5471 169.578 35.6919 169.578 33.5492C169.577 31.6935 168.333 30.1917 166.756 29.9486ZM160.379 26.0172H164.089C164.867 26.0172 165.4 26.5253 165.4 27.232C165.4 27.9607 164.867 28.4688 164.089 28.4688H160.379V26.0172ZM164.223 34.3443H160.379V31.6935H164.223C165.156 31.6935 165.689 32.29 165.689 33.0186C165.689 33.8143 165.134 34.3443 164.223 34.3443Z" fill="#3E8EED"/><path d="M189.375 22.8145V26.1275H193.529V37.5471H197.351V26.1275H201.484V22.8145H189.375Z" fill="#3E8EED"/><path d="M108.336 23.8598C107.443 24.7865 106.996 25.897 106.996 27.1919C106.996 28.1334 107.233 28.9776 107.706 29.7247C107.706 29.7247 107.735 29.7739 107.793 29.8575C107.793 29.8581 107.793 29.8586 107.794 29.8592C107.803 29.8723 107.813 29.8865 107.824 29.9019C107.85 29.9387 107.876 29.976 107.902 30.0122H107.906C108.332 30.56 109.441 31.7019 111.297 31.709C111.396 31.715 111.497 31.7179 111.599 31.7179H116.201C116.474 31.7179 116.713 31.8241 116.917 32.0363C117.122 32.2486 117.224 32.6316 117.224 32.95C117.224 33.2683 117.122 33.5808 116.917 33.793C116.713 34.0053 116.474 34.1114 116.201 34.1114H108.792L106.996 37.5543H116.202C117.484 37.5543 118.572 37.0907 119.465 36.164C120.358 35.2373 120.805 34.1268 120.805 32.832C120.805 31.9059 120.576 31.0741 120.119 30.3365C120.119 30.3365 120.087 30.2808 120.023 30.1889C119.983 30.1296 119.942 30.0703 119.899 30.0122H119.893C119.45 29.443 118.346 28.3231 116.525 28.3166C116.523 28.3166 116.523 28.3166 116.522 28.3166C116.416 28.31 116.311 28.3065 116.202 28.3065H111.6C111.327 28.3065 111.089 28.2003 110.884 27.9881C110.68 27.7758 110.577 27.3928 110.577 27.0745C110.577 26.7561 110.68 26.4436 110.884 26.232C111.089 26.0197 111.327 25.9136 111.6 25.9136H118.903L120.804 22.4707H111.599C110.317 22.4695 109.23 22.9332 108.336 23.8598Z" fill="white"/><path d="M124.212 23.8598C123.319 24.7865 122.872 25.897 122.872 27.1919C122.872 28.1334 123.109 28.9776 123.581 29.7247C123.581 29.7247 123.61 29.7739 123.668 29.8575C123.669 29.8581 123.669 29.8586 123.669 29.8592C123.679 29.8723 123.689 29.8865 123.699 29.9019C123.725 29.9387 123.751 29.976 123.778 30.0122H123.782C124.207 30.56 125.317 31.7019 127.172 31.709C127.272 31.715 127.372 31.7179 127.474 31.7179H132.077C132.35 31.7179 132.588 31.8241 132.793 32.0363C132.997 32.2486 133.099 32.6316 133.099 32.95C133.099 33.2683 132.997 33.5808 132.793 33.793C132.588 34.0053 132.35 34.1114 132.077 34.1114H124.668L122.873 37.5543H132.078C133.36 37.5543 134.448 37.0907 135.341 36.164C136.234 35.2373 136.681 34.1268 136.681 32.832C136.681 31.9059 136.452 31.0741 135.995 30.3365C135.995 30.3365 135.963 30.2808 135.899 30.1889C135.859 30.1296 135.818 30.0703 135.775 30.0122H135.769C135.326 29.443 134.222 28.3231 132.401 28.3166C132.399 28.3166 132.399 28.3166 132.398 28.3166C132.293 28.31 132.187 28.3065 132.079 28.3065H127.476C127.203 28.3065 126.965 28.2003 126.76 27.9881C126.556 27.7758 126.454 27.3928 126.454 27.0745C126.454 26.7561 126.556 26.4436 126.76 26.232C126.965 26.0197 127.203 25.9136 127.476 25.9136H134.78L136.681 22.4707H127.475C126.193 22.4695 125.105 22.9332 124.212 23.8598Z" fill="white"/></g><defs><linearGradient id="paint0_linear_439_1942" x1="55.9394" y1="15.0162" x2="4.25148" y2="44.5982" gradientUnits="userSpaceOnUse"><stop stop-color="#808285"/><stop offset="0.5459" stop-color="#4D4C4E"/><stop offset="1" stop-color="#231F20"/></linearGradient><linearGradient id="paint1_linear_439_1942" x1="-15.0714" y1="40.4809" x2="33.1717" y2="40.4809" gradientUnits="userSpaceOnUse"><stop offset="0.2692" stop-color="#F1F2F2"/><stop offset="0.3467" stop-color="#EDF0F2"/><stop offset="0.4225" stop-color="#E1EAF2"/><stop offset="0.4976" stop-color="#CEE0F3"/><stop offset="0.5724" stop-color="#B2D2F4"/><stop offset="0.6469" stop-color="#8EC0F5"/><stop offset="0.7202" stop-color="#64ABF6"/><stop offset="0.7754" stop-color="#3E98F7"/></linearGradient><linearGradient id="paint2_linear_439_1942" x1="37.2791" y1="13.7541" x2="35.7823" y2="5.3393" gradientUnits="userSpaceOnUse"><stop offset="0.3003" stop-color="#F1F2F2"/><stop offset="0.3781" stop-color="#EAEEF2"/><stop offset="0.4934" stop-color="#D6E4F3"/><stop offset="0.632" stop-color="#B5D4F4"/><stop offset="0.7887" stop-color="#87BDF5"/><stop offset="0.9586" stop-color="#4DA0F7"/><stop offset="1" stop-color="#3E98F7"/></linearGradient><linearGradient id="paint3_linear_439_1942" x1="42.6953" y1="18.4809" x2="15.4221" y2="18.4809" gradientUnits="userSpaceOnUse"><stop stop-color="#F1F2F2"/><stop offset="0.9952" stop-color="#3E98F7"/></linearGradient><linearGradient id="paint4_linear_439_1942" x1="55.0634" y1="26.8031" x2="48.0818" y2="38.7903" gradientUnits="userSpaceOnUse"><stop stop-color="#F1F2F2"/><stop offset="0.1365" stop-color="#EDF0F2"/><stop offset="0.2867" stop-color="#DFE9F2"/><stop offset="0.4434" stop-color="#C9DEF3"/><stop offset="0.6047" stop-color="#AACFF4"/><stop offset="0.7694" stop-color="#83BBF5"/><stop offset="0.9347" stop-color="#53A3F6"/><stop offset="1" stop-color="#3E98F7"/></linearGradient><linearGradient id="paint5_linear_439_1942" x1="41.8226" y1="15.9103" x2="-0.0994256" y2="57.467" gradientUnits="userSpaceOnUse"><stop offset="0.1105" stop-color="#F1F2F2"/><stop offset="0.2077" stop-color="#E8EEF2"/><stop offset="0.3644" stop-color="#D1E2F3"/><stop offset="0.561" stop-color="#AACEF4"/><stop offset="0.7873" stop-color="#75B4F5"/><stop offset="0.9952" stop-color="#3E98F7"/></linearGradient><linearGradient id="paint6_linear_439_1942" x1="40.407" y1="37.5037" x2="50.3611" y2="37.5037" gradientUnits="userSpaceOnUse"><stop stop-color="#F1F2F2"/><stop offset="0.9952" stop-color="#3E98F7"/></linearGradient><linearGradient id="paint7_linear_439_1942" x1="9.85396" y1="14.5185" x2="34.5582" y2="14.5185" gradientUnits="userSpaceOnUse"><stop stop-color="#F1F2F2"/><stop offset="0.9952" stop-color="#3E98F7"/></linearGradient><clipPath id="clip0_439_1942"><rect width="59.4184" height="60" fill="white" transform="translate(0.5)"/></clipPath><clipPath id="clip1_439_1942"><rect width="125.125" height="15.1186" fill="white" transform="translate(76.3745 22.4707)"/></clipPath></defs></svg>
