<svg version="1.0" xmlns="http://www.w3.org/2000/svg" viewBox="0 0 2021 2021" preserveAspectRatio="xMidYMid meet">
    <g transform="translate(0.000000,2021.000000) scale(0.100000,-0.100000)" fill="currentColor" stroke="none">
        <path d="M16760 20199 c-122 -14 -150 -24 -232 -78 -202 -135 -333 -353 -357 -592 -26 -254 69 -462 286 -625 56 -42 73 -60 68 -73 -18 -43 -77 -370 -104 -571 -32 -235 -71 -621 -71 -702 l0 -48 -72 0 c-454 -1 -924 -105 -1045 -232 -50 -51 -63 -95 -63 -202 l0 -95 -173 104 c-912 544 -1825 895 -2822 1084 -861 164 -1727 196 -2687 101 -548 -55 -957 -124 -1477 -251 -731 -178 -1464 -445 -2111 -769 l-139 -70 -5 33 c-3 17 -8 61 -12 97 -3 36 -14 92 -23 125 -15 56 -20 63 -78 102 -73 48 -139 75 -249 99 -102 22 -391 23 -549 1 -60 -8 -111 -15 -112 -14 -1 1 -6 135 -12 297 -12 329 -25 495 -50 646 -12 67 -14 109 -9 125 6 16 5 38 -3 63 -11 31 -11 40 -1 44 7 2 43 28 81 58 162 126 259 321 269 539 4 87 1 124 -13 170 -27 96 -72 172 -139 239 -116 116 -264 167 -424 147 -101 -13 -268 -73 -350 -125 -50 -32 -139 -127 -192 -206 -141 -208 -158 -501 -40 -675 70 -102 223 -201 351 -226 l57 -11 6 -122 c14 -289 28 -811 24 -930 l-3 -128 -105 -33 c-355 -108 -759 -317 -912 -470 -59 -60 -109 -142 -127 -210 -16 -62 -29 -188 -46 -450 -9 -132 -24 -348 -35 -480 -10 -132 -26 -339 -36 -460 l-16 -220 -147 -153 c-602 -631 -1008 -1157 -1403 -1818 -446 -745 -735 -1391 -1140 -2544 -49 -140 -100 -282 -112 -315 -13 -33 -39 -119 -57 -192 l-34 -132 38 -76 c20 -42 53 -102 73 -133 19 -31 72 -120 116 -197 104 -182 304 -485 428 -650 382 -509 1044 -1141 1681 -1605 1717 -1249 3580 -1838 6169 -1950 300 -13 1081 -13 1405 0 1183 47 2304 194 3490 456 1659 368 3322 953 5155 1815 631 296 1430 715 1430 748 -2 49 -39 264 -47 270 -6 3 -27 85 -47 181 -301 1414 -746 2825 -1216 3855 -205 449 -545 1075 -724 1335 l-31 45 -3 185 c-2 102 6 440 18 751 18 471 21 667 17 1155 -5 609 -9 663 -49 756 -62 144 -314 284 -698 387 -86 23 -300 66 -376 76 -28 4 -56 10 -62 14 -18 11 -25 318 -13 527 6 105 27 316 46 468 19 153 35 283 35 290 0 7 32 20 74 30 245 58 436 246 528 521 19 59 23 90 22 195 0 113 -3 133 -31 213 -68 194 -189 330 -378 425 -121 60 -243 79 -405 61z m-10337 -5645 c127 -37 168 -60 270 -150 114 -102 173 -172 270 -319 98 -149 156 -269 241 -497 133 -357 194 -649 227 -1088 17 -232 6 -687 -21 -865 -72 -479 -217 -893 -386 -1104 -114 -141 -258 -242 -435 -303 -89 -30 -102 -32 -239 -33 -133 0 -151 2 -218 27 -170 62 -352 210 -456 370 -95 146 -159 306 -236 586 -112 408 -147 703 -157 1332 -12 745 48 1171 211 1506 90 184 231 349 387 453 158 105 359 137 542 85z m4209 -395 c54 -11 130 -31 170 -45 96 -34 295 -130 383 -184 387 -237 670 -653 764 -1120 43 -213 54 -359 55 -675 1 -343 -13 -459 -84 -751 -107 -437 -262 -740 -499 -975 -174 -173 -329 -267 -556 -335 -77 -23 -108 -27 -220 -28 -94 0 -148 5 -195 18 -254 68 -471 208 -663 424 -231 261 -408 686 -464 1119 -24 186 -24 586 0 803 64 574 164 947 361 1341 140 278 197 334 399 388 201 55 351 60 549 20z" />
        <path d="M18175 6824 c-276 -41 -761 -185 -1033 -308 -212 -96 -432 -223 -577 -335 -197 -151 -399 -429 -494 -681 -117 -310 -132 -726 -41 -1144 99 -456 392 -910 729 -1131 224 -147 462 -224 804 -260 409 -43 779 15 1112 174 291 140 512 369 701 726 140 266 253 673 224 809 -33 156 -168 212 -410 171 -177 -29 -296 -65 -809 -245 -185 -64 -236 -79 -243 -68 -5 7 -17 29 -28 49 -10 19 -60 107 -110 195 -51 87 -127 231 -169 319 -180 372 -224 465 -220 468 252 198 779 708 910 882 81 106 97 135 119 203 24 76 -13 123 -124 158 -50 16 -273 28 -341 18z" />
        <path d="M2346 6405 c-99 -35 -126 -113 -73 -214 15 -30 81 -126 147 -215 184 -247 502 -684 545 -748 l38 -58 -26 -57 c-24 -55 -217 -640 -253 -768 -9 -33 -18 -63 -21 -67 -2 -4 -61 21 -131 56 -133 67 -286 127 -617 246 -186 67 -205 72 -279 72 -67 -1 -82 -4 -102 -23 -36 -34 -47 -90 -41 -204 17 -294 161 -662 364 -928 66 -86 243 -267 333 -340 103 -83 237 -170 350 -227 460 -231 974 -208 1367 62 277 189 504 549 579 916 89 435 28 935 -168 1392 -84 195 -154 307 -305 482 -163 190 -321 314 -536 423 -297 149 -596 216 -969 215 -113 -1 -175 -5 -202 -15z" />
        <path d="M4744 5547 c10 -333 19 -448 62 -722 99 -639 236 -1193 469 -1890 79 -236 189 -569 245 -740 55 -170 117 -352 137 -404 l37 -94 143 -114 c164 -131 439 -333 581 -427 255 -169 710 -418 1212 -664 195 -96 483 -237 640 -315 157 -77 303 -144 325 -149 92 -22 231 -27 480 -18 143 6 283 13 310 16 90 11 1085 184 1265 220 576 115 1064 241 1667 430 689 215 1184 409 1808 709 88 42 183 86 210 97 28 11 120 59 205 108 85 48 204 114 265 146 l109 59 29 90 c147 461 282 1015 536 2195 148 689 249 1298 264 1594 l3 68 -55 -6 c-31 -3 -141 -17 -246 -31 -104 -14 -242 -28 -305 -31 -63 -3 -254 -26 -425 -50 -1103 -155 -2154 -254 -3230 -304 -1034 -47 -2428 -51 -3365 -10 -1358 61 -2164 166 -3015 395 -132 35 -269 71 -304 79 l-64 15 7 -252z" />
    </g>
</svg>
