<svg width="56" height="64" viewBox="0 0 56 64" fill="none" xmlns="http://www.w3.org/2000/svg">
  <g clip-path="url(#clip0_893_2730)">
    <path d="M28.1817 36.8931H23.8293C23.5813 36.8967 23.3419 36.805 23.1628 36.6379C23.0799 36.5607 23.0163 36.4659 22.9769 36.361C22.9374 36.2561 22.9231 36.1438 22.9351 36.0327L23.32 32.2031C23.3575 31.7948 23.7469 31.4813 24.2127 31.4827H28.5666C28.8213 31.4827 29.0609 31.5746 29.2331 31.7394C29.4024 31.9027 29.4863 32.1229 29.4608 32.3431L29.0759 36.1742C29.0384 36.5825 28.649 36.8946 28.1817 36.8931ZM28.8797 29.3929H24.4463C24.3319 29.3951 24.2181 29.3752 24.1115 29.3345C24.0049 29.2938 23.9076 29.2331 23.8251 29.1557C23.7426 29.0784 23.6766 28.986 23.6308 28.8838C23.585 28.7817 23.5603 28.6717 23.5582 28.5602L24.7654 15.6175C24.7954 15.4108 24.9022 15.2219 25.0656 15.0868C25.229 14.9516 25.4376 14.8794 25.652 14.884H30.0854C30.5751 14.884 30.9735 15.2573 30.9735 15.7167L29.7304 28.6667C29.6996 28.8661 29.5973 29.0485 29.4416 29.1814C29.2858 29.3144 29.0868 29.3893 28.8797 29.3929ZM54.9525 14.3006L43.4677 1.29377C43.2132 1.00545 42.8976 0.774089 42.5427 0.615518C42.1877 0.456947 41.8018 0.374909 41.4113 0.375018H7.01555C6.3461 0.372588 5.69959 0.612359 5.20145 1.04782C4.7033 1.48327 4.38903 2.08337 4.3196 2.73168L0.194802 48.3483C0.128901 49.0819 0.383518 49.8067 0.895748 50.3506C1.14998 50.6187 1.45852 50.8325 1.8019 50.9786C2.14527 51.1247 2.51603 51.1999 2.89075 51.1994H9.64559L8.61814 63.0833L21.9017 51.2081H36.99C37.6939 51.2081 38.3709 50.9456 38.8771 50.4688L53.0488 37.1177C53.5161 36.6773 53.8037 36.0896 53.8591 35.4596L55.592 16.2329C55.623 15.8856 55.5824 15.5358 55.4726 15.2039C55.3627 14.8721 55.1859 14.565 54.9525 14.3006ZM44.4488 31.7919C44.3948 32.4243 44.1068 33.0161 43.6385 33.4573L35.4338 41.0363C34.9287 41.5022 34.2589 41.7612 33.5631 41.7596H13.4933C13.12 41.7552 12.7516 41.6765 12.4106 41.5286C12.0696 41.3806 11.7633 41.1665 11.5103 40.8992C11.2578 40.6326 11.0643 40.3183 10.9416 39.9759C10.819 39.6335 10.7699 39.2702 10.7974 38.9086L13.2267 12.2021C13.2961 11.5538 13.6104 10.9537 14.1086 10.5182C14.6067 10.0828 15.2532 9.843 15.9227 9.84543H36.334C37.1158 9.84543 37.8617 10.175 38.3739 10.7496L44.8531 18.0063C45.3414 18.5284 45.593 19.2196 45.5496 19.9225L44.4488 31.7919Z" fill="#72757D"/>
  </g>
  <defs>
    <clipPath id="clip0_893_2730">
      <rect width="55.4167" height="62.7083" fill="white" transform="translate(0.185547 0.375)"/>
    </clipPath>
  </defs>
</svg>
