<svg width="54" height="44" viewBox="0 0 54 44" fill="none" xmlns="http://www.w3.org/2000/svg">
  <path d="M53.7506 1.20945C53.7506 0.995912 53.5247 0.770508 53.5247 0.770508C53.3106 0.770508 53.3106 0.770508 53.0847 0.995912C48.6253 7.88853 43.9519 14.7812 39.4926 21.8992H0.70224C0.262251 21.8992 0.0363108 22.5635 0.488191 22.7889C16.5299 28.7799 39.9326 37.891 52.8587 43.0041C53.2987 43.2295 53.7506 42.7787 53.7506 42.5652V1.20945Z" fill="#72757D"/>
  <path d="M53.7512 1.20945C53.7512 0.995912 53.5252 0.770508 53.5252 0.770508C53.3112 0.770508 53.3112 0.770508 53.0852 0.995912C48.6259 7.88853 43.9525 14.7812 39.4932 21.8992L53.7512 22.0451V1.20945Z" fill="#72757D"/>
</svg>
