<svg width="71" height="70" viewBox="0 0 71 70" fill="none" xmlns="http://www.w3.org/2000/svg">
  <path fill-rule="evenodd" clip-rule="evenodd" d="M35.8931 70.0006C55.2226 70.0006 70.8933 54.3301 70.8933 35.0001C70.8933 15.6693 55.2226 -0.000366211 35.8931 -0.000366211C16.5628 -0.000366211 0.893555 15.6693 0.893555 35.0001C0.893555 54.3301 16.5628 70.0006 35.8931 70.0006ZM35.9557 41.1954C35.795 40.8119 35.6312 40.4212 35.4617 40.0209C35.4006 40.128 35.3533 40.2118 35.3141 40.2811C35.2524 40.3906 35.2109 40.464 35.1675 40.5361C32.9244 44.263 28.702 46.2373 24.4094 45.5674C20.1299 44.8996 16.703 41.6259 15.7441 37.2877C14.8306 33.1605 16.6243 28.7616 20.2043 26.3515C23.7619 23.9551 28.5755 23.9804 32.0905 26.3754C34.0706 27.7246 35.2658 29.6194 36.1908 31.7802C37.9042 35.7882 39.6784 39.7701 41.4835 43.7376C42.2308 45.3788 43.2895 46.8342 44.8208 47.8481C47.6962 49.7531 50.8296 49.8904 54.0433 48.9798C56.3406 48.3287 58.1718 46.9874 59.3511 44.8649C61.642 40.7428 60.1786 36.052 55.9691 33.9757C54.9675 33.4814 53.9182 33.1143 52.8624 32.7587C52.4552 32.6215 52.044 32.4949 51.6327 32.3683C50.58 32.0443 49.5273 31.7203 48.541 31.2173C47.001 30.4325 46.3325 29.2227 46.5392 27.6653C46.756 26.0314 47.8154 24.8541 49.4472 24.5181C51.3485 24.1257 52.9448 24.6865 54.1495 26.2149C54.4617 26.611 54.6814 26.6637 55.1063 26.405C55.6981 26.0437 56.3261 25.7315 56.9642 25.4547C57.5568 25.1967 57.5582 24.9192 57.2251 24.4018C54.6445 20.3822 50.0325 20.3302 46.9764 21.5631C44.3134 22.637 43.0047 24.745 42.7756 27.5367C42.5567 30.2113 43.439 32.4169 45.7385 33.9548C46.709 34.603 47.7533 35.0995 48.825 35.549C49.5984 35.8726 50.3941 36.1375 51.1896 36.4022C52.1988 36.7381 53.2078 37.074 54.1712 37.5298C56.3088 38.5408 57.0148 40.6279 55.985 42.7728C55.636 43.5013 55.1243 44.0917 54.4725 44.5614C51.4258 46.7569 47.0313 45.7849 45.2276 42.5119C44.9812 42.066 44.7499 41.6093 44.5469 41.1425C43.9479 39.7661 43.3539 38.3875 42.7599 37.009C41.684 34.5121 40.6081 32.0153 39.5027 29.5313C37.3044 24.5925 33.6254 21.5378 28.1824 20.7234C18.0096 19.1992 9.42664 28.7212 12.0022 38.7042C13.7951 45.657 20.2159 50.2308 27.407 49.5984C31.2226 49.2624 34.4203 47.6031 36.9778 44.7406C37.0041 44.7114 37.0328 44.6835 37.0615 44.6557C37.1986 44.5229 37.3356 44.3902 37.2047 44.1004C36.7778 43.1565 36.3774 42.2012 35.9557 41.1954Z" fill="#72757D"/>
</svg>
