<svg width="71" height="70" viewBox="0 0 71 70" fill="none" xmlns="http://www.w3.org/2000/svg">
  <path fill-rule="evenodd" clip-rule="evenodd" d="M35.8936 3.23565C18.3506 3.23565 4.1292 17.457 4.1292 35C4.1292 52.543 18.3506 66.7644 35.8936 66.7644C53.4365 66.7644 67.6579 52.543 67.6579 35C67.6579 17.457 53.4365 3.23565 35.8936 3.23565ZM0.893555 35C0.893555 15.67 16.5636 0 35.8936 0C55.2235 0 70.8936 15.67 70.8936 35C70.8936 54.33 55.2235 70 35.8936 70C16.5636 70 0.893555 54.33 0.893555 35Z" fill="#72757D"/>
  <path d="M18.9229 17.4693C19.9486 12.5179 23.3055 8.05139 27.8186 5.81348C27.0335 6.61073 26.0842 7.2215 25.3569 8.08869C22.3823 11.2964 21.0396 15.94 21.8602 20.2107C22.8952 26.7286 29.0215 32.053 35.6606 31.9597C40.8078 32.1901 45.8244 29.2276 48.3421 24.7611C53.7317 24.9439 58.9722 27.7264 62.0493 32.1929C63.6252 34.524 64.856 37.2561 64.9399 40.1001C63.9422 36.3237 61.4339 32.9668 58.0117 31.0739C54.7015 29.209 50.636 28.7334 47.0087 29.8337C42.4583 31.1392 38.7004 34.8597 37.4043 39.4381C36.304 43.084 36.7749 47.1029 38.5046 50.4412C36.0989 54.6093 31.7536 57.5838 27.0353 58.479C23.408 59.2399 19.5943 58.6524 16.2188 57.1269C19.2399 58.0081 22.5222 58.1619 25.5247 57.094C29.553 55.7606 32.8819 52.5249 34.3458 48.534C35.9683 44.1887 35.3529 39.0229 32.6208 35.293C30.5787 32.3558 27.3617 30.2857 23.8649 29.549C22.7553 29.3514 21.6364 29.2618 20.5174 29.1593C18.7364 25.5693 18.0837 21.4012 18.9788 17.5035L18.9229 17.4693Z" fill="#72757D"/>
</svg>
