<svg width="70" height="70" viewBox="0 0 70 70" fill="none" xmlns="http://www.w3.org/2000/svg">
  <path d="M35.0003 0C15.7299 0 0.107422 15.6221 0.107422 34.8925C0.107422 54.1637 15.7299 69.7846 35.0003 69.7846C54.2728 69.7846 69.8937 54.1637 69.8937 34.8925C69.8937 15.6233 54.2728 0.00166666 34.9999 0.00166666L35.0003 0ZM51.002 50.325C50.377 51.35 49.0353 51.675 48.0103 51.0458C39.8178 46.0417 29.5045 44.9083 17.3587 47.6833C16.1883 47.95 15.0216 47.2167 14.7549 46.0458C14.487 44.875 15.2174 43.7083 16.3908 43.4417C29.6824 40.4038 41.0837 41.7125 50.2812 47.3333C51.3062 47.9625 51.6312 49.3 51.002 50.325ZM55.2728 40.8229C54.4853 42.1042 52.8103 42.5083 51.5312 41.7208C42.152 35.9546 27.8549 34.285 16.7612 37.6525C15.3224 38.0871 13.8028 37.2762 13.3662 35.84C12.9328 34.4012 13.7441 32.8846 15.1803 32.4471C27.8524 28.6021 43.6062 30.4646 54.377 37.0833C55.6562 37.8708 56.0603 39.5454 55.2728 40.8229ZM55.6395 30.9296C44.3937 24.25 25.8395 23.6358 15.1024 26.8946C13.3783 27.4175 11.5549 26.4442 11.0324 24.72C10.5099 22.995 11.4824 21.1729 13.2078 20.6487C25.5333 16.9071 46.0228 17.63 58.9703 25.3162C60.5245 26.2367 61.0328 28.2396 60.112 29.7883C59.1953 31.3392 57.187 31.8504 55.6412 30.9296H55.6395Z" fill="#72757D"/>
</svg>
