<svg width="71" height="70" viewBox="0 0 71 70" fill="none" xmlns="http://www.w3.org/2000/svg">
  <path fill-rule="evenodd" clip-rule="evenodd" d="M17.6045 40.6453C17.6045 33.7292 17.6045 30.2711 18.9504 27.6295C20.1344 25.3059 22.0236 23.4167 24.3472 22.2327C26.9888 20.8867 30.4468 20.8867 37.3629 20.8867H47.2422C54.1583 20.8867 57.6164 20.8867 60.2578 22.2327C62.5816 23.4167 64.4706 25.3059 65.6548 27.6295C67.0008 30.2711 67.0008 33.7292 67.0008 40.6453V43.468C67.0008 50.3842 67.0008 53.8424 65.6548 56.4838C64.4706 58.8076 62.5816 60.6966 60.2578 61.8808C57.6164 63.2264 54.1583 63.2264 47.2422 63.2264H28.895C24.943 63.2264 22.9669 63.2264 21.4575 62.4577C20.1297 61.7811 19.0502 60.7015 18.3736 59.3735C17.6045 57.8642 17.6045 55.8879 17.6045 51.9358V40.6453ZM35.246 42.0567C35.246 40.1081 36.8256 38.5283 38.7743 38.5283C40.7229 38.5283 42.3026 40.1081 42.3026 42.0567V49.1133C42.3026 51.0619 40.7229 52.6414 38.7743 52.6414C36.8256 52.6414 35.246 51.0619 35.246 49.1133V42.0567ZM52.8876 38.5283C50.9387 38.5283 49.3593 40.1081 49.3593 42.0567V49.1133C49.3593 51.0619 50.9387 52.6414 52.8876 52.6414C54.8361 52.6414 56.4159 51.0619 56.4159 49.1133V42.0567C56.4159 40.1081 54.8361 38.5283 52.8876 38.5283Z" fill="#72757D"/>
  <path fill-rule="evenodd" clip-rule="evenodd" d="M30.2783 9.95066C30.5253 11.9369 29.1154 13.7473 27.1291 13.9943C26.0343 14.1304 25.1546 14.3156 24.376 14.5583C18.1221 16.5071 13.2249 21.4043 11.2761 27.6582C11.0334 28.4369 10.8482 29.3165 10.712 30.4114C10.465 32.3976 8.65463 33.8075 6.66843 33.5605C4.6822 33.3135 3.27229 31.5031 3.51929 29.5169C3.69669 28.0904 3.95923 26.7755 4.3561 25.5019C7.01356 16.9738 13.6916 10.2958 22.2196 7.63832C23.4932 7.24146 24.8081 6.97891 26.2346 6.80152C28.2209 6.55452 30.0313 7.96443 30.2783 9.95066Z" fill="#72757D"/>
</svg>
