<svg width="71" height="70" viewBox="0 0 71 70" fill="none" xmlns="http://www.w3.org/2000/svg">
  <path d="M63.2764 37.5613C63.2764 52.7785 51.1127 65.1145 36.1079 65.1145C21.1032 65.1145 8.93946 52.7785 8.93946 37.5613C8.93946 35.0642 9.26701 32.6446 9.88092 30.3444L10.1592 30.1428L11.03 30.6727L11.9008 32.7922L11.7266 34.735L10.6817 36.148L10.1592 36.3246L11.2042 36.5013L13.4682 38.2675L14.5131 40.9168V41.9766H16.9513L20.4345 44.2727L22.0019 47.4519L22.3502 46.5688L25.3109 44.2727L28.6199 43.9194L31.9288 45.3324L32.7996 46.5688L35.0637 37.7376L34.7153 35.9714C34.309 36.0303 33.4266 35.9361 33.1479 35.0883C32.8693 34.2405 32.3352 32.7333 32.103 32.0857L31.7547 32.2623L30.5356 39.3272L29.1423 30.6727L32.4513 24.1376L30.7097 7.00519L36.1086 1L41.3333 7.00519L39.5917 24.1376L42.7266 30.6727L41.5075 39.3272L40.2884 32.4389L40.1142 32.0857L38.8951 35.0883C38.779 35.3827 38.3378 35.9714 37.5019 35.9714L36.9794 37.7376L39.2434 46.7454L39.5917 46.3922L42.3783 44.8026L45.1648 44.9792L47.7771 46.7454L48.1254 47.2753L49.5187 45.3324L51.7827 44.2727L54.2209 44.6259L54.7434 44.9792L56.6591 42.3298L58.2265 41.6233L57.8782 40.387L58.2265 38.0909L59.9681 35.9714L61.013 35.6182L60.3164 33.6753L60.6647 31.7324L61.8838 30.3195L62.5683 31.2845C63.0315 33.3008 63.2764 35.402 63.2764 37.5613Z" fill="#72757D"/>
  <path d="M54.9935 12.6302C52.3446 10.5663 49.3643 8.93447 46.1556 7.81951L46.1487 7.81712L45.4393 9.91867C51.8848 12.1567 57.3397 16.6388 60.8354 22.5692C64.3311 28.4996 65.6414 35.4945 64.5337 42.3118C63.4259 49.1291 59.9718 55.3277 54.7846 59.807C49.5974 64.2863 43.0129 66.7563 36.2001 66.7785C29.3874 66.8008 22.7873 64.3738 17.5718 59.9284C12.3563 55.4831 8.86289 49.3072 7.71191 42.4972C6.56092 35.6873 7.82683 28.684 11.2848 22.7309C14.7423 16.7789 20.1673 12.2617 26.597 9.98134L26.6004 9.98015L25.8776 7.88327C22.6735 9.01922 19.7011 10.6713 17.0635 12.754C14.0045 15.1693 11.3957 18.1637 9.39766 21.6034C5.67675 28.0091 4.3146 35.5448 5.55309 42.8725C6.79158 50.2002 10.5506 56.8457 16.1626 61.629C21.7746 66.4122 28.8765 69.0238 36.2072 68.9998C43.5379 68.9759 50.623 66.3181 56.2046 61.4983C61.7861 56.6785 65.5028 50.0086 66.6948 42.673C67.8868 35.3374 66.4768 27.8107 62.7154 21.4294C60.6955 18.0028 58.0678 15.0255 54.9935 12.6302Z" fill="#72757D"/>
</svg>
