<svg width="71" height="70" viewBox="0 0 71 70" fill="none" xmlns="http://www.w3.org/2000/svg">
  <path fill-rule="evenodd" clip-rule="evenodd" d="M5.02803 4.92061C0.107422 9.84121 0.107422 17.7608 0.107422 33.6V36.4C0.107422 52.2393 0.107422 60.1587 5.02803 65.0794C9.94864 70 17.8682 70 33.7074 70H36.5074C52.3467 70 60.2662 70 65.1869 65.0794C70.1074 60.1587 70.1074 52.2393 70.1074 36.4V33.6C70.1074 17.7608 70.1074 9.84121 65.1869 4.92061C60.2662 0 52.3467 0 36.5074 0H33.7074C17.8682 0 9.94864 0 5.02803 4.92061ZM11.9199 21.2919C12.2991 39.4919 21.3989 50.4294 37.3531 50.4294H38.2576V40.0169C44.1201 40.6002 48.553 44.8877 50.3321 50.4294H58.6157C56.3407 42.146 50.3613 37.5669 46.628 35.8169C50.3613 33.6585 55.6113 28.4085 56.8655 21.2919H49.3403C47.707 27.0669 42.8659 32.3169 38.2576 32.8127V21.2919H30.7323V41.4752C26.0656 40.3085 20.1741 34.6502 19.9116 21.2919H11.9199Z" fill="#72757D"/>
  <defs>
    <rect width="70" height="70" fill="white" transform="translate(0.107422)"/>
  </defs>
</svg>
