<svg xmlns="http://www.w3.org/2000/svg" fill="none" viewBox="0 0 24 24"><path stroke="currentColor" stroke-linecap="round" stroke-linejoin="round" stroke-width="2" d="M17.802 17.2918s.077-.055.2-.149c1.843-1.425 2.998-3.49 2.998-5.789 0-4.286-4.03-7.764-8.998-7.764-4.97 0-9.002 3.478-9.002 7.764 0 4.288 4.03 7.646 9 7.646.424 0 1.12-.028 2.088-.084 1.262.82 3.104 1.493 4.716 1.493.499 0 .734-.41.414-.828-.486-.596-1.156-1.551-1.416-2.29v.001Z"/><path stroke="currentColor" stroke-linecap="round" stroke-linejoin="round" stroke-width="2" d="M7.5 13.5c2.5 2.5 6.5 2.5 9 0"/></svg>
