<svg width="30" height="30" fill="none" xmlns="http://www.w3.org/2000/svg">
  <path d="M15 30a15 15 0 1 0 0-30 15 15 0 0 0 0 30Z" fill="#fff" />
  <path fill-rule="evenodd" clip-rule="evenodd"
    d="M17.5 21a9 9 0 0 1-4 7.4 13.1 13.1 0 0 1-6-2.2L.6 27.5 3 21c-.8-1.7-1.3-3.6-1.3-5.6A8.9 8.9 0 0 1 17.5 21Zm-9-10.8c-2.5 0-4.8 1-6.7 2.4a13.2 13.2 0 1 1 14.4 15.8 10.7 10.7 0 0 0 .5-14.4l3-3a1.9 1.9 0 0 0 2.5-1.8 2 2 0 1 0-3.8.6l-3 3a10.6 10.6 0 0 0-6.8-2.6Zm4.1 14a2 2 0 1 0 0-3.9 2 2 0 0 0 0 3.8Zm-5-5.2a2 2 0 1 0 0-3.8 2 2 0 0 0 0 3.8Z"
    fill="url(#a)" />
  <defs>
    <linearGradient id="a" x1="22.9" y1="1.9" x2="-5.8" y2="37.7" gradientUnits="userSpaceOnUse">
      <stop stop-color="#7345F8" />
      <stop offset="1" stop-color="#3AB5FA" />
    </linearGradient>
  </defs>
</svg>