<svg width="179" height="219" viewBox="0 0 179 219" fill="none" xmlns="http://www.w3.org/2000/svg">
  <path
    d="M100.36 207.566C113.294 196.218 127.314 185.37 138.721 176.372L100.36 207.566ZM15.9243 111.106C22.1891 108.906 28.2261 105.962 34.1781 103.388L15.9243 111.106ZM15.9243 111.106C19.6546 108.854 23.7245 107.774 34.1781 103.388L15.9243 111.106ZM20.4321 117.664C22.8603 115.312 25.6229 110.79 34.1781 103.388L20.4321 117.664ZM20.4321 117.664C24.8426 112.972 28.1759 108.367 34.1781 103.388L20.4321 117.664ZM17.9712 119.356C31.6839 107.971 51.821 101.162 59.6081 95.5657L17.9712 119.356ZM17.9712 119.356C28.2843 113.122 35.0777 107.309 59.6081 95.5657L17.9712 119.356ZM22.4789 125.914C38.7298 116.974 51.435 104.956 59.6081 95.5657L22.4789 125.914ZM22.4789 125.914C33.6818 116.704 43.9591 110.607 59.6081 95.5657L22.4789 125.914ZM21.2478 126.759C34.0222 119.792 52.0583 108.753 71.5014 97.0471L21.2478 126.759ZM21.2478 126.759C42.2747 117.965 58.898 103.862 71.5014 97.0471L21.2478 126.759ZM25.7571 133.317C38.9395 126.563 50.4632 116.592 71.5014 97.0471L25.7571 133.317ZM25.7571 133.317C45.4507 118.572 61.6167 104.296 71.5014 97.0471L25.7571 133.317ZM13.4483 141.776C41.0282 125.426 68.5039 105.885 83.393 98.53L13.4483 141.776ZM13.4483 141.776C39.9966 125.088 65.441 109.57 83.393 98.53L13.4483 141.776ZM17.9578 148.333C35.7497 134.385 51.779 128.284 83.393 98.53L17.9578 148.333ZM17.9578 148.333C39.453 131.072 62.913 114.244 83.393 98.53L17.9578 148.333ZM13.0345 151.717C36.8999 135.797 66.7015 121.692 95.2862 100.011L13.0345 151.717ZM13.0345 151.717C36.0362 137.485 56.2957 124.852 95.2862 100.011L13.0345 151.717ZM17.5423 158.275C38.8948 145.507 61.158 127.725 95.2862 100.011L17.5423 158.275ZM17.5423 158.275C44.5299 140.49 67.6606 121.196 95.2862 100.011L17.5423 158.275ZM12.6191 161.659C38.1444 146.059 61.3981 128.691 103.486 104.032L12.6191 161.659ZM12.6191 161.659C30.6857 150.42 48.857 140.231 103.486 104.032L12.6191 161.659ZM17.1268 168.215C43.9794 147.18 68.643 129.929 103.486 104.032L17.1268 168.215ZM17.1268 168.215C47.6348 142.905 80.6514 117.925 103.486 104.032L17.1268 168.215ZM14.666 169.908C46.6096 153.5 74.6134 129.585 111.687 108.05L14.666 169.908ZM14.666 169.908C45.8296 145.927 79.0635 127.428 111.687 108.05L14.666 169.908ZM19.1739 176.464C44.5394 162.614 62.4672 145.214 111.687 108.05L19.1739 176.464ZM19.1739 176.464C48.6951 151.89 83.0652 128.083 111.687 108.05L19.1739 176.464ZM19.1739 176.464C42.3062 154.336 71.0507 140.338 121.119 111.225L19.1739 176.464ZM19.1739 176.464C55.5557 150.016 97.3338 123.28 121.119 111.225L19.1739 176.464ZM23.6817 183.022C62.9959 153.165 100.288 121.707 121.119 111.225L23.6817 183.022ZM23.6817 183.022C60.9974 159.52 95.9092 133.262 121.119 111.225L23.6817 183.022ZM23.6817 183.022C46.2078 172.146 69.5228 154.6 134.241 111.861L23.6817 183.022ZM23.6817 183.022C66.4647 153.748 107.28 126.549 134.241 111.861L23.6817 183.022ZM28.1909 189.58C64.1736 167.243 90.5806 142.936 134.241 111.861L28.1909 189.58ZM28.1909 189.58C62.4273 162.815 99.6371 135.622 134.241 111.861L28.1909 189.58ZM30.6518 187.888C61.4501 165.194 88.8919 149.999 141.21 116.727L30.6518 187.888ZM30.6518 187.888C75.6429 162.198 116.55 136.259 141.21 116.727L30.6518 187.888ZM35.1595 194.444C70.3453 170.58 99.5465 150.513 141.21 116.727L35.1595 194.444ZM35.1595 194.444C58.7988 181.252 82.1991 162.439 141.21 116.727L35.1595 194.444ZM37.6219 192.752C63.2726 179.337 85.1151 160.83 144.488 124.13L37.6219 192.752ZM37.6219 192.752C59.6364 180.254 83.5685 163.728 144.488 124.13L37.6219 192.752ZM42.1296 199.31C79.5678 173.988 117.492 144.876 144.488 124.13L42.1296 199.31ZM42.1296 199.31C70.8876 177.109 97.7404 156.086 144.488 124.13L42.1296 199.31ZM43.3592 198.465C79.4745 171.157 117.671 144.915 140.381 136.608L43.3592 198.465ZM43.3592 198.465C71.3501 181.017 97.1508 166.109 140.381 136.608L43.3592 198.465ZM47.8685 205.022C74.2797 182.435 103.286 161.768 140.381 136.608L47.8685 205.022ZM47.8685 205.022C74.0529 188.63 101.631 169.544 140.381 136.608L47.8685 205.022ZM52.7916 201.638C80.6848 189.088 103.048 168.534 141.197 145.703L52.7916 201.638ZM52.7916 201.638C80.3984 184.424 109.463 167.681 141.197 145.703L52.7916 201.638ZM57.2994 208.196C81.5572 196.235 98.3852 175.6 141.197 145.703L57.2994 208.196ZM57.2994 208.196C85.6718 190.288 114.447 171.036 141.197 145.703L57.2994 208.196ZM63.4522 203.966C88.7322 193.31 112.404 174.493 142.012 154.799L63.4522 203.966ZM63.4522 203.966C90.91 184.258 117.104 168.407 142.012 154.799L63.4522 203.966ZM67.9615 210.523C83.9086 192.253 106.208 180.638 142.012 154.799L67.9615 210.523ZM67.9615 210.523C95.3086 187.517 122.863 165.99 142.012 154.799L67.9615 210.523ZM79.0375 202.911C99.0636 189.236 121.629 174.301 142.828 163.893L79.0375 202.911ZM79.0375 202.911C96.9556 192.101 114.835 179.955 142.828 163.893L79.0375 202.911ZM83.5452 209.467C100.434 193.629 119.608 180.793 142.828 163.893L83.5452 209.467ZM83.5452 209.467C96.7985 196.978 115.215 184.703 142.828 163.893L83.5452 209.467ZM95.8522 201.009C105.139 197.694 115.649 187.828 138.721 176.372L95.8522 201.009ZM95.8522 201.009C105.624 195.91 116.473 190.908 138.721 176.372L95.8522 201.009ZM100.36 207.566C114.774 196.861 131.26 183.943 138.721 176.372L100.36 207.566Z"
    stroke="#8488F9" stroke-width="1.094" stroke-linecap="round" />
  <path
    d="M100.336 196.303C109.888 188.698 118.876 181.286 127.215 172.339L100.336 196.303ZM27.4717 137.095C38.0637 133.125 47.3715 127.621 57.2663 119.651L27.4717 137.095ZM27.4717 137.095C38.0462 128.504 48.467 124.394 57.2663 119.651L27.4717 137.095ZM31.5917 142.734C37.1921 137.469 41.1292 133.646 57.2663 119.651L31.5917 142.734ZM31.5917 142.734C35.9441 137.495 42.635 134.14 57.2663 119.651L31.5917 142.734ZM25.5627 147.139C36.7868 141.079 49.9309 129.298 67.4167 120.885L25.5627 147.139ZM25.5627 147.139C39.6773 136.612 55.7705 128.367 67.4167 120.885L25.5627 147.139ZM29.6842 152.777C39.6843 141.903 53.3006 132.92 67.4167 120.885L29.6842 152.777ZM29.6842 152.777C36.1572 144.891 44.8965 137.077 67.4167 120.885L29.6842 152.777ZM27.2729 154.54C39.2423 147.697 51.7096 136.577 77.5659 122.116L27.2729 154.54ZM27.2729 154.54C43.2474 142.824 57.9256 134.204 77.5659 122.116L27.2729 154.54ZM31.3929 160.178C48.2784 145.274 63.4723 132.772 77.5659 122.116L31.3929 160.178ZM31.3929 160.178C45.5251 147.003 61.3129 132.751 77.5659 122.116L31.3929 160.178ZM28.9816 161.94C42.6666 150.045 54.9038 143.156 87.7164 123.35L28.9816 161.94ZM28.9816 161.94C46.0238 149.933 65.3128 137.622 87.7164 123.35L28.9816 161.94ZM33.1031 167.579C47.7729 156.108 66.7051 142.675 87.7164 123.35L33.1031 167.579ZM33.1031 167.579C49.7863 150.158 67.5995 136.474 87.7164 123.35L33.1031 167.579ZM31.8967 168.46C46.6563 157.969 63.7248 146.512 97.867 124.584L31.8967 168.46ZM31.8967 168.46C52.1412 153.203 75.9581 139.184 97.867 124.584L31.8967 168.46ZM36.0182 174.099C55.2642 163.443 72.6763 144.4 97.867 124.584L36.0182 174.099ZM36.0182 174.099C53.5653 160.387 68.7845 148.054 97.867 124.584L36.0182 174.099ZM36.0182 174.099C53.6167 158.822 80.4709 148.123 109.222 124.937L36.0182 174.099ZM36.0182 174.099C62.4534 153.353 88.2807 134.545 109.222 124.937L36.0182 174.099ZM40.1382 179.738C56.2322 169.769 73.8528 153.8 109.222 124.937L40.1382 179.738ZM40.1382 179.738C65.7357 161.43 87.9293 142.426 109.222 124.937L40.1382 179.738ZM41.3445 178.856C56.8602 164.314 79.5966 153.816 115.755 128.814L41.3445 178.856ZM41.3445 178.856C61.1117 166.695 81.3712 154.648 115.755 128.814L41.3445 178.856ZM45.4645 184.495C63.6611 167.613 81.3634 152.418 115.755 128.814L45.4645 184.495ZM45.4645 184.495C58.8328 170.798 76.0005 159.44 115.755 128.814L45.4645 184.495ZM50.2887 180.972C80.964 159.322 109.916 143.008 122.288 132.691L50.2887 180.972ZM50.2887 180.972C74.7289 163.828 99.3152 146.513 122.288 132.691L50.2887 180.972ZM54.4087 186.61C79.5259 167.853 108.013 142.309 122.288 132.691L54.4087 186.61ZM54.4087 186.61C72.336 171.307 91.5367 157.975 122.288 132.691L54.4087 186.61ZM56.8215 184.848C81.3518 166.031 109.424 151.678 126.407 138.329L56.8215 184.848ZM56.8215 184.848C73.2697 175.288 84.8826 167.11 126.407 138.329L56.8215 184.848ZM60.9415 190.487C88.114 169.367 109.233 152.472 126.407 138.329L60.9415 190.487ZM60.9415 190.487C72.2283 178.474 85.3743 166.771 126.407 138.329L60.9415 190.487ZM68.1769 185.201C90.3244 167.894 113.293 157.676 128.116 145.729L68.1769 185.201ZM68.1769 185.201C77.9661 177.765 92.2405 169.268 128.116 145.729L68.1769 185.201ZM72.2969 190.839C97.2476 172.121 118.291 156.206 128.116 145.729L72.2969 190.839ZM72.2969 190.839C89.4849 176.905 106.111 163.599 128.116 145.729L72.2969 190.839ZM78.3274 186.435C87.7547 176.82 103.856 170.622 129.826 153.131L78.3274 186.435ZM78.3274 186.435C95.2447 173.969 115.325 162.541 129.826 153.131L78.3274 186.435ZM82.4474 192.073C104.104 174.5 120.945 159.463 129.826 153.131L82.4474 192.073ZM82.4474 192.073C95.891 183.355 106.632 173.983 129.826 153.131L82.4474 192.073ZM88.4764 187.669C101.191 181.658 118.37 168.677 129.125 162.293L88.4764 187.669ZM88.4764 187.669C102.149 180.169 115.358 172.829 129.125 162.293L88.4764 187.669ZM92.5979 193.307C105.163 179.378 119.891 169.25 129.125 162.293L92.5979 193.307ZM92.5979 193.307C103.369 184.395 112.268 175.351 129.125 162.293L92.5979 193.307ZM96.2156 190.665C105.278 186.239 109.78 180.499 127.215 172.339L96.2156 190.665ZM96.2156 190.665C108.48 183.632 117.056 175.483 127.215 172.339L96.2156 190.665ZM100.336 196.303C106.839 191.149 109.234 189.437 127.215 172.339L100.336 196.303Z"
    stroke="#8488F9" stroke-width="2.256" stroke-linecap="round" />
  <path
    d="M31.0897 88.1676C32.0945 85.712 33.5236 83.5724 34.8666 79.8045L31.0897 88.1676ZM13.4075 78.6766C15.7123 75.8383 19.9005 72.4862 23.0453 69.1015L13.4075 78.6766ZM13.4075 78.6766C15.0315 76.0924 17.5277 75.119 23.0453 69.1015L13.4075 78.6766ZM16.5854 81.0523C18.1574 77.4036 20.0864 72.0992 23.0453 69.1015L16.5854 81.0523ZM16.5854 81.0523C18.7558 78.0958 20.3872 73.5884 23.0453 69.1015L16.5854 81.0523ZM13.9024 84.6399C17.7184 82.1234 20.4773 77.5512 27.1195 70.282L13.9024 84.6399ZM13.9024 84.6399C20.5992 78.1215 24.8669 72.0911 27.1195 70.282L13.9024 84.6399ZM17.0818 87.0174C20.9824 80.1843 25.9628 75.264 27.1195 70.282L17.0818 87.0174ZM17.0818 87.0174C19.5587 83.3204 21.1436 80.2633 27.1195 70.282L17.0818 87.0174ZM17.9751 85.8218C20.7746 81.9192 25.0207 81.1267 31.1924 71.4624L17.9751 85.8218ZM17.9751 85.8218C22.1308 79.4098 27.6846 74.1727 31.1924 71.4624L17.9751 85.8218ZM21.1546 88.1976C24.7204 81.8093 27.639 76.5768 31.1924 71.4624L21.1546 88.1976ZM21.1546 88.1976C23.3496 83.1982 27.2854 78.703 31.1924 71.4624L21.1546 88.1976ZM21.1546 88.1976C26.6007 82.8168 28.4489 78.5835 34.3702 73.8395L21.1546 88.1976ZM21.1546 88.1976C24.4252 83.5047 29.8119 79.7636 34.3702 73.8395L21.1546 88.1976ZM24.3324 90.5748C28.7272 84.2862 30.0625 78.1339 34.3702 73.8395L24.3324 90.5748ZM24.3324 90.5748C26.9217 86.0429 30.0749 82.1483 34.3702 73.8395L24.3324 90.5748ZM27.9101 85.7919C30.1103 83.3687 32.6612 81.2582 34.8666 79.8045L27.9101 85.7919ZM27.9101 85.7919C29.3463 84.3393 31.8267 82.1867 34.8666 79.8045L27.9101 85.7919ZM31.0897 88.1676C32.3109 86.6049 32.6508 84.6755 34.8666 79.8045L31.0897 88.1676Z"
    stroke="#8488F9" stroke-width="1.617" stroke-linecap="round" />
  <path
    d="M143.56 103.322C146.901 97.509 150.878 92.3021 153.468 86.3943L143.56 103.322ZM132.297 90.5362C136.544 88.6639 138.286 82.7071 143.787 80.5957L132.297 90.5362ZM132.297 90.5362C137.033 87.0553 140.889 83.5834 143.787 80.5957L132.297 90.5362ZM136.672 94.0199C138.841 90.8575 138.981 87.2229 143.787 80.5957L136.672 94.0199ZM136.672 94.0199C138.008 90.9541 139.564 88.0652 143.787 80.5957L136.672 94.0199ZM133.881 97.5238C136.776 95.5796 140.585 89.0507 149.093 82.9105L133.881 97.5238ZM133.881 97.5238C138.949 92.5453 142.915 88.7354 149.093 82.9105L133.881 97.5238ZM138.255 101.008C142.326 93.7335 146.497 89.7832 149.093 82.9105L138.255 101.008ZM138.255 101.008C139.536 97.287 142.729 92.3544 149.093 82.9105L138.255 101.008ZM139.186 99.8387C145.065 96.7572 146.872 91.7341 153.468 86.3943L139.186 99.8387ZM139.186 99.8387C142.91 96.8151 147.999 92.7294 153.468 86.3943L139.186 99.8387ZM143.56 103.322C144.336 100.147 148.438 96.6937 153.468 86.3943L143.56 103.322Z"
    stroke="#8488F9" stroke-width="1.049" stroke-linecap="round" />
  <path
    d="M146.12 101.508C146.194 104.816 145.229 112.172 140.777 115.137M20.6367 103.496C19.1788 101.044 16.7867 94.4733 18.8815 87.8118M118.181 109.476C120.964 107.624 128.588 105.217 135.186 111.092C141.273 116.511 143.18 120.809 142.565 126.521C142.038 131.423 138.027 136.562 138.027 136.562M118.181 109.476C106.056 100.886 91.5842 97.5465 81.5874 97.1442C64.5561 94.5029 51.3977 97.2214 41.3608 102.79M118.181 109.476C126.794 115.579 134.224 124.33 138.027 136.562M138.027 136.562C140.27 143.78 141.251 152.209 140.466 162.021C140.62 179.255 126.74 211.938 69.997 204.797C48.9421 203.104 7.98974 189.772 12.6182 149.982C13.2044 143.248 15.2985 134.549 19.5678 126.115M41.3608 102.79C33.335 95.7569 25.1684 99.8023 22.0884 102.704C18.8138 105.555 13.7253 114.228 19.5678 126.115M41.3608 102.79C31.1035 108.481 24.1064 117.149 19.5678 126.115M67.6873 169.53C75.6025 172.31 86.7205 170.484 86.7205 170.484M34.8287 79.6284C34.1961 85.5034 28.9203 89.7533 23.0447 89.1209C17.1691 88.4885 12.9188 83.2131 13.5513 77.3381C14.1838 71.4632 19.4597 67.2132 25.3353 67.8457C31.2109 68.4781 35.4612 73.7534 34.8287 79.6284ZM153.131 92.3625C152.498 98.2375 147.222 102.487 141.347 101.855C135.471 101.223 131.22 95.9472 131.853 90.0723C132.486 84.1972 137.761 79.9473 143.637 80.5798C149.513 81.2122 153.763 86.4875 153.131 92.3625Z"
    stroke="#F3F4FF" stroke-width="2" stroke-linecap="round" stroke-linejoin="round" />
  <path
    d="M109.049 125.42C95.0068 121.498 67.7967 119.402 55.9469 118.844C33.0748 120.17 26.4759 139.345 26.0354 148.768C23.9463 168.17 37.4346 178.833 44.4398 181.74C56.633 186.84 86.5842 190.72 100.095 188.591C122.166 185.113 128.006 167.922 128.167 159.761C130.585 137.294 116.429 127.506 109.049 125.42Z"
    stroke="#F3F4FF" stroke-width="2" stroke-linecap="round" stroke-linejoin="round" />
  <path
    d="M90.8245 148.964C94.9541 154.872 98.322 155.21 106.066 154.34C108 145 105.312 142.346 102.851 141.221C94.4864 138.943 91.348 145.434 90.8245 148.964Z"
    stroke="#F3F4FF" stroke-width="2" stroke-linecap="round" stroke-linejoin="round" />
  <path
    d="M49.3646 149.974C56.3484 152.169 60.0044 151.854 66.0054 147.539C67.2866 143.807 63.2352 133.877 54.7235 136.795C47.914 139.131 48.3136 146.554 49.3646 149.974Z"
    stroke="#F3F4FF" stroke-width="2" stroke-linecap="round" stroke-linejoin="round" />
  <path d="M54.5413 45.7784C56.3404 46.6369 58.1153 47.5672 59.9301 48.3874" stroke="#8488F9" stroke-width="3"
    stroke-miterlimit="1.5" stroke-linecap="round" stroke-linejoin="round" />
  <path d="M72.5852 26.9912C73.4799 28.9365 74.587 30.8349 75.5213 32.7705" stroke="#8488F9" stroke-width="3"
    stroke-miterlimit="1.5" stroke-linecap="round" stroke-linejoin="round" />
  <path d="M96.5938 34.257C97.9501 31.8031 99.117 29.1869 100.468 26.7292" stroke="#8488F9" stroke-width="3"
    stroke-miterlimit="1.5" stroke-linecap="round" stroke-linejoin="round" />
  <path d="M116.491 52.3773C119.193 51.1665 121.957 49.9843 124.567 48.4892" stroke="#8488F9" stroke-width="3"
    stroke-miterlimit="1.5" stroke-linecap="round" stroke-linejoin="round" />
  <path d="M104.058 54.8433C105.196 54.567 106.312 54.2034 107.463 53.9691" stroke="#8488F9" stroke-width="3"
    stroke-miterlimit="1.5" stroke-linecap="round" stroke-linejoin="round" />
  <path d="M101.214 63.5581C103.107 62.9183 105.013 62.3411 106.916 61.7314" stroke="#8488F9" stroke-width="3"
    stroke-miterlimit="1.5" stroke-linecap="round" stroke-linejoin="round" />
  <path d="M98.4475 71.1644C100.351 70.5672 102.27 69.9899 104.149 69.3378" stroke="#8488F9" stroke-width="3"
    stroke-miterlimit="1.5" stroke-linecap="round" stroke-linejoin="round" />
  <path d="M90.45 73.9436C92.3407 73.3255 94.228 72.6561 96.1516 72.117" stroke="#8488F9" stroke-width="3"
    stroke-miterlimit="1.5" stroke-linecap="round" stroke-linejoin="round" />
  <path d="M85.1389 70.2254C82.4695 71.0762 79.6266 71.8786 77.1409 73.0046" stroke="#8488F9" stroke-width="3"
    stroke-miterlimit="1.5" stroke-linecap="round" stroke-linejoin="round" />
  <path fill-rule="evenodd" clip-rule="evenodd"
    d="M97.7991 72.233C100.129 65.3085 102.256 58.2359 104.313 51.2303C100.505 52.6503 97.1757 54.5247 93.6978 56.6294C92.0824 53.4937 88.5687 49.2218 85.9451 46.8792C82.5125 49.8254 79.9877 52.5705 77.1884 56.0109C74.56 53.6097 71.8908 51.6862 68.7336 50.0036C69.3541 56.8235 70.4239 63.5595 71.877 70.2521C75.8073 69.217 78.33 69.4965 81.7726 69.6378C87.6884 69.8802 92.0353 70.7204 97.7991 72.233Z"
    stroke="#F3F4FF" stroke-width="3" stroke-miterlimit="1.5" stroke-linecap="round" stroke-linejoin="round" />
</svg>