<svg width="155" height="54" viewBox="0 0 155 54" fill="none" xmlns="http://www.w3.org/2000/svg">
  <g clip-path="url(#a)" fill="#656569">
    <path
      d="M17 15.5c-.3 3.4-2.6 6.9-7.3 6.9H4.5L5.7 8.9h5.2c4.6 0 6.3 3.2 6 6.6Zm-9.8 4.4H10c3 0 4.5-2.3 4.6-4.5.1-2-1-4.2-3.8-4.2H8L7.2 20ZM32 15.7c-.4 3.5-2.8 7-7.5 7-4.8 0-6.6-3.4-6.3-7 .3-3.4 3-7.1 7.5-7.1 4.6 0 6.6 3.5 6.3 7Zm-11.2 0c-.2 2.3.8 4.6 4 4.6 3 0 4.4-2.4 4.7-4.6.2-2.2-.8-4.8-4-4.8-3.1 0-4.6 2.5-4.7 4.8ZM43.2 8.8h2.6l-1.2 13.6H43l-6.2-9.1-.8 9h-2.6L34.6 9h2l5.9 8.3.7-8.4ZM56.6 19.8h-7l-1.4 2.6h-2.7l7.1-13.5h2.8l4.8 13.5h-2.7l-1-2.6Zm-2.8-8.1-3 5.7h5l-2-5.7ZM63.6 11.2h-4.2l.1-2.3h11l-.1 2.3H66l-1 11.2h-2.5l1-11.2ZM71 22.4 72 8.9h2.5l-1.2 13.5H71ZM90 15.7c-.4 3.5-2.9 7-7.6 7-4.7 0-6.5-3.4-6.2-7 .3-3.4 2.8-7.1 7.5-7.1 4.6 0 6.5 3.5 6.2 7Zm-11.3 0c-.2 2.3.8 4.6 4 4.6 3.1 0 4.5-2.4 4.8-4.6.2-2.3-.9-4.9-4-4.9-3.2 0-4.7 2.6-4.8 5ZM101.1 8.8h2.6l-1.2 13.6h-1.6l-6.2-9.1-.8 9h-2.5L92.5 9h2l6 8.3.6-8.4ZM37.6 39h-7l-1.3 2.5h-2.7l7.2-13.6h2.7l4.8 13.6h-2.8l-.9-2.6Zm-2.8-8.2-3 5.8h5l-2-5.8ZM46.3 28l-1 11.1h6.9l-.2 2.4h-9.4l1.2-13.6h2.5ZM63.8 41.5h-10l1.1-13.6h10l-.2 2.5h-7.5l-.2 3.2h7.2l-.2 2.3h-7.3l-.2 3.1h7.4l-.1 2.5ZM77.6 41.5h-3L71 37h-2.5l-.4 4.5h-2.5L67 27.9h6.4c3.1 0 4.6 2.2 4.4 4.5 0 2.2-1.6 4-3.7 4.3l3.6 4.6v.2Zm-8.4-11.2-.4 4.3h3.9c.6 0 1.2-.2 1.6-.5.5-.5.8-1 .8-1.7.1-.5 0-1.1-.5-1.6a2 2 0 0 0-1.6-.6h-3.8v.1ZM83.6 30.3h-4.3l.2-2.4h11l-.1 2.4H86l-1 11.2h-2.5l1-11.3ZM100 31.2c-.3-.8-1.5-1.5-3-1.5-1.8 0-2.8.8-2.9 1.8 0 1.2 1.3 1.5 2.9 1.7 2.8.4 5.3 1 5 4.3-.3 3-3 4.3-6 4.3-2.7 0-4.8-.9-5.6-3.3l2.2-1.1c.5 1.5 2 2.1 3.6 2.1s3.2-.6 3.3-2c0-1.3-1.2-1.8-3-2-2.7-.3-5-1-4.8-4.1.2-2.8 3-4 5.5-4 2 0 4.2.7 5 2.7l-2.1 1ZM149.6 15l-8.8-10.3a2 2 0 0 0-1.6-.7H113c-1.1 0-2 .8-2.1 1.9L107.7 42c0 .6.2 1.2.6 1.6.4.5 1 .7 1.5.7h5.2l-.8 9.5 10.1-9.5h11.5c.6 0 1-.1 1.5-.6L148 33.2c.3-.4.5-.8.6-1.3l1.3-15.3c.1-.5 0-1.1-.4-1.5Zm-8 14c0 .5-.3 1-.6 1.3l-6.3 6a2 2 0 0 1-1.4.6h-15.4a2 2 0 0 1-2-1.5v-.7l1.8-21.3c0-1 1-1.9 2-1.9h15.6a2 2 0 0 1 1.6.7l5 5.7c.3.5.5 1 .4 1.6l-.7 9.5Zm-12.3 4h-3l-.4-.1-.2-.5.2-3c0-.4.3-.6.6-.6h3l.5.1.2.5-.2 3.1c0 .3-.4.6-.7.6Zm.6-5.8h-3.1c-.4 0-.6-.2-.6-.6l.8-9.7c0-.3.3-.5.6-.5h3c.5 0 .7.2.7.6l-.9 9.7c0 .3-.2.6-.5.6Z" />
  </g>
  <defs>
    <clipPath id="a">
      <path fill="#fff" transform="translate(4.5 4)" d="M0 0H146V50H0z" />
    </clipPath>
  </defs>
</svg>