<svg width="214" height="54" viewBox="0 0 214 54" fill="none" xmlns="http://www.w3.org/2000/svg">
  <path fill-rule="evenodd" clip-rule="evenodd"
    d="M69.5 16.8v18c2 3.6 10.9 1.7 12.6-2.6 2-5 2.2-16.4-12.6-15.4Zm-6.8-1.7v.7s2.6-.4 3 1.3v18.7s-.2 1.6-2.5 1.5v.3s5.7-.1 8.3.3C90 41.3 92 15.4 76.7 15.3l-14-.2ZM107 16.2c4.9-.4 9 4.7 9 9.8.2 5.2-1.2 10.3-6.3 10.7-4.4 0-8.8-2-9.8-10.2 0-5 1.2-10 7-10.3Zm1-1.5c6.3 0 12.4 3.8 12.4 11.3a12 12 0 0 1-12.3 12.1c-6.3 0-12.3-4-12.3-11.5s5.8-12 12.1-12ZM128.6 14.7l-.7 3.2s-.2.6 0 1.6c.3-.7.4-1.8 2-2.4h6.2v18.8s0 1.7-2.4 1.4v.4h9.5v-.4s-3 .4-3.1-1.4l-.2-18.9 5.5.1s2 0 2 2.4c.2.2.4 0 .4-.3V16s.5-1 0-1l-1.7.2h-16s-.8-.4-1.5-.5ZM165 20.8l-4 10.3h7.6L165 20.7Zm.5-6.1-8.6 21.1s-1 1.8-3.3 1.6v.3h7.8v-.4s-2.5.2-2.2-1l1.2-3.7h8.8l1.7 4.1s.2.5-.6.6v.3l7.9.1v-.5s-2 .6-3-.9c-.8-1.3-1.9-3.7-1.9-3.7s1.2.1 2-.3c.6-.3 1.9-.7 3.4-.7.2-.2 0-.5-.6-.5h-5.4l-6.6-16.4s-.3-1-.6 0ZM195.2 21s-.7-4-.5-4.9c6-3.5 19.2-.5 10.7 11.7a51 51 0 0 1-7.7 7.3l7.8-.1c2.7-.1 2.6-3.3 3.5-3.4l-.8 4.7s0 1.4-1.6 1.3h-12.8s-1.1 0-.1-.8c1.6-1.5 10.6-8.4 10.3-15.7-.2-6.2-7.5-7.1-8.8-.2ZM13 31.5l1.2.9 3.5 3.2 3.4 3.5c.4.5.7.6 1 1.2l-2.7.7c-2 .7-3.8 1.8-5.5 1.2-.3 0-1.4-1.2-2-1.6l-1-.7c-1-.7-1.3-.2 0-3.5L12 34l1-2.5Zm25.2-19.7c.7.3 2.5 1.3 2.9 1.8.4.5.3.5.1 1.1l-.7 5.6c-1 0-.7 0-1.3-.5l-5.7-4.2-2.1-1.7c.1-.2 0 0 .3-.2l3.2-.7c1.7-.4 2-.5 3.3-1.2ZM9.5 13c.7-.4 1.1 0 2.3-1 .4-.2 1.1-.2 1.6-.1.5 0 1.6 1 2 1.3l2 1.5.6 1c.9.1.7 0 1.9.9l10.8 7.2 7.4 5 6.7 4.3c-.2.4-.4 1.9-.5 2.4-.6 2.7-1.4 3.8-2.5 6.3H37c-.6 0-.4.2-.7-.1l-3.7-4-1-1c-2.7-2.9-1.4-2-2-2.7l-5.4-5.2c-1.3-1.2-2.4-2.5-3.7-4l-.9-1-.2-.2-1.6-1.8c-.3-.2-.2-.2-.4-.5L16 19.8l-.8-1-1.4-1.5-.5-.5-1.9-2-2-1.9ZM16 5 4.8 5c-.6 2.2 0 1 0 3.4v4.2c0 1.3-.4 1.9-.4 3.5 0 .6-.1 1.8.2 2.3.4.7.4 1.4.6 2.5.2 1 .4.8 0 1.6l-.3 1.8 1 1V27c-.6.6 0 .2-1.2 1l.2 5L6 34 5.8 38c-1.3.9-1 2-1 3.1l.2 4.2-.3 2.2c2.8.7 2.2.5 5.4.5 2.9 0 2.5 0 5.3-.3v.4h1.4c1.2-.2.7-.3 1-.5l4.1.8.5-.5 1.6 2 1.1-1 2 .7.6-.5c.3.3.4.6.8.7.6 0 .7-1 2-1l7.7-.2.3-.3.4-.3c.5.3.7.6 1.4.5 2 0 1 .6 3.7.4.5 0 .4-.1.8-.3l.9-.1c-.2-.5-.3-.5-.7-.8l4.8 1V30h-1.3c.1-.3.7-.2.7-1v-5l-1.3-1.7c.3-.8.3-.7.8-1.4 0-.4-.1-.5-.3-1l1.4-.5v-5.2l-.5-5.6.5-1.4V5.8c-1.3-.7-1.1-.7-2-.7-.7 0-1.8 0-2.5-.2-1-.3-.7-.4-1.7.7l-.5-1-7.3-.6c-1.5 0-1.3.1-1.7 1.8L32 6l-.3-1h-1.9l.2-.2c.4-.3.3-.2.6-.8H23c-.2.5-.7.8-1.2 1-.8.2-.4-.2-.9.3-.3.3-.4.3-1 .3l-2.2-.1h-1c-.6-.2-.4-.3-.7-.7Z"
    fill="#656569" />
</svg>