<svg width="240" height="54" viewBox="0 0 240 54" fill="none" xmlns="http://www.w3.org/2000/svg">
  <path
    d="M13.7 17c1.4-.5 2.7-.7 4.2-.7h19v4H23.8c-1.1 0-1.7.2-1.7.8v4.5h14.8v4H22.1V39H11.5V19c0-.8.7-1.5 2.2-2Zm56 2.3L79.8 39H68.4L67 36.1H53.4L51.9 39H46l10.2-19.6c.5-.9 1.3-1.6 2.6-2.2 1.3-.6 2.6-1 4-1 1.5 0 2.9.4 4.2 1 1.3.5 2.2 1.2 2.6 2.1ZM55.4 32.2h9.4l-4.7-9-4.7 9ZM93 19.6a21 21 0 0 1 12-3.3h12.7v4H105c-2.2 0-3.7 1-4.5 2.8-.4 1-.6 2.5-.6 4.6 0 2 .2 3.5.6 4.5.8 1.9 2.3 2.8 4.5 2.8h12.7v4H105a21 21 0 0 1-12-3.3c-3.2-2.3-4.9-5-4.9-8 0-3.2 1.6-5.9 5-8Zm40.4-2.6c1.3-.5 2.7-.7 4-.7h19.1v4h-13c-1.2 0-1.8.2-1.8.8v4.5h14.8v4h-14.8v4.5c0 .6.6.9 1.7.9h13.1v4h-19c-1.4 0-2.8-.3-4.1-.7-1.5-.6-2.3-1.3-2.3-2.2V19c0-.9.8-1.6 2.3-2.1Zm41.1 21.9V26.4l11.4 4.7v7.7h-11.4Zm21.2-22.6h32.7v4h-9.3c-1.1 0-1.7.2-1.7.8V39h-10.6V21.1c0-.6-.6-.8-1.7-.8h-9.3v-4ZM186.1 7.2v18.6s-.2.2-.3.1l-23.4-9.1c-.2 0 0-.4.1-.4h17.3l6-9.3s.2-.1.2 0h.1Z"
    fill="#656569" />
</svg>