<svg width="168" height="54" viewBox="0 0 168 54" fill="none" xmlns="http://www.w3.org/2000/svg">
  <path
    d="M28.1 3A24 24 0 0 0 4 27 24 24 0 0 0 28 51a24 24 0 0 0 24.1-24A24 24 0 0 0 28.1 3Zm11 34.6c-.4.7-1.3 1-2 .5a27.9 27.9 0 0 0-21.2-2.3c-.8.2-1.6-.3-1.8-1.1-.2-.8.3-1.6 1.1-1.8 9.2-2.1 17.1-1.2 23.5 2.7.7.4.9 1.3.5 2Zm3-6.5c-.5.9-1.7 1.1-2.6.6-6.5-4-16.3-5.1-24-2.8-1 .3-2-.3-2.4-1.2-.3-1 .3-2 1.3-2.4a35.4 35.4 0 0 1 27.1 3.2c.9.5 1.2 1.7.6 2.6Zm.3-6.8c-7.8-4.6-20.6-5-28-2.8-1.3.4-2.5-.3-2.9-1.5-.3-1.2.3-2.4 1.5-2.8 8.6-2.6 22.7-2 31.7 3.2 1 .6 1.4 2 .8 3-.7 1.2-2 1.5-3.1.9Zm27.2.9c-4.1-1-4.9-1.7-4.9-3.2 0-1.4 1.3-2.3 3.3-2.3 1.8 0 3.7.7 5.6 2.2h.3l.1-.1 2-2.8c.2-.2.1-.3 0-.4-2.3-1.9-5-2.8-8-2.8-4.5 0-7.6 2.7-7.6 6.6 0 4 2.7 5.5 7.4 6.7 4 .9 4.6 1.6 4.6 3 0 1.5-1.3 2.5-3.5 2.5-2.5 0-4.4-.9-6.7-2.8H62l-2.3 2.8v.3c2.6 2.3 5.8 3.5 9.2 3.5 4.8 0 8-2.6 8-6.7 0-3.4-2.1-5.3-7.2-6.5ZM87.7 21c-2 0-3.8.8-5.2 2.5v-2s-.1-.2-.3-.2h-3.7c-.2 0-.3.1-.3.3v21c0 .2.1.3.3.3h3.7c.2 0 .3 0 .3-.2V36a6.7 6.7 0 0 0 5.2 2.4c4 0 7.9-3 7.9-8.7 0-5.7-4-8.7-7.9-8.7Zm3.6 8.7c0 2.9-1.8 5-4.4 5-2.6 0-4.5-2.2-4.5-5s2-5 4.5-5 4.4 2.1 4.4 5Zm14.4-8.7c-5 0-9 3.8-9 8.7 0 4.9 4 8.7 9 8.7s9-3.8 9-8.7c0-5-4-8.7-9-8.7Zm0 13.6c-2.7 0-4.7-2-4.7-5 0-2.8 2-4.8 4.7-4.8 2.6 0 4.7 2.1 4.7 5 0 2.8-2 4.8-4.7 4.8Zm19.7-13.3h-4.1v-4.2c0-.1-.1-.2-.3-.2h-3.7c-.2 0-.3 0-.3.2v4.2h-1.8c-.1 0-.3.1-.3.3v3.2l.3.2h1.8v8.3c0 3.3 1.7 5 5 5 1.3 0 2.4-.3 3.5-.8l.1-.3v-3l-.1-.3h-.3c-.7.4-1.4.6-2.2.6-1.2 0-1.7-.6-1.7-1.8v-7.7h4c.2 0 .4 0 .4-.2v-3.2c0-.2-.2-.3-.3-.3Zm14.3 0V21c0-1.5.6-2.2 1.9-2.2.8 0 1.4.2 2 .4h.3l.1-.2v-3.2s0-.2-.2-.2c-.7-.2-1.6-.5-3-.5-3.5 0-5.3 2-5.3 5.6v.8h-1.8c-.2 0-.3.1-.3.3v3.2c0 .1.1.2.3.2h1.8V38c0 .1.1.2.3.2h3.7c.1 0 .3 0 .3-.2V25h3.4l5.4 12.8c-.6 1.3-1.2 1.6-2 1.6-.7 0-1.4-.2-2-.6h-.3l-.2.1-1.2 2.8v.3c1.4.7 2.6 1 4 1 2.8 0 4.3-1.2 5.7-4.7l6.5-16.6v-.3h-4.2l-.2.1-4 11.3-4.4-11.3-.2-.2h-6.4Zm-8.3 0h-3.7c-.2 0-.3.1-.3.3v16.2c0 .1.1.2.3.2h3.7c.2 0 .3 0 .3-.2V21.7c0-.2-.1-.3-.3-.3Zm-1.8-7.4a2.7 2.7 0 0 0-2.7 2.7 2.7 2.7 0 0 0 5.3 0c0-1.5-1.2-2.7-2.6-2.7Zm32.6 12.6a2.6 2.6 0 0 1-2.6-2.6 2.6 2.6 0 0 1 5.3 0c0 1.4-1.2 2.6-2.7 2.6Zm0-5c-1.3 0-2.3 1.1-2.3 2.4 0 1.3 1 2.4 2.3 2.4 1.4 0 2.4-1.1 2.4-2.4 0-1.3-1-2.4-2.3-2.4Zm.6 2.7.8 1h-.6l-.7-1h-.6v1h-.5v-2.8h1.2c.7 0 1 .4 1 1 0 .4-.2.6-.6.8Zm-.4-1.3h-.7v.9h.7c.3 0 .5-.2.5-.4 0-.3-.2-.5-.5-.5Z"
    fill="#656569" />
</svg>