<svg width="22" height="22" viewBox="0 0 22 22" fill="none" xmlns="http://www.w3.org/2000/svg">
  <path
    d="M14.5 6.5L18 3M20 1L18 3L20 1ZM10.39 10.61C10.9063 11.1195 11.3168 11.726 11.5978 12.3948C11.8787 13.0635 12.0246 13.7813 12.027 14.5066C12.0295 15.232 11.8884 15.9507 11.6119 16.6213C11.3354 17.2919 10.9291 17.9012 10.4161 18.4141C9.90323 18.9271 9.29392 19.3334 8.6233 19.6099C7.95268 19.8864 7.234 20.0275 6.50863 20.025C5.78327 20.0226 5.06554 19.8767 4.39679 19.5958C3.72804 19.3148 3.12147 18.9043 2.612 18.388C1.61013 17.3507 1.05576 15.9614 1.06829 14.5193C1.08082 13.0772 1.65925 11.6977 2.679 10.678C3.69874 9.65825 5.07821 9.07982 6.52029 9.06729C7.96238 9.05476 9.35169 9.60913 10.389 10.611L10.39 10.61ZM10.39 10.61L14.5 6.5L10.39 10.61ZM14.5 6.5L17.5 9.5L21 6L18 3L14.5 6.5Z"
    stroke="#A9A9A9"
    stroke-width="2"
    stroke-linecap="round"
    stroke-linejoin="round"
  />
</svg>