<svg width="224" height="224" viewBox="0 0 224 224" fill="none" xmlns="http://www.w3.org/2000/svg">
	<rect width="224" height="224" rx="55.1385" fill="#80F5D2"/>
	<path fill-rule="evenodd" clip-rule="evenodd" d="M66.1924 120.992C66.1924 105.311 66.1924 97.4702 69.2443 91.4807C71.9287 86.2122 76.2122 81.9287 81.4807 79.2443C87.4702 76.1924 95.311 76.1924 110.992 76.1924H133.392C149.074 76.1924 156.915 76.1924 162.904 79.2443C168.173 81.9287 172.456 86.2122 175.141 91.4807C178.192 97.4702 178.192 105.311 178.192 120.992V127.392C178.192 143.074 178.192 150.915 175.141 156.904C172.456 162.173 168.173 166.456 162.904 169.141C156.915 172.192 149.074 172.192 133.392 172.192H91.7924C82.8316 172.192 78.3512 172.192 74.9286 170.449C71.918 168.915 69.4703 166.467 67.9363 163.456C66.1924 160.034 66.1924 155.553 66.1924 146.592V120.992ZM106.192 124.192C106.192 119.774 109.774 116.192 114.192 116.192C118.611 116.192 122.192 119.774 122.192 124.192V140.192C122.192 144.611 118.611 148.192 114.192 148.192C109.774 148.192 106.192 144.611 106.192 140.192V124.192ZM146.192 116.192C141.774 116.192 138.192 119.774 138.192 124.192V140.192C138.192 144.611 141.774 148.192 146.192 148.192C150.611 148.192 154.192 144.611 154.192 140.192V124.192C154.192 119.774 150.611 116.192 146.192 116.192Z" fill="#09161D"/>
	<path fill-rule="evenodd" clip-rule="evenodd" d="M94.1313 52.0136C94.6765 56.3981 91.5642 60.3944 87.1797 60.9397C84.7628 61.2402 82.8211 61.6491 81.1023 62.1847C67.297 66.4866 56.4866 77.297 52.1847 91.1023C51.6491 92.8211 51.2402 94.7628 50.9397 97.1797C50.3944 101.564 46.3981 104.677 42.0136 104.131C37.6291 103.586 34.5167 99.5897 35.062 95.2052C35.4536 92.0563 36.0331 89.1536 36.9092 86.3423C42.7754 67.5169 57.5169 52.7754 76.3423 46.9092C79.1536 46.0331 82.0563 45.4536 85.2052 45.062C89.5897 44.5167 93.586 47.6291 94.1313 52.0136Z" fill="#09161D"/>
</svg>
