<svg xmlns="http://www.w3.org/2000/svg" viewBox="0 0 24 24"><path fill="currentColor" d="M13.1 14.4h-1.6l-.2-.1a.3.3 0 0 1 0-.2v-1.4c0-.2.2-.3.4-.3h1.5l.3.1v1.6c0 .2-.2.3-.4.3Zm.3-2.8h-1.6a.3.3 0 0 1-.3-.1v-.2l.4-4.7v-.2h2c.2 0 .3 0 .3.2l-.4 4.8a.3.3 0 0 1-.3.2Zm9.4-5.5-4.2-4.8A1 1 0 0 0 18 1H5.5a1 1 0 0 0-1 .9L3 18.6a1 1 0 0 0 .6 1h2.8L6 24l4.8-4.4h5.5c.2 0 .5 0 .7-.2l5-5c.2 0 .4-.3.4-.5l.6-7a1 1 0 0 0-.2-.8ZM19 12.5c0 .3-.1.5-.3.6l-3 2.8a1 1 0 0 1-.7.3H7.8a1 1 0 0 1-1-.7v-.4l1-9.8c0-.2 0-.4.2-.6l.7-.2H16c.3 0 .6 0 .8.3L19 7.5c.2.2.3.4.3.7l-.4 4.3Z"/></svg>
