<svg xmlns="http://www.w3.org/2000/svg" fill="currentColor" viewBox="0 0 72 39"><path fill-rule="evenodd" d="M61.5374 13.1314c.266 2.0522 2.0142 3.6483 4.1423 3.6483 1.14 0 2.2041-.4561 2.9641-1.2541.6081-.608 1.3681.19.9501.684-.9881 1.1021-2.3941 1.7101-3.9142 1.7101-2.9262 0-5.3203-2.3941-5.3203-5.3583s2.3941-5.3583 5.3203-5.3583C68.6058 7.2031 71 9.5973 71 12.5614c-.076.38-.304.57-.6841.57h-8.7785Zm-2.5841-5.9283c.38 0 .684.304.684.684 0 .38-.304.684-.684.684h-2.0141v6.1564c0 1.0641.836 2.1282 1.9001 2.1282h.114c.38 0 .684.304.684.684 0 .38-.304.684-.684.684h-.114c-1.9001 0-3.4202-1.5581-3.4202-3.4582V4.695c0-.418.342-.76.76-.76.4181 0 .7601.342.7601.76V7.203h2.0141ZM30.4897 18.4898c-.6841 0-1.3301-.5701-1.3301-1.2541v-5.2443c0-2.9642 2.3941-5.3583 5.3203-5.3583 2.9262 0 5.3203 2.3941 5.3203 5.3583v5.2823c0 .684-.646 1.2541-1.3301 1.2541-.684 0-1.3301-.5701-1.3301-1.2541v-5.2823c0-1.7101-.988-3.0782-2.6601-3.0782s-2.6602 1.3681-2.6602 3.0782v5.2823c0 .684-.646 1.2161-1.33 1.2161Zm-8.9305.19c-3.3442 0-6.0804-2.7362-6.0804-6.1564 0-3.3822 2.7362-6.1563 6.0804-6.1563 3.3441 0 6.0803 2.7361 6.0803 6.1563s-2.7362 6.1564-6.0803 6.1564ZM51.2389 7.9631c0-.532.418-.95.95-.95s.9501.418.9501.95v9.1966c0 .532-.4181.95-.9501.95-.532 0-.95-.418-.95-.95v-.6841c-1.0261 1.1401-2.5462 1.8241-4.1803 1.8241-3.1542 0-5.7003-2.5841-5.7003-5.7383 0-3.1922 2.5461-5.7383 5.7003-5.7383 1.6341 0 3.1162.684 4.1803 1.824v-.684ZM10.8805 2.1868c0-.836.6841-1.52 1.5201-1.52.8361 0 1.5201.684 1.5201 1.52v14.9729c0 .836-.684 1.5201-1.5201 1.5201-.646 0-1.216-.4181-1.444-1.0261-1.0261.76-2.3182 1.2161-3.6863 1.2161C3.8121 18.9078 1 16.0576 1 12.5614S3.812 6.2151 7.2703 6.2151c1.3301 0 2.5842.418 3.6102 1.14V2.1868ZM7.4604 15.8296c1.786 0 3.2301-1.4441 3.2301-3.2682 0-1.7861-1.444-3.2682-3.2301-3.2682-1.7861 0-3.2302 1.4441-3.2302 3.2682 0 1.7861 1.444 3.2682 3.2302 3.2682Zm17.3289-3.2682c0 1.9001-1.33 3.4582-3.2301 3.4582-1.9002 0-3.2302-1.5581-3.2302-3.4582 0-1.9001 1.33-3.4582 3.2302-3.4582 1.9001 0 3.2301 1.5581 3.2301 3.4582Zm22.3453 3.8382c2.0901 0 3.8002-1.7101 3.8002-3.8382s-1.7101-3.8382-3.8002-3.8382c-2.0901 0-3.8002 1.7101-3.8002 3.8382s1.7101 3.8382 3.8002 3.8382Zm18.5451-8.0564c2.1281 0 3.8762 1.596 4.1422 3.6482h-8.2845c.266-2.0521 2.0142-3.6482 4.1423-3.6482ZM18.7158 38.4398c-.5602 0-1.0004-.4402-1.0004-1.0004v-7.0826c0-2.1208 1.7206-3.8414 3.8014-3.8414h.3201c.4802 0 .9204.4001.9204.9203s-.4002.9204-.9204.9204h-.3201c-1.0004 0-1.8007 1.0003-1.8007 2.0007v7.0826c0 .5602-.4401 1.0004-1.0003 1.0004Zm10.4438-2.0007c.9204 0 1.8007-.3202 2.4809-.9204 1.4406-1.2404 2.681.8003 1.7207 1.6806-1.1204 1.0404-2.641 1.6806-4.2016 1.6806-3.4412 0-6.2023-2.801-6.2023-6.2423 0-3.4412 2.7611-6.2423 6.2023-6.2423 3.3213 0 6.0022 2.601 6.2023 5.8822 0 .0048.0003.0118.0008.0207l.0004.0065.0005.0091c.0155.2582.0939 1.5643-1.5222 1.5643h-8.083c.4801 1.4405 1.7206 2.561 3.4012 2.561ZM5.1107 26.9555c1.3205 0 2.401.4402 3.4013 1.2405.6402.5202-.24 1.4005-.7203.9604-.6402-.5202-1.4805-1.0004-2.681-1.0004-1.6005 0-2.4008.9203-2.4008 1.8007 0 1.0826 1.3383 1.441 2.8277 1.8399 1.8685.5003 3.9748 1.0644 3.9748 3.2019 0 1.2805-.7603 3.2412-4.2016 3.2412-1.7606 0-3.2412-.7603-4.2416-2.1208-.36-.4401.5203-1.2804 1.0004-.6802.8003 1.0404 1.9207 1.6006 3.2812 1.6006 1.9608 0 3.0011-.8003 3.0011-2.0008 0-1.1971-1.3978-1.5556-2.926-1.9476-1.8433-.4727-3.8765-.9941-3.8765-3.0942-.04-1.7207 1.6406-3.0412 3.5613-3.0412Zm9.9237 0a.7173.7173 0 0 1 .7203.7203.7173.7173 0 0 1-.7203.7203h-2.1208v6.4824c0 1.1204.8804 2.2408 2.0008 2.2408h.12a.7173.7173 0 0 1 .7203.7203.7172.7172 0 0 1-.7203.7202h-.12c-2.0008 0-3.6014-1.6406-3.6014-3.6413V24.3146c0-.4402.3602-.8003.8003-.8003.4402 0 .8003.3601.8003.8003v2.6409h2.1208Zm50.3786-1.0403c3.0811 0 5.6021 2.5209 5.6021 5.6421v5.642c0 .8804-.7203 1.6006-1.6006 1.6006s-1.6006-.7202-1.6006-1.6006v-5.8021c0-1.3205-1.0804-2.4409-2.4009-2.4409s-2.4009 1.0804-2.4009 2.4409v5.8421c0 .8804-.7203 1.6006-1.6006 1.6006s-1.6005-.7202-1.6005-1.6006v-5.8421c0-1.3205-1.0805-2.4409-2.4009-2.4409-1.3205 0-2.4009 1.0804-2.4009 2.4409v5.8421c0 .8804-.7203 1.6006-1.6006 1.6006-.8804 0-1.6006-.7202-1.6006-1.6006v-5.642c0-3.1212 2.5209-5.6421 5.6021-5.6421 1.5605 0 3.001.6402 4.0014 1.6806 1.0004-1.0404 2.4409-1.7206 4.0015-1.7206Zm-17.0463.4001c.7603 0 1.4005.6402 1.4005 1.4005v9.6836c0 .8003-.6402 1.4005-1.4005 1.4005-.7203 0-1.2804-.5202-1.4005-1.2404C45.8858 38.4398 44.4853 39 42.9647 39c-3.5213 0-6.4023-2.8811-6.4023-6.4824 0-3.5613 2.881-6.4824 6.4023-6.4824 1.5206 0 2.9211.5202 4.0015 1.4405.1201-.6002.7203-1.1604 1.4005-1.1604Zm-15.8058 5.0819c-.5202-1.5206-1.7207-2.641-3.4013-2.641s-2.9211 1.0804-3.4012 2.641h6.8025Zm14.2052 1.2004c0 2.0008-1.6006 3.6414-3.6013 3.6414-2.0008 0-3.6013-1.6406-3.6013-3.6414 0-2.0007 1.6005-3.6413 3.6013-3.6413 2.0007 0 3.6013 1.6406 3.6013 3.6413Z" clip-rule="evenodd"/></svg>
