<svg xmlns="http://www.w3.org/2000/svg" viewBox="0 0 20 20"><path fill="currentColor" d="M9.9996.0001a10 10 0 0 0-3.1667 19.5c.5.0833.6667-.25.6667-.5v-1.8333c-2.75.5833-3.3334-1.1667-3.3334-1.1667-.5-1.1667-1.1666-1.5-1.1666-1.5-.8334-.5833.0833-.5833.0833-.5833 1 0 1.5833 1 1.5833 1 .8334 1.5 2.3334 1.0833 2.8334.8333.1666-.6667.4166-1.0833.6666-1.3333-2.25-.25-4.5833-1.0834-4.5833-5 0-1 .4167-1.9167 1.0833-2.5834-.0833-.3333-.5-1.3333.0834-2.6666 0 0 .8333-.25 2.75 1a9.5833 9.5833 0 0 1 5 0c1.9166-1.25 2.75-1 2.75-1 .5833 1.3333.1666 2.4166.0833 2.6666.6667.6667 1.0833 1.5834 1.0833 2.6667 0 3.8333-2.4166 4.6667-4.5833 4.9167.3333.3333.6667.9166.6667 1.8333v2.75c0 .25.1666.5833.6666.5a10 10 0 0 0-3.1666-19.5Z"/></svg>
