<svg xmlns="http://www.w3.org/2000/svg" fill="currentColor" viewBox="0 0 20 20"><path d="M10 1.797c2.6719 0 2.9844.0156 4.0391.0625.9765.0468 1.5078.211 1.8593.3437.4688.1797.7969.3985 1.1485.75.3515.3516.5703.6797.75 1.1485a5.5323 5.5323 0 0 1 .3437 1.8593c.0469 1.0547.0547 1.3672.0547 4.0391 0 2.6719 0 2.9844-.0547 4.0391a5.5318 5.5318 0 0 1-.3437 1.8593c-.1797.4688-.3985.7969-.75 1.1485a3.1036 3.1036 0 0 1-1.1485.75 5.5318 5.5318 0 0 1-1.8593.3437c-1.0547.0469-1.3672.0547-4.0391.0547-2.6719 0-2.9844 0-4.039-.0547a5.5324 5.5324 0 0 1-1.8594-.3437c-.4688-.1797-.797-.3985-1.1485-.75a3.1023 3.1023 0 0 1-.75-1.1485 5.5306 5.5306 0 0 1-.3437-1.8593c-.0469-1.0547-.0547-1.3672-.0547-4.0391 0-2.6719 0-2.9844.0547-4.039.007-.635.1233-1.264.3437-1.8594.1797-.4688.3985-.797.75-1.1485.3516-.3515.6797-.5703 1.1485-.75a5.5313 5.5313 0 0 1 1.8593-.3437c1.0547-.047 1.3672-.0547 4.0391-.0547M10 0a70.9375 70.9375 0 0 0-4.125.0625 7.3438 7.3438 0 0 0-2.4219.4687 4.8984 4.8984 0 0 0-1.7734 1.1485A4.8985 4.8985 0 0 0 .5234 3.4532a7.3437 7.3437 0 0 0-.4687 2.4219C.0157 6.9532 0 7.2813 0 10c0 2.7187.0078 3.0547.0625 4.125a7.3442 7.3442 0 0 0 .4688 2.4219 4.899 4.899 0 0 0 1.1484 1.7734 4.899 4.899 0 0 0 1.7734 1.1563 7.3467 7.3467 0 0 0 2.4219.4687c1.0703.0469 1.4063.0547 4.125.0547 2.7188 0 3.0547-.0078 4.125-.0625a7.3446 7.3446 0 0 0 2.4219-.4688 4.8977 4.8977 0 0 0 1.7734-1.1484 4.8995 4.8995 0 0 0 1.1563-1.7734 7.3445 7.3445 0 0 0 .4687-2.4219c.0469-1.0703.0547-1.4063.0547-4.125a70.922 70.922 0 0 0-.0625-4.125 7.3466 7.3466 0 0 0-.4687-2.4219 4.8988 4.8988 0 0 0-1.1485-1.7734A4.8989 4.8989 0 0 0 16.5469.5235 7.3442 7.3442 0 0 0 14.125.0548 70.9382 70.9382 0 0 0 10 0Zm0 4.8672a5.1328 5.1328 0 1 0 0 10.2655 5.1328 5.1328 0 0 0 0-10.2655Zm0 8.4687a3.3368 3.3368 0 0 1-2.3589-.977 3.3367 3.3367 0 0 1-.977-2.3589A3.336 3.336 0 1 1 10 13.336Zm6.5391-8.6718a1.2044 1.2044 0 0 1-.3149.9126 1.2035 1.2035 0 0 1-1.3671.2863 1.2035 1.2035 0 0 1-.7165-1.199 1.2035 1.2035 0 0 1 1.1992-1.1062 1.203 1.203 0 0 1 1.1993 1.1063Z"/></svg>
