<svg xmlns="http://www.w3.org/2000/svg" viewBox="0 0 25 24"><path fill="currentColor" fill-rule="evenodd" d="M6 14.5c0-2.6 0-4 .5-5 .4-.8 1.2-1.5 2-2 1-.5 2.4-.5 5-.5h3.8c2.7 0 4 0 5 .5.9.5 1.6 1.2 2 2 .6 1 .6 2.4.6 5v1c0 2.6 0 4-.5 5-.5.8-1.2 1.5-2 2-1.1.5-2.4.5-5 .5h-7.1c-1.5 0-2.3 0-2.8-.3-.6-.2-1-.7-1.2-1.2C6 21 6 20.2 6 18.7v-4.2Zm6.7.5c0-.7.6-1.3 1.4-1.3.7 0 1.3.6 1.3 1.3v2.7c0 .7-.6 1.3-1.3 1.3-.8 0-1.4-.6-1.4-1.3V15Zm6.8-1.3c-.8 0-1.4.6-1.4 1.3v2.7c0 .7.6 1.3 1.4 1.3.7 0 1.3-.6 1.3-1.3V15c0-.7-.6-1.3-1.3-1.3ZM11 3.2c0 .7-.5 1.4-1.2 1.5l-1 .2a7.4 7.4 0 0 0-5.1 6 1.3 1.3 0 1 1-2.7-.4c0-.6.2-1 .3-1.5a10.1 10.1 0 0 1 8.1-7c.8 0 1.5.4 1.5 1.2Z" clip-rule="evenodd"/></svg>
