<svg xmlns="http://www.w3.org/2000/svg" viewBox="0 0 20 20"><path fill="currentColor" fill-rule="evenodd" d="M19.1777 2.6014 16.059 17.6026c-.0734.3542-.4888.5147-.7818.3017l-4.2573-3.0908a.7039.7039 0 0 0-.8583.024l-2.3604 1.9241c-.274.224-.6867.0992-.7916-.2382l-1.639-5.271L1.136 9.672c-.4301-.1611-.4338-.7684-.0049-.9336l17.3783-6.704c.3684-.1425.7485.1802.6682.567Zm-4.1563 2.713-8.2757 5.0969a.8334.8334 0 0 0-.3642.9374l.8948 3.144c.0636.2227.3868.2.4178-.0302l.2326-1.7241a1.416 1.416 0 0 1 .4388-.8472l6.8297-6.3486c.1279-.1184-.0252-.3195-.1738-.2282Z" clip-rule="evenodd"/></svg>
