<svg width="27" height="26" viewBox="0 0 27 26" fill="none" xmlns="http://www.w3.org/2000/svg">
<path fill-rule="evenodd" clip-rule="evenodd" d="M5.69985 14.9997L10.8332 20.555L6.06652 21.6663L3.49985 19.4443L5.69985 14.9997ZM19.2479 4.33301L21.4999 5.57101L20.7492 9.66634L15.4945 6.23767L19.2479 4.33301ZM5.24985 4.33301C5.49985 4.33301 5.70052 4.34367 5.99985 4.58301C6.41652 4.91634 7.95319 6.00434 7.95319 6.00434L8.23185 6.49967C8.73919 6.52501 8.75185 6.57101 9.39252 7.04167L23.4999 16.611C23.3912 16.8463 21.7139 21.6663 21.7139 21.6663H19.1245L3.49985 5.16634C3.49985 5.16634 3.75452 5.07101 3.99985 4.91634C4.38452 4.67434 4.86852 4.33301 5.24985 4.33301ZM7.16652 0.999674H1.49985C1.14785 1.17567 0.833185 1.37967 0.833185 2.08301V6.66634V8.08301L1.49185 9.91501L0.833185 10.833V11.583L1.49985 12.083V12.9997L0.833185 13.6663V16.1663L1.49985 16.583V19.333C0.803852 19.8283 0.833185 20.4163 0.833185 21.0923V24.2497C2.39252 24.639 2.13385 24.9997 3.91652 24.9997C5.49185 24.9997 6.49985 24.9997 6.49985 24.9997C6.74119 24.9843 6.92919 24.9337 7.16652 24.911C7.82919 24.847 8.24985 24.333 8.24985 24.333L9.99985 24.9997L10.6665 24.333C10.6665 24.333 11.5405 25.415 11.7499 25.6663L12.3332 24.9997L14.1665 25.6663C14.1665 25.6663 14.8465 25.0137 15.5832 24.9997H19.1665C19.2212 24.947 19.8332 24.333 19.8332 24.333C20.1139 24.501 19.8659 24.9997 22.4165 24.9997C23.1205 24.9997 23.7499 24.833 23.7499 24.833C23.6419 24.473 23.6299 24.5463 23.4165 24.333C23.4165 24.333 25.0832 24.333 26.1665 24.9997V14.671L24.8332 15.083C24.8592 14.8717 25.4752 14.591 25.4999 14.1663C25.5312 13.631 25.4705 11.7757 25.3925 11.3837C25.3525 11.1837 24.9705 10.5977 24.8332 10.4163C24.9965 9.97567 25.4999 9.66634 25.4999 9.66634V9.16634L26.1665 8.77767V5.96301L25.4999 3.16634L26.1665 2.44434V1.64701L25.4625 1.03701L23.1759 0.659008L22.6479 1.03701L22.3839 0.597008C22.3839 0.597008 18.9279 0.334341 18.3012 0.334341C17.4992 0.334341 17.6159 0.394341 17.3445 1.29767L16.1939 1.41501L16.0832 0.999674H14.9165L15.1085 0.788341C15.3125 0.595675 15.2412 0.673008 15.4005 0.333008H11.3885C11.3259 0.447674 11.0965 0.707675 10.9159 0.999674C10.9159 0.999674 10.5639 0.996341 10.2999 1.17234C10.0359 1.34834 10.0372 1.66634 9.68519 1.66634C9.33319 1.66634 8.60319 1.66634 8.18985 1.66634C7.30985 1.66634 7.16652 0.999674 7.16652 0.999674Z" fill="#F44336"/>
</svg>
