<svg width="33" height="32" viewBox="0 0 33 32" fill="none" xmlns="http://www.w3.org/2000/svg">
<path d="M28.7779 6.49558C28.7779 6.39796 28.6746 6.29492 28.6746 6.29492C28.5767 6.29492 28.5767 6.29492 28.4734 6.39796C26.4349 9.54888 24.2985 12.6998 22.2599 15.9537H4.52716C4.32602 15.9537 4.22274 16.2574 4.42931 16.3605C11.7627 19.0992 22.461 23.2643 28.3701 25.6017C28.5713 25.7048 28.7779 25.4987 28.7779 25.4011V6.49558Z" fill="#FD5A00"/>
<path d="M28.7777 6.49558C28.7777 6.39796 28.6744 6.29492 28.6744 6.29492C28.5766 6.29492 28.5766 6.29492 28.4733 6.39796C26.4347 9.54888 24.2983 12.6998 22.2598 15.9537L28.7777 16.0204V6.49558Z" fill="#FF690A"/>
</svg>
