<svg width="33" height="32" viewBox="0 0 33 32" fill="none" xmlns="http://www.w3.org/2000/svg">
<g clip-path="url(#clip0_1066_3080)">
<path fill-rule="evenodd" clip-rule="evenodd" d="M32.4999 16.0002C32.4999 24.8368 25.3361 32.0004 16.4998 32.0004C7.6631 32.0004 0.5 24.8368 0.5 16.0002C0.5 7.16329 7.6631 0 16.4998 0C25.3361 0 32.4999 7.16329 32.4999 16.0002Z" fill="#D9001C"/>
<path fill-rule="evenodd" clip-rule="evenodd" d="M16.3026 18.2959C16.5834 18.9589 16.8299 19.5648 17.0994 20.1608C17.1718 20.321 17.0651 20.3762 16.9957 20.4535C15.8266 21.7621 14.3648 22.5206 12.6205 22.6742C9.33311 22.9633 6.3979 20.8724 5.57828 17.694C4.4009 13.1303 8.32453 8.77743 12.9749 9.47417C15.4632 9.84649 17.145 11.2429 18.15 13.5006C18.9342 15.2631 19.6861 17.0398 20.4559 18.8086C20.5487 19.022 20.6544 19.2308 20.7671 19.4347C21.5916 20.9309 23.6005 21.3752 24.9933 20.3716C25.2913 20.1568 25.5252 19.8869 25.6847 19.5539C26.1555 18.5734 25.8327 17.6193 24.8555 17.1571C24.068 16.7845 23.2137 16.5872 22.4116 16.2516C21.9216 16.0461 21.4443 15.8191 21.0006 15.5228C19.9494 14.8198 19.5461 13.8115 19.6462 12.5888C19.7509 11.3126 20.3492 10.349 21.5665 9.85805C22.9636 9.29445 25.0719 9.31823 26.2516 11.1557C26.4039 11.3923 26.4032 11.5191 26.1324 11.6371C25.8407 11.7636 25.5536 11.9063 25.283 12.0715C25.0888 12.1898 24.9883 12.1656 24.8456 11.9846C24.2949 11.2859 23.5652 11.0295 22.696 11.2089C21.9501 11.3625 21.4658 11.9007 21.3666 12.6476C21.2722 13.3596 21.5777 13.9126 22.2817 14.2714C22.9087 14.5912 23.5946 14.7527 24.2573 14.9761C24.7399 15.1386 25.2196 15.3064 25.6775 15.5324C27.6018 16.4815 28.2708 18.6259 27.2235 20.5103C26.6844 21.4806 25.8473 22.0938 24.7971 22.3914C23.328 22.8077 21.8955 22.7449 20.5811 21.8741C19.881 21.4106 19.3971 20.7452 19.0555 19.995C18.2302 18.1813 17.4192 16.3609 16.636 14.5287C16.2131 13.541 15.6667 12.6747 14.7615 12.0579C13.1547 10.9631 10.9542 10.9516 9.32782 12.047C7.69124 13.1488 6.8713 15.1597 7.28887 17.0464C7.72725 19.0296 9.2938 20.5262 11.2502 20.8314C13.2125 21.1377 15.1427 20.2351 16.1682 18.5314C16.2005 18.4776 16.2306 18.4221 16.3026 18.2959Z" fill="#FDFDFD"/>
</g>
<defs>
<clipPath id="clip0_1066_3080">
<rect width="32" height="32" fill="white" transform="translate(0.5)"/>
</clipPath>
</defs>
</svg>
