<svg width="33" height="32" viewBox="0 0 33 32" fill="none" xmlns="http://www.w3.org/2000/svg">
<rect x="0.5" width="32" height="32" rx="16" fill="#1ED760"/>
<path d="M23.8534 23.0738C23.567 23.5513 22.9558 23.685 22.4784 23.3985C18.7162 21.1068 13.9991 20.5912 8.42263 21.8516C7.8879 21.9662 7.35317 21.6415 7.23858 21.1068C7.124 20.5721 7.44865 20.0373 7.98338 19.9228C14.0755 18.5286 19.3082 19.1207 23.5097 21.6988C23.9871 21.9853 24.1399 22.5964 23.8534 23.0738ZM25.8014 18.7196C25.4385 19.3116 24.6746 19.4835 24.0826 19.1398C19.7857 16.4852 13.2352 15.7213 8.15526 17.2682C7.48685 17.4592 6.79934 17.0963 6.60836 16.447C6.41739 15.7786 6.78024 15.0911 7.44865 14.9001C13.2543 13.1431 20.4732 13.9834 25.4194 17.0199C25.9733 17.3637 26.1642 18.1276 25.8014 18.7196ZM25.9733 14.1744C20.8169 11.1188 12.3185 10.8323 7.39136 12.3219C6.60836 12.5702 5.76807 12.131 5.5198 11.3289C5.27154 10.5459 5.72988 9.70558 6.51288 9.45731C12.1657 7.73853 21.5617 8.08229 27.482 11.5962C28.1886 12.0164 28.4177 12.9331 27.9976 13.6397C27.5965 14.3654 26.6799 14.6136 25.9733 14.1744Z" fill="#1C1C1E"/>
</svg>
