<svg width="33" height="32" viewBox="0 0 33 32" fill="none" xmlns="http://www.w3.org/2000/svg">
<path d="M0.5 15.36C0.5 8.11923 0.5 4.49884 2.74942 2.24942C4.99884 0 8.61923 0 15.86 0H17.14C24.3808 0 28.0012 0 30.2506 2.24942C32.5 4.49884 32.5 8.11923 32.5 15.36V16.64C32.5 23.8808 32.5 27.5012 30.2506 29.7506C28.0012 32 24.3808 32 17.14 32H15.86C8.61923 32 4.99884 32 2.74942 29.7506C0.5 27.5012 0.5 23.8808 0.5 16.64V15.36Z" fill="#0077FF"/>
<path d="M17.5832 23.1331C10.3766 23.1331 6.00432 18.1239 5.83301 9.7998H9.48295C9.59673 15.9144 12.3735 18.5055 14.5021 19.0384V9.7998H17.9999V15.0768C20.0531 14.8488 22.2022 12.4485 22.9245 9.7998H26.3673C25.8163 13.0569 23.4768 15.4572 21.8237 16.4473C23.478 17.2478 26.1398 19.3432 27.1663 23.1331H23.3822C22.5831 20.5997 20.6258 18.6375 18.0012 18.371V23.1331H17.5832Z" fill="white"/>
</svg>
